<?xml version="1.0" encoding="UTF-8"?>
<svg version="1.1" xmlns="http://www.w3.org/2000/svg" width="1254" height="1254">
<path d="M0 0 C413.82 0 827.64 0 1254 0 C1254 413.82 1254 827.64 1254 1254 C840.18 1254 426.36 1254 0 1254 C0 840.18 0 426.36 0 0 Z " fill="#F9F9F9" transform="translate(0,0)"/>
<path d="M0 0 C0.70640625 -0.02835938 1.4128125 -0.05671875 2.140625 -0.0859375 C9.18807022 1.15897049 14.38594043 5.45712111 19.5 10.1875 C81.01643815 65.12665944 162.48244173 95.93090524 243.81640625 104.5 C244.6376297 104.58684052 245.45885315 104.67368103 246.30496216 104.76315308 C250.25547202 105.17446524 254.20644182 105.55940092 258.16308594 105.90673828 C259.59441022 106.04450102 261.02572579 106.18235434 262.45703125 106.3203125 C263.6994458 106.42875488 264.94186035 106.53719727 266.22192383 106.64892578 C271.52411103 107.74011011 275.35367933 109.90518877 279.125 113.875 C281.99037498 118.2832692 281.88234492 122.17703947 281.91062927 127.37997437 C281.91571709 128.08597546 281.92080491 128.79197656 281.92604691 129.51937163 C281.94174946 131.88709872 281.95029209 134.25479529 281.95874023 136.62255859 C281.96828363 138.32189118 281.978175 140.02122184 281.98838806 141.72055054 C282.01982621 147.32148934 282.04009923 152.92244291 282.05859375 158.5234375 C282.06189107 159.48313965 282.06518839 160.44284181 282.06858563 161.43162584 C282.09945716 170.53021112 282.12610691 179.62880007 282.14300442 188.72742271 C282.16273961 199.22519088 282.19370958 209.72261315 282.25756836 220.22021484 C282.79717614 310.7761028 282.79717614 310.7761028 275.75 346.375 C275.38226219 348.28290565 275.38226219 348.28290565 275.00709534 350.22935486 C273.59658366 357.40349376 271.87832996 364.37975182 269.75 371.375 C269.37246582 372.6242627 268.99493164 373.87352539 268.60595703 375.16064453 C256.61407556 414.39074557 239.11928633 451.93115248 213.75 484.375 C212.97269531 485.40625 212.19539063 486.4375 211.39453125 487.5 C202.47606852 499.33112436 192.72435681 510.42711863 182.75 521.375 C181.84331465 522.38632861 180.93708683 523.39806755 180.03125 524.41015625 C175.46941857 529.48147868 170.8798537 534.34139567 165.64453125 538.734375 C163.57591345 540.52575536 161.66793683 542.42354583 159.75 544.375 C155.91407517 548.25535639 151.89391552 551.82889524 147.75 555.375 C146.68437672 556.30409243 145.61931821 557.23383286 144.5546875 558.1640625 C137.74037216 564.09527001 130.82059258 569.75600301 123.51416016 575.07910156 C121.49071668 576.56546164 119.48568402 578.07508034 117.48046875 579.5859375 C28.08493687 646.67017915 28.08493687 646.67017915 -3.25 642.375 C-12.99168691 639.47484519 -22.14105968 635.28426337 -31.25 630.8125 C-32.18477173 630.35654953 -32.18477173 630.35654953 -33.13842773 629.89138794 C-69.5561777 612.11905877 -104.26155149 590.5887933 -135.25 564.375 C-136.24773437 563.55 -137.24546875 562.725 -138.2734375 561.875 C-145.67721077 555.72763834 -152.74046795 549.26785068 -159.73828125 542.6640625 C-162.64825186 539.92241142 -165.61969921 537.26220968 -168.625 534.625 C-172.63783287 531.03387699 -176.22994711 527.2080674 -179.77734375 523.16015625 C-181.59601687 521.11163502 -183.4321942 519.10743741 -185.31640625 517.12109375 C-192.35744571 509.69250304 -198.85041511 502.03683988 -205.0625 493.90478516 C-206.67461617 491.82799241 -208.37357009 489.82704987 -210.0625 487.8125 C-220.33265335 474.99062477 -229.07952744 460.67784078 -237.125 446.37402344 C-237.85518246 445.07655512 -238.59180463 443.78268208 -239.3359375 442.49316406 C-253.02886668 418.69295412 -262.05260899 392.75625167 -269.25 366.375 C-269.51248535 365.446875 -269.7749707 364.51875 -270.04541016 363.5625 C-277.05422299 338.75990408 -279.38840903 313.32505803 -279.42700195 287.64477539 C-279.4332808 285.79054644 -279.43992881 283.93631871 -279.44691467 282.08209229 C-279.46775895 276.0456222 -279.47828686 270.00915238 -279.48828125 263.97265625 C-279.49233381 261.8860466 -279.49645087 259.79943708 -279.50063133 257.71282768 C-279.51962638 247.92154437 -279.53387866 238.13026839 -279.5422433 228.33897024 C-279.55204577 217.05444152 -279.57846716 205.77010736 -279.61874419 194.48564726 C-279.64887585 185.74311153 -279.66370869 177.0006318 -279.66702431 168.25804514 C-279.6693747 163.04329549 -279.67833679 157.82875513 -279.70348549 152.61406136 C-279.72672472 147.71784019 -279.73101623 142.82196693 -279.72072411 137.92570496 C-279.72022791 136.13020102 -279.72657285 134.33468012 -279.74028015 132.53922844 C-279.7579541 130.08714043 -279.75091641 127.63630797 -279.73774719 125.18421936 C-279.74871644 124.47517474 -279.75968568 123.76613011 -279.77098733 123.03559929 C-279.70621425 118.03627909 -278.35877046 115.23741095 -275.25 111.375 C-270.43845634 107.26246464 -266.21222738 106.58753793 -260.13671875 106.03125 C-259.25745728 105.9367305 -258.3781958 105.842211 -257.47229004 105.74482727 C-255.59687007 105.54450095 -253.72067598 105.35131319 -251.84384155 105.16470337 C-246.97550513 104.67942886 -242.11317561 104.13960455 -237.25 103.60546875 C-236.29506149 103.50191574 -235.34012299 103.39836273 -234.35624695 103.29167175 C-226.68223598 102.45027827 -219.05907765 101.42422887 -211.4375 100.1875 C-210.46321045 100.0328125 -209.4889209 99.878125 -208.48510742 99.71875 C-203.88369948 98.95094456 -199.66990622 97.89192609 -195.25 96.375 C-192.3886147 95.72287712 -189.50596391 95.18323151 -186.625 94.625 C-177.00814474 92.68748651 -167.7327316 89.93602426 -158.375 87.01953125 C-155.68597686 86.2039268 -152.97395814 85.501317 -150.25 84.8125 C-145.55846965 83.5546783 -141.20268808 81.79038769 -136.75 79.859375 C-134.19709403 78.77666934 -131.65230588 77.75077598 -129.0625 76.765625 C-88.6987301 61.32076151 -52.37344685 39.02760728 -19.25 11.375 C-17.27381597 9.72558655 -15.29466755 8.07971797 -13.3125 6.4375 C-12.43722656 5.70660156 -11.56195312 4.97570312 -10.66015625 4.22265625 C-7.12446488 1.51215055 -4.4874298 0.08070917 0 0 Z " fill="#0F2A4E" transform="translate(626.25,198.625)"/>
<path d="M0 0 C14.70718985 10.56490878 18.83311244 25.53571955 23.5 42.125 C24.0676362 44.09711017 24.63649225 46.06886961 25.20654297 48.0402832 C28.56990063 59.72233583 31.84713739 71.43249815 34.90820312 83.19775391 C36.86228209 90.70199649 39.2096476 97.99133696 41.9375 105.25 C43.8333165 110.41646175 45.46565889 115.6410341 47.05078125 120.91015625 C48.1046002 124.3404887 49.26646975 127.72250394 50.484375 131.09765625 C51 133 51 133 51 137 C51.58265625 136.60167969 52.1653125 136.20335937 52.765625 135.79296875 C62.29002777 129.63804809 72.61980556 126.61064842 84 128 C95.72882101 130.54100529 105.89869638 135.20582289 114.12890625 144.015625 C115.88120159 145.8740092 117.68421659 147.52983298 119.625 149.1875 C122.82602871 151.93573093 125.91837759 154.77924742 128.99267578 157.66699219 C135.45342256 163.73076794 142.03313935 169.51657736 149 175 C149.6388916 175.50611816 150.2777832 176.01223633 150.93603516 176.53369141 C159.99759251 183.70385004 169.19079567 190.64523097 178.58227539 197.37695312 C188.84737191 204.74224742 198.80733507 212.30344715 208 221 C208.89460938 221.83015625 209.78921875 222.6603125 210.7109375 223.515625 C222.1784128 234.50127361 232.17004137 248.1601053 238 263 C238.29585778 263.70017368 238.59171556 264.40034737 238.89653873 265.12173843 C247.56067677 285.9062454 248.89966389 307.09861405 248.70715833 329.30486774 C248.68022966 333.08422682 248.68609963 336.86356985 248.6872406 340.64300537 C248.68446207 346.95946344 248.65880783 353.27547963 248.61743164 359.59179688 C248.56987684 366.87797653 248.55445305 374.16367932 248.5566383 381.45000291 C248.55866494 389.26610795 248.53789081 397.08203164 248.51029849 404.89808178 C248.50392754 407.13315464 248.50177841 409.36819802 248.50058174 411.60327911 C248.49700337 415.7569059 248.46785742 419.90997212 248.43579102 424.06347656 C248.43715057 425.29145966 248.43851013 426.51944275 248.43991089 427.78463745 C248.35832908 435.001272 247.84398779 439.82142541 242.875 445.375 C238.84378382 447.65351349 235.52093829 448.04151309 231 447 C227.07851626 444.67480797 224.45203571 442.35610714 223 438 C222.90599007 436.17567859 222.87101449 434.34808762 222.86869812 432.52134705 C222.86268585 430.81245049 222.86268585 430.81245049 222.85655212 429.06903076 C222.85708084 427.81769348 222.85760956 426.5663562 222.8581543 425.27709961 C222.85282014 423.25436416 222.84748 421.23162873 222.84191763 419.2088939 C222.8367177 417.03124454 222.8338057 414.85360124 222.83133507 412.67594719 C222.82540981 408.12145597 222.80884962 403.56704233 222.78999329 399.0125885 C222.78365523 397.45012956 222.77732961 395.88767057 222.77101612 394.32521152 C222.76785031 393.54246235 222.7646845 392.75971318 222.76142275 391.95324433 C222.71947075 381.3532026 222.68644829 370.75319525 222.67407227 360.15307617 C222.66563663 353.00133194 222.64293672 345.84977849 222.6047166 338.69812971 C222.58512278 334.92150397 222.57249453 331.14516232 222.57755089 327.36848259 C222.61559428 292.15637794 215.96592325 265.51580949 190.70703125 239.5546875 C187.12073135 236.0134621 183.28273046 232.95139508 179.25 229.9375 C178.52047119 229.38586182 177.79094238 228.83422363 177.03930664 228.26586914 C169.95166838 222.9228803 162.79662146 217.6702417 155.64453125 212.4140625 C154.09630672 211.27610622 152.54812836 210.13808712 151 209 C150.2786084 208.46987305 149.5572168 207.93974609 148.81396484 207.39355469 C139.5728879 200.5870353 130.66066267 193.53153328 122 186 C121.28714844 185.38769531 120.57429687 184.77539062 119.83984375 184.14453125 C115.81252442 180.66300879 111.87024561 177.08767267 107.9375 173.5 C107.41551025 173.02409424 106.89352051 172.54818848 106.35571289 172.05786133 C103.59177031 169.52011928 100.94119892 166.92356552 98.375 164.1875 C92.48726522 158.18403579 85.20437599 154.02034852 76.75 153.625 C70.57378313 153.72658251 66.65556267 156.32510071 62.390625 160.62109375 C58.42277596 165.80381792 58.25754345 171.18209362 58.53515625 177.546875 C60.58443144 192.77006211 76.27877099 204.42703558 86.68863297 214.76379776 C88.55734745 216.61950259 90.42270326 218.47852967 92.287323 220.33834839 C96.23036112 224.27010327 100.17739827 228.19782788 104.125 232.125 C108.7388567 236.71520945 113.35103554 241.30708066 117.95907211 245.90313339 C119.79678145 247.7343644 121.63747209 249.56256225 123.478302 251.39065552 C124.59521855 252.50394278 125.71199675 253.61736886 126.82861328 254.73095703 C127.34072861 255.23790604 127.85284393 255.74485504 128.38047791 256.26716614 C131.80931209 259.69548059 133.15242597 261.47445413 133.25 266.3125 C133.19795712 270.3653396 132.64195673 272.79190969 130 276 C126.28629483 279.26549937 123.54716677 279.74947257 118.68824768 279.4861908 C115.715964 278.94862985 114.71057454 278.33924045 112.53491211 276.30688477 C111.8464621 275.66800323 111.15801208 275.0291217 110.44869995 274.37088013 C109.64062897 273.58848969 108.83255798 272.80609924 108 272 C107.5237682 271.54100689 107.04753639 271.08201378 106.55687332 270.60911179 C102.40078853 266.59555018 98.29249201 262.53448577 94.19140625 258.46484375 C93.53698988 257.81575106 92.88257351 257.16665836 92.20832634 256.49789619 C88.74530121 253.06145734 85.28586736 249.62144439 81.82885742 246.17895508 C78.99333887 243.35675645 76.15074144 240.54199894 73.30151367 237.73364258 C69.83147509 234.31334513 66.3742718 230.8805396 62.92548943 227.43881416 C61.6226361 226.14260141 60.31559112 224.85058554 59.00399971 223.56321526 C47.85474951 212.60823585 38.3766931 201.37052934 34 186 C33.81405273 185.36771484 33.62810547 184.73542969 33.43652344 184.08398438 C33 182 33 182 33.359375 178.3515625 C35.02851554 160.92254146 28.28763448 145.71965093 22.39454651 129.66993713 C20.12510564 123.4573321 18.16433939 117.1986378 16.4375 110.8125 C14.85479119 105.00449857 13.12510757 99.37477072 10.984375 93.7421875 C7.2139641 83.2389 4.51143774 72.30026911 1.5 61.5625 C1.04898926 59.96124268 1.04898926 59.96124268 0.58886719 58.32763672 C-0.77446382 53.46845206 -2.11368685 48.60862232 -3.34765625 43.71484375 C-6.774073 29.56794964 -6.774073 29.56794964 -16.625 19.4375 C-21.93643447 17.25402311 -27.38022252 17.02649524 -33 18 C-37.68731975 20.00688764 -40.92202627 22.356212 -43.7265625 26.6328125 C-45.36824246 30.97369633 -45.41018754 34.65158119 -45.3125 39.25 C-45.29558105 40.57499512 -45.29558105 40.57499512 -45.27832031 41.92675781 C-44.97402001 56.84815003 -42.52150953 71.38957527 -40 86.0703125 C-39.10851682 91.28682967 -38.31789312 96.5123563 -37.5625 101.75 C-35.68512138 114.55372219 -33.35205519 127.2763116 -31 140 C-30.77441406 141.22654297 -30.54882812 142.45308594 -30.31640625 143.71679688 C-18.48534197 215.05013442 -18.48534197 215.05013442 19 275 C19.87011719 275.89589844 20.74023438 276.79179688 21.63671875 277.71484375 C26.55986698 282.72846331 31.64297502 287.4573876 37 292 C39.25220731 293.91408598 41.5019958 295.83097942 43.75 297.75 C44.35118652 298.26312744 44.95237305 298.77625488 45.57177734 299.30493164 C50.59771883 303.614129 55.48138646 308.06290611 60.34375 312.5546875 C64.81507677 316.67093832 69.39591324 320.64539203 74.0390625 324.56640625 C81.32755639 330.73472504 88.39771425 337.08032681 95.31835938 343.66015625 C98.54440095 346.72306466 101.80351433 349.70541453 105.1875 352.59375 C119.75884008 365.26532728 127.50356232 384.02737354 129 403 C129.23742959 407.01922182 129.40766533 411.03933684 129.5625 415.0625 C129.60568359 416.11888672 129.64886719 417.17527344 129.69335938 418.26367188 C129.79837337 420.84234879 129.90052877 423.42110435 130 426 C147.33010288 435.25483876 164.63369939 443.94574426 183 451 C184.04849121 451.41056641 185.09698242 451.82113281 186.17724609 452.24414062 C244.33733831 474.84507782 309.01040829 483.34116585 371 477 C372.14645996 476.8870459 373.29291992 476.7740918 374.47412109 476.65771484 C408.5266261 473.17745472 441.88422287 465.83691203 474 454 C476.14308033 453.23773325 478.28761597 452.47985468 480.43334961 451.72509766 C490.80450101 447.88868733 500.81943944 443.36309738 511 439 C476.845 438.505 476.845 438.505 442 438 C441.67 439.32 441.34 440.64 441 442 C437.67628241 445.87767052 434.78701652 447.14861927 429.75 447.5625 C425.79982286 447.44183663 423.98567723 446.66116581 421.25675964 443.79826355 C416.6980479 438.20555521 417.03576454 432.62021866 417.1418457 425.6652832 C417.13726397 424.32872203 417.12965731 422.99216837 417.11927795 421.65563965 C417.10025593 418.04062792 417.12483125 414.427124 417.15851617 410.81226754 C417.18759168 407.00377812 417.17975996 403.19533928 417.17704773 399.38676453 C417.17803679 392.97853981 417.20640321 386.57089443 417.25219727 380.1628418 C417.30452085 372.80909589 417.31890153 365.4560765 417.3111642 358.10216457 C417.30417941 350.97941566 417.32029251 343.85690669 417.34792137 336.73421288 C417.35946935 333.72879191 417.36418132 330.72348439 417.36312294 327.71804237 C417.37458199 286.38108824 427.06247292 251.99599489 456.5 221.9375 C464.48818364 214.01689012 473.33681843 207.38079815 482.45654297 200.82910156 C486.61981442 197.83512674 490.74619969 194.79124237 494.875 191.75 C495.66173096 191.17209717 496.44846191 190.59419434 497.2590332 189.9987793 C504.29549071 184.81685765 511.18336431 179.46674248 518 174 C518.95132813 173.24332031 519.90265625 172.48664063 520.8828125 171.70703125 C527.31551881 166.52971064 533.42370285 161.045381 539.46630859 155.42480469 C543.95307704 151.25658109 548.47521773 147.12685815 553 143 C553.75410156 142.30519531 554.50820313 141.61039063 555.28515625 140.89453125 C564.71563433 132.37257707 574.1694771 128.46637844 586.875 128.5625 C587.80441406 128.54251953 588.73382812 128.52253906 589.69140625 128.50195312 C599.35400393 128.50869134 606.87621877 132.05508969 615 137 C615.10666992 136.38616455 615.21333984 135.7723291 615.32324219 135.13989258 C616.44762866 129.06762607 618.09811055 123.46576534 620.25 117.6875 C623.01435685 110.02855485 625.41194499 102.34003806 627.58666992 94.49536133 C629.75164905 86.73675123 632.14474806 79.05815552 634.5625 71.375 C637.10223153 63.29018797 639.55440099 55.21804794 641.625 47 C651.129958 9.95867928 651.129958 9.95867928 668.13671875 -1.30859375 C679.66355035 -8.11775894 690.32719998 -9.96753546 703.4375 -7.30078125 C710.06503341 -5.29730495 715.5122611 -2.17068156 721 2 C722.03125 2.721875 723.0625 3.44375 724.125 4.1875 C731.59298321 10.67778067 736.09868353 20.60982711 737.28295898 30.32006836 C737.40325972 32.68055698 737.41585394 35.01181106 737.375 37.375 C737.35977295 38.7199353 737.35977295 38.7199353 737.34423828 40.09204102 C736.83955626 63.10984478 732.74403741 85.90387734 729.03669739 108.57359314 C728.05765405 114.5810688 727.17020229 120.59904576 726.3125 126.625 C725.46847027 132.45377718 724.3424074 138.1100165 722.78686523 143.79272461 C721.89681805 147.42057128 721.26240106 151.06838444 720.6484375 154.75 C719.08626474 163.83640109 717.15246465 172.82014878 715.125 181.8125 C714.86171402 182.98747543 714.86171402 182.98747543 714.59310913 184.18618774 C711.9075557 196.16836839 709.19595215 208.14169152 706 220 C705.69715088 221.12873535 705.69715088 221.12873535 705.38818359 222.28027344 C702.95908949 231.2204 700.16809281 239.69770131 696 248 C695.38290292 249.27936418 694.76711363 250.55935966 694.15234375 251.83984375 C683.66131764 273.50196494 669.83645328 291.51136387 650.9609375 306.546875 C646.8152273 309.9815795 642.91305905 313.65456656 638.98779297 317.33666992 C635.37791876 320.72285747 631.72649558 324.03820594 627.9765625 327.26953125 C625.50842377 329.43037207 623.10195991 331.65437702 620.6875 333.875 C617.10738788 337.14529473 613.47083763 340.28026617 609.6875 343.3125 C603.95092918 347.93956213 598.61022436 352.93836374 593.23828125 357.9765625 C588.63477066 362.29127234 583.97471445 366.50888909 578.9375 370.3125 C564.66695086 383.36853432 562.99008417 399.75648177 562 418 C562.78858398 418.1335791 563.57716797 418.2671582 564.38964844 418.40478516 C567.46638854 419.10634636 568.30590573 419.9499982 570.25 422.375 C570.75015625 422.98085938 571.2503125 423.58671875 571.765625 424.2109375 C574.38380876 428.00564687 574.2981773 431.52734049 574 436 C570.52917794 446.59514103 563.06382626 449.90448048 553.6875 454.8125 C552.50565535 455.43842626 551.32409785 456.06489498 550.14282227 456.69189453 C541.49334395 461.26136259 532.81032968 465.74884606 524 470 C523.30616211 470.33725098 522.61232422 470.67450195 521.89746094 471.02197266 C519.70591061 472.08446836 517.51014132 473.13766663 515.3125 474.1875 C514.67175537 474.49671387 514.03101074 474.80592773 513.37084961 475.12451172 C467.78709854 496.64905942 416.98262054 507.14184148 367 511 C365.92355225 511.0942627 364.84710449 511.18852539 363.73803711 511.28564453 C326.86794086 514.32037674 288.98158838 512.45064282 252.5625 506.0625 C251.87056549 505.94138855 251.17863098 505.8202771 250.46572876 505.69549561 C242.16872126 504.21659881 234.12187681 502.28361384 226.04418945 499.88598633 C222.48482869 498.85006362 218.94100543 498.06694172 215.3125 497.3125 C180.60655448 489.53521125 146.9616885 473.86480876 115.75 457.0625 C114.33315918 456.30223511 114.33315918 456.30223511 112.88769531 455.52661133 C97.28630768 446.95875111 97.28630768 446.95875111 92.875 441.25 C91.21879339 435.09837545 90.84380796 429.35520601 93.6875 423.5625 C95.98752692 421.01382152 98.14177278 418.90548481 101 417 C101.99 417 102.98 417 104 417 C101.89722494 391.06451587 95.08490458 376.8827821 75.00390625 359.72265625 C72.75737755 357.79142982 70.56723628 355.80511802 68.375 353.8125 C64.37269197 350.19632582 60.29716812 346.67992801 56.1875 343.1875 C50.83317969 338.63209218 45.6245844 333.94609194 40.47998047 329.15576172 C37.02595049 325.94001407 33.52546983 322.79466969 29.95703125 319.70703125 C27.6144085 317.66366569 25.30726578 315.58319141 23 313.5 C20.01937279 310.81016569 17.02754767 308.13689636 14 305.5 C13.35804688 304.93796875 12.71609375 304.3759375 12.0546875 303.796875 C10.58456945 302.51122043 9.11010965 301.23052386 7.6328125 299.953125 C-11.92276908 282.7734552 -25.06289496 261.42608269 -34.375 237.25 C-34.68453613 236.44804199 -34.99407227 235.64608398 -35.31298828 234.81982422 C-53.69333319 185.09594389 -88.26655918 73.0368058 -69.375 21.5 C-68.62485901 19.97880816 -67.83226781 18.47785872 -67 17 C-66.57589844 16.16210938 -66.15179688 15.32421875 -65.71484375 14.4609375 C-60.06171941 4.03651323 -51.21324954 -3.17797423 -39.9375 -6.75 C-25.32857274 -10.43241555 -12.6498526 -7.58991156 0 0 Z " fill="#ACCE8A" transform="translate(294,578)"/>
<path d="M0 0 C4.04565164 1.66932228 7.02327647 4.50629712 10.25 7.375 C37.64354129 31.21079837 70.375883 52.16702994 104 66 C105.28970703 66.56460938 105.28970703 66.56460938 106.60546875 67.140625 C113.88611063 70.26876765 121.29918702 72.90108199 128.78710938 75.47900391 C132.97198821 76.9237835 137.10902123 78.39706817 141.1875 80.125 C154.86326189 85.72396175 169.63876556 88.72759114 184 92 C185.14210938 92.26554687 186.28421875 92.53109375 187.4609375 92.8046875 C190.96433299 93.59008347 194.47637206 94.31259252 198 95 C198.9782373 95.19094238 199.95647461 95.38188477 200.96435547 95.57861328 C215.97066338 98.46857096 230.82608456 100.80251622 246.08422852 101.78222656 C248 102 248 102 251 103 C251.04690716 124.29828698 251.08207996 145.59656533 251.10362434 166.89489365 C251.11389765 176.78606655 251.12788167 186.67720719 251.15087891 196.56835938 C251.17093452 205.19849301 251.18374504 213.82860325 251.18817699 222.45875955 C251.19076395 227.02016108 251.19676015 231.58149576 251.21146011 236.14287567 C251.28298687 259.24531626 250.73329711 281.65474887 246.4375 304.4375 C246.31161499 305.10677521 246.18572998 305.77605042 246.05603027 306.46560669 C235.72013104 360.67820887 209.96316244 412.03283878 173.48095703 453.30859375 C171.9345411 455.07476084 170.41568197 456.86168033 168.90234375 458.65625 C163.70829841 464.80891965 158.46589637 470.74800565 152.64453125 476.328125 C150.91345439 477.91609506 150.91345439 477.91609506 150 480 C149.34 480 148.68 480 148 480 C147.99191315 478.88659241 147.98382629 477.77318481 147.97549438 476.6260376 C147.89774532 466.09291775 147.8099353 455.55992251 147.71247292 445.02696609 C147.66269401 439.61289238 147.6163634 434.19883646 147.578125 428.78466797 C147.54103839 423.552045 147.49461737 418.31957791 147.44193649 413.08708954 C147.42351599 411.09861762 147.40836337 409.11011244 147.39665604 407.12158966 C147.23884399 381.22515653 141.46600097 358.7948011 124 339 C122.96939453 337.77216797 122.96939453 337.77216797 121.91796875 336.51953125 C108.15356992 320.52306775 91.06945555 310.38438019 72 302 C71.37198486 301.71954834 70.74396973 301.43909668 70.09692383 301.15014648 C66.9563778 299.76803713 63.90933965 298.57581431 60.5625 297.8125 C59.386875 297.544375 58.21125 297.27625 57 297 C57 296.34 57 295.68 57 295 C58.65234375 293.625 58.65234375 293.625 60.9375 292 C75.17675322 281.14786179 84.47806748 265.81698803 90 249 C90.41378906 247.76507813 90.82757812 246.53015625 91.25390625 245.2578125 C97.76025157 223.50615343 95.73201695 198.3538183 86 178 C85.56945312 177.09765625 85.13890625 176.1953125 84.6953125 175.265625 C72.9476352 152.30123886 52.93597262 135.80281307 28.56933594 127.71777344 C12.24816105 122.54952976 -7.66784278 121.35128397 -24 127 C-24.92941406 127.25523437 -25.85882812 127.51046875 -26.81640625 127.7734375 C-52.25374398 135.15737841 -70.84027517 154.09897634 -83.49609375 176.66796875 C-94.46683923 198.71199004 -95.60675835 226.12523277 -87.8125 249.375 C-82.43994183 264.9249247 -72.06079517 285.93018469 -56.77734375 294.203125 C-56.19082031 294.46609375 -55.60429688 294.7290625 -55 295 C-55 295.66 -55 296.32 -55 297 C-56.22009766 297.29390625 -56.22009766 297.29390625 -57.46484375 297.59375 C-87.6880721 305.48102669 -115.69818049 325.68760098 -131.96484375 352.453125 C-140.46759453 366.97485522 -145.08795686 381.49633192 -145.20532227 398.26171875 C-145.21522186 399.15046188 -145.22512146 400.03920502 -145.23532104 400.95487976 C-145.2666776 403.86572693 -145.29159027 406.77659036 -145.31640625 409.6875 C-145.33699815 411.71631268 -145.35799518 413.74512129 -145.37937927 415.77392578 C-145.43436913 421.09373661 -145.4838795 426.41358468 -145.53222656 431.73345947 C-145.58261095 437.16999596 -145.6382083 442.6064789 -145.69335938 448.04296875 C-145.80065826 458.69526667 -145.90216511 469.34761124 -146 480 C-146.66 480 -147.32 480 -148 480 C-149.4453125 478.53125 -149.4453125 478.53125 -151.125 476.5 C-153.59690996 473.58375911 -156.12572783 470.84329692 -158.875 468.1875 C-162.84884378 464.27502832 -166.31295384 460.04428891 -169.796875 455.6953125 C-171.70993726 453.35486399 -173.68877156 451.14595904 -175.75 448.9375 C-229.05486793 389.4861463 -249.69005577 309.07700696 -249.30418181 231.14599252 C-249.28509382 226.62177228 -249.28363984 222.09754226 -249.28010559 217.57328796 C-249.27087748 209.05304844 -249.24639252 200.53292801 -249.21605712 192.01274031 C-249.1822208 182.29284809 -249.16595456 172.57294939 -249.15097082 162.85301268 C-249.1198317 142.90194265 -249.0672564 122.95097891 -249 103 C-247.47218903 102.79096794 -247.47218903 102.79096794 -245.91351318 102.57771301 C-242.06686762 102.05085032 -238.22060904 101.52120561 -234.37445068 100.99079895 C-232.72245238 100.76335703 -231.0703555 100.53662967 -229.41815186 100.3106842 C-198.91300873 96.13726485 -167.10159187 91.00478468 -138.24365234 79.85791016 C-135.47374926 78.79877638 -132.68425732 77.79871956 -129.89453125 76.79296875 C-83.40626317 59.80134323 -35.34686068 35.34686068 0 0 Z " fill="#CDE4F7" transform="translate(626,232)"/>
<path d="M0 0 C0 39.6 0 79.2 0 120 C-7.59 121.32 -15.18 122.64 -23 124 C-50.48020547 132.82575942 -70.36483971 149.46784732 -84.49609375 174.66796875 C-95.46683923 196.71199004 -96.60675835 224.12523277 -88.8125 247.375 C-83.43994183 262.9249247 -73.06079517 283.93018469 -57.77734375 292.203125 C-57.19082031 292.46609375 -56.60429688 292.7290625 -56 293 C-56 293.66 -56 294.32 -56 295 C-57.22009766 295.29390625 -57.22009766 295.29390625 -58.46484375 295.59375 C-88.6880721 303.48102669 -116.69818049 323.68760098 -132.96484375 350.453125 C-141.46759453 364.97485522 -146.08795686 379.49633192 -146.20532227 396.26171875 C-146.21522186 397.15046188 -146.22512146 398.03920502 -146.23532104 398.95487976 C-146.2666776 401.86572693 -146.29159027 404.77659036 -146.31640625 407.6875 C-146.33699815 409.71631268 -146.35799518 411.74512129 -146.37937927 413.77392578 C-146.43436913 419.09373661 -146.4838795 424.41358468 -146.53222656 429.73345947 C-146.58261095 435.16999596 -146.6382083 440.6064789 -146.69335938 446.04296875 C-146.80065826 456.69526667 -146.90216511 467.34761124 -147 478 C-147.66 478 -148.32 478 -149 478 C-150.4453125 476.53125 -150.4453125 476.53125 -152.125 474.5 C-154.59690996 471.58375911 -157.12572783 468.84329692 -159.875 466.1875 C-163.84884378 462.27502832 -167.31295384 458.04428891 -170.796875 453.6953125 C-172.70993726 451.35486399 -174.68877156 449.14595904 -176.75 446.9375 C-230.05486793 387.4861463 -250.69005577 307.07700696 -250.30418181 229.14599252 C-250.28509382 224.62177228 -250.28363984 220.09754226 -250.28010559 215.57328796 C-250.27087748 207.05304844 -250.24639252 198.53292801 -250.21605712 190.01274031 C-250.1822208 180.29284809 -250.16595456 170.57294939 -250.15097082 160.85301268 C-250.1198317 140.90194265 -250.0672564 120.95097891 -250 101 C-248.47218903 100.79096794 -248.47218903 100.79096794 -246.91351318 100.57771301 C-243.06686762 100.05085032 -239.22060904 99.52120561 -235.37445068 98.99079895 C-233.72245238 98.76335703 -232.0703555 98.53662967 -230.41815186 98.3106842 C-199.91300873 94.13726485 -168.10159187 89.00478468 -139.24365234 77.85791016 C-136.47374926 76.79877638 -133.68425732 75.79871956 -130.89453125 74.79296875 C-86.16111836 58.44274897 -44.52217019 35.42539631 -8.34155273 4.26611328 C-7.35264038 3.42669189 -7.35264038 3.42669189 -6.34375 2.5703125 C-5.48040039 1.82418701 -5.48040039 1.82418701 -4.59960938 1.06298828 C-3 0 -3 0 0 0 Z " fill="#E5F1FA" transform="translate(627,234)"/>
<path d="M0 0 C1.33833574 -0.00458788 2.67666916 -0.00990089 4.01499939 -0.0158844 C6.79907892 -0.02472623 9.58287036 -0.02250039 12.36694336 -0.01245117 C15.16998272 -0.00329938 17.97218614 -0.01010476 20.77514648 -0.03295898 C58.46147023 -0.33872684 91.32775591 6.57772354 119.21484375 33.62109375 C133.71529411 48.20515108 141.73789019 66.01446264 141.91308594 86.59375 C141.93761841 88.21263626 141.93761841 88.21263626 141.96264648 89.86422729 C142.01196182 93.40816106 142.04527254 96.95193758 142.07421875 100.49609375 C142.0848661 101.71225372 142.09551346 102.9284137 142.10648346 104.181427 C142.15975926 110.61083445 142.19857926 117.0401665 142.22753906 123.46972656 C142.25427379 128.77966792 142.31010187 134.08808223 142.39160156 139.39746094 C142.49026731 145.82711572 142.53977808 152.25538107 142.55399323 158.6857605 C142.56740228 161.12905083 142.5978062 163.57231103 142.64577484 166.01516724 C143.01778513 186.09466922 143.01778513 186.09466922 139.40093994 190.84706116 C136.87513036 193.16161637 134.51137383 194.77453699 131.52734375 196.43359375 C129.89157053 197.68246548 128.26935295 198.94951458 126.66796875 200.2421875 C125.04192333 201.45741313 123.41162726 202.6669698 121.77734375 203.87109375 C120.47156372 204.84030762 120.47156372 204.84030762 119.1394043 205.82910156 C116.60697856 207.70407287 114.06847453 209.57044393 111.52734375 211.43359375 C110.86621582 211.92037598 110.20508789 212.4071582 109.52392578 212.90869141 C84.45462742 231.31906334 57.34871847 246.61078337 29.52734375 260.43359375 C28.69058105 260.86897461 27.85381836 261.30435547 26.99169922 261.75292969 C26.22873535 262.1296582 25.46577148 262.50638672 24.6796875 262.89453125 C24.03894287 263.2198584 23.39819824 263.54518555 22.73803711 263.88037109 C17.24764332 265.2543338 12.31186855 263.13989432 7.45703125 260.6953125 C6.32386475 260.1286084 5.19069824 259.5619043 4.02319336 258.97802734 C2.81584474 258.35982763 1.60890372 257.7408313 0.40234375 257.12109375 C-0.85337471 256.48376941 -2.10915341 255.84656374 -3.36499023 255.20947266 C-38.38710185 237.34695528 -76.4372825 215.4689675 -104.47265625 187.43359375 C-104.73271847 185.48304558 -104.73271847 185.48304558 -104.74681091 183.04879761 C-104.75678604 182.12678558 -104.76676117 181.20477356 -104.77703857 180.25482178 C-104.77770325 179.23986633 -104.77836792 178.22491089 -104.77905273 177.17919922 C-104.78737625 176.11220795 -104.79569977 175.04521667 -104.80427551 173.94589233 C-104.8284799 170.39748531 -104.8371653 166.84926225 -104.84375 163.30078125 C-104.85271639 160.83090154 -104.86183824 158.36102239 -104.87110901 155.8911438 C-104.88763539 150.69743532 -104.89530436 145.5037915 -104.89819336 140.31005859 C-104.90220154 133.69081691 -104.94108281 127.07212677 -104.98693752 120.45303154 C-105.01687058 115.3413784 -105.02392062 110.22987048 -105.02491951 105.11813736 C-105.02909836 102.6807589 -105.0414375 100.24337907 -105.06243706 97.80608749 C-105.27649917 70.78340356 -98.77259695 51.34969337 -79.84765625 31.43359375 C-58.52206805 10.69315889 -29.55033728 -0.07043533 0 0 Z " fill="#72B1E8" transform="translate(608.47265625,547.56640625)"/>
<path d="M0 0 C13.55342453 8.16572782 15.47843031 28.57396834 19.03222656 42.57397461 C20.91644028 49.94660431 23.00642116 57.13486515 25.515625 64.3203125 C26.96982228 68.48832864 28.24428032 72.70258058 29.52734375 76.92578125 C30.35983858 79.63657402 31.20610288 82.34099968 32.06640625 85.04296875 C32.32365479 85.8515332 32.58090332 86.66009766 32.84594727 87.49316406 C33.34348834 89.05423622 33.84252421 90.61483328 34.34350586 92.17480469 C35.82585244 96.83173866 37.18353276 101.50763607 38.484375 106.21875 C39.85538399 111.06526678 41.41171629 115.76557771 43.203125 120.47265625 C48.14777925 133.50377645 51.81854752 144.82023269 50.68359375 158.94921875 C50.24893453 166.21141985 53.13223934 173.08480371 56.3125 179.5 C56.74949219 180.4075 57.18648438 181.315 57.63671875 182.25 C64.16159678 192.9154195 73.31313646 201.46847699 82.1171875 210.22265625 C83.51380356 211.61807793 84.91004766 213.01387199 86.30593872 214.41001892 C89.21258973 217.31511579 92.1225391 220.21685177 95.03515625 223.1159668 C98.77288871 226.83659176 102.50388502 230.5638852 106.23269463 234.29345036 C109.10619751 237.16668201 111.98229326 240.03730594 114.85928726 242.90704155 C116.23704054 244.28161028 117.6141869 245.65678761 118.99071884 247.03257942 C120.90520715 248.94490865 122.82294507 250.85391513 124.74169922 252.76196289 C125.31103683 253.33175369 125.88037445 253.90154449 126.46696472 254.48860168 C130.2681863 258.25872259 132.10762521 259.66067448 137.4375 259.8125 C141.10732559 259.7806807 142.44159393 259.60854645 145.6875 257.6875 C148.8024567 254.17061341 149.19359615 250.53648776 149.0532074 245.98487854 C148.56069473 243.12683785 147.87943943 242.14410027 145.92993164 240.03491211 C145.29016388 239.34267548 144.65039612 238.65043884 143.99124146 237.93722534 C139.4284681 233.23757526 134.8014181 228.60614299 130.14172173 224.00268745 C128.2082365 222.0914853 126.27896387 220.17612167 124.35084534 218.25950623 C118.87368545 212.81569748 113.39234166 207.37615769 107.90063477 201.94702148 C104.52736463 198.61159426 101.16161614 195.26872984 97.80043221 191.92112541 C96.52709308 190.65578487 95.25099428 189.39321464 93.97198296 188.13360786 C74.47643648 168.92886791 74.47643648 168.92886791 74.125 155.75 C74.24206521 148.76267037 75.69044347 144.46612086 80.625 139.5 C84.39163274 136.15188201 87.91672095 134.224387 93 133.9375 C104.63699932 134.77297687 111.75815674 141.65547403 119.625 149.5 C120.29660156 150.16902344 120.96820313 150.83804688 121.66015625 151.52734375 C122.77871124 152.65099466 123.89472379 153.77718394 125.0078125 154.90625 C128.07530327 157.92928438 131.35180327 160.70380179 134.625 163.5 C135.54925781 164.30179688 136.47351563 165.10359375 137.42578125 165.9296875 C149.20620505 176.08917608 161.66334502 185.34725847 174.1875 194.5625 C174.98115967 195.14660645 175.77481934 195.73071289 176.5925293 196.33251953 C181.20543724 199.72548813 181.20543724 199.72548813 185.82714844 203.10644531 C211.9344927 222.16420921 233.76677914 245.43197335 239.25761414 278.50597382 C240.58194007 289.29862242 240.115001 300.33116335 240.03057575 311.19130564 C240.00524065 315.01087928 240.00319522 318.83047126 239.99847412 322.65011597 C239.98613719 329.85324323 239.95344416 337.05612204 239.91307616 344.25914085 C239.86806585 352.4721841 239.84629855 360.68524044 239.82629442 368.8983767 C239.78470095 385.76572893 239.7145337 402.63283256 239.625 419.5 C237.39897156 419.58290609 235.17294312 419.66581217 232.94691467 419.74871826 C232.25285377 419.77464066 231.55879287 419.80056306 230.84369981 419.82727098 C227.01435759 419.97019036 223.18497673 420.11189755 219.35550785 420.25138474 C209.79991706 420.59847919 209.79991706 420.59847919 200.24752808 421.02307129 C179.74890585 422.01382277 163.90866147 421.21245149 146.625 408.5 C145.01226386 406.88726386 145.44030636 405.09373845 145.37890625 402.86328125 C145.34772705 401.90043213 145.31654785 400.93758301 145.28442383 399.94555664 C145.25243896 398.91164795 145.2204541 397.87773926 145.1875 396.8125 C144.13172749 370.1649651 137.92764099 349.4791029 117.734375 330.74609375 C116.46896747 329.64284979 115.19376736 328.55076016 113.91015625 327.46875 C110.96790047 324.93388348 108.14868794 322.2772502 105.3125 319.625 C101.37509805 315.95781745 97.38996183 312.42818846 93.1875 309.0625 C87.47426485 304.47687705 82.17298063 299.50254458 76.83203125 294.49609375 C72.19714019 290.15263801 67.40805539 286.00727464 62.55859375 281.90625 C54.2500009 274.86195672 46.18616087 267.60463711 38.30126953 260.08837891 C36.81806256 258.68293985 35.31474977 257.29878585 33.80859375 255.91796875 C19.40965308 242.330236 9.42982235 223.25082902 3.625 204.5 C3.40666504 203.80890137 3.18833008 203.11780273 2.96337891 202.40576172 C-5.2618627 176.06299286 -10.57230786 148.81103219 -15.29226685 121.65411377 C-16.13795175 116.80144321 -17.02713623 111.9581117 -17.9375 107.1171875 C-21.07241058 90.39316756 -23.74783927 73.68945369 -25.93554688 56.81103516 C-26.40690304 53.25962833 -26.9109383 49.71388828 -27.421875 46.16796875 C-27.73976725 43.9453388 -28.05749814 41.72268575 -28.375 39.5 C-28.48569824 38.73856689 -28.59639648 37.97713379 -28.71044922 37.19262695 C-29.42697432 31.96199372 -29.66213964 26.77162186 -29.75 21.5 C-29.78738281 20.64921875 -29.82476562 19.7984375 -29.86328125 18.921875 C-29.95086241 12.5771062 -28.48962122 8.37200407 -24.375 3.5 C-17.52574933 -2.70914237 -8.51771477 -3.63879386 0 0 Z " fill="#AECE8B" transform="translate(277.375,596.5)"/>
<path d="M0 0 C2.55883069 0.68362934 5.12213268 1.34752525 7.68701172 2.00805664 C16.59070855 4.32534166 25.3516559 6.87942617 34.04272461 9.89990234 C37.50678625 11.06093258 40.99282477 12.04828009 44.51904297 13.00219727 C51.04556576 14.82697478 57.12819062 17.29906049 63.33154297 20.00219727 C64.99537888 20.6758977 66.66195884 21.34287105 68.33154297 22.00219727 C69.99875258 22.66750497 71.66534852 23.33435126 73.33154297 24.00219727 C74.16459961 24.33550049 74.99765625 24.66880371 75.85595703 25.01220703 C115.6843307 41.26919283 153.59478944 63.29430525 187.33154297 90.00219727 C188.00749512 90.53683594 188.68344727 91.07147461 189.37988281 91.62231445 C196.74744497 97.47766793 204.00249032 103.42654053 210.92529297 109.80688477 C212.95824894 111.66162706 215.01639725 113.47457732 217.09326172 115.27954102 C228.49638174 125.23569936 239.27317451 135.69424622 249.33154297 147.00219727 C250.26123124 148.01111286 251.19357952 149.01758308 252.12841797 150.02172852 C258.13247233 156.47202316 263.86068819 163.09132452 269.33154297 170.00219727 C269.85119629 170.65462402 270.37084961 171.30705078 270.90625 171.97924805 C298.83632514 207.11708451 322.81632608 246.65885846 340.33154297 288.00219727 C340.81228271 289.12078125 340.81228271 289.12078125 341.30273438 290.26196289 C345.49554094 300.03302516 349.08969942 309.87698728 352.33154297 320.00219727 C353.59901653 323.84575484 354.88035547 327.6845043 356.19140625 331.51342773 C360.70895062 344.7432044 364.49416527 358.03005062 367.70654297 371.62719727 C367.95988907 372.68570389 367.95988907 372.68570389 368.21835327 373.76559448 C370.2508458 382.30713779 371.82041164 390.76268525 372.88696289 399.48901367 C373.29797362 402.73692385 373.80134068 405.94855157 374.35888672 409.17407227 C375.38645725 415.18078952 376.17123173 421.20199947 376.89404297 427.25219727 C377.08256836 428.7584668 377.08256836 428.7584668 377.27490234 430.29516602 C381.51925805 465.53887364 381.45938464 502.89796205 376.33154297 538.00219727 C376.1237199 539.52425503 375.91777854 541.04657051 375.71337891 542.5690918 C368.09828061 599.15778196 352.67858249 652.83166724 326.49169922 703.74389648 C325.65441594 705.37370926 324.82163844 707.00583953 323.99169922 708.6394043 C317.30834465 721.78650457 310.29909541 734.58791755 302.33154297 747.00219727 C301.92758301 747.63496582 301.52362305 748.26773438 301.10742188 748.91967773 C290.7275608 765.09018523 279.12063073 780.42769892 266.83691406 795.19262695 C265.41865033 796.8974876 264.00942972 798.60946443 262.60107422 800.32250977 C252.24568177 812.83193088 240.94522487 824.4721581 229.51455688 835.99441528 C228.12686708 837.39398513 226.74317354 838.79751381 225.35961914 840.20117188 C220.0836214 845.48392691 214.64317083 850.36099009 208.79321289 855.00195312 C206.39199297 856.95307827 204.13883256 858.99933214 201.89404297 861.12719727 C195.44680093 866.99952601 188.40130935 872.09142626 181.37841797 877.24829102 C178.23415592 879.56028325 175.16645265 881.92451001 172.15966797 884.41235352 C165.49684032 889.83856171 160.17640388 893.55508951 151.15185547 892.70141602 C145.82987113 891.38197669 142.85277123 889.11742894 139.69091797 884.72094727 C137.15949997 879.65811127 137.46653396 874.50070415 138.33154297 869.00219727 C141.69022801 861.39457331 151.28896723 856.62943311 157.91357422 852.08032227 C172.7799268 841.82411537 186.50915232 829.8062045 199.70556641 817.51049805 C201.4605397 815.88253634 203.22754567 814.26827564 204.99560547 812.65454102 C213.20524537 805.12789945 220.96038301 797.35118961 228.33154297 789.00219727 C228.81155762 788.46159668 229.29157227 787.92099609 229.78613281 787.36401367 C243.01537719 772.40441768 255.10766156 756.51239948 266.33154297 740.00219727 C266.84539551 739.24777344 267.35924805 738.49334961 267.88867188 737.71606445 C276.62486571 724.80122361 284.36995611 711.41677833 291.83642578 697.73413086 C293.077364 695.4666425 294.33457141 693.21025286 295.60498047 690.95922852 C304.73288858 674.47310877 312.18142148 656.80785395 318.33154297 639.00219727 C318.64188477 638.10678223 318.95222656 637.21136719 319.27197266 636.28881836 C326.0617575 616.57895012 331.5158982 596.96808033 335.78588867 576.56762695 C336.28717188 574.21081088 336.81690514 571.86254563 337.35498047 569.51391602 C339.52572789 559.77194632 340.93128805 549.87882524 342.33154297 540.00219727 C342.4883252 538.90230469 342.64510742 537.80241211 342.80664062 536.66918945 C345.26174456 518.52323167 345.62030187 500.47997117 345.64404297 482.18969727 C345.64942078 480.53375549 345.64942078 480.53375549 345.65490723 478.84436035 C345.69299747 457.03810104 344.53084188 435.31131099 341.14404297 413.75219727 C340.98888718 412.74314835 340.98888718 412.74314835 340.83059692 411.7137146 C337.74996219 391.81210259 332.96926059 372.32921312 327.33154297 353.00219727 C327.0839624 352.13699463 326.83638184 351.27179199 326.58129883 350.38037109 C307.64876714 284.22318203 272.66820087 222.77450106 226.33154297 172.00219727 C225.52587891 171.1037207 224.72021484 170.20524414 223.89013672 169.27954102 C218.45720297 163.26363971 212.86509707 157.4326813 207.14404297 151.68969727 C206.49105225 151.03211426 205.83806152 150.37453125 205.1652832 149.69702148 C200.71717764 145.262916 196.09022695 141.09870733 191.33154297 137.00219727 C190.28351076 136.07642232 189.23656135 135.1494195 188.19091797 134.22094727 C179.05655265 126.19617312 169.43704286 118.8910663 159.63964844 111.69750977 C157.64693384 110.2338531 155.66219818 108.76020813 153.67919922 107.28344727 C121.49511932 83.55093986 84.73992646 64.98097617 47.33154297 51.00219727 C46.30448242 50.61080566 45.27742187 50.21941406 44.21923828 49.81616211 C26.84364365 43.22113837 9.42401238 38.20322601 -8.66845703 34.00219727 C-11.77567754 33.2643108 -14.87894364 32.51161444 -17.98095703 31.75219727 C-19.13208984 31.47891602 -20.28322266 31.20563477 -21.46923828 30.92407227 C-29.09807194 28.72577588 -34.15888057 25.76656196 -38.66845703 19.00219727 C-39.60079306 12.95097785 -39.65670142 7.52337459 -35.98095703 2.43969727 C-26.06287027 -8.60335767 -12.66612493 -3.38605334 0 0 Z " fill="#408DD1" transform="translate(742.66845703125,102.997802734375)"/>
<path d="M0 0 C4.36775158 3.14884416 7.96773395 6.77820184 9.6875 11.9375 C10.26157089 17.79302309 9.14424906 22.22375128 5.6875 26.9375 C0.79044684 31.98639977 -3.56968886 33.04271022 -10.375 34.25 C-92.75144182 50.53519403 -169.40069672 92.22384486 -230.56982422 149.3125 C-231.83747807 150.49455436 -233.1076779 151.67388019 -234.37939453 152.8515625 C-236.63215792 154.93820752 -238.87917687 157.03088887 -241.125 159.125 C-241.83043945 159.77815186 -242.53587891 160.43130371 -243.26269531 161.10424805 C-247.3321 164.91679436 -251.10649345 168.8605793 -254.73364258 173.09594727 C-256.84481529 175.5583836 -259.0481588 177.93114096 -261.25 180.3125 C-265.84071842 185.35328885 -270.13292464 190.55350503 -274.3125 195.9375 C-275.07046875 196.90042969 -275.8284375 197.86335937 -276.609375 198.85546875 C-293.10764009 220.00372257 -307.33805716 242.47883511 -320.3125 265.9375 C-320.7751123 266.76942871 -321.23772461 267.60135742 -321.71435547 268.45849609 C-345.27299635 311.11828563 -359.14700422 357.29023744 -368.3125 404.9375 C-368.47733887 405.79102051 -368.64217773 406.64454102 -368.81201172 407.52392578 C-371.46672624 421.54404351 -372.93328169 435.74371418 -374.3125 449.9375 C-374.38742676 450.70852051 -374.46235352 451.47954102 -374.53955078 452.27392578 C-377.81799118 488.28431507 -375.74385595 526.57356272 -368.69921875 561.96240234 C-368.18650426 564.58100097 -367.71274376 567.20649433 -367.23706055 569.83203125 C-364.26025819 586.11512009 -360.38984583 601.90428383 -355.3515625 617.68115234 C-354.63666751 619.92158219 -353.92872371 622.16423815 -353.2265625 624.40869141 C-333.1126955 688.52164246 -298.64181626 746.43311513 -253.3125 795.9375 C-252.85230469 796.4428125 -252.39210938 796.948125 -251.91796875 797.46875 C-243.4511626 806.76213089 -234.92895711 815.98251065 -225.36328125 824.16796875 C-223.03683417 826.17536023 -220.77057314 828.24216638 -218.5 830.3125 C-210.44687472 837.56153107 -201.96288553 844.25796308 -193.4375 850.9375 C-192.66656006 851.54174805 -191.89562012 852.14599609 -191.10131836 852.76855469 C-187.59368806 855.49124779 -184.07985881 858.14609853 -180.37109375 860.58984375 C-179.77603027 860.98236328 -179.1809668 861.37488281 -178.56787109 861.77929688 C-176.99570067 862.79687704 -175.40665843 863.7882597 -173.81640625 864.77734375 C-169.78874073 868.25206923 -168.49439231 872.23983843 -167.9375 877.4375 C-168.65543162 884.13819514 -171.15223418 888.63727849 -176.3125 892.9375 C-180.41931309 895.26839392 -184.68834721 895.71099465 -189.3125 894.9375 C-197.31216298 892.03414741 -203.98841819 885.62458794 -210.53369141 880.35302734 C-213.2339741 878.20421606 -215.99453937 876.14011054 -218.75 874.0625 C-223.57335115 870.38303534 -228.22513149 866.5318472 -232.8125 862.5625 C-233.3686499 862.08184082 -233.9247998 861.60118164 -234.49780273 861.10595703 C-245.03100259 851.89818607 -255.14555078 842.27253115 -265.01708984 832.36328125 C-266.70425958 830.67068653 -268.39680196 828.98359403 -270.08984375 827.296875 C-275.7111498 821.67936685 -281.18328581 816.01430036 -286.3125 809.9375 C-287.28511239 808.81914054 -288.25904015 807.70192347 -289.234375 806.5859375 C-326.65871678 763.38643574 -355.46108596 714.08991592 -376.3125 660.9375 C-376.66924805 660.03177246 -377.02599609 659.12604492 -377.39355469 658.19287109 C-382.08088063 646.18776898 -385.91654625 633.94888761 -389.53222656 621.58300781 C-390.20686654 619.29564898 -390.9058322 617.01830251 -391.6171875 614.7421875 C-398.02953376 593.68672217 -401.5878095 571.39426008 -404.625 549.625 C-404.77203369 548.57465576 -404.91906738 547.52431152 -405.07055664 546.44213867 C-405.52996293 542.94436794 -405.93090218 539.44465938 -406.3125 535.9375 C-406.3989679 535.16270294 -406.48543579 534.38790588 -406.57452393 533.58963013 C-408.28339254 517.87401443 -408.62408087 502.25881706 -408.57324219 486.45874023 C-408.5625221 482.5081444 -408.57320553 478.55800405 -408.5859375 474.60742188 C-408.60092968 447.71449814 -406.69743891 420.86599988 -401.05859375 394.51953125 C-400.46358752 391.66287832 -399.93981659 388.81534305 -399.44140625 385.94140625 C-398.17604838 378.91570298 -396.49693728 371.99758906 -394.8125 365.0625 C-394.50111322 363.75785756 -394.18991434 362.45317026 -393.87890625 361.1484375 C-393.57855469 359.90578125 -393.27820313 358.663125 -392.96875 357.3828125 C-392.69869141 356.26406738 -392.42863281 355.14532227 -392.15039062 353.99267578 C-391.38234648 351.19217916 -390.42328049 348.61578067 -389.3125 345.9375 C-388.52081388 343.29576841 -387.75193997 340.65285138 -387 338 C-384.73251672 330.19448125 -382.21747438 322.53195753 -379.3125 314.9375 C-378.82402588 313.65504395 -378.82402588 313.65504395 -378.32568359 312.34667969 C-362.76702721 271.79567424 -342.75282451 234.75084669 -318.3125 198.9375 C-317.83039063 198.22835449 -317.34828125 197.51920898 -316.8515625 196.78857422 C-310.42999816 187.39217155 -303.3025375 178.63746078 -295.98486328 169.93017578 C-294.47012014 168.12530957 -292.9656624 166.31253749 -291.46484375 164.49609375 C-281.86839228 152.93689107 -271.53100256 142.08315672 -260.9375 131.4375 C-260.29594971 130.79127686 -259.65439941 130.14505371 -258.9934082 129.47924805 C-255.18072632 125.67935875 -251.24830784 122.07627735 -247.17431641 118.55859375 C-244.6177653 116.33259069 -242.1578798 114.00837554 -239.6875 111.6875 C-233.79734806 106.23661682 -227.58166541 101.30197214 -221.21826172 96.41943359 C-219.27095166 94.90519172 -217.3546628 93.35777295 -215.44140625 91.80078125 C-176.37435674 60.27755344 -129.76641696 35.27216551 -82.46972656 18.70068359 C-80.38548996 17.96332239 -78.313243 17.19928986 -76.2421875 16.42578125 C-57.69252247 9.56715691 -38.45207632 4.76340174 -19.18408203 0.39892578 C-12.55962182 -1.23428969 -6.68813046 -2.14524939 0 0 Z " fill="#408DD1" transform="translate(541.3125,100.0625)"/>
<path d="M0 0 C2.23869674 1.43916219 4.35838506 2.9644039 6.4765625 4.57421875 C7.5078125 5.29609375 8.5390625 6.01796875 9.6015625 6.76171875 C17.06954571 13.25199942 21.57524603 23.18404586 22.75952148 32.89428711 C22.87982222 35.25477573 22.89241644 37.58602981 22.8515625 39.94921875 C22.84141113 40.84584229 22.83125977 41.74246582 22.82080078 42.66625977 C22.31611876 65.68406353 18.22059991 88.47809609 14.51325989 111.14781189 C13.53421655 117.15528755 12.64676479 123.17326451 11.7890625 129.19921875 C10.94503277 135.02799593 9.8189699 140.68423525 8.26342773 146.36694336 C7.37338055 149.99479003 6.73896356 153.64260319 6.125 157.32421875 C4.56282724 166.41061984 2.62902715 175.39436753 0.6015625 184.38671875 C0.33827652 185.56169418 0.33827652 185.56169418 0.06967163 186.76040649 C-2.6158818 198.74258714 -5.32748535 210.71591027 -8.5234375 222.57421875 C-8.82628662 223.7029541 -8.82628662 223.7029541 -9.13525391 224.85449219 C-11.56434801 233.79461875 -14.35534469 242.27192006 -18.5234375 250.57421875 C-19.14053458 251.85358293 -19.75632387 253.13357841 -20.37109375 254.4140625 C-30.86211986 276.07618369 -44.68698422 294.08558262 -63.5625 309.12109375 C-67.7082102 312.55579825 -71.61037845 316.22878531 -75.53564453 319.91088867 C-79.14551874 323.29707622 -82.79694192 326.61242469 -86.546875 329.84375 C-89.01501373 332.00459082 -91.42147759 334.22859577 -93.8359375 336.44921875 C-97.41604962 339.71951348 -101.05259987 342.85448492 -104.8359375 345.88671875 C-110.57250832 350.51378088 -115.91321314 355.51258249 -121.28515625 360.55078125 C-125.88866684 364.86549109 -130.54872305 369.08310784 -135.5859375 372.88671875 C-149.54944166 385.66183958 -151.50436288 401.69387443 -152.5234375 419.57421875 C-153.17715332 419.61160156 -153.83086914 419.64898438 -154.50439453 419.6875 C-159.83609942 420.08804053 -163.76259264 420.71292578 -168.3984375 423.57421875 C-171.4919394 425.4501616 -174.00325824 426.78513284 -177.5234375 427.57421875 C-178.31182598 401.28146298 -176.12779014 378.93641574 -157.5234375 358.57421875 C-149.3366912 350.18525004 -140.51691473 342.4392995 -131.56518555 334.88208008 C-127.4960369 331.44184795 -123.5496331 327.89100085 -119.6484375 324.26171875 C-113.97684119 318.9857374 -108.20667287 313.86111951 -102.3125 308.8359375 C-101.11181709 307.81138783 -99.91130129 306.78664229 -98.7109375 305.76171875 C-98.10475586 305.24440186 -97.49857422 304.72708496 -96.87402344 304.1940918 C-92.21559482 300.20355387 -87.68425138 296.0886852 -83.171875 291.93359375 C-80.50821875 289.56066105 -77.75985026 287.34762463 -74.9609375 285.13671875 C-45.08148392 260.86763199 -34.79720936 223.48881279 -26.5234375 187.57421875 C-26.36597046 186.89540649 -26.20850342 186.21659424 -26.04626465 185.51721191 C-21.81526535 167.27314296 -18.19300781 148.97810285 -15.16796875 130.49121094 C-14.46638643 126.22750381 -13.74638404 121.9671544 -13.0234375 117.70703125 C-10.64473294 103.65844834 -8.31872059 89.60386744 -6.2109375 75.51171875 C-6.05165771 74.4551709 -5.89237793 73.39862305 -5.72827148 72.31005859 C-4.28903425 62.49787041 -3.33881505 52.74526186 -3.2734375 42.82421875 C-3.2528125 42.02628906 -3.2321875 41.22835937 -3.2109375 40.40625 C-3.17559414 35.02522398 -3.97967099 31.33998656 -6.5234375 26.57421875 C-12.51317113 20.89165094 -17.29721847 20.11182129 -25.39453125 20.265625 C-29.52265672 20.67276846 -31.52087844 21.71812598 -34.5234375 24.57421875 C-35.04421875 25.06019531 -35.565 25.54617188 -36.1015625 26.046875 C-40.63471775 30.7010611 -41.98992065 35.38620855 -43.5234375 41.57421875 C-44.34196492 44.57835044 -45.18459191 47.57570696 -46.0234375 50.57421875 C-46.4611125 52.15489947 -46.89861671 53.73562749 -47.3359375 55.31640625 C-48.98321875 61.24404486 -50.74866523 67.12683343 -52.60546875 72.9921875 C-53.01594174 74.29026447 -53.42608211 75.58844665 -53.8359375 76.88671875 C-54.05241943 77.57169434 -54.26890137 78.25666992 -54.49194336 78.96240234 C-55.63991102 82.62939384 -56.73957901 86.30257397 -57.7578125 90.0078125 C-61.41740045 103.31038708 -65.70483926 116.36602806 -70.12133789 129.43261719 C-73.00187392 137.96119564 -75.79016636 146.50775373 -78.44311523 155.11010742 C-79.13627892 157.33277398 -79.87217701 159.54281485 -80.66088867 161.73339844 C-81.49730309 164.48814461 -81.7119616 166.44519505 -81.578125 169.296875 C-81.55041016 170.15869385 -81.52269531 171.0205127 -81.49414062 171.90844727 C-81.44676758 173.25894165 -81.44676758 173.25894165 -81.3984375 174.63671875 C-81.08579231 196.22226359 -91.66439571 209.27886506 -106.11293411 224.21764755 C-110.11481463 228.30992384 -114.16375078 232.3549788 -118.21484375 236.3984375 C-119.49485066 237.67911997 -120.77470926 238.95995069 -122.0544281 240.24092102 C-124.70922913 242.89718184 -127.365794 245.55166179 -130.02368164 248.20483398 C-133.43337594 251.60877335 -136.83848161 255.01726245 -140.24232578 258.42705059 C-142.87154612 261.05987373 -145.50312993 263.69032406 -148.13545036 266.32004738 C-149.3933243 267.57725426 -150.6504559 268.83520432 -151.90683174 270.09390831 C-153.65106141 271.84066612 -155.39844368 273.58420652 -157.14672852 275.3269043 C-157.6645993 275.84679932 -158.18247009 276.36669434 -158.71603394 276.90234375 C-162.32500209 280.48988165 -164.20190898 281.74943126 -169.2734375 281.94921875 C-172.97805322 281.92241256 -175.18278084 281.61391137 -178.0859375 279.26171875 C-181.52858481 275.4659794 -182.10638135 272.04036561 -181.95065308 267.05810547 C-180.54004079 258.85662285 -168.63245571 250.60050059 -162.82439804 244.86114502 C-160.85338975 242.91240417 -158.88658079 240.959514 -156.92092896 239.00537109 C-151.33714751 233.45495908 -145.74915902 227.90883756 -140.15087891 222.37304688 C-136.71280227 218.97275819 -133.28219997 215.56507771 -129.85617447 212.15264893 C-128.55688298 210.86136868 -127.25482882 209.57286167 -125.94988632 208.28729248 C-124.12214292 206.48623192 -122.30408419 204.67588044 -120.48779297 202.86328125 C-119.95572235 202.3435675 -119.42365173 201.82385376 -118.87545776 201.28839111 C-111.9785184 194.35461859 -107.27211355 186.69475838 -107.0859375 176.76171875 C-107.1915135 170.46015131 -107.97431232 166.08922549 -112.5234375 161.57421875 C-118.20198069 157.25193476 -123.50243426 156.10615187 -130.5234375 156.57421875 C-137.22405287 158.52247659 -141.17120355 161.45570486 -146.0859375 166.32421875 C-146.70662109 166.91976562 -147.32730469 167.5153125 -147.96679688 168.12890625 C-151.07989333 171.12838605 -154.12946581 174.18698434 -157.16796875 177.26171875 C-159.86657163 179.96675498 -162.65627798 182.4417469 -165.6484375 184.82421875 C-169.18681509 187.66936318 -172.67887214 190.55092791 -176.11743164 193.51611328 C-186.80521754 202.70888638 -198.20394724 210.92059781 -209.6484375 219.13671875 C-237.72902404 239.32067127 -262.16903741 261.33779772 -269.5234375 296.57421875 C-270.56350663 304.0284098 -270.66854455 311.35816678 -270.6652832 318.87744141 C-270.67061629 320.88332189 -270.67595534 322.88920238 -270.68151987 324.89508224 C-270.68668977 327.03448262 -270.68962138 329.17387694 -270.69210243 331.31328201 C-270.69805307 335.78542115 -270.71462875 340.25748244 -270.73344421 344.72958374 C-270.7397799 346.26527591 -270.74610555 347.80096813 -270.75242138 349.33666039 C-270.75558719 350.10521189 -270.758753 350.8737634 -270.76201475 351.66560435 C-270.8039878 362.0644912 -270.83709083 372.46333862 -270.84936523 382.86230469 C-270.85775189 389.89569582 -270.88025561 396.92889052 -270.9187209 403.96218336 C-270.9384434 407.67745017 -270.95089845 411.39242363 -270.94588661 415.10774612 C-270.94036716 419.24869943 -270.96566667 423.38892103 -270.9934082 427.52978516 C-270.98680679 428.75282852 -270.98020538 429.97587189 -270.97340393 431.23597717 C-271.04654663 437.88005749 -271.45906583 442.21344987 -275.5234375 447.57421875 C-278.95874133 449.83170413 -283.04819022 450.28017185 -287.12127209 450.101964 C-290.95945971 449.25873094 -292.64098509 447.12458929 -295.07032204 444.15215111 C-297.89274619 439.1449657 -297.46722571 433.85386653 -297.3815918 428.23950195 C-297.38617353 426.90294078 -297.39378019 425.56638712 -297.40415955 424.2298584 C-297.42318157 420.61484667 -297.39860625 417.00134275 -297.36492133 413.38648629 C-297.33584582 409.57799687 -297.34367754 405.76955803 -297.34638977 401.96098328 C-297.34540071 395.55275856 -297.31703429 389.14511318 -297.27124023 382.73706055 C-297.21891665 375.38331464 -297.20453597 368.03029525 -297.2122733 360.67638332 C-297.21925809 353.55363441 -297.20314499 346.43112544 -297.17551613 339.30843163 C-297.16396815 336.30301066 -297.15925618 333.29770314 -297.16031456 330.29226112 C-297.14885551 288.95530699 -287.46096458 254.57021364 -258.0234375 224.51171875 C-250.03525386 216.59110887 -241.18661907 209.9550169 -232.06689453 203.40332031 C-227.90362308 200.40934549 -223.77723781 197.36546112 -219.6484375 194.32421875 C-218.86170654 193.74631592 -218.07497559 193.16841309 -217.2644043 192.57299805 C-210.22794679 187.3910764 -203.34007319 182.04096123 -196.5234375 176.57421875 C-195.09644531 175.43919922 -195.09644531 175.43919922 -193.640625 174.28125 C-187.20791869 169.10392939 -181.09973465 163.61959975 -175.05712891 157.99902344 C-170.57036046 153.83079984 -166.04821977 149.7010769 -161.5234375 145.57421875 C-160.76933594 144.87941406 -160.01523437 144.18460938 -159.23828125 143.46875 C-149.80780317 134.94679582 -140.3539604 131.04059719 -127.6484375 131.13671875 C-126.71902344 131.11673828 -125.78960938 131.09675781 -124.83203125 131.07617188 C-115.16943357 131.08291009 -107.64721873 134.62930844 -99.5234375 139.57421875 C-99.41676758 138.9603833 -99.31009766 138.34654785 -99.20019531 137.71411133 C-98.07580884 131.64184482 -96.42532695 126.03998409 -94.2734375 120.26171875 C-91.50908065 112.6027736 -89.11149251 104.91425681 -86.93676758 97.06958008 C-84.77178845 89.31096998 -82.37868944 81.63237427 -79.9609375 73.94921875 C-77.42120597 65.86440672 -74.96903651 57.79226669 -72.8984375 49.57421875 C-63.3934795 12.53289803 -63.3934795 12.53289803 -46.38671875 1.265625 C-31.55861724 -7.49367644 -15.3436039 -8.66937372 0 0 Z " fill="#0F2A4E" transform="translate(1008.5234375,575.42578125)"/>
<path d="M0 0 C14.70718985 10.56490878 18.83311244 25.53571955 23.5 42.125 C24.0676362 44.09711017 24.63649225 46.06886961 25.20654297 48.0402832 C28.56990063 59.72233583 31.84713739 71.43249815 34.90820312 83.19775391 C36.86228209 90.70199649 39.2096476 97.99133696 41.9375 105.25 C43.8333165 110.41646175 45.46565889 115.6410341 47.05078125 120.91015625 C48.1046002 124.3404887 49.26646975 127.72250394 50.484375 131.09765625 C51 133 51 133 51 137 C51.58265625 136.60167969 52.1653125 136.20335937 52.765625 135.79296875 C62.29002777 129.63804809 72.61980556 126.61064842 84 128 C95.72882101 130.54100529 105.89869638 135.20582289 114.12890625 144.015625 C115.88120159 145.8740092 117.68421659 147.52983298 119.625 149.1875 C122.82602871 151.93573093 125.91837759 154.77924742 128.99267578 157.66699219 C135.45342256 163.73076794 142.03313935 169.51657736 149 175 C149.6388916 175.50611816 150.2777832 176.01223633 150.93603516 176.53369141 C159.99759251 183.70385004 169.19079567 190.64523097 178.58227539 197.37695312 C188.84737191 204.74224742 198.80733507 212.30344715 208 221 C208.89460938 221.83015625 209.78921875 222.6603125 210.7109375 223.515625 C222.1784128 234.50127361 232.17004137 248.1601053 238 263 C238.29585778 263.70017368 238.59171556 264.40034737 238.89653873 265.12173843 C247.56067677 285.9062454 248.89966389 307.09861405 248.70715833 329.30486774 C248.68022966 333.08422682 248.68609963 336.86356985 248.6872406 340.64300537 C248.68446207 346.95946344 248.65880783 353.27547963 248.61743164 359.59179688 C248.56987684 366.87797653 248.55445305 374.16367932 248.5566383 381.45000291 C248.55866494 389.26610795 248.53789081 397.08203164 248.51029849 404.89808178 C248.50392754 407.13315464 248.50177841 409.36819802 248.50058174 411.60327911 C248.49700337 415.7569059 248.46785742 419.90997212 248.43579102 424.06347656 C248.43715057 425.29145966 248.43851013 426.51944275 248.43991089 427.78463745 C248.35832908 435.001272 247.84398779 439.82142541 242.875 445.375 C238.84378382 447.65351349 235.52093829 448.04151309 231 447 C227.07851626 444.67480797 224.45203571 442.35610714 223 438 C222.90599007 436.17567859 222.87101449 434.34808762 222.86869812 432.52134705 C222.86268585 430.81245049 222.86268585 430.81245049 222.85655212 429.06903076 C222.85708084 427.81769348 222.85760956 426.5663562 222.8581543 425.27709961 C222.85282014 423.25436416 222.84748 421.23162873 222.84191763 419.2088939 C222.8367177 417.03124454 222.8338057 414.85360124 222.83133507 412.67594719 C222.82540981 408.12145597 222.80884962 403.56704233 222.78999329 399.0125885 C222.78365523 397.45012956 222.77732961 395.88767057 222.77101612 394.32521152 C222.76785031 393.54246235 222.7646845 392.75971318 222.76142275 391.95324433 C222.71947075 381.3532026 222.68644829 370.75319525 222.67407227 360.15307617 C222.66563663 353.00133194 222.64293672 345.84977849 222.6047166 338.69812971 C222.58512278 334.92150397 222.57249453 331.14516232 222.57755089 327.36848259 C222.61559428 292.15637794 215.96592325 265.51580949 190.70703125 239.5546875 C187.12073135 236.0134621 183.28273046 232.95139508 179.25 229.9375 C178.52047119 229.38586182 177.79094238 228.83422363 177.03930664 228.26586914 C169.95166838 222.9228803 162.79662146 217.6702417 155.64453125 212.4140625 C154.09630672 211.27610622 152.54812836 210.13808712 151 209 C150.2786084 208.46987305 149.5572168 207.93974609 148.81396484 207.39355469 C139.5728879 200.5870353 130.66066267 193.53153328 122 186 C121.28714844 185.38769531 120.57429687 184.77539062 119.83984375 184.14453125 C115.81252442 180.66300879 111.87024561 177.08767267 107.9375 173.5 C107.41551025 173.02409424 106.89352051 172.54818848 106.35571289 172.05786133 C103.59177031 169.52011928 100.94119892 166.92356552 98.375 164.1875 C92.48726522 158.18403579 85.20437599 154.02034852 76.75 153.625 C70.57378313 153.72658251 66.65556267 156.32510071 62.390625 160.62109375 C58.42277596 165.80381792 58.25754345 171.18209362 58.53515625 177.546875 C60.58443144 192.77006211 76.27877099 204.42703558 86.68863297 214.76379776 C88.55734745 216.61950259 90.42270326 218.47852967 92.287323 220.33834839 C96.23036112 224.27010327 100.17739827 228.19782788 104.125 232.125 C108.7388567 236.71520945 113.35103554 241.30708066 117.95907211 245.90313339 C119.79678145 247.7343644 121.63747209 249.56256225 123.478302 251.39065552 C124.59521855 252.50394278 125.71199675 253.61736886 126.82861328 254.73095703 C127.34072861 255.23790604 127.85284393 255.74485504 128.38047791 256.26716614 C131.80931209 259.69548059 133.15242597 261.47445413 133.25 266.3125 C133.19795712 270.3653396 132.64195673 272.79190969 130 276 C126.28629483 279.26549937 123.54716677 279.74947257 118.68824768 279.4861908 C115.715964 278.94862985 114.71057454 278.33924045 112.53491211 276.30688477 C111.8464621 275.66800323 111.15801208 275.0291217 110.44869995 274.37088013 C109.64062897 273.58848969 108.83255798 272.80609924 108 272 C107.5237682 271.54100689 107.04753639 271.08201378 106.55687332 270.60911179 C102.40078853 266.59555018 98.29249201 262.53448577 94.19140625 258.46484375 C93.53698988 257.81575106 92.88257351 257.16665836 92.20832634 256.49789619 C88.74530121 253.06145734 85.28586736 249.62144439 81.82885742 246.17895508 C78.99333887 243.35675645 76.15074144 240.54199894 73.30151367 237.73364258 C69.83147509 234.31334513 66.3742718 230.8805396 62.92548943 227.43881416 C61.6226361 226.14260141 60.31559112 224.85058554 59.00399971 223.56321526 C47.85474951 212.60823585 38.3766931 201.37052934 34 186 C33.81405273 185.36771484 33.62810547 184.73542969 33.43652344 184.08398438 C33 182 33 182 33.359375 178.3515625 C35.02851554 160.92254146 28.28763448 145.71965093 22.39454651 129.66993713 C20.12510564 123.4573321 18.16433939 117.1986378 16.4375 110.8125 C14.85479119 105.00449857 13.12510757 99.37477072 10.984375 93.7421875 C7.2139641 83.2389 4.51143774 72.30026911 1.5 61.5625 C1.04898926 59.96124268 1.04898926 59.96124268 0.58886719 58.32763672 C-0.77446382 53.46845206 -2.11368685 48.60862232 -3.34765625 43.71484375 C-6.774073 29.56794964 -6.774073 29.56794964 -16.625 19.4375 C-21.93643447 17.25402311 -27.38022252 17.02649524 -33 18 C-37.68731975 20.00688764 -40.92202627 22.356212 -43.7265625 26.6328125 C-45.36824246 30.97369633 -45.41018754 34.65158119 -45.3125 39.25 C-45.29558105 40.57499512 -45.29558105 40.57499512 -45.27832031 41.92675781 C-44.97402001 56.84815003 -42.52150953 71.38957527 -40 86.0703125 C-39.10851682 91.28682967 -38.31789312 96.5123563 -37.5625 101.75 C-35.68512138 114.55372219 -33.35205519 127.2763116 -31 140 C-30.77441406 141.22654297 -30.54882812 142.45308594 -30.31640625 143.71679688 C-18.48534197 215.05013442 -18.48534197 215.05013442 19 275 C19.87011719 275.89589844 20.74023438 276.79179688 21.63671875 277.71484375 C26.55986698 282.72846331 31.64297502 287.4573876 37 292 C39.25220731 293.91408598 41.5019958 295.83097942 43.75 297.75 C44.35118652 298.26312744 44.95237305 298.77625488 45.57177734 299.30493164 C50.59771883 303.614129 55.48138646 308.06290611 60.34375 312.5546875 C64.81507677 316.67093832 69.39591324 320.64539203 74.0390625 324.56640625 C81.32755639 330.73472504 88.39771425 337.08032681 95.31835938 343.66015625 C98.54440095 346.72306466 101.80351433 349.70541453 105.1875 352.59375 C117.35384044 363.17388348 126.54541013 379.83814575 128.20620728 396.00762939 C128.47379518 400.79885754 128.36963327 405.58064042 128.25 410.375 C128.22986392 411.80466191 128.21162595 413.23435186 128.1953125 414.6640625 C128.15197155 418.10997396 128.08335688 421.55479596 128 425 C126.85402344 424.43410156 125.70804688 423.86820313 124.52734375 423.28515625 C122.99764029 422.54376623 121.46767855 421.80290897 119.9375 421.0625 C118.80924805 420.50272461 118.80924805 420.50272461 117.65820312 419.93164062 C113.03260236 417.70894935 109.12151556 416.42849333 104 416 C103.89042969 414.74445313 103.78085937 413.48890625 103.66796875 412.1953125 C101.47558023 388.42345519 93.19427991 375.26715737 75.00390625 359.72265625 C72.75737755 357.79142982 70.56723628 355.80511802 68.375 353.8125 C64.37269197 350.19632582 60.29716812 346.67992801 56.1875 343.1875 C50.83317969 338.63209218 45.6245844 333.94609194 40.47998047 329.15576172 C37.02595049 325.94001407 33.52546983 322.79466969 29.95703125 319.70703125 C27.6144085 317.66366569 25.30726578 315.58319141 23 313.5 C20.01937279 310.81016569 17.02754767 308.13689636 14 305.5 C13.35804688 304.93796875 12.71609375 304.3759375 12.0546875 303.796875 C10.58456945 302.51122043 9.11010965 301.23052386 7.6328125 299.953125 C-11.92276908 282.7734552 -25.06289496 261.42608269 -34.375 237.25 C-34.68453613 236.44804199 -34.99407227 235.64608398 -35.31298828 234.81982422 C-53.69333319 185.09594389 -88.26655918 73.0368058 -69.375 21.5 C-68.62485901 19.97880816 -67.83226781 18.47785872 -67 17 C-66.57589844 16.16210938 -66.15179688 15.32421875 -65.71484375 14.4609375 C-60.06171941 4.03651323 -51.21324954 -3.17797423 -39.9375 -6.75 C-25.32857274 -10.43241555 -12.6498526 -7.58991156 0 0 Z " fill="#0F294D" transform="translate(294,578)"/>
<path d="M0 0 C0.33 0 0.66 0 1 0 C1.495 11.385 1.495 11.385 2 23 C19.34325471 32.23823937 36.62878875 40.94385815 55 48 C56.04849121 48.41056641 57.09698242 48.82113281 58.17724609 49.24414062 C116.33733831 71.84507782 181.01040829 80.34116585 243 74 C244.14645996 73.8870459 245.29291992 73.7740918 246.47412109 73.65771484 C280.52488259 70.17763291 313.88700353 62.84099619 346 51 C347.51499232 50.46045976 349.03053208 49.92245148 350.546875 49.38671875 C354.3976861 48.00700363 358.20105194 46.5157419 362 45 C362.86689453 44.6606543 363.73378906 44.32130859 364.62695312 43.97167969 C381.38691046 37.38214947 397.17763865 29.57895243 412.578125 20.23828125 C426.11866993 12.10124744 426.11866993 12.10124744 434 14 C439.28097404 15.79353835 441.79895251 18.60999202 445 23 C446.6270583 27.8811749 446.41143185 31.74405013 444.8125 36.625 C440.49262021 44.66891409 433.55534081 47.69409422 425.6875 51.8125 C424.50565535 52.43842626 423.32409785 53.06489498 422.14282227 53.69189453 C413.49334395 58.26136259 404.81032968 62.74884606 396 67 C395.30616211 67.33725098 394.61232422 67.67450195 393.89746094 68.02197266 C391.70591061 69.08446836 389.51014132 70.13766663 387.3125 71.1875 C386.67175537 71.49671387 386.03101074 71.80592773 385.37084961 72.12451172 C339.78709854 93.64905942 288.98262054 104.14184148 239 108 C237.92355225 108.0942627 236.84710449 108.18852539 235.73803711 108.28564453 C198.86794086 111.32037674 160.98158838 109.45064282 124.5625 103.0625 C123.87056549 102.94138855 123.17863098 102.8202771 122.46572876 102.69549561 C114.16872126 101.21659881 106.12187681 99.28361384 98.04418945 96.88598633 C94.48482869 95.85006362 90.94100543 95.06694172 87.3125 94.3125 C52.60655448 86.53521125 18.9616885 70.86480876 -12.25 54.0625 C-13.19456055 53.55565674 -14.13912109 53.04881348 -15.11230469 52.52661133 C-30.71369232 43.95875111 -30.71369232 43.95875111 -35.125 38.25 C-36.78120661 32.09837545 -37.15619204 26.35520601 -34.3125 20.5625 C-30.22990735 16.03854598 -27.02822079 13.29945323 -20.83984375 12.6875 C-16.01298522 13.08032674 -12.76369738 14.72590506 -8.5625 17 C-6.066875 18.32 -3.57125 19.64 -1 21 C-0.67 14.07 -0.34 7.14 0 0 Z " fill="#8BB851" transform="translate(422,981)"/>
<path d="M0 0 C1.45642779 1.20667934 2.89390755 2.43655939 4.3125 3.6875 C5.06273437 4.34363281 5.81296875 4.99976563 6.5859375 5.67578125 C16.34890502 14.78899496 22.2147978 26.09577543 26.3125 38.6875 C26.68181641 39.76837891 26.68181641 39.76837891 27.05859375 40.87109375 C31.9463078 58.16348899 27.38419435 78.61132524 18.9765625 94.046875 C16.11505294 98.58767421 12.87404002 102.67902162 9.3125 106.6875 C8.75820313 107.32429688 8.20390625 107.96109375 7.6328125 108.6171875 C-3.6665995 120.78162626 -20.88193316 128.245933 -37.328125 128.90234375 C-57.38753667 129.42112164 -73.54429768 124.33002462 -88.6875 110.6875 C-89.31011719 110.14609375 -89.93273437 109.6046875 -90.57421875 109.046875 C-99.52186191 100.76276493 -105.05033454 90.19141347 -108.6875 78.6875 C-109.0071875 77.68332031 -109.326875 76.67914063 -109.65625 75.64453125 C-114.51056064 57.91281323 -112.20002866 40.01231626 -103.875 23.75 C-100.65601776 18.3107454 -96.8374117 13.44311873 -92.6875 8.6875 C-92.16800781 8.07261719 -91.64851562 7.45773437 -91.11328125 6.82421875 C-67.963904 -18.54096791 -26.83052475 -19.98411499 0 0 Z " fill="#72B2E8" transform="translate(668.6875,393.3125)"/>
<path d="M0 0 C1.1281311 0.00628418 1.1281311 0.00628418 2.27905273 0.01269531 C8.63709184 0.14271939 13.01658208 1.32544788 18.6328125 4.47265625 C19.33148437 4.85292969 20.03015625 5.23320313 20.75 5.625 C21.36230469 5.99238281 21.97460938 6.35976563 22.60546875 6.73828125 C25.47868257 7.58132003 26.90428732 6.59618369 29.5625 5.3125 C42.49265473 -0.63032878 54.03778511 -1.69475336 67.625 3.05078125 C79.71820958 8.24507207 88.60987766 17.60781246 93.56640625 29.77734375 C100.05005342 48.60184592 95.47592901 65.57094213 87.29296875 83.01953125 C77.248092 102.79085926 59.90552758 119.25866031 41.5625 131.3125 C40.56089844 131.97507812 39.55929687 132.63765625 38.52734375 133.3203125 C33.59951706 136.30057337 29.12620179 138.42751435 23.27734375 138.01171875 C1.1996356 132.32551766 -21.14373352 108.1137414 -32.4375 89.3125 C-38.79420146 78.28248146 -44.50236923 66.17054816 -45.4375 53.3125 C-45.50066406 52.44496094 -45.56382812 51.57742188 -45.62890625 50.68359375 C-46.20744193 36.36950128 -40.69134569 24.54855912 -31.8125 13.625 C-23.33043609 4.44288091 -12.35383829 -0.09393503 0 0 Z " fill="#102A4E" transform="translate(601.4375,893.6875)"/>
<path d="M0 0 C6.20822515 3.09869527 10.83575324 8.13119966 15.48828125 13.1796875 C18.56035181 11.82983831 20.40342379 10.37132246 22.61328125 7.8671875 C28.30440425 2.09148306 34.38338187 -1.06084205 42.55078125 -1.4453125 C50.15770787 -1.0840079 55.5996813 1.89371075 60.80078125 7.3671875 C66.42992991 14.67410471 68.3004129 22.23903014 67.9921875 31.40625 C64.82539808 55.12034753 46.35183248 74.82617531 28.1484375 88.76953125 C19.43751294 95.18265385 19.43751294 95.18265385 15.98828125 95.171875 C6.3481545 91.3459497 -2.12025956 83.22858352 -9.51171875 76.1796875 C-10.10082031 75.66535156 -10.68992187 75.15101563 -11.296875 74.62109375 C-22.16907008 64.72559704 -33.4549394 47.71878096 -34.71484375 32.76953125 C-34.88145259 23.34224746 -33.59523811 14.39002914 -27.35546875 6.97265625 C-19.57752458 -0.59106489 -10.59089862 -3.4589249 0 0 Z " fill="#F1BC50" transform="translate(610.51171875,914.8203125)"/>
<path d="M0 0 C8.12995393 5.82314185 13.86534026 13.13715251 17.19140625 22.671875 C19.2402318 35.07740112 17.58034545 46.40059856 10.265625 56.69140625 C4.4930028 63.85470562 -3.18423754 69.88399842 -12.54443359 71.09472656 C-24.74772777 72.03688298 -34.10631917 70.7202177 -43.703125 62.69921875 C-51.1230913 55.60591764 -55.89892383 47.54660699 -56.75390625 37.17578125 C-56.79484533 24.15715427 -54.30480609 15.35706112 -45.44921875 5.62109375 C-33.50324842 -5.91884181 -14.46598044 -8.57169283 0 0 Z " fill="#8BB851" transform="translate(646.453125,77.17578125)"/>
<path d="M0 0 C0.33 0 0.66 0 1 0 C1 1.65 1 3.3 1 5 C1.66 5 2.32 5 3 5 C3 50.54 3 96.08 3 143 C2.34 143 1.68 143 1 143 C0.67 95.81 0.34 48.62 0 0 Z " fill="#263A57" transform="translate(539,872)"/>
<path d="M0 0 C3.52816195 4.2589955 6.64059285 8.74632336 9.75 13.3125 C10.25660156 14.05306641 10.76320313 14.79363281 11.28515625 15.55664062 C12.52519457 17.36990421 13.76342265 19.18437521 15 21 C14.67 21.66 14.34 22.32 14 23 C9.05 23 4.1 23 -1 23 C-1.02682987 19.35411831 -1.04675569 15.70843154 -1.0625 12.0625 C-1.07087891 11.02158203 -1.07925781 9.98066406 -1.08789062 8.90820312 C-1.09272461 7.42416992 -1.09272461 7.42416992 -1.09765625 5.91015625 C-1.10289307 4.99371338 -1.10812988 4.07727051 -1.11352539 3.13305664 C-1 1 -1 1 0 0 Z " fill="#F1F1F2" transform="translate(400,663)"/>
<path d="M0 0 C2.59500704 3.89251056 1.86590203 5.5130531 1 10 C0.81832275 10.63969727 0.63664551 11.27939453 0.44946289 11.93847656 C-0.05428852 14.24900178 -0.02231428 16.18860954 0.12109375 18.546875 C0.16943359 19.39121094 0.21777344 20.23554687 0.26757812 21.10546875 C0.32365234 21.97816406 0.37972656 22.85085938 0.4375 23.75 C0.48970703 24.63816406 0.54191406 25.52632812 0.59570312 26.44140625 C0.72501733 28.62799196 0.85996642 30.81407894 1 33 C0.01 33.495 0.01 33.495 -1 34 C-3.64417748 22.00676642 -3.88075528 11.73466477 0 0 Z " fill="#2F3F5F" transform="translate(559,924)"/>
<path d="M0 0 C-1.33106131 2.95594626 -2.785078 5.03288866 -5.08203125 7.3125 C-5.68466797 7.91320312 -6.28730469 8.51390625 -6.90820312 9.1328125 C-7.53662109 9.74898437 -8.16503906 10.36515625 -8.8125 11 C-9.42931641 11.61617187 -10.04613281 12.23234375 -10.68164062 12.8671875 C-13.97542032 16.12946452 -17.3055436 19.18517608 -21 22 C-21.33 21.34 -21.66 20.68 -22 20 C-17.79391293 14.96454365 -13.33996138 10.18448511 -8.75 5.5 C-8.23083008 4.95956055 -7.71166016 4.41912109 -7.17675781 3.86230469 C-3.34922629 0 -3.34922629 0 0 0 Z " fill="#142D51" transform="translate(762,792)"/>
<path d="M0 0 C2.56780471 3.8415976 2.22688882 7.8139175 2.125 12.25 C2.11597656 12.99507812 2.10695313 13.74015625 2.09765625 14.5078125 C2.07418358 16.33868059 2.03831525 18.16938238 2 20 C1.20207031 20.12246094 0.40414063 20.24492188 -0.41796875 20.37109375 C-3.15808353 20.7227493 -3.15808353 20.7227493 -4.3125 23.0625 C-4.539375 23.701875 -4.76625 24.34125 -5 25 C-6.2717318 22.45653639 -5.8242734 21.72562084 -5.0390625 19.04296875 C-4.81476563 18.25986328 -4.59046875 17.47675781 -4.359375 16.66992188 C-4.11703125 15.85072266 -3.8746875 15.03152344 -3.625 14.1875 C-1.55072903 7.15822913 -1.55072903 7.15822913 0 0 Z " fill="#E9EFF4" transform="translate(1109,695)"/>
<path d="M0 0 C0.99 0.33 1.98 0.66 3 1 C-3.93 7.93 -10.86 14.86 -18 22 C-18.99 21.67 -19.98 21.34 -21 21 C-14.07 14.07 -7.14 7.14 0 0 Z " fill="#A5C787" transform="translate(887,814)"/>
<path d="M0 0 C0.66 0.66 1.32 1.32 2 2 C-4.27 8.27 -10.54 14.54 -17 21 C-17.99 20.67 -18.98 20.34 -20 20 C-13.4 13.4 -6.8 6.8 0 0 Z " fill="#E8EFF5" transform="translate(988,922)"/>
<path d="M0 0 C0.66 0.99 1.32 1.98 2 3 C1.56538296 4.63817193 1.11695283 6.27459667 0.58203125 7.8828125 C-0.50374686 11.83242148 -0.68863976 15.92773586 -1 20 C-1.33 20 -1.66 20 -2 20 C-2.33 24.29 -2.66 28.58 -3 33 C-3.33 33 -3.66 33 -4 33 C-4.45368983 21.17885936 -4.10677272 11.23862355 0 0 Z " fill="#63A1D6" transform="translate(561,426)"/>
<path d="M0 0 C0.66 0.33 1.32 0.66 2 1 C0.02 3.31 -1.96 5.62 -4 8 C-4.99 7.67 -5.98 7.34 -7 7 C-4.69 4.69 -2.38 2.38 0 0 Z M-7 8 C-8.54225977 12.16410137 -11.60282605 14.36698254 -15 17 C-15.94875 17.763125 -16.8975 18.52625 -17.875 19.3125 C-18.57625 19.869375 -19.2775 20.42625 -20 21 C-20.66 20.67 -21.32 20.34 -22 20 C-19.88046983 17.99390948 -17.75486559 15.99506397 -15.625 14 C-15.02171875 13.42765625 -14.4184375 12.8553125 -13.796875 12.265625 C-13.21679688 11.72421875 -12.63671875 11.1828125 -12.0390625 10.625 C-11.50490723 10.12226562 -10.97075195 9.61953125 -10.42041016 9.1015625 C-9 8 -9 8 -7 8 Z " fill="#EAEDF0" transform="translate(899,924)"/>
<path d="M0 0 C0.99 0 1.98 0 3 0 C3.05383848 2.45862401 3.09359038 4.9160755 3.125 7.375 C3.14175781 8.07367188 3.15851563 8.77234375 3.17578125 9.4921875 C3.19344267 11.32897486 3.10303261 13.16601963 3 15 C2.34 15.66 1.68 16.32 1 17 C-0.18681726 13.43954823 -0.09689832 10.56191663 -0.0625 6.8125 C-0.05347656 5.54019531 -0.04445313 4.26789063 -0.03515625 2.95703125 C-0.02355469 1.98121094 -0.01195312 1.00539063 0 0 Z " fill="#1A3155" transform="translate(347,491)"/>
<path d="M0 0 C2.31 0 4.62 0 7 0 C7 3 7 3 5.6875 4.38671875 C4.125 5.59114583 2.5625 6.79557292 1 8 C0 7 0 7 -0.0625 3.4375 C-0.041875 2.303125 -0.02125 1.16875 0 0 Z " fill="#ECEDEE" transform="translate(741,801)"/>
<path d="M0 0 C0.66 0.66 1.32 1.32 2 2 C1.3503125 2.62648438 0.700625 3.25296875 0.03125 3.8984375 C-1.22171875 5.12433594 -1.22171875 5.12433594 -2.5 6.375 C-3.3353125 7.18710937 -4.170625 7.99921875 -5.03125 8.8359375 C-7.22431286 10.7589659 -7.22431286 10.7589659 -7 13 C-8.65 12.67 -10.3 12.34 -12 12 C-8 8 -4 4 0 0 Z " fill="#C5DEF1" transform="translate(697,515)"/>
<path d="M0 0 C4.29 0.99 8.58 1.98 13 3 C12.67 3.66 12.34 4.32 12 5 C8.04 5 4.08 5 0 5 C0 3.35 0 1.7 0 0 Z " fill="#F2F3F4" transform="translate(741,138)"/>
<path d="M0 0 C2.64 0 5.28 0 8 0 C8.33 0.99 8.66 1.98 9 3 C2.375 5.125 2.375 5.125 -1 4 C-0.67 2.68 -0.34 1.36 0 0 Z " fill="#EDF0F2" transform="translate(457,114)"/>
<path d="M0 0 C-5.1468192 3.16727335 -9.158256 3.35050464 -15 3 C-15.33 3.66 -15.66 4.32 -16 5 C-18.97 4.505 -18.97 4.505 -22 4 C-22 3.67 -22 3.34 -22 3 C-20.86820312 2.79503906 -19.73640625 2.59007812 -18.5703125 2.37890625 C-17.08851239 2.10693028 -15.60674315 1.83478613 -14.125 1.5625 C-13.37863281 1.42779297 -12.63226563 1.29308594 -11.86328125 1.15429688 C-2.13885339 -0.64165602 -2.13885339 -0.64165602 0 0 Z " fill="#455976" transform="translate(448,293)"/>
<path d="M0 0 C0 0.66 0 1.32 0 2 C-0.66 2 -1.32 2 -2 2 C-2.33 2.99 -2.66 3.98 -3 5 C-7.33333333 9.66666667 -7.33333333 9.66666667 -10 11 C-10.33 10.01 -10.66 9.02 -11 8 C-9.54712339 6.66072279 -8.08752741 5.32873153 -6.625 4 C-5.81289063 3.2575 -5.00078125 2.515 -4.1640625 1.75 C-2 0 -2 0 0 0 Z " fill="#1F3B61" transform="translate(579,901)"/>
<path d="M0 0 C0.33 0 0.66 0 1 0 C1.33 6.27 1.66 12.54 2 19 C1.34 19.33 0.68 19.66 0 20 C-1.18225237 13.16920852 -0.74464946 6.87368733 0 0 Z " fill="#19355B" transform="translate(558,938)"/>
<path d="M0 0 C0.99 0.33 1.98 0.66 3 1 C-0.16952847 4.26008643 -3.39937989 7.22237877 -7 10 C-7 7 -7 7 -5.46875 5.17578125 C-4.8190625 4.56089844 -4.169375 3.94601562 -3.5 3.3125 C-2.8503125 2.68988281 -2.200625 2.06726563 -1.53125 1.42578125 C-0.77328125 0.72001953 -0.77328125 0.72001953 0 0 Z " fill="#1B3458" transform="translate(515,558)"/>
<path d="M0 0 C4.00972202 3.67557852 6.45335415 7.18966896 9 12 C8.34 12.66 7.68 13.32 7 14 C6.67 12.35 6.34 10.7 6 9 C5.34 9 4.68 9 4 9 C1.98217268 6.09432866 0.64505596 3.48330216 0 0 Z " fill="#162F55" transform="translate(699,390)"/>
<path d="M0 0 C0.33 0 0.66 0 1 0 C1 6.93 1 13.86 1 21 C0.67 21 0.34 21 0 21 C-0.06058594 20.03578125 -0.12117187 19.0715625 -0.18359375 18.078125 C-0.26738281 16.81484375 -0.35117187 15.5515625 -0.4375 14.25 C-0.51871094 12.99703125 -0.59992187 11.7440625 -0.68359375 10.453125 C-0.87421405 7.1631908 -0.87421405 7.1631908 -1.66015625 4.734375 C-2 3 -2 3 0 0 Z " fill="#F3F3F3" transform="translate(910,322)"/>
<path d="M0 0 C0.66 0.33 1.32 0.66 2 1 C0.90344712 2.31886772 -0.20253423 3.62990057 -1.3125 4.9375 C-1.92738281 5.66839844 -2.54226563 6.39929688 -3.17578125 7.15234375 C-5 9 -5 9 -8 10 C-6.34908222 5.70761377 -3.26245434 3.1206085 0 0 Z " fill="#1D3A52" transform="translate(857,928)"/>
<path d="M0 0 C0.66 0.33 1.32 0.66 2 1 C0.02 3.31 -1.96 5.62 -4 8 C-4.99 7.67 -5.98 7.34 -7 7 C-4.69 4.69 -2.38 2.38 0 0 Z M-9 8 C-8.34 8.33 -7.68 8.66 -7 9 C-8.98 9.99 -8.98 9.99 -11 11 C-10.34 10.01 -9.68 9.02 -9 8 Z " fill="#E2E6EA" transform="translate(899,924)"/>
<path d="M0 0 C0.99 0.33 1.98 0.66 3 1 C0.25576034 3.94751667 -2.36219655 6.22773678 -6 8 C-6.99 7.67 -7.98 7.34 -9 7 C-7.57277341 5.8001722 -6.13284224 4.6154424 -4.6875 3.4375 C-3.88699219 2.77621094 -3.08648438 2.11492188 -2.26171875 1.43359375 C-1.51535156 0.96050781 -0.76898437 0.48742187 0 0 Z " fill="#10315B" transform="translate(733,748)"/>
<path d="M0 0 C-0.33 0.66 -0.66 1.32 -1 2 C-5.29942266 2.90949326 -8.74936599 3.15926382 -13 2 C-8.62836676 -0.42868513 -4.86219789 -1.62073263 0 0 Z " fill="#D2DFE8" transform="translate(461,322)"/>
<path d="M0 0 C0 0.66 0 1.32 0 2 C-1.78871178 2.38885039 -3.58112874 2.76069196 -5.375 3.125 C-6.37273438 3.33382812 -7.37046875 3.54265625 -8.3984375 3.7578125 C-9.25695312 3.83773437 -10.11546875 3.91765625 -11 4 C-11.66 3.34 -12.32 2.68 -13 2 C-8.49646738 0.24252386 -4.82360189 -0.19294408 0 0 Z " fill="#97BB83" transform="translate(885,731)"/>
<path d="M0 0 C4.87685861 1.35468295 6.48592381 3.71675909 9 8 C8.34 8.66 7.68 9.32 7 10 C7 9.01 7 8.02 7 7 C6.401875 6.773125 5.80375 6.54625 5.1875 6.3125 C2.43648112 4.66188867 1.47515363 2.8027919 0 0 Z " fill="#253F63" transform="translate(897,307)"/>
<path d="M0 0 C0.66 0.66 1.32 1.32 2 2 C1.2575 2.4125 0.515 2.825 -0.25 3.25 C-2.90171685 4.93745618 -4.86674014 6.70872089 -7 9 C-7.99 8.67 -8.98 8.34 -10 8 C-8.71064081 6.85157077 -7.41843421 5.70633773 -6.125 4.5625 C-5.04605469 3.60537109 -5.04605469 3.60537109 -3.9453125 2.62890625 C-2 1 -2 1 0 0 Z " fill="#233A5C" transform="translate(962,577)"/>
<path d="M0 0 C0.66 0.66 1.32 1.32 2 2 C0.71372289 3.17260611 -0.57919783 4.3379283 -1.875 5.5 C-2.59429687 6.1496875 -3.31359375 6.799375 -4.0546875 7.46875 C-6 9 -6 9 -8 9 C-6.4169423 4.7257442 -3.49431596 2.73468206 0 0 Z " fill="#1D3455" transform="translate(241,578)"/>
<path d="M0 0 C1.98 0.495 1.98 0.495 4 1 C4 1.66 4 2.32 4 3 C4.94875 3.309375 5.8975 3.61875 6.875 3.9375 C10 5 10 5 12 6 C11.67 6.66 11.34 7.32 11 8 C7.04 6.02 3.08 4.04 -1 2 C-0.67 1.34 -0.34 0.68 0 0 Z " fill="#E4E6EA" transform="translate(719,257)"/>
<path d="M0 0 C3.63 0 7.26 0 11 0 C8.1709277 2.8290723 7.61855575 3.37611108 4 4 C3.67 3.34 3.34 2.68 3 2 C2.01 1.34 1.02 0.68 0 0 Z " fill="#F1F5EE" transform="translate(793,1017)"/>
<path d="M0 0 C2.56687367 3.8503105 1.83288724 5.58569763 1 10 C0.01 10.33 -0.98 10.66 -2 11 C-1 3.57142857 -1 3.57142857 0 0 Z " fill="#20395E" transform="translate(559,924)"/>
<path d="M0 0 C0.99 0.33 1.98 0.66 3 1 C0.03 4.96 0.03 4.96 -3 9 C-3.99 8.34 -4.98 7.68 -6 7 C-4.02 4.69 -2.04 2.38 0 0 Z " fill="#1A375E" transform="translate(808,674)"/>
<path d="M0 0 C0.99 0 1.98 0 3 0 C2.34 2.97 1.68 5.94 1 9 C0.34 9 -0.32 9 -1 9 C-0.67 6.03 -0.34 3.06 0 0 Z " fill="#193257" transform="translate(941,607)"/>
<path d="M0 0 C0.66 0.33 1.32 0.66 2 1 C-0.64 3.97 -3.28 6.94 -6 10 C-6.66 9.67 -7.32 9.34 -8 9 C-5.36 6.03 -2.72 3.06 0 0 Z " fill="#D7DEE5" transform="translate(873,947)"/>
<path d="M0 0 C0.66 0.66 1.32 1.32 2 2 C0.92892883 2.86949317 -0.15745944 3.72014205 -1.25 4.5625 C-1.85328125 5.03816406 -2.4565625 5.51382813 -3.078125 6.00390625 C-5 7 -5 7 -9 6 C-6.03 4.02 -3.06 2.04 0 0 Z " fill="#E9ECEF" transform="translate(733,785)"/>
<path d="M0 0 C-2.51822275 2.42472438 -3.67533206 2.99254989 -7.234375 3.07421875 C-8.39453125 2.94660156 -9.5546875 2.81898438 -10.75 2.6875 C-11.92046875 2.56761719 -13.0909375 2.44773437 -14.296875 2.32421875 C-15.18890625 2.21722656 -16.0809375 2.11023438 -17 2 C-17 1.67 -17 1.34 -17 1 C-5.47835991 -0.14806378 -5.47835991 -0.14806378 0 0 Z " fill="#5B6D87" transform="translate(382,304)"/>
<path d="M0 0 C0.33 0.99 0.66 1.98 1 3 C-0.65 4.65 -2.3 6.3 -4 8 C-4.99 7.67 -5.98 7.34 -7 7 C-4.69 4.69 -2.38 2.38 0 0 Z " fill="#A1C383" transform="translate(865,836)"/>
<path d="M0 0 C0.33 0 0.66 0 1 0 C1.2295711 3.36704285 1.33943529 5.41370268 -0.375 8.375 C-0.91125 8.91125 -1.4475 9.4475 -2 10 C-2.66 10 -3.32 10 -4 10 C-2.8905928 6.51329166 -1.73662334 3.22515763 0 0 Z " fill="#213A5E" transform="translate(727,831)"/>
<path d="M0 0 C0.66 0.33 1.32 0.66 2 1 C0.375 6.75 0.375 6.75 -3 9 C-2.5020163 5.26512223 -2.12508244 3.18762365 0 0 Z " fill="#193556" transform="translate(962,825)"/>
<path d="M0 0 C-1.49097658 3.7952131 -3.75700849 5.61042731 -7 8 C-7 5 -7 5 -4.625 2.3125 C-2 0 -2 0 0 0 Z " fill="#DADEE4" transform="translate(812,718)"/>
<path d="M0 0 C0.66 0 1.32 0 2 0 C1.25 5.75 1.25 5.75 -1 8 C-1.66 7.67 -2.32 7.34 -3 7 C-1.125 2.25 -1.125 2.25 0 0 Z " fill="#DFE2E6" transform="translate(917,682)"/>
<path d="M0 0 C0.66 0.33 1.32 0.66 2 1 C0.25 4.875 0.25 4.875 -2 6 C-2 5.34 -2 4.68 -2 4 C-3.32 4.33 -4.64 4.66 -6 5 C-4.06745228 2.9754262 -2.36841312 1.57894208 0 0 Z " fill="#223A5B" transform="translate(860,711)"/>
<path d="M0 0 C-1.98 0.33 -3.96 0.66 -6 1 C-6 1.99 -6 2.98 -6 4 C-7.32 4.33 -8.64 4.66 -10 5 C-10 4.34 -10 3.68 -10 3 C-10.66 2.67 -11.32 2.34 -12 2 C-10.75579353 1.4654744 -9.50429064 0.94791389 -8.25 0.4375 C-7.55390625 0.14746094 -6.8578125 -0.14257812 -6.140625 -0.44140625 C-3.69987216 -1.07831803 -2.3596345 -0.80248831 0 0 Z " fill="#3F5471" transform="translate(874,708)"/>
<path d="M0 0 C2.45823172 3.68734758 3.01242616 6.69699971 4 11 C3.01 10.67 2.02 10.34 1 10 C-0.1577506 6.52674819 -0.06866652 3.63932552 0 0 Z " fill="#354764" transform="translate(341,702)"/>
<path d="M0 0 C0.66 0.66 1.32 1.32 2 2 C-0.8125 4.0625 -0.8125 4.0625 -4 6 C-4.99 5.67 -5.98 5.34 -7 5 C-4.69 3.35 -2.38 1.7 0 0 Z " fill="#1A3358" transform="translate(528,548)"/>
<path d="M0 0 C0.33 0.66 0.66 1.32 1 2 C0.67 2.66 0.34 3.32 0 4 C-0.66 4 -1.32 4 -2 4 C-2.66 5.32 -3.32 6.64 -4 8 C-4.99 8 -5.98 8 -7 8 C-6.02133662 6.85373678 -5.04205413 5.70800212 -4.0625 4.5625 C-3.51722656 3.92441406 -2.97195313 3.28632813 -2.41015625 2.62890625 C-1.63204305 1.73008851 -0.84063472 0.84063472 0 0 Z " fill="#1B3259" transform="translate(565,378)"/>
<path d="M0 0 C0.99 0 1.98 0 3 0 C4.75 2.3125 4.75 2.3125 6 5 C5.67 5.99 5.34 6.98 5 8 C2.74754119 5.31158141 1.11786042 3.35358125 0 0 Z " fill="#1B355E" transform="translate(565,975)"/>
<path d="M0 0 C0.66 0.33 1.32 0.66 2 1 C-1.32307692 5.8 -1.32307692 5.8 -4.75 6.8125 C-5.4925 6.874375 -6.235 6.93625 -7 7 C-4.66666667 4.66666667 -2.33333333 2.33333333 0 0 Z " fill="#4F96D5" transform="translate(926,935)"/>
<path d="M0 0 C0.66 0.33 1.32 0.66 2 1 C0.02 3.97 0.02 3.97 -2 7 C-2.99 6.67 -3.98 6.34 -5 6 C-3.35 4.02 -1.7 2.04 0 0 Z " fill="#DCB256" transform="translate(586,919)"/>
<path d="M0 0 C2 4 2 4 1.125 7.25 C0.75375 8.1575 0.3825 9.065 0 10 C-0.66 10 -1.32 10 -2 10 C-1.34 6.7 -0.68 3.4 0 0 Z " fill="#90B17E" transform="translate(932,721)"/>
<path d="M0 0 C0 0.66 0 1.32 0 2 C-2.875 2.625 -2.875 2.625 -6 3 C-6.66 2.34 -7.32 1.68 -8 1 C-3.375 -1.125 -3.375 -1.125 0 0 Z " fill="#EDEFF0" transform="translate(464,286)"/>
<path d="M0 0 C0.99 0.33 1.98 0.66 3 1 C1.35 2.98 -0.3 4.96 -2 7 C-2.66 6.34 -3.32 5.68 -4 5 C-2.68 3.35 -1.36 1.7 0 0 Z " fill="#20395C" transform="translate(744,807)"/>
<path d="M0 0 C0.33 0.99 0.66 1.98 1 3 C-1.31 4.65 -3.62 6.3 -6 8 C-4.85240511 3.40962044 -3.70960782 2.66330818 0 0 Z " fill="#A6C784" transform="translate(783,805)"/>
<path d="M0 0 C0.33 0 0.66 0 1 0 C1.25 3.25 1.25 3.25 1 7 C-0.32 8.32 -1.64 9.64 -3 11 C-2.01 7.37 -1.02 3.74 0 0 Z " fill="#C8D0DB" transform="translate(892,580)"/>
<path d="M0 0 C-1.98 0.33 -3.96 0.66 -6 1 C-6 1.66 -6 2.32 -6 3 C-6.99 3.33 -7.98 3.66 -9 4 C-9.66 3.34 -10.32 2.68 -11 2 C-3.57142857 -1.57142857 -3.57142857 -1.57142857 0 0 Z " fill="#3E5270" transform="translate(593,896)"/>
<path d="M0 0 C0.66 0.66 1.32 1.32 2 2 C-2.43076923 5.07692308 -2.43076923 5.07692308 -5.3125 4.6875 C-5.869375 4.460625 -6.42625 4.23375 -7 4 C-4.69 2.68 -2.38 1.36 0 0 Z " fill="#E4E9EE" transform="translate(706,803)"/>
<path d="M0 0 C1.485 0.99 1.485 0.99 3 2 C2.6875 3.875 2.6875 3.875 2 6 C1.01 6.66 0.02 7.32 -1 8 C-0.67 5.36 -0.34 2.72 0 0 Z " fill="#D9DEE5" transform="translate(1002,785)"/>
<path d="M0 0 C0.99 0.33 1.98 0.66 3 1 C1.37660195 2.70884005 -0.29319053 4.37446717 -2 6 C-2.66 6 -3.32 6 -4 6 C-2.84826645 3.53199953 -1.95216435 1.95216435 0 0 Z " fill="#18355D" transform="translate(794,691)"/>
<path d="M0 0 C0.66 0.33 1.32 0.66 2 1 C1.49396008 3.16874252 1.00016187 4.99967627 0 7 C-0.66 7 -1.32 7 -2 7 C-1.125 1.125 -1.125 1.125 0 0 Z " fill="#192F54" transform="translate(936,627)"/>
<path d="M0 0 C-1.32 0.33 -2.64 0.66 -4 1 C-4 1.66 -4 2.32 -4 3 C-6.97 2.67 -9.94 2.34 -13 2 C-13 1.67 -13 1.34 -13 1 C-8.61414671 0.29826347 -4.44209357 -0.10834375 0 0 Z " fill="#536681" transform="translate(398,302)"/>
</svg>
