<?xml version="1.0" encoding="UTF-8"?>
<svg version="1.1" xmlns="http://www.w3.org/2000/svg" width="1254" height="1254">
<path d="M0 0 C413.82 0 827.64 0 1254 0 C1254 413.82 1254 827.64 1254 1254 C840.18 1254 426.36 1254 0 1254 C0 840.18 0 426.36 0 0 Z " fill="#F9F9F9" transform="translate(0,0)"/>
<path d="M0 0 C0.87027832 0.00491455 1.74055664 0.0098291 2.63720703 0.01489258 C26.31821371 0.43877695 46.76191162 9.72845548 63.375 26.3125 C64.07109375 26.99699219 64.7671875 27.68148438 65.484375 28.38671875 C82.15977083 45.87003105 88.17520069 69.0210211 87.68359375 92.56640625 C86.66147485 117.74615699 75.82135183 140.12217479 57.375 157.3125 C47.64660494 165.3125 47.64660494 165.3125 44.375 165.3125 C44.375 165.9725 44.375 166.6325 44.375 167.3125 C45.20773437 167.56773437 46.04046875 167.82296875 46.8984375 168.0859375 C63.62201266 173.98616514 77.73452716 184.09220908 90.375 196.3125 C91.20257812 197.08851563 92.03015625 197.86453125 92.8828125 198.6640625 C114.75087085 219.64257271 127.74485552 253.48586698 128.56553268 283.51583862 C128.67485342 289.98817652 128.66864623 296.46052278 128.66552734 302.93359375 C128.67151886 305.41997986 128.67832583 307.90636412 128.68588257 310.39274597 C128.7016524 316.41721408 128.70798743 322.44162049 128.70910732 328.46610349 C128.71006122 333.36182771 128.71418841 338.25753912 128.72050858 343.15325928 C128.73808443 357.05152622 128.74735169 370.94976244 128.74584763 384.84804058 C128.74576772 385.5950866 128.7456878 386.34213263 128.74560547 387.11181641 C128.74552371 387.85977887 128.74544195 388.60774134 128.74535771 389.37836933 C128.74454297 401.52805456 128.76373714 413.67761637 128.7918822 425.82726586 C128.82059302 438.31999747 128.8344239 450.81266878 128.83269465 463.30543423 C128.83203075 470.31255258 128.83752484 477.31954106 128.85905075 484.32662964 C128.87913585 490.90622261 128.87860791 497.48558743 128.86401749 504.06521034 C128.86192002 506.48196119 128.86668569 508.89872897 128.8787384 511.31545067 C128.89410192 514.60857686 128.88494145 517.90074314 128.86947632 521.19384766 C128.87976344 522.15482581 128.89005057 523.11580397 128.90064943 524.10590267 C128.85614569 528.37956004 128.77560884 530.67654264 126.45347023 534.36288452 C123.0726507 537.53411016 120.85017643 538.42133935 116.25 538.5625 C112.375 538.3125 112.375 538.3125 110.375 536.3125 C108.36563431 536.58372062 106.36605369 536.92933382 104.375 537.3125 C71.57207802 538.99369862 35.88744434 533.1767251 3.92138672 526.03417969 C0.63724385 525.36586588 -2.60129899 524.89604741 -5.92578125 524.484375 C-14.61386044 523.26932713 -23.05392589 521.23348342 -31.5625 519.125 C-32.36949341 518.92718933 -33.17648682 518.72937866 -34.00793457 518.52557373 C-48.93995552 514.86065603 -63.64631408 510.65945458 -78.2265625 505.7734375 C-83.04395048 504.1595492 -87.89699058 502.67117274 -92.76171875 501.20703125 C-96.05570701 500.19498398 -99.23295958 499.09529148 -102.390625 497.7109375 C-105.62458264 496.20364632 -105.62458264 496.20364632 -109.25 495.4375 C-113.1727657 494.12991143 -114.93631013 492.39658544 -117.625 489.3125 C-117.955 488.9825 -118.285 488.6525 -118.625 488.3125 C-118.73180114 485.50602828 -118.77278322 482.72386855 -118.77217102 479.91662598 C-118.77584771 479.0253011 -118.7795244 478.13397622 -118.7833125 477.2156415 C-118.79439735 474.20430219 -118.79820144 471.19299733 -118.80200195 468.18164062 C-118.80826353 466.03176258 -118.81491005 463.88188564 -118.82191467 461.73200989 C-118.83936551 455.86954814 -118.84988987 450.00709459 -118.8581202 444.14461327 C-118.86326706 440.47885877 -118.86934327 436.81310683 -118.87563133 433.14735413 C-118.89470408 421.67037078 -118.90892465 410.19339392 -118.9172433 398.71639776 C-118.92699158 385.48544337 -118.95323921 372.25465735 -118.99374419 359.02376223 C-119.02398747 348.79171248 -119.03872038 338.55971072 -119.04202431 328.32761717 C-119.04436758 322.22088381 -119.05323197 316.11432988 -119.07848549 310.00764465 C-119.10191156 304.24892845 -119.10594132 298.49050787 -119.09572411 292.73175621 C-119.09523197 290.62966105 -119.10145596 288.52755063 -119.11528015 286.42550087 C-119.19377057 273.77122686 -118.1185242 262.48831043 -114.625 250.3125 C-114.18708949 248.60427185 -113.7494719 246.89596849 -113.3125 245.1875 C-108.32217236 229.38479582 -99.32392464 214.83208295 -88.625 202.3125 C-87.96113281 201.50296875 -87.29726563 200.6934375 -86.61328125 199.859375 C-75.3604024 186.6304823 -58.31479364 173.68781642 -41.625 168.3125 C-40.635 168.3125 -39.645 168.3125 -38.625 168.3125 C-38.625 167.6525 -38.625 166.9925 -38.625 166.3125 C-39.32109375 166.23902344 -40.0171875 166.16554688 -40.734375 166.08984375 C-44.40068606 165.10390334 -46.94903162 163.19320047 -49.875 160.875 C-50.73206543 160.20065918 -50.73206543 160.20065918 -51.60644531 159.51269531 C-64.88583426 148.81603181 -73.62517141 135.11519815 -79.625 119.3125 C-80.2018241 118.05948295 -80.78412969 116.80895499 -81.375 115.5625 C-82.84882822 111.73054662 -83.20366444 108.38541039 -83.625 104.3125 C-83.955 103.9825 -84.285 103.6525 -84.625 103.3125 C-85.64286367 88.71984482 -86.2235486 73.02579883 -80.625 59.3125 C-80.34591797 58.62800781 -80.06683594 57.94351563 -79.77929688 57.23828125 C-75.82739012 47.75706122 -71.16053708 39.29301384 -64.625 31.3125 C-64.06167969 30.59835937 -63.49835938 29.88421875 -62.91796875 29.1484375 C-47.98648357 11.03483253 -23.39674987 -0.15861424 0 0 Z " fill="#99BE66" transform="translate(437.625,380.6875)"/>
<path d="M0 0 C1.77310112 1.38764436 3.52261976 2.80583867 5.25 4.25 C6.23613281 5.06210937 7.22226562 5.87421875 8.23828125 6.7109375 C24.12773124 20.25902361 34.86607259 38.86174256 37 59.875 C37.11341026 61.9986072 37.1922193 64.12415174 37.25 66.25 C37.27578125 66.98524902 37.3015625 67.72049805 37.328125 68.47802734 C38.14558208 94.00823367 31.71246761 117.3571213 14.29296875 136.60546875 C8.62458192 142.58760056 2.45653353 148.17299697 -4.75 152.25 C-5.41 152.25 -6.07 152.25 -6.75 152.25 C-6.75 152.91 -6.75 153.57 -6.75 154.25 C-5.595 154.559375 -4.44 154.86875 -3.25 155.1875 C23.49822731 164.2155516 46.98746525 187.33350618 59.5 212.1875 C60.7892923 214.85783438 62.02708843 217.54873316 63.25 220.25 C63.67539062 221.16386475 63.67539062 221.16386475 64.109375 222.09619141 C72.74335048 240.84556151 73.84439408 259.94270282 73.76757812 280.29858398 C73.77301167 282.74659641 73.78014118 285.19460556 73.78881836 287.64260864 C73.80502703 293.54651722 73.80284847 299.45023798 73.7911678 305.35414093 C73.78207428 310.15150153 73.78093473 314.94880517 73.78526306 319.74617195 C73.78587599 320.43308349 73.78648893 321.11999502 73.78712043 321.82772206 C73.78839948 323.22367574 73.78969634 324.6196294 73.7910108 326.01558305 C73.80236009 339.03933799 73.7893856 352.06297944 73.76780933 365.08671577 C73.74988315 376.25358622 73.75309858 387.42029061 73.77148438 398.5871582 C73.79288779 411.59271935 73.80132501 424.59818211 73.78903532 437.60375839 C73.78776122 438.98952709 73.78650374 440.3752958 73.78526306 441.76106453 C73.78433741 442.78355474 73.78433741 442.78355474 73.78339306 443.82670132 C73.77994304 448.62411508 73.78575968 453.42146613 73.79518127 458.21887016 C73.80756427 464.66479295 73.79876012 471.11047501 73.77560425 477.55636978 C73.77030696 479.92312788 73.77184826 482.28991243 73.78065491 484.65666008 C73.79155124 487.88156963 73.77791829 491.10546261 73.75793457 494.33030701 C73.76685746 495.27094653 73.77578034 496.21158605 73.78497362 497.18072981 C73.73404946 501.40360129 73.62222029 503.65314209 71.34325409 507.30748081 C68.18937448 510.23425004 66.26472614 510.38156069 62.0625 510.625 C57.96503949 510.95851423 55.02676495 511.65041908 51.31640625 513.4921875 C47.35309067 514.94565295 43.11724709 515.22373469 38.9453125 515.72265625 C36.2386883 516.10890812 33.72755197 516.58365913 31.08203125 517.21484375 C25.38001027 518.52321726 19.62232474 519.12097674 13.8125 519.75 C12.23952148 519.92595703 12.23952148 519.92595703 10.63476562 520.10546875 C8.40890559 520.35382506 6.18264551 520.59861511 3.95605469 520.84033203 C1.31426519 521.13235593 -1.32478611 521.43500092 -3.96386719 521.74951172 C-14.67304441 523.0112711 -25.35555707 523.84723995 -36.125 524.375 C-36.95620361 524.41735779 -37.78740723 524.45971558 -38.64379883 524.50335693 C-59.67140116 525.55255226 -80.70296794 525.44622161 -101.75 525.25 C-101.75 524.59 -101.75 523.93 -101.75 523.25 C-102.74 522.92 -103.73 522.59 -104.75 522.25 C-106.64285287 519.37933254 -107.00006728 517.08050022 -107.00053978 513.68510246 C-107.00553848 512.76862242 -107.01053717 511.85214237 -107.01568735 510.9078902 C-107.00869253 509.40296896 -107.00869253 509.40296896 -107.0015564 507.86764526 C-107.00452654 506.79886993 -107.00749667 505.73009459 -107.01055682 504.62893212 C-107.01821657 501.03495677 -107.01169441 497.44114391 -107.00537109 493.84716797 C-107.00812023 491.27483001 -107.01179966 488.70249289 -107.01634216 486.13015747 C-107.02498022 480.58193985 -107.02678186 475.03375411 -107.02439499 469.48553085 C-107.02129518 461.44411801 -107.03294561 453.40277549 -107.04894479 445.36138035 C-107.07492215 432.28894086 -107.09492926 419.21650131 -107.10839844 406.14404297 C-107.10920881 405.36150426 -107.11001918 404.57896556 -107.1108541 403.77271356 C-107.12204888 392.69501537 -107.12735042 381.61732219 -107.13024123 370.5396191 C-107.13044522 369.76132507 -107.13064921 368.98303104 -107.13085938 368.18115234 C-107.13105931 367.40381366 -107.13125925 366.62647498 -107.13146524 365.82558058 C-107.13521063 352.81888634 -107.15438603 339.81226796 -107.18595374 326.80561173 C-107.20478167 318.79631001 -107.21088359 310.78720368 -107.20013656 302.77788605 C-107.19301451 296.61942717 -107.20671334 290.46116921 -107.22775459 284.30274582 C-107.23304434 281.79149366 -107.23163549 279.28021621 -107.22271919 276.7689743 C-107.16406323 258.78556583 -108.93670298 242.79651821 -115.125 225.8125 C-115.42027588 224.98121582 -115.71555176 224.14993164 -116.01977539 223.29345703 C-118.10485067 217.58804932 -120.53809045 212.35535419 -123.68359375 207.1484375 C-124.75 205.25 -124.75 205.25 -124.75 203.25 C-125.41 203.25 -126.07 203.25 -126.75 203.25 C-127.100625 202.280625 -127.45125 201.31125 -127.8125 200.3125 C-129.5846675 196.05065329 -132.3782924 192.88806099 -135.421875 189.4609375 C-136.75 187.25 -136.75 187.25 -136.65234375 184.70703125 C-131.78437065 171.45181446 -108.51215523 160.28617105 -96.6875 154.8125 C-94.008697 153.62025807 -92.75457002 153.25 -89.75 153.25 C-89.75 152.59 -89.75 151.93 -89.75 151.25 C-90.81347656 150.88648438 -90.81347656 150.88648438 -91.8984375 150.515625 C-109.49369966 142.70622097 -120.04289897 122.94704247 -127.05859375 106.109375 C-130.57783806 96.87941556 -132.08050198 88.371444 -131.9375 78.5 C-131.92130615 77.04267456 -131.92130615 77.04267456 -131.90478516 75.5559082 C-131.8776025 73.63889118 -131.84399102 71.721952 -131.80322266 69.80517578 C-131.75964146 67.71287842 -131.74144841 65.62006614 -131.73046875 63.52734375 C-131.11434897 45.47731622 -121.52583079 27.46731667 -109.75 14.25 C-109.09644531 13.50234375 -108.44289063 12.7546875 -107.76953125 11.984375 C-98.02076681 1.52228633 -86.20207728 -5.25348392 -72.75 -9.75 C-71.60917969 -10.245 -71.60917969 -10.245 -70.4453125 -10.75 C-47.93267522 -19.1025147 -19.3404823 -13.49400413 0 0 Z " fill="#EFE6DE" transform="translate(686.75,394.75)"/>
<path d="M0 0 C23.6177762 8.1657501 41.65962221 23.89149484 53.09521484 46.08691406 C61.68622895 64.25183218 63.40428774 87.60985391 57.1953125 106.7578125 C56.80085937 107.82773437 56.40640625 108.89765625 56 110 C55.62617187 111.11117187 55.25234375 112.22234375 54.8671875 113.3671875 C47.84592657 133.12901462 35.00586191 148.06679127 18 160 C19.48886719 160.70962891 19.48886719 160.70962891 21.0078125 161.43359375 C35.86140774 168.61642194 48.7450123 176.93578033 61 188 C61.73863281 188.66644531 62.47726562 189.33289063 63.23828125 190.01953125 C86.13292998 211.81303455 101.32075198 245.97340002 102.30517578 277.3762207 C102.46613752 284.4913568 102.46921185 291.60730214 102.44604492 298.72387695 C102.43443193 302.47065879 102.45501058 306.21651521 102.48396206 309.96317577 C102.50232468 312.87579755 102.50203392 315.78819584 102.49632454 318.70086098 C102.49617206 320.08308547 102.50215528 321.4653258 102.51461601 322.84749413 C102.61772871 336.12515824 102.61772871 336.12515824 98 341 C95.28869902 343.03347573 93.83937647 343 90.375 343 C84.90025794 343.56670158 82.19906608 347.41628884 78.61328125 351.2578125 C74.43980586 355.63715439 69.76701018 359.29031147 65 363 C64.43071777 363.44569336 63.86143555 363.89138672 63.27490234 364.35058594 C52.28578573 372.91498439 40.7921335 380.58972461 29 388 C28.02861084 388.61222412 28.02861084 388.61222412 27.03759766 389.23681641 C-3.7427582 408.50690622 -36.56396888 423.19506605 -70.56030273 435.68823242 C-72.98084058 436.61133199 -75.34794963 437.56427809 -77.72143555 438.59399414 C-81.21131735 440.09062303 -84.72980415 441.21517687 -88.375 442.25 C-89.08543457 442.45399414 -89.79586914 442.65798828 -90.52783203 442.86816406 C-92.12084655 443.32427069 -93.71447032 443.77825307 -95.30859375 444.23046875 C-98.30388216 445.08688648 -101.29229453 445.96549585 -104.28125 446.84375 C-106.47897226 447.47983872 -108.67688835 448.11525816 -110.875 448.75 C-111.90802246 449.05583008 -112.94104492 449.36166016 -114.00537109 449.67675781 C-120.00778269 451.38953563 -125.68502292 452.43824125 -131.92236328 452.79785156 C-133.98858637 452.77681732 -133.98858637 452.77681732 -135 454 C-139.70171791 454.4781408 -142.67405856 454.72931068 -146.4375 451.6875 C-150.38184744 447.55074537 -150.12782438 444.44505547 -150.14044189 438.9201355 C-150.14341302 438.19452742 -150.14638414 437.46891934 -150.1494453 436.72132313 C-150.15813655 434.28279106 -150.15964097 431.84430806 -150.16113281 429.40576172 C-150.16576113 427.65952449 -150.17078581 425.91328826 -150.17617798 424.16705322 C-150.1893131 419.41417527 -150.1957505 414.66131145 -150.20018864 409.90841818 C-150.20312095 406.9337975 -150.20722632 403.95918066 -150.21169281 400.98456192 C-150.2253781 391.66361696 -150.23503655 382.3426808 -150.2388947 373.02172649 C-150.24336137 362.29077475 -150.26083992 351.55995127 -150.2898953 340.8290385 C-150.31160322 332.52049818 -150.32160401 324.21199368 -150.32293582 315.90342534 C-150.32397846 310.94922717 -150.32976851 305.99514939 -150.34775543 301.04098129 C-150.36439146 296.36732778 -150.36631735 291.69388307 -150.35761642 287.02021027 C-150.35685395 285.31803193 -150.36108243 283.61584165 -150.37107468 281.91369247 C-150.44954295 267.69566841 -149.12638189 253.65669536 -144.4375 240.125 C-144.18991943 239.39796875 -143.94233887 238.6709375 -143.68725586 237.921875 C-139.12800308 225.19560108 -132.4183155 212.58798444 -124 202 C-123.60731934 201.50338867 -123.21463867 201.00677734 -122.81005859 200.49511719 C-107.83787102 181.72216745 -89.50055999 169.30441585 -68 159 C-68.87398437 158.45085937 -68.87398437 158.45085937 -69.765625 157.890625 C-88.49202079 145.52413721 -101.35777722 127.33900682 -106.875 105.5 C-109.96223922 87.7762712 -110.53688456 67.60799498 -103 51 C-102.50371094 49.82179688 -102.00742187 48.64359375 -101.49609375 47.4296875 C-91.46882949 25.44219238 -73.62033519 10.34500693 -51.44921875 1.18359375 C-47.11224514 -0.30463162 -42.87008326 -1.11107254 -38.328125 -1.67578125 C-25.3981538 -3.4764316 -12.91133594 -3.86231129 0 0 Z " fill="#DA714C" transform="translate(941,440)"/>
<path d="M0 0 C1.13953125 0.350625 2.2790625 0.70125 3.453125 1.0625 C27.91795456 9.57200593 43.97518734 28.26291524 55 51 C62.99476304 68.4405329 61.16857581 90.84526797 57 109 C56.70996094 110.46179688 56.70996094 110.46179688 56.4140625 111.953125 C51.92932088 131.87236702 35.35210051 149.68104493 18.99609375 160.85546875 C17 162 17 162 15 162 C16.39626442 164.79252884 18.02191398 165.0376405 20.875 166.25 C33.55523303 171.89831946 46.09538802 179.09538802 56 189 C56.62381622 192.50669506 56.14106112 193.79120599 54.12890625 196.76953125 C53.28199219 197.77371094 52.43507813 198.77789063 51.5625 199.8125 C47.54679894 204.75190604 44.15465069 209.80990845 41.0625 215.375 C40.69777588 216.02831299 40.33305176 216.68162598 39.95727539 217.35473633 C27.57065367 240.0515095 23.35236577 264.39258192 23.51757812 289.97705078 C23.51538414 291.96393094 23.51137514 293.95080978 23.50572205 295.93768311 C23.49725714 300.16300403 23.50079527 304.38806895 23.5141449 308.61337662 C23.53470234 315.29530206 23.52441407 321.97697649 23.5098877 328.65890503 C23.48331391 342.81429368 23.48985385 356.96959718 23.5 371.125 C23.51096707 386.4746299 23.51624417 401.8241291 23.48270559 417.17373645 C23.4693314 423.81792451 23.47528822 430.46172914 23.49607086 437.10589433 C23.50503241 441.22296089 23.49760712 445.33987816 23.48565865 449.45693207 C23.48352231 451.36776861 23.48828117 453.27862689 23.5003643 455.18942642 C23.51590418 457.79279598 23.50705243 460.39497528 23.49206543 462.99832153 C23.50255433 463.75763509 23.51304322 464.51694865 23.52384996 465.2992717 C23.47891843 468.79162766 23.27606719 470.646889 21.09424591 473.4376049 C17.55233628 476.08001772 15.41104301 476.25169329 11 476 C8.46826172 475.21240234 8.46826172 475.21240234 5.9296875 474.0859375 C4.96538818 473.66207764 4.00108887 473.23821777 3.00756836 472.80151367 C1.9738208 472.33076416 0.94007324 471.86001465 -0.125 471.375 C-1.76359985 470.63890503 -1.76359985 470.63890503 -3.43530273 469.88793945 C-24.96489364 460.1114751 -45.81024109 449.30889059 -66 437 C-66.85948242 436.47664063 -67.71896484 435.95328125 -68.60449219 435.4140625 C-87.33404638 423.94193759 -105.2002185 411.26555538 -122.0625 397.1875 C-122.8673584 396.5212561 -122.8673584 396.5212561 -123.68847656 395.84155273 C-127.7677608 392.38870219 -131.28700744 389.13897767 -133 384 C-133.680625 384.165 -134.36125 384.33 -135.0625 384.5 C-138.55758457 385.09490801 -141.45987015 385.37929963 -145 385 C-147.8125 382.625 -147.8125 382.625 -150 380 C-150.66 379.34 -151.32 378.68 -152 378 C-152.25447559 376.17553329 -152.25447559 376.17553329 -152.26069641 373.92132568 C-152.26778122 373.0668837 -152.27486603 372.21244171 -152.28216553 371.33210754 C-152.27968811 370.39203354 -152.27721069 369.45195953 -152.2746582 368.48339844 C-152.27976913 367.49431992 -152.28488007 366.50524139 -152.29014587 365.4861908 C-152.30411565 362.19385822 -152.30307665 358.90173384 -152.30078125 355.609375 C-152.30467006 353.31081057 -152.30900512 351.01224687 -152.31376648 348.71368408 C-152.32124876 343.87469163 -152.32092721 339.03577206 -152.31567383 334.19677734 C-152.30993957 328.05578752 -152.32665213 321.91510527 -152.3500185 315.77416611 C-152.3649203 311.01227123 -152.36560441 306.2504471 -152.36250877 301.48853302 C-152.36301588 299.22918346 -152.36813627 296.96982928 -152.37832069 294.71050262 C-152.53445871 255.15248418 -143.48661393 219.97270041 -115.15625 191.02734375 C-104.52613971 180.60703827 -85.54694715 164 -70 164 C-70 163.34 -70 162.68 -70 162 C-70.74121094 161.72929688 -71.48242188 161.45859375 -72.24609375 161.1796875 C-85.97984597 155.29657662 -97.20297712 140.77108784 -104 128 C-104.55429688 126.96101562 -105.10859375 125.92203125 -105.6796875 124.8515625 C-116.44515166 103.15995561 -117.99982758 78.54721599 -110.88183594 55.51611328 C-107.00179538 44.44532203 -100.73747401 34.75301747 -93 26 C-92.484375 25.33097656 -91.96875 24.66195313 -91.4375 23.97265625 C-70.354394 -2.64476507 -31.02350417 -9.62908351 0 0 Z " fill="#4593D3" transform="translate(280,385)"/>
<path d="M0 0 C0.87027832 0.00491455 1.74055664 0.0098291 2.63720703 0.01489258 C26.31821371 0.43877695 46.76191162 9.72845548 63.375 26.3125 C64.07109375 26.99699219 64.7671875 27.68148438 65.484375 28.38671875 C82.15977083 45.87003105 88.17520069 69.0210211 87.68359375 92.56640625 C86.66147485 117.74615699 75.82135183 140.12217479 57.375 157.3125 C47.64660494 165.3125 47.64660494 165.3125 44.375 165.3125 C44.375 165.9725 44.375 166.6325 44.375 167.3125 C45.20773437 167.56773437 46.04046875 167.82296875 46.8984375 168.0859375 C63.62201266 173.98616514 77.73452716 184.09220908 90.375 196.3125 C91.20257812 197.08851563 92.03015625 197.86453125 92.8828125 198.6640625 C114.75087085 219.64257271 127.74485552 253.48586698 128.56553268 283.51583862 C128.67485342 289.98817652 128.66864623 296.46052278 128.66552734 302.93359375 C128.67151886 305.41997986 128.67832583 307.90636412 128.68588257 310.39274597 C128.7016524 316.41721408 128.70798743 322.44162049 128.70910732 328.46610349 C128.71006122 333.36182771 128.71418841 338.25753912 128.72050858 343.15325928 C128.73808443 357.05152622 128.74735169 370.94976244 128.74584763 384.84804058 C128.74576772 385.5950866 128.7456878 386.34213263 128.74560547 387.11181641 C128.74552371 387.85977887 128.74544195 388.60774134 128.74535771 389.37836933 C128.74454297 401.52805456 128.76373714 413.67761637 128.7918822 425.82726586 C128.82059302 438.31999747 128.8344239 450.81266878 128.83269465 463.30543423 C128.83203075 470.31255258 128.83752484 477.31954106 128.85905075 484.32662964 C128.87913585 490.90622261 128.87860791 497.48558743 128.86401749 504.06521034 C128.86192002 506.48196119 128.86668569 508.89872897 128.8787384 511.31545067 C128.89410192 514.60857686 128.88494145 517.90074314 128.86947632 521.19384766 C128.87976344 522.15482581 128.89005057 523.11580397 128.90064943 524.10590267 C128.85614569 528.37956004 128.77560884 530.67654264 126.45347023 534.36288452 C122.65247358 537.9282384 119.69397412 538.87325511 114.34375 538.7734375 C110.66541436 537.91223987 109.39319296 535.37036812 107.375 532.3125 C106.23435811 530.03121623 106.24918048 528.78164545 106.24750805 526.24751186 C106.2445004 525.39158174 106.24149275 524.53565162 106.23839396 523.65378422 C106.24014433 522.70781677 106.24189471 521.76184932 106.24369812 520.78721619 C106.24052455 519.28590482 106.24052455 519.28590482 106.23728687 517.75426394 C106.23126357 514.37775045 106.23228873 511.00127409 106.2331543 507.62475586 C106.23012397 505.21185238 106.22660288 502.79894947 106.22262573 500.38604736 C106.21472058 495.17449385 106.20956456 489.96294478 106.20633507 484.75138664 C106.20083091 476.4901258 106.18392049 468.22890611 106.16499329 459.96766663 C106.15863537 457.1376601 106.1523269 454.30765346 106.14601612 451.47764683 C106.14443236 450.77017568 106.1428486 450.06270454 106.14121684 449.33379487 C106.12326577 441.27274449 106.10705234 433.21169114 106.09204102 425.15063477 C106.09066514 424.41366045 106.08928927 423.67668614 106.08787171 422.91737927 C106.06604477 411.03275556 106.0552118 399.14814248 106.04767027 387.26350229 C106.03955256 375.03314689 106.01610435 362.80288148 105.9797166 350.57257754 C105.95786665 343.04864634 105.94797261 335.52490115 105.95421693 328.00093991 C105.95781591 322.19972822 105.94028052 316.39871773 105.91553879 310.5975647 C105.90870384 308.24245237 105.90841566 305.88730882 105.91573906 303.53219795 C106.00618973 271.13030897 100.9043691 242.48320002 79.375 217.3125 C78.69244141 216.41337891 78.69244141 216.41337891 77.99609375 215.49609375 C64.36464562 197.95832019 39.46820072 186.9150766 18.125 183.8203125 C-9.74092028 180.46739777 -35.5530346 186.47338028 -57.8359375 203.77734375 C-78.58257627 220.37222861 -89.77219911 241.83560202 -95.625 267.3125 C-95.80374841 267.9646042 -95.98249683 268.61670839 -96.16666186 269.28857332 C-96.960486 272.79393699 -96.76766161 276.3822419 -96.76303101 279.96006775 C-96.76585229 280.84200493 -96.76867357 281.72394211 -96.77158034 282.63260466 C-96.77992625 285.59353892 -96.78126457 288.55443579 -96.78271484 291.51538086 C-96.78738297 293.63591111 -96.79252654 295.75644035 -96.79811096 297.87696838 C-96.80939257 302.44628238 -96.81782636 307.01558986 -96.82423019 311.58491325 C-96.83490361 318.80749319 -96.85514576 326.03002618 -96.87734985 333.25257874 C-96.93929935 353.79165503 -96.99332133 374.33072841 -97.02636719 394.86987305 C-97.04469464 406.21116774 -97.07360482 417.55238371 -97.1143719 428.89362055 C-97.13546923 434.89703094 -97.15090308 440.90034201 -97.15317917 446.90379143 C-97.1553218 452.54842539 -97.17115184 458.19285236 -97.19756889 463.83742332 C-97.20477738 465.91067616 -97.20685539 467.98395404 -97.20346642 470.05721664 C-97.19958278 472.88437381 -97.2139904 475.71086628 -97.23300171 478.53794861 C-97.22747201 479.36110075 -97.22194232 480.1842529 -97.21624506 481.03234905 C-97.2697533 485.63209401 -97.71793944 488.68244945 -100.625 492.3125 C-104.62308546 494.97789031 -107.92251653 495.15399704 -112.625 494.3125 C-115.625 491.875 -115.625 491.875 -117.625 489.3125 C-117.955 488.9825 -118.285 488.6525 -118.625 488.3125 C-118.73180114 485.50602828 -118.77278322 482.72386855 -118.77217102 479.91662598 C-118.77584771 479.0253011 -118.7795244 478.13397622 -118.7833125 477.2156415 C-118.79439735 474.20430219 -118.79820144 471.19299733 -118.80200195 468.18164062 C-118.80826353 466.03176258 -118.81491005 463.88188564 -118.82191467 461.73200989 C-118.83936551 455.86954814 -118.84988987 450.00709459 -118.8581202 444.14461327 C-118.86326706 440.47885877 -118.86934327 436.81310683 -118.87563133 433.14735413 C-118.89470408 421.67037078 -118.90892465 410.19339392 -118.9172433 398.71639776 C-118.92699158 385.48544337 -118.95323921 372.25465735 -118.99374419 359.02376223 C-119.02398747 348.79171248 -119.03872038 338.55971072 -119.04202431 328.32761717 C-119.04436758 322.22088381 -119.05323197 316.11432988 -119.07848549 310.00764465 C-119.10191156 304.24892845 -119.10594132 298.49050787 -119.09572411 292.73175621 C-119.09523197 290.62966105 -119.10145596 288.52755063 -119.11528015 286.42550087 C-119.19377057 273.77122686 -118.1185242 262.48831043 -114.625 250.3125 C-114.18708949 248.60427185 -113.7494719 246.89596849 -113.3125 245.1875 C-108.32217236 229.38479582 -99.32392464 214.83208295 -88.625 202.3125 C-87.96113281 201.50296875 -87.29726563 200.6934375 -86.61328125 199.859375 C-75.3604024 186.6304823 -58.31479364 173.68781642 -41.625 168.3125 C-40.635 168.3125 -39.645 168.3125 -38.625 168.3125 C-38.625 167.6525 -38.625 166.9925 -38.625 166.3125 C-39.32109375 166.23902344 -40.0171875 166.16554688 -40.734375 166.08984375 C-44.40068606 165.10390334 -46.94903162 163.19320047 -49.875 160.875 C-50.73206543 160.20065918 -50.73206543 160.20065918 -51.60644531 159.51269531 C-64.88583426 148.81603181 -73.62517141 135.11519815 -79.625 119.3125 C-80.2018241 118.05948295 -80.78412969 116.80895499 -81.375 115.5625 C-82.84882822 111.73054662 -83.20366444 108.38541039 -83.625 104.3125 C-83.955 103.9825 -84.285 103.6525 -84.625 103.3125 C-85.64286367 88.71984482 -86.2235486 73.02579883 -80.625 59.3125 C-80.34591797 58.62800781 -80.06683594 57.94351563 -79.77929688 57.23828125 C-75.82739012 47.75706122 -71.16053708 39.29301384 -64.625 31.3125 C-64.06167969 30.59835937 -63.49835938 29.88421875 -62.91796875 29.1484375 C-47.98648357 11.03483253 -23.39674987 -0.15861424 0 0 Z " fill="#071B36" transform="translate(437.625,380.6875)"/>
<path d="M0 0 C23.6177762 8.1657501 41.65962221 23.89149484 53.09521484 46.08691406 C61.68622895 64.25183218 63.40428774 87.60985391 57.1953125 106.7578125 C56.80085937 107.82773437 56.40640625 108.89765625 56 110 C55.62617187 111.11117187 55.25234375 112.22234375 54.8671875 113.3671875 C47.84592657 133.12901462 35.00586191 148.06679127 18 160 C19.48886719 160.70962891 19.48886719 160.70962891 21.0078125 161.43359375 C35.86140774 168.61642194 48.7450123 176.93578033 61 188 C61.73863281 188.66644531 62.47726562 189.33289063 63.23828125 190.01953125 C86.13292998 211.81303455 101.32075198 245.97340002 102.30517578 277.3762207 C102.46613752 284.4913568 102.46921185 291.60730214 102.44604492 298.72387695 C102.43443193 302.47065879 102.45501058 306.21651521 102.48396206 309.96317577 C102.50232468 312.87579755 102.50203392 315.78819584 102.49632454 318.70086098 C102.49617206 320.08308547 102.50215528 321.4653258 102.51461601 322.84749413 C102.61780273 336.13468953 102.61780273 336.13468953 98 341 C94.79214982 343.35242347 91.90350748 343.4684209 88 343 C84.03260586 340.86371085 81.5922512 339.23078626 80 335 C79.7484436 332.17245483 79.7484436 332.17245483 79.74462891 328.86474609 C79.73766998 327.62179779 79.73071106 326.37884949 79.72354126 325.09823608 C79.72456282 324.10392138 79.72456282 324.10392138 79.72560501 323.0895195 C79.726577 320.99215584 79.71354127 318.89529556 79.69662476 316.79800415 C79.65061349 310.83510461 79.62584677 304.87225068 79.61914062 298.90917969 C79.58703585 279.28076209 79.48811414 260.53108526 71.3125 242.25 C70.9714624 241.46689453 70.6304248 240.68378906 70.27905273 239.87695312 C64.95215163 228.03133688 57.59140963 217.72349068 49 208 C48.38898438 207.30519531 47.77796875 206.61039063 47.1484375 205.89453125 C31.44579752 189.15618523 7.11071113 176.95877626 -15.91381836 175.86108398 C-48.20150514 174.89829634 -73.09409304 182.86912291 -97 205 C-115.92422723 223.33284513 -127.69807435 250.81313089 -128.2179904 277.04800296 C-128.25376243 280.87261013 -128.24145403 284.69632289 -128.22363281 288.52099609 C-128.22310741 290.24552406 -128.22354709 291.97005254 -128.22486877 293.69458008 C-128.22619319 297.38141791 -128.22184666 301.06818849 -128.21326447 304.75501633 C-128.20079997 310.58847895 -128.20787339 316.42181943 -128.21868896 322.25527954 C-128.24705212 338.83379496 -128.25951388 355.41220182 -128.22998047 371.99072266 C-128.2137961 381.16734584 -128.21891918 390.34369971 -128.24777675 399.52029479 C-128.26485331 405.31663665 -128.25589672 411.11216254 -128.22772169 416.9084518 C-128.21655901 420.51226278 -128.23048123 424.11565285 -128.25153923 427.71940613 C-128.25630681 429.38708931 -128.25085594 431.05483855 -128.23430824 432.72244644 C-128.10310967 446.87921762 -128.10310967 446.87921762 -131.79632568 451.49966431 C-134.07129912 453.71192108 -135.85524269 454.41176659 -139 454.75 C-143.59937627 454.33508506 -145.87154156 452.28106617 -149 449 C-150.17957767 445.46126699 -150.13190775 442.65704229 -150.14044189 438.9201355 C-150.14341302 438.19452742 -150.14638414 437.46891934 -150.1494453 436.72132313 C-150.15813655 434.28279106 -150.15964097 431.84430806 -150.16113281 429.40576172 C-150.16576113 427.65952449 -150.17078581 425.91328826 -150.17617798 424.16705322 C-150.1893131 419.41417527 -150.1957505 414.66131145 -150.20018864 409.90841818 C-150.20312095 406.9337975 -150.20722632 403.95918066 -150.21169281 400.98456192 C-150.2253781 391.66361696 -150.23503655 382.3426808 -150.2388947 373.02172649 C-150.24336137 362.29077475 -150.26083992 351.55995127 -150.2898953 340.8290385 C-150.31160322 332.52049818 -150.32160401 324.21199368 -150.32293582 315.90342534 C-150.32397846 310.94922717 -150.32976851 305.99514939 -150.34775543 301.04098129 C-150.36439146 296.36732778 -150.36631735 291.69388307 -150.35761642 287.02021027 C-150.35685395 285.31803193 -150.36108243 283.61584165 -150.37107468 281.91369247 C-150.44954295 267.69566841 -149.12638189 253.65669536 -144.4375 240.125 C-144.18991943 239.39796875 -143.94233887 238.6709375 -143.68725586 237.921875 C-139.12800308 225.19560108 -132.4183155 212.58798444 -124 202 C-123.60731934 201.50338867 -123.21463867 201.00677734 -122.81005859 200.49511719 C-107.83787102 181.72216745 -89.50055999 169.30441585 -68 159 C-68.87398437 158.45085937 -68.87398437 158.45085937 -69.765625 157.890625 C-88.49202079 145.52413721 -101.35777722 127.33900682 -106.875 105.5 C-109.96223922 87.7762712 -110.53688456 67.60799498 -103 51 C-102.50371094 49.82179688 -102.00742187 48.64359375 -101.49609375 47.4296875 C-91.46882949 25.44219238 -73.62033519 10.34500693 -51.44921875 1.18359375 C-47.11224514 -0.30463162 -42.87008326 -1.11107254 -38.328125 -1.67578125 C-25.3981538 -3.4764316 -12.91133594 -3.86231129 0 0 Z " fill="#061B35" transform="translate(941,440)"/>
<path d="M0 0 C1.77310112 1.38764436 3.52261976 2.80583867 5.25 4.25 C6.23613281 5.06210937 7.22226562 5.87421875 8.23828125 6.7109375 C24.12773124 20.25902361 34.86607259 38.86174256 37 59.875 C37.11341026 61.9986072 37.1922193 64.12415174 37.25 66.25 C37.27578125 66.98524902 37.3015625 67.72049805 37.328125 68.47802734 C38.14558208 94.00823367 31.71246761 117.3571213 14.29296875 136.60546875 C8.62458192 142.58760056 2.45653353 148.17299697 -4.75 152.25 C-5.41 152.25 -6.07 152.25 -6.75 152.25 C-6.75 152.91 -6.75 153.57 -6.75 154.25 C-5.595 154.559375 -4.44 154.86875 -3.25 155.1875 C23.49822731 164.2155516 46.98746525 187.33350618 59.5 212.1875 C60.7892923 214.85783438 62.02708843 217.54873316 63.25 220.25 C63.67539062 221.16386475 63.67539062 221.16386475 64.109375 222.09619141 C72.74335048 240.84556151 73.84439408 259.94270282 73.76757812 280.29858398 C73.77301167 282.74659641 73.78014118 285.19460556 73.78881836 287.64260864 C73.80502703 293.54651722 73.80284847 299.45023798 73.7911678 305.35414093 C73.78207428 310.15150153 73.78093473 314.94880517 73.78526306 319.74617195 C73.78587599 320.43308349 73.78648893 321.11999502 73.78712043 321.82772206 C73.78839948 323.22367574 73.78969634 324.6196294 73.7910108 326.01558305 C73.80236009 339.03933799 73.7893856 352.06297944 73.76780933 365.08671577 C73.74988315 376.25358622 73.75309858 387.42029061 73.77148438 398.5871582 C73.79288779 411.59271935 73.80132501 424.59818211 73.78903532 437.60375839 C73.78776122 438.98952709 73.78650374 440.3752958 73.78526306 441.76106453 C73.78433741 442.78355474 73.78433741 442.78355474 73.78339306 443.82670132 C73.77994304 448.62411508 73.78575968 453.42146613 73.79518127 458.21887016 C73.80756427 464.66479295 73.79876012 471.11047501 73.77560425 477.55636978 C73.77030696 479.92312788 73.77184826 482.28991243 73.78065491 484.65666008 C73.79155124 487.88156963 73.77791829 491.10546261 73.75793457 494.33030701 C73.76685746 495.27094653 73.77578034 496.21158605 73.78497362 497.18072981 C73.73404946 501.40360129 73.62222029 503.65314209 71.34325409 507.30748081 C67.62436635 510.75857202 64.57726708 510.58156725 59.66796875 510.5390625 C57.25 510.25 57.25 510.25 54.6875 508.4375 C52.62903675 505.30505592 52.12503713 502.80917981 52.12530136 499.14728832 C52.12291041 498.30841743 52.12051946 497.46954653 52.11805606 496.60525531 C52.1217048 495.22262239 52.1217048 495.22262239 52.12542725 493.8120575 C52.1240171 492.83271344 52.12260695 491.85336939 52.12115407 490.84434825 C52.11749034 487.54685268 52.12084238 484.24939983 52.12402344 480.9519043 C52.12262904 478.59309862 52.12072996 476.23429319 52.11836243 473.87548828 C52.1138584 468.78453559 52.11200918 463.69359097 52.11190033 458.60263634 C52.11123106 450.53534878 52.09798127 442.46810367 52.08233643 434.40083313 C52.07973055 433.02497617 52.07713174 431.64911919 52.0745399 430.2732622 C52.07060111 428.1876266 52.06665459 426.10199101 52.06267868 424.01635548 C52.04772567 416.1480315 52.03410844 408.2797058 52.02197266 400.41137695 C52.02030231 399.33249887 52.02030231 399.33249887 52.01859823 398.23182527 C52.00109144 386.62328915 51.99814936 375.01478797 51.99982306 363.40624084 C52.00110847 351.46174926 51.98320036 339.51738619 51.94880509 327.57294399 C51.93012227 320.87753649 51.92092656 314.18241981 51.93328094 307.48697472 C51.94482064 301.17082242 51.9327752 294.8551311 51.90364647 288.53903961 C51.89707122 286.23749178 51.89875852 283.93590085 51.90994453 281.6343708 C52.04870708 250.46266966 44.38908402 221.97451571 22.1796875 199.18359375 C21.2048245 198.20403488 20.22839959 197.22602648 19.25 196.25 C18.14011719 195.12271484 18.14011719 195.12271484 17.0078125 193.97265625 C-2.14925699 175.71922211 -27.94520302 168.65991107 -53.74926758 168.69165039 C-78.98739527 169.33232319 -102.87685505 180.54546962 -120.75 198.25 C-121.77516888 199.56408011 -122.78238624 200.8929807 -123.75 202.25 C-127.74302012 200.91899329 -129.10958542 198.33965956 -131.375 195 C-131.78234375 194.42636719 -132.1896875 193.85273437 -132.609375 193.26171875 C-134.83849543 190.02137481 -136.74331877 187.25205835 -136.75 183.25 C-128.26363792 170.29207036 -106.96174363 158.10794209 -92.75 153.25 C-91.76 153.25 -90.77 153.25 -89.75 153.25 C-89.75 152.59 -89.75 151.93 -89.75 151.25 C-90.81347656 150.88648438 -90.81347656 150.88648438 -91.8984375 150.515625 C-109.49369966 142.70622097 -120.04289897 122.94704247 -127.05859375 106.109375 C-130.57783806 96.87941556 -132.08050198 88.371444 -131.9375 78.5 C-131.92130615 77.04267456 -131.92130615 77.04267456 -131.90478516 75.5559082 C-131.8776025 73.63889118 -131.84399102 71.721952 -131.80322266 69.80517578 C-131.75964146 67.71287842 -131.74144841 65.62006614 -131.73046875 63.52734375 C-131.11434897 45.47731622 -121.52583079 27.46731667 -109.75 14.25 C-109.09644531 13.50234375 -108.44289063 12.7546875 -107.76953125 11.984375 C-98.02076681 1.52228633 -86.20207728 -5.25348392 -72.75 -9.75 C-71.60917969 -10.245 -71.60917969 -10.245 -70.4453125 -10.75 C-47.93267522 -19.1025147 -19.3404823 -13.49400413 0 0 Z " fill="#071B36" transform="translate(686.75,394.75)"/>
<path d="M0 0 C1.13953125 0.350625 2.2790625 0.70125 3.453125 1.0625 C27.91795456 9.57200593 43.97518734 28.26291524 55 51 C62.99476304 68.4405329 61.16857581 90.84526797 57 109 C56.70996094 110.46179688 56.70996094 110.46179688 56.4140625 111.953125 C51.92932088 131.87236702 35.35210051 149.68104493 18.99609375 160.85546875 C17 162 17 162 15 162 C16.39626442 164.79252884 18.02191398 165.0376405 20.875 166.25 C33.55523303 171.89831946 46.09538802 179.09538802 56 189 C56.58268899 191.69493659 56.39531599 193.34665116 54.9609375 195.71728516 C53.53026417 197.63592028 52.03751003 199.47844319 50.5 201.3125 C49.97535156 201.95767578 49.45070313 202.60285156 48.91015625 203.26757812 C47.61758026 204.85392139 46.31020194 206.42818306 45 208 C42.0136107 206.65383764 39.92092082 205.13362128 37.5625 202.875 C16.06009817 183.78815344 -11.9418666 177.82944479 -39.87304688 178.80029297 C-62.56422815 180.24949552 -82.56775607 192.04302659 -99 207 C-99.66515625 207.57105469 -100.3303125 208.14210938 -101.015625 208.73046875 C-115.69959199 222.07641071 -124.22693102 242.9641209 -128 262 C-128.17568008 262.84283539 -128.35136017 263.68567078 -128.53236389 264.55404663 C-129.17001065 269.25278769 -129.16109728 273.88674399 -129.17358398 278.62353516 C-129.180271 279.68112534 -129.18695801 280.73871552 -129.19384766 281.82835388 C-129.20786597 284.11838266 -129.21977018 286.40842514 -129.22979546 288.69847488 C-129.24623889 292.32103757 -129.26947562 295.94349792 -129.29469299 299.56600952 C-129.36539573 309.86329032 -129.42570613 320.16061133 -129.47680664 330.45800781 C-129.50855931 336.76083909 -129.54981732 343.06354969 -129.59700203 349.36628342 C-129.61303472 351.7688722 -129.62535041 354.17148872 -129.63390923 356.57411575 C-129.64603448 359.92795365 -129.67017036 363.28150627 -129.69702148 366.63525391 C-129.69761063 367.63067703 -129.69819977 368.62610016 -129.69880676 369.65168762 C-129.70852509 370.56565811 -129.71824341 371.4796286 -129.72825623 372.42129517 C-129.73248816 373.21361856 -129.7367201 374.00594196 -129.74108028 374.82227516 C-130.2189314 378.8413907 -131.60178268 380.66660876 -134.6875 383.25 C-138.58925309 385.31130352 -140.65070783 385.71170236 -145 385 C-147.8125 382.625 -147.8125 382.625 -150 380 C-150.66 379.34 -151.32 378.68 -152 378 C-152.25447559 376.17553329 -152.25447559 376.17553329 -152.26069641 373.92132568 C-152.26778122 373.0668837 -152.27486603 372.21244171 -152.28216553 371.33210754 C-152.27968811 370.39203354 -152.27721069 369.45195953 -152.2746582 368.48339844 C-152.27976913 367.49431992 -152.28488007 366.50524139 -152.29014587 365.4861908 C-152.30411565 362.19385822 -152.30307665 358.90173384 -152.30078125 355.609375 C-152.30467006 353.31081057 -152.30900512 351.01224687 -152.31376648 348.71368408 C-152.32124876 343.87469163 -152.32092721 339.03577206 -152.31567383 334.19677734 C-152.30993957 328.05578752 -152.32665213 321.91510527 -152.3500185 315.77416611 C-152.3649203 311.01227123 -152.36560441 306.2504471 -152.36250877 301.48853302 C-152.36301588 299.22918346 -152.36813627 296.96982928 -152.37832069 294.71050262 C-152.53445871 255.15248418 -143.48661393 219.97270041 -115.15625 191.02734375 C-104.52613971 180.60703827 -85.54694715 164 -70 164 C-70 163.34 -70 162.68 -70 162 C-70.74121094 161.72929688 -71.48242188 161.45859375 -72.24609375 161.1796875 C-85.97984597 155.29657662 -97.20297712 140.77108784 -104 128 C-104.55429688 126.96101562 -105.10859375 125.92203125 -105.6796875 124.8515625 C-116.44515166 103.15995561 -117.99982758 78.54721599 -110.88183594 55.51611328 C-107.00179538 44.44532203 -100.73747401 34.75301747 -93 26 C-92.484375 25.33097656 -91.96875 24.66195313 -91.4375 23.97265625 C-70.354394 -2.64476507 -31.02350417 -9.62908351 0 0 Z " fill="#061B37" transform="translate(280,385)"/>
<path d="M0 0 C6.18690437 1.890443 11.01510115 6.43178514 16.01513672 10.40185547 C18.98035703 12.6976786 22.07208246 14.77854255 25.203125 16.83984375 C25.81551025 17.24396484 26.42789551 17.64808594 27.05883789 18.06445312 C29.01916459 19.35070522 30.98510656 20.62789386 32.953125 21.90234375 C33.66952148 22.36753418 34.38591797 22.83272461 35.12402344 23.31201172 C47.47717417 31.30444149 60.08288095 38.77470032 72.953125 45.90234375 C74.00113281 46.48387207 75.04914063 47.06540039 76.12890625 47.66455078 C107.78216255 65.14172329 140.61869794 80.43270868 174.953125 91.90234375 C176.64308594 92.46695313 176.64308594 92.46695313 178.3671875 93.04296875 C180.3794088 93.71204481 182.39236088 94.37892964 184.40625 95.04296875 C186.54731225 95.76541307 188.65708646 96.52886739 190.765625 97.33984375 C201.84832898 101.57260988 213.25212253 104.98164276 224.640625 108.27734375 C225.29832886 108.46799408 225.95603271 108.65864441 226.63366699 108.85507202 C250.77015021 115.83359474 275.26955381 122.46121451 300.22851562 125.68847656 C304.84791831 126.31730623 309.3344618 127.21303221 313.86987305 128.29911804 C324.65631205 130.85597078 335.43596425 132.18896327 346.45776367 133.28540039 C349.51671514 133.58995229 352.57375929 133.90986248 355.63085938 134.23242188 C365.61287137 135.26905999 375.56490309 136.15959936 385.59350586 136.56958008 C389.37413085 136.78484366 393.07210306 137.3543276 396.81640625 137.91137695 C405.59571222 139.11039713 414.2637214 139.22790632 423.11328125 139.23828125 C424.84979944 139.24644793 426.58631579 139.25501312 428.3228302 139.26394653 C433.88713897 139.28707213 439.4512838 139.28429389 445.015625 139.27734375 C445.96622047 139.27681 446.91681595 139.27627625 447.89621735 139.27572632 C498.97120197 139.23966658 548.50516005 135.04730233 598.953125 126.90234375 C600.66420051 126.6289141 602.37529918 126.3556293 604.08642578 126.08251953 C610.41619237 125.06755123 616.7418936 124.02619961 623.0546875 122.91015625 C623.89338379 122.7620752 624.73208008 122.61399414 625.59619141 122.46142578 C628.00278493 121.9526391 628.00278493 121.9526391 630.37890625 120.92480469 C633.24671367 119.78573247 636.0166546 119.15446037 639.0390625 118.53515625 C640.20928955 118.291604 641.3795166 118.04805176 642.58520508 117.79711914 C644.43795044 117.41608032 644.43795044 117.41608032 646.328125 117.02734375 C656.30103905 114.92728367 666.16875643 112.76805839 675.953125 109.90234375 C676.68982422 109.6909375 677.42652344 109.47953125 678.18554688 109.26171875 C745.15980278 89.95768983 810.97025868 61.94930857 868.12890625 21.6640625 C871.7481418 19.40642041 873.75230762 19.30222698 877.953125 19.90234375 C881.65702521 21.92900613 883.60675511 23.38278891 885.953125 26.90234375 C886.73812006 33.74301502 886.73812006 33.74301502 884.01171875 37.76953125 C880.47027259 41.75091639 876.0616773 44.40691123 871.578125 47.21484375 C870.24346191 48.0651416 870.24346191 48.0651416 868.88183594 48.93261719 C856.83632132 56.57197518 844.57901059 63.78392625 832.10595703 70.70019531 C829.88903889 71.93812964 827.68452184 73.19635272 825.48046875 74.45703125 C797.38243947 90.39374993 767.26641286 102.92420219 736.97265625 114.02734375 C733.9937937 115.12226209 731.05805602 116.25899347 728.15234375 117.53515625 C725.11153924 118.83464536 722.12306025 119.84452426 718.953125 120.77734375 C714.32793443 122.15539118 709.76060487 123.64349073 705.19921875 125.21875 C696.25501273 128.24410931 687.15336426 130.60504285 678.015625 132.96484375 C676.38855587 133.38952976 674.76160229 133.81465873 673.13476562 134.24023438 C654.22456365 139.17613373 635.43727185 143.70922382 616.16992188 147.046875 C614.97302734 147.25699219 613.77613281 147.46710938 612.54296875 147.68359375 C611.46909912 147.86986328 610.39522949 148.05613281 609.28881836 148.24804688 C606.83327108 148.72970293 604.46141015 149.27254346 602.04492188 149.90234375 C598.03258104 150.92639132 593.99603683 151.57189329 589.89453125 152.12109375 C589.14711166 152.22450073 588.39969208 152.32790771 587.62962341 152.43444824 C586.05422754 152.65155629 584.47854243 152.86657496 582.90258789 153.07958984 C580.55223722 153.39739322 578.20283161 153.72152053 575.85351562 154.046875 C565.56779812 155.46252242 555.27158639 156.75020214 544.953125 157.90234375 C544.1948642 157.98883179 543.43660339 158.07531982 542.65536499 158.16442871 C514.68820938 161.32988295 486.85431908 162.29289018 458.73513412 162.27840424 C456.25242171 162.2773644 453.76972871 162.27965755 451.28701782 162.2822876 C410.15456832 162.29824105 369.15124219 159.96437638 328.390625 154.33984375 C327.61886932 154.23392914 326.84711365 154.12801453 326.05197144 154.01889038 C323.85014385 153.71397287 321.64951876 153.40167305 319.44921875 153.0859375 C317.56481079 152.81608032 317.56481079 152.81608032 315.64233398 152.54077148 C312.30856418 151.96385347 309.10085816 151.21598778 305.83049011 150.36854553 C303.29524764 149.73897457 300.74777363 149.30762212 298.16796875 148.90234375 C297.14251953 148.73734375 296.11707031 148.57234375 295.06054688 148.40234375 C292.94345412 148.06840922 290.82626611 147.73507802 288.70898438 147.40234375 C283.31966423 146.53408324 278.19428667 145.45551727 272.953125 143.90234375 C270.56203843 143.47877984 268.1654987 143.0853942 265.765625 142.71484375 C247.20116229 139.61795192 228.97817263 134.47000282 211.11914062 128.59765625 C207.43978326 127.41654604 203.72772122 126.35012259 200.015625 125.27734375 C183.72610639 120.53802933 183.72610639 120.53802933 176.57421875 117.4375 C172.97079301 115.90983407 169.3649505 114.66433612 165.640625 113.46484375 C159.63996485 111.50352986 153.78364942 109.31939702 147.953125 106.90234375 C146.3702909 106.27608051 144.78694234 105.65111622 143.203125 105.02734375 C110.75457131 91.98820101 79.11427334 76.5917491 48.953125 58.90234375 C47.60033447 58.1131958 47.60033447 58.1131958 46.22021484 57.30810547 C33.66723944 49.94822331 21.50847037 42.04337728 9.453125 33.90234375 C8.78023437 33.44931885 8.10734375 32.99629395 7.4140625 32.52954102 C-11.40258152 19.83522418 -11.40258152 19.83522418 -13.046875 14.90234375 C-13.8021794 8.32040538 -13.8021794 8.32040538 -12.05859375 5.046875 C-8.71644276 1.08336636 -5.14853682 -0.31600301 0 0 Z " fill="#081C38" transform="translate(147.046875,800.09765625)"/>
<path d="M0 0 C0.83547363 0.00749268 1.67094727 0.01498535 2.53173828 0.02270508 C22.54653188 0.37209537 38.70782516 9.04545963 52.5625 23.25 C64.92544935 38.09034971 68.87902303 55.3373681 67.5625 74.25 C64.97588819 91.3582986 56.20878789 108.82398717 42.546875 119.63671875 C26.52224712 131.38185103 9.11667715 136.39662811 -10.78125 133.81640625 C-26.99408956 130.64860629 -41.56889619 121.4793685 -51.4375 108.25 C-63.10145296 90.29365137 -66.56855015 73.12128194 -64.04296875 51.94140625 C-63.39947978 49.21384334 -62.54791828 46.82482897 -61.4375 44.25 C-61.17936523 43.64494629 -60.92123047 43.03989258 -60.65527344 42.41650391 C-56.57009785 33.04955367 -51.90901292 25.36509799 -44.4375 18.25 C-43.79039062 17.60675781 -43.14328125 16.96351563 -42.4765625 16.30078125 C-37.38932384 11.51462406 -31.67581942 8.32694552 -25.4375 5.25 C-24.79683594 4.9303125 -24.15617187 4.610625 -23.49609375 4.28125 C-15.97016165 0.78893812 -8.20156603 -0.09765756 0 0 Z " fill="#FCFCFC" transform="translate(251.4375,402.75)"/>
<path d="M0 0 C3.58471874 2.77609684 6.82086005 5.7710129 10 9 C10.95519531 9.95712891 10.95519531 9.95712891 11.9296875 10.93359375 C24.22517567 24.07610444 29.75838263 40.19427686 29.45556641 57.91235352 C29.20163609 64.2983913 28.27300961 70.00254091 26 76 C25.64808594 77.04285156 25.29617188 78.08570313 24.93359375 79.16015625 C19.09181855 95.64437341 8.80354657 109.04674936 -7 117 C-7.75023437 117.38800781 -8.50046875 117.77601563 -9.2734375 118.17578125 C-22.21572318 124.41986644 -40.70389873 125.89218985 -54.5078125 121.90234375 C-58.18541529 120.59883178 -61.58612845 118.89056701 -65 117 C-66.51980469 116.17048828 -66.51980469 116.17048828 -68.0703125 115.32421875 C-83.50932507 106.17439523 -93.56274276 91.08990885 -99.25 74.3125 C-103.80941467 54.17508522 -100.19783241 36.82460115 -90 19 C-81.76958541 6.24673966 -70.61851024 -1.0650562 -57 -7 C-56.15953125 -7.38414062 -55.3190625 -7.76828125 -54.453125 -8.1640625 C-37.36372984 -14.64833655 -14.83772152 -9.39861293 0 0 Z " fill="#FCFCFC" transform="translate(475,413)"/>
<path d="M0 0 C9.70055471 8.69139427 16.43630083 19.71955663 20.06445312 32.22070312 C20.41636719 33.24550781 20.76828125 34.2703125 21.13085938 35.32617188 C25.29361999 50.13887844 22.51879339 66.60117552 16.06445312 80.22070312 C15.36255859 81.77144531 15.36255859 81.77144531 14.64648438 83.35351562 C11.19415028 90.29686542 6.51404634 95.75288385 1.06445312 101.22070312 C0.37609375 101.93226563 -0.31226563 102.64382813 -1.02148438 103.37695312 C-12.82763318 114.78810067 -28.56301349 119.78915545 -44.77172852 119.7109375 C-61.81945513 119.04135849 -76.32058699 110.33202882 -87.93554688 98.22070312 C-101.66645029 81.46525374 -106.50640021 62.49351236 -104.93554688 41.22070312 C-102.69685199 23.98161609 -92.79887234 8.24047098 -79.37304688 -2.52929688 C-74.69831398 -5.85727573 -69.90562058 -8.4446574 -64.68554688 -10.77929688 C-63.71186157 -11.21580566 -63.71186157 -11.21580566 -62.71850586 -11.66113281 C-42.24133477 -20.23768626 -16.60982329 -13.83115123 0 0 Z " fill="#FCFCFC" transform="translate(680.935546875,417.779296875)"/>
<path d="M0 0 C0.97324219 0.20496094 1.94648437 0.40992188 2.94921875 0.62109375 C5.68712444 1.29613635 8.32450288 2.10700031 11 3 C11.67998047 3.22671387 12.35996094 3.45342773 13.06054688 3.68701172 C35.0313401 11.12105454 53.2626225 21.85279801 70 38 C70.77988281 38.71671875 71.55976562 39.4334375 72.36328125 40.171875 C91.52805102 58.28139102 104.60602959 84.38515502 110 110 C110.14808105 110.69464355 110.29616211 111.38928711 110.44873047 112.10498047 C118.30360288 150.26325732 110.42138936 191.20956378 89.15625 223.828125 C85.5703125 228.71484375 85.5703125 228.71484375 83 230 C78.40123316 230.55112923 75.02212113 230.61753151 71 228.1875 C67.88059696 224.77565293 67.68043009 221.61350348 67.74560547 217.078125 C68.15974372 213.69506857 69.74536922 211.34120639 71.5625 208.5 C78.52113402 197.12148294 83.6718079 184.92756097 87 172 C87.2990625 170.90816406 87.598125 169.81632813 87.90625 168.69140625 C92.1153817 150.58824258 92.37212661 128.8493239 87 111 C86.6596875 109.7934375 86.319375 108.586875 85.96875 107.34375 C76.33359213 75.83417967 55.44028666 49.6366227 26.32421875 34.13671875 C-3.00150548 19.24249659 -36.77192461 16.30505201 -68.20947266 26.06298828 C-101.11746053 37.11293207 -125.60742695 59.99553317 -141.05859375 90.7421875 C-144.15179762 97.25245952 -146.11663379 104.0565053 -148 111 C-148.34933594 112.17304688 -148.69867187 113.34609375 -149.05859375 114.5546875 C-151.77940265 124.5121707 -152.19575802 134.61176068 -152.25 144.875 C-152.25918457 145.83728516 -152.26836914 146.79957031 -152.27783203 147.79101562 C-152.25185317 153.80564247 -151.51995267 159.19223785 -150 165 C-149.69891512 166.30662503 -149.40064669 167.61390288 -149.10546875 168.921875 C-146.4541123 179.9785955 -143.302534 190.26858688 -137.43505859 200.09643555 C-130.73897626 211.31990818 -130.73897626 211.31990818 -131.42578125 218.0078125 C-132.29791104 221.0335689 -133.69331037 222.8968418 -136 225 C-138.28547148 226.14273574 -139.76879905 226.23127257 -142.3125 226.3125 C-143.45138672 226.36857422 -143.45138672 226.36857422 -144.61328125 226.42578125 C-148.0615634 225.81062126 -149.51734854 224.4670373 -152 222 C-153.6971579 219.50054927 -155.074818 216.88117372 -156.4375 214.1875 C-156.82510498 213.43557373 -157.21270996 212.68364746 -157.61206055 211.90893555 C-163.43491983 200.41660905 -167.98710505 188.54703362 -171 176 C-171.30035156 174.76121094 -171.60070312 173.52242187 -171.91015625 172.24609375 C-176.20096421 152.29177732 -175.97681217 128.74340302 -171 109 C-170.69582153 107.65373535 -170.69582153 107.65373535 -170.38549805 106.28027344 C-168.7131714 99.10043313 -166.41780327 92.48678775 -163.4375 85.75 C-162.78322021 84.26173706 -162.78322021 84.26173706 -162.11572266 82.7434082 C-156.3804987 70.02165739 -149.14642065 58.55356229 -140 48 C-139.31550781 47.19433594 -138.63101563 46.38867188 -137.92578125 45.55859375 C-114.91727195 19.16283532 -80.45061218 0.01087915 -45.13720703 -2.87109375 C-29.84561556 -3.79341044 -14.99522202 -3.17640314 0 0 Z " fill="#E2AD51" transform="translate(950,379)"/>
<path d="M0 0 C10.34497826 8.2530072 17.45726889 18.40203454 22.22558594 30.71582031 C22.5465625 31.53179687 22.86753906 32.34777344 23.19824219 33.18847656 C27.15994681 45.1104435 26.80558153 60.05469678 22.22558594 71.71582031 C21.87898926 72.62992676 21.87898926 72.62992676 21.52539062 73.5625 C17.99241034 82.75713673 13.99828846 90.43023352 7.22558594 97.71582031 C6.63390625 98.40933594 6.04222656 99.10285156 5.43261719 99.81738281 C-2.01868819 108.04718279 -12.99075286 114.12173879 -23.77441406 116.71582031 C-24.85335937 116.98845703 -24.85335937 116.98845703 -25.95410156 117.26660156 C-43.49312832 120.06021386 -60.2613071 116.70982665 -74.87988281 106.55957031 C-85.62245694 98.17246554 -93.03903073 87.54778064 -97.77441406 74.71582031 C-98.0928125 73.87664062 -98.41121094 73.03746094 -98.73925781 72.17285156 C-103.44925231 57.13125625 -102.56386305 38.89631504 -95.77441406 24.71582031 C-87.09048898 8.1452536 -73.45731453 -3.83696696 -55.97363281 -10.32324219 C-36.73564275 -16.01747438 -16.12383519 -11.66914875 0 0 Z " fill="#FCFCFC" transform="translate(954.7744140625,471.2841796875)"/>
<path d="M0 0 C9.24 0 18.48 0 28 0 C28 9.24 28 18.48 28 28 C18.76 28 9.52 28 0 28 C0 18.76 0 9.52 0 0 Z " fill="#FEFDFE" transform="translate(167,1004)"/>
<path d="M0 0 C4.22558609 3.49338641 6.6257359 6.50993101 7.37109375 12.046875 C6.80028903 16.93948685 5.11339399 20.07172643 1.93359375 23.796875 C-1.87107686 26.50241855 -5.33455778 27.39934519 -10.0390625 27.21875 C-13.6887891 26.45926932 -16.49147295 24.44140109 -19.06640625 21.796875 C-22.0029399 17.18091909 -21.8151945 12.07659625 -21.06640625 6.796875 C-19.4311096 3.37086094 -17.05549081 1.40131557 -13.81640625 -0.578125 C-9.02607541 -1.66683656 -4.42757857 -2.57787183 0 0 Z " fill="#0B1F3A" transform="translate(872.06640625,312.203125)"/>
<path d="M0 0 C3.96621085 1.327126 6.50596471 3.29878863 8.9375 6.75 C10.44622139 11.36491247 10.96668626 15.39098656 9.2734375 19.9609375 C7.20838828 23.93993477 5.20153562 26.44725857 1 28 C-3.32970298 28.72161716 -7.19951526 28.98927733 -11.1328125 26.828125 C-14.5241086 24.07535745 -17.18232812 21.39498637 -18 17 C-18.23891509 11.73391322 -17.49882974 8.08326713 -14.0625 4 C-9.83394102 -0.48829848 -5.98738787 -0.69575211 0 0 Z " fill="#0B1E39" transform="translate(1004,320)"/>
<path d="M0 0 C3.70188567 1.64271177 5.9443887 3.49805831 8 7 C8.88332585 11.47149421 8.97058176 15.54209541 8 20 C5.20518483 24.16013197 2.72048944 26.24138629 -2 28 C-7.03365251 28.52985816 -10.00799474 28.1515831 -14 25 C-17.19637176 22.15878066 -18.70493248 20.58628298 -19.48828125 16.375 C-19.70805018 11.75357329 -19.67543628 8.13382239 -16.6875 4.4375 C-11.27602554 -0.47058149 -7.13032405 -1.20130459 0 0 Z " fill="#0B1E38" transform="translate(939,303)"/>
<path d="M0 0 C4.07109328 2.38727713 7.20432364 4.50900581 8.9375 9.05859375 C9.70910988 14.90078287 8.33705704 19.34170836 4.9375 24.05859375 C0.71219829 27.27787124 -3.54924222 27.64367884 -8.7265625 27.47265625 C-12.45452899 26.81184614 -13.9032325 25.06848178 -16.0625 22.05859375 C-18.86949005 17.60612678 -19.71840138 14.30580483 -19.0625 9.05859375 C-15.18739735 1.86197453 -8.49471602 -3.87732303 0 0 Z " fill="#091E39" transform="translate(810.0625,345.94140625)"/>
<path d="M0 0 C4.28575173 2.26892739 7.5624855 4.7812249 10 9 C10.84484341 13.57767197 10.49149878 17.67808475 8.4375 21.875 C5.15129627 26.08808171 2.21524655 27.3797359 -2.984375 28.3828125 C-7.19516016 28.75819257 -9.57425282 27.969533 -12.875 25.3125 C-16.41574617 21.86853961 -17.67994885 19.05747165 -18.4375 14.1875 C-17.81413716 9.64585648 -15.92875214 6.49138085 -13 3 C-8.68842077 0.00064054 -5.20039771 -0.65004971 0 0 Z " fill="#0B1F3A" transform="translate(1117,468)"/>
<path d="M0 0 C3.2277235 2.12736321 4.89407493 3.38617679 6.75 6.8125 C7.54448427 12.12257343 7.39735479 16.41819737 5.125 21.3125 C1.42255382 25.20981176 -1.95880552 26.94552511 -7.3125 27.1875 C-12.78286115 26.66651322 -14.92846289 25.27690599 -18.5625 21.25 C-20.82428068 16.64266898 -21.06203318 12.85694853 -20.25 7.8125 C-15.97995106 -0.88574785 -8.91460387 -3.25725911 0 0 Z " fill="#0A1E38" transform="translate(1084.25,643.1875)"/>
<path d="M0 0 C3.57472471 1.59721743 6.02169417 3.76648395 8.4375 6.8125 C9.78170167 12.03995095 9.74349483 15.64119911 7.1875 20.3125 C2.03082192 26.64784736 2.03082192 26.64784736 -3.05078125 27.23828125 C-8.56280683 27.41915946 -11.70056765 26.78759517 -16 23 C-19.16284231 19.3100173 -19.51992627 15.92146146 -19.35546875 11.21484375 C-18.66972275 6.94211865 -16.32214677 4.19364439 -13.19140625 1.3671875 C-9.11713822 -1.17469095 -4.62076465 -0.7048624 0 0 Z " fill="#091E39" transform="translate(1059,358)"/>
<path d="M0 0 C3.54590253 1.95594624 6.18288988 4.36577977 8 8 C8.73928301 12.51970752 8.97999607 16.42225764 6.5078125 20.40234375 C1.01029166 26.70966537 1.01029166 26.70966537 -3.13671875 27.30859375 C-7.96400663 27.55254551 -11.17001316 27.45712077 -15 24.3125 C-18.2073257 21.05978761 -19.9718886 18.56282219 -20.0234375 13.86328125 C-19.70264109 8.75586467 -18.78654357 5.67517464 -15 2 C-10.31457607 -1.12361595 -5.47636674 -0.833821 0 0 Z " fill="#0D203B" transform="translate(1122,529)"/>
<path d="M0 0 C4.36603532 1.99977165 7.21152501 4.50374044 9 9 C9.72798272 13.65570345 9.42814156 17.14371687 7.3125 21.375 C4.1818141 24.92875157 2.22103505 26.72865183 -2.58984375 27.31640625 C-7.13519947 27.50554186 -10.09130696 27.53779792 -14.0625 25.1875 C-18.30661354 20.39575891 -18.48079574 17.17129784 -18.390625 10.95703125 C-17.8017672 6.49937774 -16.33194012 4.94450522 -13 2 C-8.73563379 -0.8429108 -5.00554076 -0.75083111 0 0 Z " fill="#0A1E39" transform="translate(1109,587)"/>
<path d="M0 0 C3.84724728 1.95859862 7.08727899 4.0682957 9 8 C9.72675952 12.61178266 9.50540156 16.67659357 7.375 20.875 C4.29045447 24.93361254 1.88290772 26.48444351 -3.140625 27.3828125 C-7.64857397 27.73547517 -10.38632519 27.18303297 -13.9375 24.3125 C-17.46492342 20.82590324 -18.74682432 17.98320946 -19.375 13.0625 C-18.76777263 8.10347649 -16.12474852 5.25707187 -12.875 1.625 C-8.61604292 -0.78223661 -4.78102419 -0.76618977 0 0 Z " fill="#091D37" transform="translate(1098,410)"/>
<path d="M0 0 C0.33 0 0.66 0 1 0 C1 72.6 1 145.2 1 220 C1.66 220 2.32 220 3 220 C3 220.66 3 221.32 3 222 C3.99 222.33 4.98 222.66 6 223 C6 223.66 6 224.32 6 225 C7.65 225 9.3 225 11 225 C9.515 225.99 9.515 225.99 8 227 C5.20881076 226.30220269 3.46674028 225.43754104 1.36629772 223.46850204 C-0.66080151 219.80612413 -0.40277506 216.2070228 -0.36076355 212.12896729 C-0.36332682 211.22308451 -0.3658901 210.31720174 -0.36853105 209.38386798 C-0.37348078 206.34199515 -0.35695625 203.30061633 -0.34057617 200.25878906 C-0.33973016 198.08088696 -0.34020454 195.902984 -0.34190369 193.7250824 C-0.34276606 187.80601192 -0.32510097 181.88712302 -0.30418181 175.96809483 C-0.28545545 169.78478981 -0.28366776 163.60148085 -0.28010559 157.41815186 C-0.27077325 145.70618444 -0.24614333 133.99430081 -0.21605712 122.28237033 C-0.18230982 108.95001509 -0.16603642 95.61765952 -0.15097082 82.28527117 C-0.11959485 54.85680095 -0.0668112 27.42840517 0 0 Z " fill="#1B2A45" transform="translate(319,648)"/>
<path d="M0 0 C3.39114945 1.69557473 6.53877748 3.49510975 9.75 5.5 C10.73484375 6.1084375 11.7196875 6.716875 12.734375 7.34375 C13.48203125 7.8903125 14.2296875 8.436875 15 9 C15 9.66 15 10.32 15 11 C13.25531628 11.70088156 11.50398839 12.38524009 9.75 13.0625 C8.77546875 13.44535156 7.8009375 13.82820312 6.796875 14.22265625 C4 15 4 15 0 14 C0 9.38 0 4.76 0 0 Z " fill="#F2F3F5" transform="translate(195,538)"/>
<path d="M0 0 C0 0.33 0 0.66 0 1 C-2.31 1 -4.62 1 -7 1 C-7 1.66 -7 2.32 -7 3 C-10.63 3 -14.26 3 -18 3 C-18.33 3.66 -18.66 4.32 -19 5 C-21.97 5 -24.94 5 -28 5 C-28 4.67 -28 4.34 -28 4 C-31.62885324 3.84850702 -31.62885324 3.84850702 -35 5 C-37.21138855 4.91188555 -39.42042185 4.7570216 -41.625 4.5625 C-42.81351563 4.46066406 -44.00203125 4.35882812 -45.2265625 4.25390625 C-46.14179687 4.17011719 -47.05703125 4.08632813 -48 4 C-48 3.67 -48 3.34 -48 3 C-42.45016333 2.56885566 -36.90003583 2.14174581 -31.34960938 1.71826172 C-29.46410886 1.57384453 -27.57869027 1.42835326 -25.69335938 1.28173828 C-22.97286833 1.07036821 -20.25209946 0.86294903 -17.53125 0.65625 C-16.69758911 0.59062866 -15.86392822 0.52500732 -15.00500488 0.45739746 C-9.98680695 0.08074842 -5.0324364 -0.06063176 0 0 Z " fill="#303D53" transform="translate(685,936)"/>
<path d="M0 0 C0.66 0.66 1.32 1.32 2 2 C0.10600285 3.75202288 -1.79011738 5.50164978 -3.6875 7.25 C-4.21794922 7.74113281 -4.74839844 8.23226562 -5.29492188 8.73828125 C-8.43433028 11.62730739 -11.63177061 14.37540567 -15 17 C-15.66 16.34 -16.32 15.68 -17 15 C-11.75226411 9.43948515 -6.03948712 4.67847594 0 0 Z " fill="#0E213C" transform="translate(178,565)"/>
<path d="M0 0 C0.99 0.33 1.98 0.66 3 1 C2.38511719 1.68835938 2.38511719 1.68835938 1.7578125 2.390625 C1.21898437 3.00421875 0.68015625 3.6178125 0.125 4.25 C-0.40867187 4.85328125 -0.94234375 5.4565625 -1.4921875 6.078125 C-4.36728589 9.74275818 -5.25911235 12.33597776 -5 17 C-7.0625 15.3125 -7.0625 15.3125 -9 13 C-8.76796437 8.59132301 -7.08819345 6.63814943 -3.9375 3.6875 C-3.20402344 2.99011719 -2.47054687 2.29273438 -1.71484375 1.57421875 C-1.14894531 1.05472656 -0.58304688 0.53523437 0 0 Z " fill="#172946" transform="translate(559,569)"/>
<path d="M0 0 C0.33 0 0.66 0 1 0 C1.33 3.63 1.66 7.26 2 11 C-2.96916636 10.48594831 -7.29026351 9.76615118 -12 8 C-12 7.67 -12 7.34 -12 7 C-11.38511719 6.91363281 -10.77023437 6.82726562 -10.13671875 6.73828125 C-4.80164058 5.94201942 -4.80164058 5.94201942 -1 2.375 C-0.67 1.59125 -0.34 0.8075 0 0 Z " fill="#658D59" transform="translate(339,868)"/>
<path d="M0 0 C2.61007775 3.91511663 2.09403799 6.08514166 1.55859375 10.61328125 C0.8370839 13.69609605 -0.43659873 15.180812 -3 17 C-4 15 -4 15 -3.4765625 13.046875 C-3.19554687 12.28890625 -2.91453125 11.5309375 -2.625 10.75 C-1.3597806 7.17387759 -0.48428613 3.77743181 0 0 Z " fill="#26344D" transform="translate(318,477)"/>
<path d="M0 0 C0.33 0 0.66 0 1 0 C1 2.31 1 4.62 1 7 C1.66 7 2.32 7 3 7 C3 7.66 3 8.32 3 9 C3.99 9.33 4.98 9.66 6 10 C6 10.66 6 11.32 6 12 C7.65 12 9.3 12 11 12 C10.01 12.66 9.02 13.32 8 14 C5.13361403 13.28340351 3.38540605 12.34553646 1.1875 10.375 C-0.5799191 6.84016181 -0.19629067 3.92581331 0 0 Z " fill="#222F4B" transform="translate(319,861)"/>
<path d="M0 0 C0.33 0.66 0.66 1.32 1 2 C-0.61594832 4.04119788 -2.2856382 6.04072937 -4 8 C-4.66 8 -5.32 8 -6 8 C-6.66 9.32 -7.32 10.64 -8 12 C-8.99 11.34 -9.98 10.68 -11 10 C-10.45730469 9.52949219 -9.91460938 9.05898438 -9.35546875 8.57421875 C-8.64003906 7.95160156 -7.92460938 7.32898438 -7.1875 6.6875 C-6.47980469 6.07261719 -5.77210938 5.45773437 -5.04296875 4.82421875 C-3.29863261 3.26665665 -1.63221959 1.67341125 0 0 Z " fill="#212F48" transform="translate(963,567)"/>
<path d="M0 0 C3.14737182 0.69941596 6.02588876 1.76078698 9 3 C9 3.66 9 4.32 9 5 C5.71303767 5.79953138 4.28976808 6.09658936 1 5 C0.67 3.35 0.34 1.7 0 0 Z " fill="#E4E6EA" transform="translate(390,544)"/>
<path d="M0 0 C0.66 0.66 1.32 1.32 2 2 C-1.17530109 4.72168665 -3.94254825 6.85559053 -8 8 C-9.32 7.67 -10.64 7.34 -12 7 C-8.04 4.69 -4.08 2.38 0 0 Z " fill="#1D2A45" transform="translate(292,523)"/>
<path d="M0 0 C1.2065625 0.0309375 1.2065625 0.0309375 2.4375 0.0625 C2.7675 2.3725 3.0975 4.6825 3.4375 7.0625 C2.4475 7.5575 2.4475 7.5575 1.4375 8.0625 C-0.2125 5.7525 -1.8625 3.4425 -3.5625 1.0625 C-2.5625 0.0625 -2.5625 0.0625 0 0 Z " fill="#F2EFEA" transform="translate(1027.5625,419.9375)"/>
<path d="M0 0 C1.32830615 3.98491845 0.23204404 5.40048548 -1.4375 9.1875 C-1.91058594 10.27417969 -2.38367188 11.36085938 -2.87109375 12.48046875 C-3.42990234 13.72763672 -3.42990234 13.72763672 -4 15 C-5.1796875 13.359375 -5.1796875 13.359375 -6 11 C-4.8828125 8.203125 -4.8828125 8.203125 -3.125 5.25 C-2.55007813 4.26515625 -1.97515625 3.2803125 -1.3828125 2.265625 C-0.92648437 1.51796875 -0.47015625 0.7703125 0 0 Z " fill="#1A2843" transform="translate(569,419)"/>
<path d="M0 0 C0.99 0.33 1.98 0.66 3 1 C0.36 3.64 -2.28 6.28 -5 9 C-5.99 8.67 -6.98 8.34 -8 8 C-5.36 5.36 -2.72 2.72 0 0 Z " fill="#3F8BCA" transform="translate(185,587)"/>
<path d="M0 0 C0.66 0.33 1.32 0.66 2 1 C0.55746343 4.36591866 -1.33264727 6.51047079 -4 9 C-4.99 8.67 -5.98 8.34 -7 8 C-4.69 5.36 -2.38 2.72 0 0 Z " fill="#1A2B47" transform="translate(355,576)"/>
<path d="M0 0 C6.43311296 -0.09507063 12.65758005 -0.15316726 19 1 C19 1.33 19 1.66 19 2 C15.7 2.33 12.4 2.66 9 3 C9 2.67 9 2.34 9 2 C6.03 1.67 3.06 1.34 0 1 C0 0.67 0 0.34 0 0 Z " fill="#CFD3D9" transform="translate(677,958)"/>
<path d="M0 0 C0.66 0.33 1.32 0.66 2 1 C0.66749209 4.5875213 -0.830717 7.8364623 -3 11 C-3.66 11 -4.32 11 -5 11 C-3.77472971 6.94718288 -2.30119506 3.55639236 0 0 Z " fill="#8BB061" transform="translate(355,611)"/>
<path d="M0 0 C0.66 0.33 1.32 0.66 2 1 C-1.625 6.75 -1.625 6.75 -5 9 C-5.66 8.34 -6.32 7.68 -7 7 C-4.69 4.69 -2.38 2.38 0 0 Z " fill="#243149" transform="translate(168,573)"/>
<path d="M0 0 C0.33 0.99 0.66 1.98 1 3 C0.195625 3.61875 -0.60875 4.2375 -1.4375 4.875 C-4.03874519 6.74164041 -4.03874519 6.74164041 -5 9 C-5.66 9 -6.32 9 -7 9 C-7 8.34 -7 7.68 -7 7 C-8.65 7 -10.3 7 -12 7 C-12 6.67 -12 6.34 -12 6 C-10.7625 5.7525 -9.525 5.505 -8.25 5.25 C-4.48560327 4.3289242 -2.46922107 3.08652634 0 0 Z " fill="#D6D9DF" transform="translate(564,913)"/>
<path d="M0 0 C-1.15173355 2.46800047 -2.04783565 4.04783565 -4 6 C-4.6425235 8.06874034 -4.6425235 8.06874034 -5 10 C-5.66 10 -6.32 10 -7 10 C-6.67506385 6.4257023 -6.36129314 4.44287547 -4.0625 1.625 C-2 0 -2 0 0 0 Z " fill="#192944" transform="translate(1098,589)"/>
<path d="M0 0 C0.66 0.66 1.32 1.32 2 2 C0.74057614 3.19959375 -0.53295286 4.38439443 -1.8125 5.5625 C-2.87404297 6.55443359 -2.87404297 6.55443359 -3.95703125 7.56640625 C-4.63121094 8.03949219 -5.30539062 8.51257813 -6 9 C-6.99 8.67 -7.98 8.34 -9 8 C-6.03 5.36 -3.06 2.72 0 0 Z " fill="#DAD6D2" transform="translate(574,585)"/>
<path d="M0 0 C0.8125 1.625 0.8125 1.625 1 4 C-1.3125 7.25 -1.3125 7.25 -4 10 C-4.66 10 -5.32 10 -6 10 C-4.6302836 6.00499382 -2.74277578 3.19990508 0 0 Z " fill="#1E314D" transform="translate(851,469)"/>
<path d="M0 0 C0.66 0.99 1.32 1.98 2 3 C0.02 5.97 0.02 5.97 -2 9 C-2.66 8.67 -3.32 8.34 -4 8 C-2.66666667 5.33333333 -1.33333333 2.66666667 0 0 Z " fill="#EDEEF0" transform="translate(308,500)"/>
<path d="M0 0 C0 0.99 0 1.98 0 3 C-3.96 4.98 -3.96 4.98 -8 7 C-4.5 0 -4.5 0 0 0 Z " fill="#202F48" transform="translate(860,312)"/>
<path d="M0 0 C0.66 0.66 1.32 1.32 2 2 C-1.20336822 4.83374881 -3.78087253 5.5205537 -8 6 C-5.38485683 3.87961365 -2.80362384 1.86908256 0 0 Z " fill="#132340" transform="translate(187,559)"/>
<path d="M0 0 C0.66 0.33 1.32 0.66 2 1 C0.25 3.5 0.25 3.5 -2 6 C-3.32 6 -4.64 6 -6 6 C-6 5.34 -6 4.68 -6 4 C-4.03852126 2.61061923 -2.03833424 1.2739589 0 0 Z " fill="#E5E7EB" transform="translate(686,543)"/>
<path d="M0 0 C7.42857143 -0.28571429 7.42857143 -0.28571429 11 2 C6.98195309 2.84098656 3.98196457 3.05404945 0 2 C0 1.34 0 0.68 0 0 Z " fill="#2E3A50" transform="translate(448,927)"/>
<path d="M0 0 C0.99 0 1.98 0 3 0 C2.67 3.63 2.34 7.26 2 11 C1.67 11 1.34 11 1 11 C-1.125 3.375 -1.125 3.375 0 0 Z " fill="#D4D7DC" transform="translate(128,638)"/>
<path d="M0 0 C0.33 0.66 0.66 1.32 1 2 C-0.70135776 5.23257974 -2.76039553 8.12050853 -5 11 C-5.66 10.67 -6.32 10.34 -7 10 C-3.535 5.05 -3.535 5.05 0 0 Z " fill="#D0D6DD" transform="translate(512,516)"/>
<path d="M0 0 C0.66 0.33 1.32 0.66 2 1 C1.25 3.875 1.25 3.875 0 7 C-1.98 7.99 -1.98 7.99 -4 9 C-2.68 6.03 -1.36 3.06 0 0 Z " fill="#152845" transform="translate(177,424)"/>
<path d="M0 0 C-1.20381448 2.49361571 -2.45428722 4.68143083 -4 7 C-4.99 7 -5.98 7 -7 7 C-3.86206897 0 -3.86206897 0 0 0 Z " fill="#11223C" transform="translate(1088,411)"/>
<path d="M0 0 C0 3 0 3 -1.3125 4.38671875 C-2.875 5.59114583 -4.4375 6.79557292 -6 8 C-6.66 7.67 -7.32 7.34 -8 7 C-5.36 4.69 -2.72 2.38 0 0 Z " fill="#233047" transform="translate(197,401)"/>
<path d="M0 0 C0.66 0 1.32 0 2 0 C1.6875 2.375 1.6875 2.375 1 5 C0.01 5.66 -0.98 6.32 -2 7 C-2.66 6.34 -3.32 5.68 -4 5 C-2.71937515 3.2925002 -1.38232443 1.62626404 0 0 Z " fill="#152842" transform="translate(563,910)"/>
<path d="M0 0 C0.33 0 0.66 0 1 0 C1.33 3.96 1.66 7.92 2 12 C1.01 11.67 0.02 11.34 -1 11 C-0.67 7.37 -0.34 3.74 0 0 Z " fill="#1A2740" transform="translate(130,642)"/>
<path d="M0 0 C0.66 0.66 1.32 1.32 2 2 C-0.31 3.65 -2.62 5.3 -5 7 C-5 6.01 -5 5.02 -5 4 C-2.5 1.8125 -2.5 1.8125 0 0 Z " fill="#162641" transform="translate(368,565)"/>
<path d="M0 0 C0.66 0.99 1.32 1.98 2 3 C1.34 3 0.68 3 0 3 C-0.33 4.32 -0.66 5.64 -1 7 C-2.32 6.67 -3.64 6.34 -5 6 C-3.35 4.02 -1.7 2.04 0 0 Z " fill="#232F46" transform="translate(306,508)"/>
<path d="M0 0 C0.66 0 1.32 0 2 0 C0.7508258 3.45925163 -0.67527795 6.14693203 -3 9 C-3.66 8.67 -4.32 8.34 -5 8 C-4.21718695 6.66144944 -3.42348123 5.32926356 -2.625 4 C-2.18414063 3.2575 -1.74328125 2.515 -1.2890625 1.75 C-0.86367188 1.1725 -0.43828125 0.595 0 0 Z " fill="#D6DAE0" transform="translate(714,511)"/>
<path d="M0 0 C1.32 0.66 2.64 1.32 4 2 C-0.75 6 -0.75 6 -3 6 C-1.125 1.125 -1.125 1.125 0 0 Z " fill="#1F324D" transform="translate(1104,471)"/>
<path d="M0 0 C-1 3 -1 3 -2.875 4.25 C-5 5 -5 5 -8 4 C-3.375 0 -3.375 0 0 0 Z " fill="#1C2D4A" transform="translate(1051,358)"/>
<path d="M0 0 C0 0.99 0 1.98 0 3 C-2.70879335 4.35439668 -5.00933268 4.06501451 -8 4 C-2.7826087 0 -2.7826087 0 0 0 Z " fill="#87AE5C" transform="translate(402,571)"/>
<path d="M0 0 C0 3 0 3 -2.5 5.6875 C-3.325 6.450625 -4.15 7.21375 -5 8 C-5.66 7.67 -6.32 7.34 -7 7 C-4.69 4.69 -2.38 2.38 0 0 Z " fill="#222C45" transform="translate(486,515)"/>
<path d="M0 0 C0.66 0.33 1.32 0.66 2 1 C0.6875 3.5 0.6875 3.5 -1 6 C-1.99 6 -2.98 6 -4 6 C-2.84826645 3.53199953 -1.95216435 1.95216435 0 0 Z " fill="#202E43" transform="translate(797,347)"/>
<path d="M0 0 C0.66 0 1.32 0 2 0 C2.33 2.64 2.66 5.28 3 8 C2.34 8 1.68 8 1 8 C0.67 5.36 0.34 2.72 0 0 Z " fill="#242D40" transform="translate(720,445)"/>
</svg>
