<?xml version="1.0" standalone="no"?>
<!DOCTYPE svg PUBLIC "-//W3C//DTD SVG 20010904//EN"
 "http://www.w3.org/TR/2001/REC-SVG-20010904/DTD/svg10.dtd">
<svg version="1.0" xmlns="http://www.w3.org/2000/svg"
 width="1254.000000pt" height="1254.000000pt" viewBox="0 0 1254.000000 1254.000000"
 preserveAspectRatio="xMidYMid meet">

<g transform="translate(0.000000,1254.000000) scale(0.100000,-0.100000)"
fill="#000000" stroke="none">
<path d="M6225 9721 c-48 -12 -92 -39 -114 -69 -23 -33 -45 -112 -38 -138 3
-11 5 -3 6 16 1 25 4 31 10 20 6 -8 7 -18 4 -23 -3 -5 0 -12 6 -16 6 -4 9 -15
5 -25 -5 -14 -9 -15 -15 -4 -7 10 -9 10 -9 -2 0 -25 44 -90 76 -110 32 -22 58
-28 30 -7 -16 12 -13 13 22 15 28 2 41 -2 45 -13 5 -11 -1 -15 -21 -16 -25 -1
-25 -1 7 -11 45 -12 114 5 160 39 42 33 71 95 69 153 l-1 45 -7 -45 c-4 -25
-8 -39 -8 -32 -1 6 -9 12 -17 12 -20 0 -20 39 0 76 8 16 15 23 15 15 0 -8 3
-11 6 -8 16 16 -49 89 -99 113 -53 24 -80 27 -132 15z m136 -28 c5 -5 1 -9
-11 -9 -11 0 -20 4 -20 8 0 4 -15 9 -32 11 -18 2 -13 3 10 2 24 -2 48 -7 53
-12z"/>
<path d="M5655 9560 c-222 -39 -532 -131 -755 -225 -192 -81 -414 -200 -404
-217 4 -7 2 -8 -5 -4 -15 10 -133 -62 -125 -76 4 -6 3 -8 -3 -5 -6 4 -19 -1
-29 -9 -10 -9 -13 -12 -5 -8 9 5 12 3 7 -5 -4 -6 -12 -9 -17 -5 -17 10 -154
-86 -154 -109 -1 -7 -7 -11 -13 -9 -18 3 -214 -157 -206 -169 3 -5 0 -8 -8 -7
-7 2 -12 -3 -10 -10 1 -8 -1 -11 -6 -8 -12 7 -183 -160 -180 -176 2 -7 -2 -12
-9 -11 -14 3 -104 -97 -97 -108 2 -4 -1 -11 -7 -15 -8 -5 -9 -3 -4 7 5 8 -1 5
-13 -5 -26 -23 -30 -45 -4 -25 15 13 16 12 3 -4 -8 -9 -16 -15 -19 -12 -11 11
-32 -19 -32 -45 0 -46 35 -80 81 -80 35 0 45 6 92 58 492 542 984 857 1635
1046 113 33 321 77 425 91 60 8 87 35 87 87 0 80 -41 91 -225 58z m-18 -156
c-3 -3 -12 -4 -19 -1 -8 3 -5 6 6 6 11 1 17 -2 13 -5z"/>
<path d="M6694 9572 c-17 -11 -34 -48 -34 -75 0 -49 28 -67 125 -81 491 -74
913 -233 1321 -497 121 -79 142 -89 128 -67 -4 7 -3 8 5 4 6 -4 9 -11 6 -16
-3 -4 43 -46 103 -93 59 -47 160 -135 226 -196 67 -63 123 -108 130 -104 6 3
8 3 4 -2 -4 -4 8 -26 27 -48 19 -22 35 -44 35 -47 0 -4 -44 3 -97 16 -123 29
-167 30 -193 4 -31 -31 -27 -93 6 -119 15 -12 32 -21 38 -21 6 0 116 -25 244
-56 229 -56 234 -57 265 -40 18 9 24 14 14 12 -16 -5 -16 -4 0 22 24 39 26 40
18 12 -5 -17 -4 -22 3 -15 6 6 12 119 15 285 4 229 3 280 -10 303 -9 19 -20
27 -29 23 -9 -3 -12 -1 -9 4 11 18 -62 10 -86 -9 -26 -21 -26 -25 -28 -225
l-1 -100 -28 27 c-16 15 -31 25 -35 22 -4 -3 -5 -2 -2 2 8 10 -137 153 -148
146 -6 -3 -7 -1 -3 5 7 11 -79 89 -95 84 -5 -1 -8 4 -7 10 2 7 -3 12 -10 10
-8 -1 -11 2 -8 7 7 10 -33 43 -44 36 -4 -2 -22 9 -41 26 l-34 30 40 -26 40
-27 -30 27 c-47 42 -183 145 -191 145 -4 0 1 -7 12 -16 18 -14 18 -15 -4 -4
-12 6 -20 15 -17 19 7 13 -131 105 -144 96 -6 -3 -10 -1 -9 6 2 6 -3 14 -11
17 -9 3 -11 0 -6 -8 5 -9 4 -11 -4 -6 -6 4 -9 11 -6 16 3 5 -35 31 -84 59 -91
53 -107 59 -95 39 4 -7 3 -8 -5 -4 -6 4 -9 11 -7 15 5 8 -214 117 -329 164
-307 126 -858 251 -921 209z m26 -12 c-20 -13 -33 -13 -25 0 3 6 14 10 23 10
15 0 15 -2 2 -10z m1109 -306 c14 -12 -19 -1 -35 12 -18 14 -18 14 6 3 14 -6
27 -13 29 -15z"/>
<path d="M2090 7991 c-382 -82 -673 -383 -762 -786 -19 -89 -19 -1524 1 -1610
52 -230 180 -441 353 -579 97 -78 183 -125 303 -165 l90 -30 5 -244 5 -244 28
-36 c37 -49 75 -67 141 -67 64 0 66 1 306 205 85 72 217 184 294 248 l138 116
867 3 c863 3 866 3 946 26 324 91 577 329 685 644 50 149 52 175 48 973 -3
726 -4 741 -25 818 -100 352 -346 606 -690 714 l-88 28 -1280 2 c-1202 2
-1285 1 -1365 -16z m2643 -187 c40 -8 118 -38 173 -64 207 -100 359 -287 426
-525 23 -80 23 -82 23 -815 0 -732 0 -735 -23 -814 -84 -298 -316 -518 -612
-582 -53 -11 -229 -14 -925 -14 -823 0 -861 -1 -890 -19 -16 -10 -70 -54 -120
-96 -169 -146 -514 -435 -520 -435 -3 0 -5 112 -5 249 0 222 -2 251 -17 270
-13 15 -48 29 -113 45 -52 13 -121 35 -153 50 -203 90 -363 265 -441 484 l-31
87 -3 749 c-3 726 -2 751 18 830 64 255 234 456 471 557 138 59 86 57 1432 58
1094 1 1246 -1 1310 -15z"/>
<path d="M2798 7304 c-53 -28 -72 -98 -43 -154 42 -81 176 -78 211 5 18 44 18
59 -2 101 -28 59 -105 81 -166 48z"/>
<path d="M3375 7311 c-42 -18 -60 -50 -60 -108 0 -49 3 -58 33 -84 64 -57 164
-28 192 55 29 90 -73 174 -165 137z"/>
<path d="M3914 7286 c-29 -29 -34 -41 -34 -81 0 -40 5 -52 34 -81 29 -29 41
-34 81 -34 40 0 52 5 82 35 33 33 35 38 31 87 -7 70 -47 108 -114 108 -39 0
-51 -5 -80 -34z"/>
<path d="M2216 6654 c-65 -20 -146 -101 -169 -168 -20 -58 -22 -138 -5 -187
26 -78 95 -147 175 -174 l37 -13 -57 -12 c-130 -27 -259 -128 -315 -247 -26
-55 -27 -67 -30 -236 -3 -158 -2 -181 14 -198 16 -18 36 -19 444 -19 407 0
428 1 444 19 13 15 19 45 23 127 7 138 -8 239 -49 321 -54 111 -184 210 -303
232 -48 9 -71 21 -41 21 26 0 88 35 124 71 49 49 74 105 79 179 14 203 -172
345 -371 284z m163 -122 c19 -10 42 -30 50 -43 l15 -24 -24 21 c-61 53 -134
60 -194 19 -20 -13 -36 -20 -36 -15 0 9 45 43 70 53 31 11 87 6 119 -11z"/>
<path d="M3339 6655 c-26 -8 -69 -35 -97 -60 -153 -138 -116 -382 71 -465 26
-12 36 -21 27 -23 -8 -3 -35 -10 -60 -17 -122 -33 -223 -118 -281 -235 l-34
-69 -3 -174 c-3 -154 -2 -176 14 -193 18 -20 59 -25 83 -10 20 13 32 93 30
213 -1 129 15 187 70 250 161 182 486 137 584 -81 17 -38 22 -74 26 -211 l6
-165 28 -9 c21 -8 35 -7 55 5 l27 15 0 179 0 180 -32 68 c-43 90 -120 167
-215 212 -40 19 -80 35 -89 35 -47 0 -50 13 -7 32 53 23 113 80 141 133 33 61
31 183 -5 250 -14 28 -39 62 -55 77 -66 63 -195 92 -284 63z m169 -135 c53
-32 74 -75 69 -143 -3 -49 -8 -62 -37 -92 -66 -68 -159 -70 -222 -4 -97 101
-30 257 112 259 28 0 57 -8 78 -20z"/>
<path d="M4454 6652 c-93 -33 -154 -101 -179 -199 -34 -132 32 -267 159 -324
l40 -18 -29 -6 c-152 -33 -264 -120 -329 -255 -30 -64 -31 -68 -34 -238 -3
-154 -2 -176 14 -193 21 -24 66 -25 86 -1 13 13 17 50 20 172 3 131 7 162 25
201 63 140 214 216 372 189 128 -22 200 -72 251 -172 29 -60 30 -64 30 -212 0
-121 3 -156 16 -174 20 -29 67 -29 95 -1 20 20 21 29 17 187 -4 140 -8 176
-25 220 -48 119 -161 223 -281 258 -31 9 -64 18 -72 21 -9 2 2 11 27 23 179
80 225 319 87 455 -77 75 -193 102 -290 67z m170 -135 c53 -30 78 -79 73 -140
-7 -82 -71 -140 -152 -140 -82 0 -145 58 -152 140 -10 124 121 203 231 140z"/>
<path d="M9319 7855 c-626 -86 -1148 -524 -1352 -1135 -195 -583 -50 -1214
382 -1663 347 -360 779 -533 1284 -514 586 22 1097 341 1394 867 86 152 162
390 189 590 77 577 -179 1179 -654 1538 -348 263 -798 378 -1243 317z m551
-203 c393 -92 713 -309 926 -630 100 -150 181 -345 221 -532 26 -121 26 -449
0 -570 -150 -704 -743 -1190 -1454 -1190 -213 0 -394 35 -582 111 -386 158
-705 497 -836 892 -60 181 -70 249 -70 477 1 181 3 216 24 300 75 302 202 533
405 736 176 175 349 283 574 357 185 62 295 77 517 73 142 -3 211 -9 275 -24z"/>
<path d="M10243 6976 c-23 -7 -56 -23 -75 -34 -18 -12 -220 -208 -448 -436
l-414 -415 -166 163 c-155 154 -169 165 -225 181 -142 42 -284 -18 -353 -150
-22 -41 -27 -63 -27 -125 1 -128 11 -142 347 -476 269 -267 297 -293 347 -309
61 -20 120 -16 184 14 30 13 194 172 583 562 297 299 552 560 567 580 35 46
61 148 52 202 -24 144 -131 243 -274 253 -31 2 -74 -2 -98 -10z m140 -140 c43
-17 85 -68 93 -111 14 -77 13 -78 -560 -654 -301 -302 -555 -549 -572 -557
-63 -27 -79 -14 -381 288 -246 247 -282 288 -289 321 -15 84 43 168 125 182
70 12 109 -15 316 -224 l190 -191 465 465 c256 255 479 471 495 479 37 20 76
20 118 2z"/>
<path d="M7013 6810 c-37 -22 -48 -54 -40 -108 5 -29 26 -56 109 -139 l103
-103 -50 -1 c-28 -1 -160 -3 -294 -5 -267 -4 -274 -5 -311 -67 -38 -62 -14
-148 50 -179 31 -16 69 -18 318 -18 155 0 282 -3 282 -7 0 -4 -45 -53 -101
-109 -93 -93 -102 -105 -106 -146 -6 -54 7 -82 49 -104 58 -30 81 -16 238 141
80 80 144 149 143 153 -2 4 3 7 10 7 6 1 11 7 9 14 -1 7 1 10 6 7 12 -7 119
104 132 137 19 53 -2 94 -93 185 -46 45 -87 79 -92 75 -4 -4 -5 -3 -2 3 3 6
-56 72 -132 147 -150 150 -164 157 -228 117z m109 -12 c13 -13 17 -18 8 -11
-8 7 -27 16 -40 22 -17 6 -19 10 -8 10 9 1 27 -9 40 -21z m-116 -32 c-23 -47
-32 -52 -22 -12 5 21 31 56 41 56 1 0 -7 -20 -19 -44z m200 -48 l29 -33 -32
29 c-31 28 -38 36 -30 36 2 0 16 -15 33 -32z m99 -98 c10 -11 16 -20 13 -20
-3 0 -13 9 -23 20 -10 11 -16 20 -13 20 3 0 13 -9 23 -20z m248 -316 c-6 -16
-7 -16 -13 2 -10 26 0 52 12 31 4 -8 5 -23 1 -33z m-390 -101 c-7 -2 -19 -2
-25 0 -7 3 -2 5 12 5 14 0 19 -2 13 -5z m-33 -358 c-7 -8 -17 -15 -23 -15 -6
0 -2 7 9 15 25 19 30 19 14 0z"/>
<path d="M6204 6436 c-45 -20 -74 -62 -74 -107 0 -49 16 -92 32 -83 6 4 8 3 4
-4 -11 -19 36 -42 86 -42 92 0 152 91 114 172 -14 28 -21 34 -40 31 -15 -3
-25 1 -29 11 -5 14 -3 15 13 6 11 -6 20 -8 20 -5 0 8 -65 35 -82 35 -7 -1 -27
-7 -44 -14z m-5 -19 c-2 -1 -13 -9 -24 -17 -19 -14 -19 -14 -6 3 7 9 18 17 24
17 6 0 8 -1 6 -3z m141 -171 c0 -2 -8 -10 -17 -17 -16 -13 -17 -12 -4 4 13 16
21 21 21 13z"/>
<path d="M5884 6400 c-55 -22 -70 -95 -29 -135 64 -65 163 11 129 100 -6 15
-54 46 -71 44 -4 0 -18 -4 -29 -9z m12 -45 c5 -28 13 -39 40 -50 38 -16 43
-30 15 -44 -15 -9 -21 -5 -37 24 -10 19 -24 35 -31 35 -7 0 -17 8 -22 18 -9
15 -11 14 -12 -8 -1 -18 -3 -20 -6 -7 -5 19 21 67 37 67 5 0 12 -16 16 -35z"/>
<path d="M6185 3226 c-64 -29 -103 -86 -110 -163 -3 -38 -3 -42 4 -18 5 17 9
25 10 18 0 -7 8 -10 16 -7 11 5 15 -1 15 -24 0 -36 -26 -63 -33 -35 -4 17 -5
17 -6 0 -3 -47 52 -108 118 -132 77 -27 155 -13 209 38 30 27 55 74 48 90 -3
7 -5 6 -5 -3 -1 -8 -8 -2 -17 15 -13 25 -13 36 -2 72 8 27 15 38 20 30 6 -9 8
-8 8 3 0 30 -50 88 -93 109 -50 24 -136 28 -182 7z m161 -6 c29 -11 28 -18 -3
-24 -11 -3 -24 4 -31 15 -14 21 -5 24 34 9z m-129 -6 c-3 -3 -12 -4 -19 -1 -8
3 -5 6 6 6 11 1 17 -2 13 -5z m46 -343 c16 -16 -21 -13 -58 4 l-30 14 39 -4
c21 -2 44 -9 49 -14z"/>
<path d="M6463 3050 c0 -25 2 -35 4 -22 2 12 2 32 0 45 -2 12 -4 2 -4 -23z"/>
</g>
</svg>
