<svg xmlns="http://www.w3.org/2000/svg" width="1200" height="750" viewBox="0 0 1200 750" role="img" aria-labelledby="title desc">
  <title id="title">Local CSO staff reviewing advocacy notes during a participatory planning session</title>
  <desc id="desc">Illustrated course thumbnail with people gathered around notes, planning cards, and a laptop in a calm training room.</desc>
  <defs>
    <linearGradient id="bg" x1="0" x2="1" y1="0" y2="1">
      <stop offset="0" stop-color="#3B99D4"/>
      <stop offset="0.58" stop-color="#216F9D"/>
      <stop offset="1" stop-color="#0F172A"/>
    </linearGradient>
    <linearGradient id="table" x1="0" x2="1" y1="0" y2="1">
      <stop offset="0" stop-color="#FFFFFF"/>
      <stop offset="1" stop-color="#EEF7F2"/>
    </linearGradient>
    <filter id="softShadow" x="-20%" y="-20%" width="140%" height="140%">
      <feDropShadow dx="0" dy="18" stdDeviation="18" flood-color="#0F172A" flood-opacity="0.22"/>
    </filter>
  </defs>
  <rect width="1200" height="750" fill="url(#bg)"/>
  <circle cx="1010" cy="120" r="145" fill="#91C852" opacity="0.18"/>
  <circle cx="160" cy="610" r="180" fill="#FFFFFF" opacity="0.1"/>
  <path d="M0 545 C210 470 356 510 540 445 C754 368 942 350 1200 438 L1200 750 L0 750 Z" fill="#0F172A" opacity="0.28"/>
  <g filter="url(#softShadow)">
    <path d="M245 310 C360 250 779 247 914 319 C985 357 948 488 811 531 C668 576 418 568 285 514 C177 470 159 355 245 310 Z" fill="url(#table)"/>
  </g>
  <g transform="translate(354 330) rotate(-6)">
    <rect x="0" y="0" width="190" height="120" rx="18" fill="#F9FAFB" stroke="#DCE7EF" stroke-width="3"/>
    <rect x="22" y="24" width="126" height="12" rx="6" fill="#3B99D4"/>
    <rect x="22" y="50" width="142" height="10" rx="5" fill="#91C852"/>
    <rect x="22" y="76" width="100" height="10" rx="5" fill="#CBD5E1"/>
  </g>
  <g transform="translate(574 328) rotate(5)">
    <rect x="0" y="0" width="210" height="128" rx="20" fill="#FFFFFF" stroke="#DCE7EF" stroke-width="3"/>
    <rect x="25" y="25" width="160" height="14" rx="7" fill="#0F172A" opacity="0.72"/>
    <rect x="25" y="56" width="130" height="10" rx="5" fill="#3B99D4"/>
    <rect x="25" y="81" width="146" height="10" rx="5" fill="#91C852"/>
  </g>
  <g transform="translate(488 486)">
    <rect x="0" y="0" width="228" height="54" rx="18" fill="#FFFFFF" opacity="0.96"/>
    <rect x="22" y="18" width="184" height="10" rx="5" fill="#3B99D4"/>
    <rect x="22" y="34" width="128" height="8" rx="4" fill="#94A3B8"/>
  </g>
  <g transform="translate(280 225)">
    <circle cx="58" cy="58" r="48" fill="#F1C6A8"/>
    <path d="M12 178 C20 123 52 100 94 113 C132 125 151 151 158 196 L28 204 Z" fill="#0F172A"/>
    <path d="M24 54 C31 14 81 -5 112 25 C124 37 129 57 126 80 C98 67 65 58 24 54 Z" fill="#1F2937"/>
  </g>
  <g transform="translate(785 220)">
    <circle cx="58" cy="58" r="48" fill="#D8A06F"/>
    <path d="M-6 200 C4 134 37 104 88 112 C127 119 156 148 166 206 Z" fill="#91C852"/>
    <path d="M24 49 C35 12 87 2 116 33 C129 48 132 68 126 88 C95 69 61 58 24 49 Z" fill="#334155"/>
  </g>
  <g transform="translate(520 168)">
    <circle cx="64" cy="64" r="52" fill="#B9855D"/>
    <path d="M2 222 C16 148 55 111 111 121 C157 129 190 165 197 231 Z" fill="#3B99D4"/>
    <path d="M18 56 C26 19 66 0 105 18 C133 31 145 59 139 91 C102 72 66 62 18 56 Z" fill="#111827"/>
  </g>
  <g transform="translate(826 426) rotate(8)">
    <rect x="0" y="0" width="174" height="105" rx="16" fill="#0F172A" opacity="0.88"/>
    <rect x="18" y="18" width="138" height="10" rx="5" fill="#91C852"/>
    <rect x="18" y="42" width="104" height="8" rx="4" fill="#FFFFFF" opacity="0.7"/>
    <rect x="18" y="62" width="126" height="8" rx="4" fill="#FFFFFF" opacity="0.48"/>
  </g>
  <g transform="translate(142 120)">
    <rect width="294" height="86" rx="28" fill="#FFFFFF" opacity="0.95"/>
    <text x="32" y="37" fill="#216F9D" font-family="Inter, Arial, sans-serif" font-size="18" font-weight="700">HRBA and Advocacy</text>
    <text x="32" y="63" fill="#475569" font-family="Inter, Arial, sans-serif" font-size="14">Participatory planning session</text>
  </g>
</svg>
