<?xml version="1.0" standalone="no"?>
<!DOCTYPE svg PUBLIC "-//W3C//DTD SVG 20010904//EN"
 "http://www.w3.org/TR/2001/REC-SVG-20010904/DTD/svg10.dtd">
<svg version="1.0" xmlns="http://www.w3.org/2000/svg"
 width="1254.000000pt" height="1254.000000pt" viewBox="0 0 1254.000000 1254.000000"
 preserveAspectRatio="xMidYMid meet">

<g transform="translate(0.000000,1254.000000) scale(0.100000,-0.100000)"
fill="#000000" stroke="none">
<path d="M6048 10945 c-341 -49 -655 -194 -914 -423 -324 -286 -538 -705 -595
-1165 -18 -154 -7 -423 26 -577 47 -224 141 -458 251 -626 l45 -68 -44 -45
c-101 -105 -634 -738 -655 -778 -27 -49 1 -114 53 -127 35 -9 27 -12 650 249
154 65 328 137 388 161 l107 44 148 -73 c166 -82 261 -116 409 -146 406 -83
813 -18 1185 189 l57 32 208 -87 c114 -48 255 -107 313 -130 58 -24 209 -87
335 -140 135 -57 245 -97 267 -98 52 -2 88 33 88 85 0 34 -13 54 -132 195
-286 342 -523 618 -551 642 -25 20 -21 33 27 108 109 169 202 407 246 628 31
154 39 456 16 610 -117 783 -670 1381 -1411 1525 -143 28 -383 35 -517 15z
m513 -154 c132 -28 236 -64 357 -121 456 -217 772 -616 897 -1132 36 -148 48
-283 42 -453 -11 -315 -102 -603 -275 -878 -34 -54 -62 -108 -62 -120 0 -14
63 -94 176 -222 97 -110 219 -251 272 -314 54 -63 121 -142 150 -175 28 -33
52 -64 52 -67 0 -4 -78 27 -172 68 -417 179 -837 353 -853 353 -9 0 -60 -25
-113 -55 -171 -98 -385 -169 -587 -196 -126 -16 -364 -7 -490 21 -184 39 -334
97 -486 186 -42 24 -84 44 -93 44 -10 0 -64 -20 -120 -44 -55 -24 -150 -64
-211 -90 -60 -25 -242 -101 -402 -170 -161 -68 -293 -122 -293 -119 0 9 348
416 558 652 56 63 102 120 102 126 0 6 -27 54 -61 106 -230 356 -327 772 -275
1169 56 415 259 808 550 1061 243 212 536 347 841 388 112 16 384 5 496 -18z"/>
<path d="M6178 9817 c-133 -38 -221 -158 -221 -302 0 -49 6 -84 20 -116 24
-54 84 -124 126 -145 l29 -15 -69 -33 c-122 -58 -216 -179 -243 -310 l-11 -54
-56 34 c-31 18 -65 36 -75 40 -18 5 -16 9 16 41 58 58 81 116 80 203 0 94 -29
163 -89 219 -71 65 -119 85 -205 85 -89 0 -148 -24 -209 -86 -64 -63 -86 -119
-86 -213 1 -109 33 -173 122 -245 18 -15 24 -24 15 -27 -29 -11 -116 -88 -145
-129 -66 -94 -80 -145 -85 -302 -3 -103 -1 -146 8 -157 18 -21 77 -19 89 3 5
9 11 76 13 148 3 123 5 134 36 197 98 198 350 239 510 84 59 -57 110 -157 80
-157 -29 0 -212 -91 -295 -146 -121 -80 -253 -208 -253 -244 0 -32 28 -60 59
-60 14 0 50 26 96 70 150 142 313 230 530 287 146 38 377 44 525 13 244 -50
433 -145 607 -304 74 -69 99 -78 126 -48 33 36 21 64 -58 144 -115 116 -311
240 -443 279 -47 14 -47 18 -10 92 65 130 232 196 383 152 48 -14 69 -28 119
-78 83 -84 97 -126 103 -292 4 -98 9 -134 21 -147 19 -22 41 -23 70 -2 21 14
22 23 22 132 0 213 -58 346 -189 434 -25 17 -48 33 -50 34 -2 2 19 24 46 48
68 61 97 129 97 221 -1 91 -30 159 -94 219 -66 62 -109 79 -200 79 -94 1 -155
-28 -224 -104 -103 -114 -99 -295 7 -402 32 -31 34 -37 18 -42 -10 -3 -44 -21
-76 -40 -31 -19 -59 -35 -60 -35 -1 0 -5 22 -9 49 -9 69 -66 177 -123 234 -26
27 -78 63 -115 81 l-67 33 44 31 c49 34 99 105 115 162 16 58 12 145 -11 204
-24 67 -92 139 -153 167 -58 25 -149 32 -208 16z m227 -179 c19 -22 19 -22
-10 2 -48 40 -51 43 -30 32 11 -6 29 -21 40 -34z m-255 29 c0 -2 -12 -14 -27
-28 l-28 -24 24 28 c23 25 31 32 31 24z m-73 -189 c-3 -7 -5 -2 -5 12 0 14 2
19 5 13 2 -7 2 -19 0 -25z m144 -137 c32 -6 36 -9 16 -10 -39 -1 -87 21 -117
54 -24 27 -23 27 16 -3 22 -18 60 -36 85 -41z m189 55 c0 -2 -8 -10 -17 -17
-16 -13 -17 -12 -4 4 13 16 21 21 21 13z m-825 -80 c68 -52 96 -128 75 -204
-21 -79 -101 -142 -180 -142 -99 0 -190 94 -190 196 0 29 20 84 41 115 51 72
181 90 254 35z m1523 19 c76 -32 113 -88 113 -170 0 -159 -163 -246 -290 -154
-101 73 -105 211 -9 293 22 19 50 37 62 39 46 9 88 6 124 -8z m-911 -211 c-3
-3 -12 -4 -19 -1 -8 3 -5 6 6 6 11 1 17 -2 13 -5z m136 -1 c-7 -2 -19 -2 -25
0 -7 3 -2 5 12 5 14 0 19 -2 13 -5z m-188 -13 c-27 -12 -43 -12 -25 0 8 5 22
9 30 9 10 0 8 -3 -5 -9z m245 0 c18 -12 2 -12 -25 0 -13 6 -15 9 -5 9 8 0 22
-4 30 -9z m100 -67 l25 -28 -35 30 c-55 47 -56 48 -35 37 11 -6 31 -23 45 -39z
m-420 33 c0 -3 -15 -14 -32 -26 l-33 -22 30 26 c31 27 35 29 35 22z m-133
-198 c-3 -8 -6 -5 -6 6 -1 11 2 17 5 13 3 -3 4 -12 1 -19z m-10 -175 c-3 -10
-5 -2 -5 17 0 19 2 27 5 18 2 -10 2 -26 0 -35z m446 -50 c-7 -2 -21 -2 -30 0
-10 3 -4 5 12 5 17 0 24 -2 18 -5z"/>
<path d="M4570 10203 c-8 -3 -69 -28 -135 -55 -352 -148 -673 -344 -957 -586
-78 -66 -88 -78 -88 -108 0 -34 28 -64 61 -64 9 0 50 28 90 61 130 110 291
226 434 314 145 90 421 230 560 285 95 37 115 54 115 92 0 46 -39 76 -80 61z"/>
<path d="M7908 10199 c-29 -17 -39 -44 -27 -77 9 -27 25 -37 122 -77 348 -146
632 -315 930 -552 72 -57 135 -103 142 -103 26 0 65 41 65 70 0 23 -15 41 -82
97 -304 256 -674 476 -1046 624 -81 32 -80 32 -104 18z"/>
<path d="M2960 9391 c-82 -27 -159 -91 -198 -165 -23 -44 -27 -63 -27 -141 0
-79 4 -97 28 -147 31 -63 85 -115 156 -150 38 -18 62 -23 136 -23 107 0 163
23 233 93 57 56 84 120 90 207 8 127 -55 237 -170 300 -45 25 -66 29 -138 32
-47 1 -96 -1 -110 -6z"/>
<path d="M9769 8686 c-13 -6 -28 -23 -33 -37 -8 -22 1 -40 65 -135 372 -554
593 -1150 674 -1814 23 -185 31 -569 16 -755 -28 -353 -101 -710 -211 -1028
-42 -124 -140 -359 -187 -452 l-31 -60 -7 60 c-14 117 -55 321 -84 420 -57
193 -151 363 -259 473 -68 68 -164 135 -214 147 -34 9 -41 18 -62 79 -24 75
-23 80 36 94 93 22 171 95 185 172 5 31 13 39 67 65 50 25 67 40 92 83 17 28
34 69 38 91 7 44 -14 123 -40 152 -16 18 -16 20 -1 37 49 53 62 173 28 241
-24 46 -78 95 -124 111 -30 11 -35 18 -45 68 -14 66 -50 121 -101 155 -65 43
-158 59 -215 37 -23 -8 -31 -4 -73 38 -107 107 -285 108 -387 3 l-38 -39 -74
5 c-56 5 -84 2 -118 -11 -54 -21 -115 -78 -141 -131 -26 -55 -31 -141 -11
-189 15 -36 15 -39 -10 -88 -14 -28 -38 -94 -52 -147 -23 -85 -26 -115 -26
-271 0 -164 1 -180 27 -255 62 -185 175 -280 348 -292 l76 -6 40 -128 40 -128
-48 -59 c-138 -167 -209 -374 -260 -752 -12 -91 -23 -166 -24 -168 -1 -1 -34
16 -73 38 -77 45 -306 147 -389 174 l-53 18 0 74 c0 42 -4 83 -9 92 -6 12 0
40 21 91 68 171 108 428 88 556 -6 36 -21 89 -34 118 -28 64 -103 149 -151
171 -76 36 -189 13 -244 -50 -36 -40 -54 -99 -72 -225 -7 -52 -14 -96 -15 -97
-1 -2 -16 7 -33 19 -44 32 -94 30 -129 -4 -25 -26 -27 -33 -25 -105 1 -82 31
-199 83 -327 24 -62 26 -72 13 -86 -8 -10 -28 -75 -44 -145 -58 -246 -132
-472 -202 -609 -75 -151 -280 -300 -527 -386 -53 -18 -94 -23 -217 -27 l-153
-4 0 109 0 109 78 79 c72 74 112 135 168 255 9 19 23 73 31 119 13 76 13 88
-2 130 -10 25 -21 87 -25 136 -4 50 -11 102 -15 118 -5 20 -4 27 7 27 95 0
491 -46 612 -70 40 -8 53 -7 72 5 31 20 34 79 4 95 -49 26 -373 69 -645 86
l-110 6 -35 56 c-88 139 -284 242 -461 242 -81 0 -203 -30 -272 -67 -61 -33
-174 -141 -205 -198 -72 -130 -101 -226 -102 -335 0 -31 -7 -63 -15 -73 -7
-11 -16 -35 -20 -55 -7 -43 18 -173 43 -219 97 -182 111 -202 179 -270 81 -80
81 -81 67 -221 l-7 -61 -56 -11 c-384 -76 -601 -259 -715 -600 -28 -85 -81
-350 -92 -456 -6 -70 -6 -72 20 -89 15 -10 35 -15 48 -12 11 3 33 0 48 -8 16
-8 86 -30 158 -49 74 -19 143 -44 161 -57 25 -19 35 -21 55 -11 18 8 39 7 83
-3 72 -17 224 -41 316 -50 l68 -7 54 59 c171 189 449 190 620 1 l56 -62 142
19 c78 10 162 18 187 17 81 -3 80 -6 80 288 l0 257 106 63 c153 91 303 212
445 358 280 287 398 546 480 1049 11 70 21 129 22 129 6 5 214 -82 318 -134
369 -181 632 -432 746 -712 28 -69 63 -198 63 -234 0 -16 -167 -165 -313 -279
-579 -452 -1249 -750 -1962 -874 -151 -27 -160 -29 -175 -55 -13 -25 -13 -31
0 -55 20 -35 43 -38 150 -23 254 36 586 123 860 227 753 284 1380 731 1902
1353 420 501 713 1107 857 1767 230 1059 21 2213 -565 3116 -132 203 -157 227
-205 203z m-1040 -2276 c65 -7 65 -7 16 -9 -40 -1 -53 -5 -65 -23 -8 -13 -13
-26 -12 -30 1 -5 -2 -8 -8 -8 -15 0 -12 11 8 33 16 19 16 20 -5 8 -13 -6 -23
-8 -23 -4 0 4 -4 2 -9 -6 -7 -11 -10 -9 -16 8 -8 27 -22 27 -30 0 -8 -24 9
-41 32 -32 7 3 13 -2 13 -12 0 -9 5 -13 11 -9 8 4 8 0 0 -15 -13 -23 -2 -28
18 -8 10 10 12 8 9 -8 -2 -12 3 -21 15 -23 11 -2 17 3 16 15 0 10 -3 13 -6 6
-2 -7 -10 -13 -16 -13 -6 0 -4 7 5 17 14 14 19 14 33 3 14 -12 18 -11 26 1 5
8 9 22 9 31 0 9 5 20 10 23 6 4 8 10 5 15 -3 5 4 7 15 5 16 -3 20 2 21 23 0
16 6 5 13 -28 16 -72 36 -109 85 -153 52 -47 97 -59 151 -41 36 12 44 12 70
-1 36 -18 60 -62 60 -107 0 -41 -42 -133 -64 -141 -58 -23 58 -192 164 -239
22 -9 30 -21 35 -53 4 -22 14 -62 23 -90 l17 -49 -115 -58 c-63 -32 -116 -58
-118 -58 -2 0 0 6 4 13 4 7 3 9 -2 4 -5 -5 -9 -12 -9 -16 0 -8 -59 -61 -68
-61 -2 0 -10 21 -16 48 -27 107 -65 216 -82 233 -15 15 -33 18 -101 17 -66 -1
-93 3 -132 20 -27 12 -47 25 -43 28 3 3 15 0 27 -6 12 -6 24 -9 28 -6 3 3 0 6
-7 6 -7 0 -9 5 -5 12 5 7 3 8 -6 3 -10 -6 -12 -4 -7 8 6 16 5 16 -19 1 -23
-16 -26 -15 -45 2 -54 48 -103 182 -115 306 -10 116 20 323 61 422 l15 36 32
-16 c17 -9 60 -19 97 -24z m-698 -942 c23 -24 48 -59 56 -78 51 -119 28 -350
-58 -593 -28 -78 -34 -88 -53 -83 -22 5 -195 34 -234 38 -20 3 -29 18 -58 93
-65 171 -100 325 -74 325 6 0 29 -27 53 -60 84 -118 107 -96 136 133 12 92 27
184 34 204 11 33 40 63 51 53 2 -3 -2 -72 -10 -155 -12 -133 -12 -151 1 -164
12 -12 20 -13 33 -5 17 11 30 82 46 257 9 91 17 95 77 35z m1557 -137 c99 -79
210 -255 267 -425 46 -138 98 -408 110 -581 l7 -90 -94 -145 c-97 -151 -199
-290 -308 -420 -81 -98 -240 -270 -248 -270 -4 0 -17 37 -29 83 -13 45 -47
131 -77 190 l-54 108 38 57 c77 117 139 317 200 643 28 148 29 164 15 186 -19
28 -70 32 -83 6 -6 -10 -19 -74 -31 -143 -46 -263 -114 -504 -172 -606 l-29
-52 -113 113 c-61 62 -147 138 -190 169 -70 52 -78 60 -73 84 3 15 17 110 32
212 65 464 159 652 403 815 54 36 140 85 192 109 l94 44 46 -23 c25 -13 68
-42 97 -64z m-1768 -705 c36 -8 54 -14 40 -14 -14 -1 -56 5 -95 12 -38 8 -56
14 -40 14 17 1 59 -5 95 -12z m-175 -181 c-19 -76 -38 -141 -42 -144 -3 -3 -4
3 -1 14 55 227 73 296 76 284 1 -9 -13 -78 -33 -154z m282 159 c-3 -3 -12 -4
-19 -1 -8 3 -5 6 6 6 11 1 17 -2 13 -5z m76 -11 c2 -5 -2 -42 -9 -83 l-13 -75
4 77 c3 72 2 77 -18 81 -18 4 -17 5 5 6 15 0 28 -2 31 -6z m-73 -479 c-17 -76
-33 -140 -35 -143 -8 -8 -5 12 14 94 10 44 25 112 32 150 8 39 15 63 17 54 2
-9 -11 -79 -28 -155z m-353 94 c-3 -8 -6 -5 -6 6 -1 11 2 17 5 13 3 -3 4 -12
1 -19z m-27 -85 c-11 -17 -11 -17 -6 0 3 10 6 24 7 30 0 9 2 9 5 0 3 -7 0 -20
-6 -30z m-64 -157 c-19 -42 -37 -76 -40 -76 -2 0 12 36 32 80 20 43 38 78 40
76 2 -2 -12 -38 -32 -80z m-56 -106 c-6 -11 -13 -20 -16 -20 -2 0 0 9 6 20 6
11 13 20 16 20 2 0 0 -9 -6 -20z m424 -34 c-3 -15 -8 -25 -11 -23 -2 3 -1 17
3 31 3 15 8 25 11 23 2 -3 1 -17 -3 -31z m-499 -56 c-64 -64 -179 -151 -260
-194 -57 -31 -49 -25 77 58 49 32 121 89 161 127 89 84 102 90 22 9z m454 -59
c-12 -29 -23 -50 -25 -48 -3 2 5 27 17 56 12 28 24 50 26 47 2 -2 -6 -27 -18
-55z m-1824 -7 c70 -22 224 -22 299 0 32 9 60 16 61 14 2 -2 5 -39 6 -82 2
-76 1 -80 -22 -89 -42 -16 -258 -21 -336 -7 l-73 12 0 84 c0 46 3 84 8 84 4 0
30 -7 57 -16z m1780 -84 c-9 -16 -18 -30 -21 -30 -2 0 2 14 11 30 9 17 18 30
21 30 2 0 -2 -13 -11 -30z m-777 -101 c-70 -36 -214 -79 -264 -78 l-49 1 57 9
c56 8 224 60 257 79 9 5 21 9 26 9 6 0 -7 -9 -27 -20z m692 -34 c-17 -25 -33
-45 -36 -45 -3 0 9 20 26 45 17 25 33 45 36 45 3 0 -9 -20 -26 -45z m-1197
-42 c-7 -2 -19 -2 -25 0 -7 3 -2 5 12 5 14 0 19 -2 13 -5z m137 -3 c-20 -13
-40 -13 -40 0 0 6 12 10 28 10 21 0 24 -2 12 -10z m-817 -7 c-7 -2 -19 -2 -25
0 -7 3 -2 5 12 5 14 0 19 -2 13 -5z m-56 -9 c-3 -3 -12 -4 -19 -1 -8 3 -5 6 6
6 11 1 17 -2 13 -5z m253 -3 l45 -8 -40 -1 c-22 0 -53 4 -70 8 -27 7 -28 8 -5
8 14 0 45 -3 70 -7z m337 3 c-3 -3 -12 -4 -19 -1 -8 3 -5 6 6 6 11 1 17 -2 13
-5z m1287 -16 c-11 -13 -41 -47 -66 -76 -26 -29 -82 -85 -125 -125 -53 -48
-33 -24 62 75 77 81 142 147 144 147 3 1 -4 -9 -15 -21z m-1325 7 c-3 -2 -47
-6 -99 -9 -65 -3 -79 -2 -45 3 59 9 150 13 144 6z m-670 -19 c-8 -8 -113 -45
-117 -42 -2 2 21 13 50 25 51 19 76 26 67 17z m-199 -90 c0 -1 -27 -24 -60
-50 -33 -26 -60 -45 -60 -42 0 5 111 96 118 96 1 0 2 -2 2 -4z m-208 -230
c-20 -35 -38 -63 -40 -61 -4 4 12 36 45 88 38 60 35 42 -5 -27z m2128 61 c0
-2 -10 -12 -22 -23 l-23 -19 19 23 c18 21 26 27 26 19z m-50 -41 c0 -2 -8 -10
-17 -17 -16 -13 -17 -12 -4 4 13 16 21 21 21 13z m-40 -30 c0 -3 -15 -14 -32
-26 l-33 -22 30 26 c31 27 35 29 35 22z m-175 -122 c-25 -20 -75 -46 -75 -40
0 5 82 56 90 56 3 -1 -4 -8 -15 -16z m-1948 -76 c-3 -8 -6 -5 -6 6 -1 11 2 17
5 13 3 -3 4 -12 1 -19z m1812 -5 c-11 -12 -15 -82 -19 -312 l-6 -296 -2 290
c-2 249 0 294 14 313 8 12 18 22 21 22 3 0 -1 -7 -8 -17z m-1832 -75 c-3 -8
-6 -5 -6 6 -1 11 2 17 5 13 3 -3 4 -12 1 -19z m-10 -50 c-3 -7 -5 -2 -5 12 0
14 2 19 5 13 2 -7 2 -19 0 -25z m254 -22 c-9 -18 -18 -29 -19 -24 -4 8 24 58
32 58 2 0 -4 -15 -13 -34z m-264 -28 c-3 -7 -5 -2 -5 12 0 14 2 19 5 13 2 -7
2 -19 0 -25z m380 -295 c-1 -60 -3 -11 -3 107 0 118 2 167 3 108 2 -60 2 -156
0 -215z m-390 245 c-3 -7 -5 -2 -5 12 0 14 2 19 5 13 2 -7 2 -19 0 -25z m-10
-70 c-3 -7 -5 -2 -5 12 0 14 2 19 5 13 2 -7 2 -19 0 -25z m-12 -85 c-4 -38
-12 -72 -17 -78 -7 -7 -8 -3 -5 10 3 11 9 46 13 78 3 31 8 57 11 57 3 0 1 -30
-2 -67z m282 -85 c-2 -13 -4 -5 -4 17 -1 22 1 32 4 23 2 -10 2 -28 0 -40z
m1281 -163 c-3 -3 -13 7 -23 22 l-17 28 23 -22 c12 -12 20 -25 17 -28z m159 9
c-3 -3 -12 -4 -19 -1 -8 3 -5 6 6 6 11 1 17 -2 13 -5z"/>
<path d="M8796 6325 c-3 -9 -2 -13 4 -10 15 9 12 -12 -5 -28 -8 -8 -11 -17 -8
-21 4 -3 1 -6 -5 -6 -9 0 -9 -6 -1 -24 12 -25 28 -28 51 -8 8 6 18 8 23 4 6
-6 -42 97 -50 106 -1 2 -5 -4 -9 -13z"/>
<path d="M8546 6209 c-15 -75 -2 -100 28 -57 9 12 16 17 16 10 0 -6 5 -12 11
-12 5 0 8 4 5 9 -4 5 0 12 6 14 10 4 10 6 0 6 -7 1 -10 6 -7 11 3 6 1 10 -6
10 -6 0 -19 9 -29 20 -17 20 -18 20 -24 -11z"/>
<path d="M8936 6155 c10 -26 43 -38 61 -23 14 11 12 14 -13 25 -40 17 -55 16
-48 -2z"/>
<path d="M9151 6029 c-7 -24 -20 -55 -29 -69 -14 -23 -14 -24 1 -12 19 16 51
95 45 113 -2 6 -10 -8 -17 -32z"/>
<path d="M8562 5931 c-11 -7 -12 -19 -2 -65 12 -56 25 -71 37 -38 4 9 11 20
17 25 8 5 6 10 -3 16 -8 5 -14 24 -13 42 0 21 -2 28 -7 20 -6 -8 -10 -9 -12
-2 -2 6 -9 7 -17 2z"/>
<path d="M9082 5890 c0 -14 2 -19 5 -12 2 6 2 18 0 25 -3 6 -5 1 -5 -13z"/>
<path d="M9129 5793 c23 -34 27 -48 11 -38 -5 3 -10 2 -10 -3 0 -13 24 -22 37
-14 7 4 -3 23 -24 47 -27 31 -30 33 -14 8z"/>
<path d="M9261 5646 c-16 -29 -8 -46 19 -41 13 3 20 -2 20 -12 0 -9 3 -14 6
-10 11 10 -7 87 -20 87 -7 0 -18 -11 -25 -24z"/>
<path d="M8906 5652 c-3 -2 -20 -8 -38 -12 -33 -8 -33 -8 10 -9 24 -1 52 -5
62 -11 22 -12 53 -3 47 14 -2 6 -9 12 -15 12 -7 1 -13 3 -14 4 -6 5 -48 7 -52
2z"/>
<path d="M9134 5532 c4 -7 -2 -11 -16 -10 -65 3 -71 0 -65 -32 l6 -29 -20 20
c-27 27 -34 18 -19 -26 l12 -36 20 26 c11 14 18 29 15 32 -9 9 22 35 33 28 5
-3 10 0 10 7 0 11 2 11 9 0 6 -10 10 -10 20 2 9 11 9 16 0 22 -8 4 -9 3 -5 -4z"/>
<path d="M9224 5454 c-18 -14 -18 -14 6 -3 31 14 36 19 24 19 -6 0 -19 -7 -30
-16z"/>
<path d="M2674 8663 c-173 -236 -394 -644 -499 -923 -271 -718 -345 -1456
-220 -2194 147 -871 536 -1617 1180 -2262 483 -484 1055 -842 1715 -1074 255
-90 637 -182 818 -197 83 -7 102 4 102 57 0 44 -26 56 -170 80 -416 69 -838
208 -1241 410 -319 160 -559 317 -843 550 -135 111 -132 104 -91 266 22 86
104 276 126 289 4 3 42 -2 85 -11 82 -17 271 -21 867 -17 l268 2 35 35 c29 29
34 40 34 83 -1 165 -175 305 -410 328 -41 4 -84 13 -95 21 -11 7 -49 21 -85
30 -36 10 -68 20 -73 24 -23 20 362 199 577 269 189 62 562 151 631 151 33 0
77 43 73 72 -2 11 -14 29 -28 39 -24 18 -29 18 -160 -7 -279 -52 -567 -136
-787 -230 -57 -24 -105 -44 -107 -44 -3 0 31 47 75 105 43 58 81 116 84 128 5
17 30 35 94 66 215 105 333 242 346 404 7 84 -4 119 -51 156 -45 35 -97 28
-209 -29 -54 -28 -99 -50 -100 -50 -1 0 0 13 3 30 9 63 -27 120 -77 120 -65 0
-157 -101 -243 -267 -29 -57 -61 -106 -71 -109 -9 -3 -81 -56 -160 -118 -78
-61 -160 -124 -181 -139 l-39 -26 -28 111 c-35 137 -107 287 -183 382 -31 38
-56 72 -56 75 0 3 17 62 38 131 l38 125 71 6 c185 17 320 147 369 356 20 82
22 285 5 388 -13 76 -100 345 -133 410 -53 104 -213 215 -358 249 -85 20 -249
20 -325 1 -67 -18 -171 -63 -216 -96 l-30 -21 -50 55 c-31 35 -71 66 -107 84
-49 24 -69 28 -147 28 -79 0 -97 -3 -145 -28 -76 -39 -143 -108 -177 -181 -38
-85 -44 -206 -13 -288 45 -119 158 -205 285 -216 l65 -5 0 -41 c0 -73 29 -179
70 -262 50 -103 143 -199 234 -244 l63 -31 -20 -70 -20 -70 -81 -39 c-242
-119 -405 -354 -496 -715 -15 -60 -33 -150 -40 -200 -7 -49 -14 -97 -17 -105
-10 -29 -149 297 -219 514 -136 422 -196 807 -197 1246 -1 824 236 1594 705
2292 78 118 78 168 -2 168 -28 0 -41 -6 -56 -27z m1249 -2172 c96 -209 118
-472 57 -657 -51 -152 -163 -234 -304 -221 -85 8 -102 -12 -146 -170 -18 -68
-36 -123 -40 -123 -3 0 -43 24 -88 54 -45 29 -116 69 -157 87 -56 25 -74 38
-69 49 3 8 14 48 25 89 10 41 20 75 22 76 1 2 21 12 43 23 56 28 99 66 133
116 45 66 46 78 6 125 -64 78 -71 167 -15 223 31 31 49 34 114 16 53 -14 82
-4 166 58 90 66 199 236 200 312 0 40 17 23 53 -57z m-723 -1125 c308 -152
458 -331 526 -626 20 -82 48 -256 70 -430 10 -81 23 -142 31 -152 16 -18 70
-35 288 -93 79 -21 146 -44 154 -54 16 -19 8 -218 -10 -252 -11 -21 -15 -21
-292 -16 -302 5 -349 12 -443 60 -55 28 -103 77 -133 135 -53 104 -126 377
-167 622 -9 58 -21 111 -27 118 -16 20 -64 14 -81 -9 -17 -25 -18 -13 30 -259
77 -389 139 -548 251 -649 l52 -47 -49 -99 c-27 -55 -61 -145 -76 -200 -14
-55 -27 -101 -28 -103 -4 -4 -219 218 -293 303 -155 177 -357 459 -440 615
l-30 55 13 137 c48 496 218 833 489 972 28 14 51 26 53 26 1 0 52 -24 112 -54z
m1330 -143 c0 -5 -7 -36 -15 -71 -30 -125 4 -130 191 -32 128 68 164 81 164
60 0 -5 -4 -10 -9 -10 -5 0 -50 -27 -100 -61 -62 -41 -91 -66 -91 -80 0 -31
39 -23 119 26 78 48 91 53 91 32 0 -24 -70 -132 -108 -166 -57 -51 -144 -106
-218 -135 l-67 -27 -73 78 c-40 43 -73 83 -74 88 -1 35 158 305 180 305 5 0
10 -3 10 -7z m-138 -515 l40 -48 -23 -32 c-93 -132 -297 -364 -360 -409 -25
-18 -28 -18 -80 -1 l-54 17 -21 145 c-12 80 -23 155 -25 167 -3 17 9 30 56 61
33 23 119 88 190 146 l130 105 53 -52 c30 -29 72 -73 94 -99z m186 -763 c67
-31 123 -82 147 -135 32 -71 29 -72 -172 -64 -98 3 -179 8 -181 9 -1 1 1 53 4
115 l7 113 69 -6 c42 -4 91 -16 126 -32z"/>
<path d="M7355 7151 c-74 -33 -100 -78 -126 -216 -7 -33 -13 -61 -15 -63 -1
-2 -16 4 -33 12 -46 25 -88 20 -118 -11 -24 -27 -25 -32 -20 -108 3 -45 19
-128 37 -190 25 -84 30 -113 21 -127 -6 -9 -26 -81 -46 -158 -45 -180 -97
-335 -141 -422 -31 -61 -40 -71 -82 -89 -54 -24 -155 -49 -194 -49 -23 0 -28
4 -28 24 0 13 -7 43 -16 67 -34 94 -43 186 -37 394 6 224 -4 340 -42 448 -68
198 -221 342 -415 392 -93 24 -260 17 -354 -15 -139 -48 -271 -170 -342 -316
-66 -138 -76 -196 -83 -519 -7 -286 -8 -291 -35 -360 -61 -154 -68 -185 -63
-271 3 -60 1 -85 -10 -100 -27 -36 -71 -129 -91 -194 -24 -78 -39 -175 -51
-330 -11 -128 -2 -160 43 -160 39 0 48 23 57 149 10 146 33 285 60 356 20 55
99 174 140 212 64 58 203 121 327 148 25 5 32 3 32 -8 0 -25 88 -107 138 -129
27 -13 77 -23 119 -26 64 -4 79 -1 128 23 54 26 124 101 125 133 0 15 -19 16
178 -8 96 -12 188 -18 217 -15 133 16 217 42 298 93 30 18 46 40 72 96 41 91
106 289 140 431 15 61 30 113 34 117 6 7 266 -34 276 -43 2 -3 -5 -72 -15
-155 -71 -553 -177 -757 -465 -895 -97 -46 -228 -85 -332 -98 -87 -11 -103
-23 -103 -82 0 -28 6 -42 22 -53 32 -23 65 -20 83 7 11 17 30 26 82 34 163 28
341 106 465 203 92 72 179 194 227 320 69 178 151 625 137 740 -3 25 -6 52 -7
60 -1 8 13 54 30 102 60 166 76 387 36 499 -31 88 -124 169 -195 169 -14 0
-43 -9 -65 -19z m115 -107 c38 -33 56 -66 67 -129 10 -54 1 -200 -18 -280 -15
-65 -68 -205 -78 -205 -14 0 -223 39 -226 42 -1 2 -14 39 -28 83 -32 97 -61
234 -52 243 4 4 18 -6 32 -23 14 -16 34 -40 44 -52 21 -25 51 -30 66 -10 6 6
22 78 37 159 22 117 33 152 51 173 31 32 65 32 105 -1z m-1207 -366 c99 -99
137 -200 137 -363 0 -205 -76 -357 -214 -427 -53 -27 -66 -29 -117 -24 -45 5
-60 3 -73 -9 -21 -21 -20 -31 4 -55 15 -15 33 -20 79 -20 l59 0 4 -56 c3 -54
1 -58 -33 -89 -42 -38 -83 -50 -144 -41 -46 7 -134 58 -136 78 -1 7 -1 68 1
135 l2 121 -40 44 c-22 23 -51 67 -66 96 -17 34 -33 52 -45 52 -25 0 -68 36
-87 73 -20 38 -14 110 12 138 15 17 27 20 63 16 55 -6 124 13 216 61 95 50
229 183 269 270 16 34 33 62 38 62 4 0 36 -28 71 -62z"/>
</g>
</svg>
