<?xml version="1.0" encoding="UTF-8"?>
<svg version="1.1" xmlns="http://www.w3.org/2000/svg" width="1254" height="1254">
<path d="M0 0 C413.82 0 827.64 0 1254 0 C1254 413.82 1254 827.64 1254 1254 C840.18 1254 426.36 1254 0 1254 C0 840.18 0 426.36 0 0 Z " fill="#F9F9F9" transform="translate(0,0)"/>
<path d="M0 0 C0.67942657 0.00310181 1.35885315 0.00620361 2.05886841 0.00939941 C18.25095678 0.09595379 33.15577853 1.92008047 48.75 6.25 C49.77867187 6.48976563 50.80734375 6.72953125 51.8671875 6.9765625 C85.47466506 15.6184853 115.73166749 44.34772825 133.03417969 73.40673828 C138.36723705 82.70071492 142.50731291 92.02770017 145.75 102.25 C146.10707031 103.28125 146.46414063 104.3125 146.83203125 105.375 C159.11880712 142.18930974 154.55441803 183.93194097 137.73828125 218.46875 C119.9745047 253.50359157 91.75656775 277.67613464 55.75 292.25 C55.14075684 292.50491211 54.53151367 292.75982422 53.90380859 293.02246094 C48.12825539 295.33623732 42.20374961 296.60924494 36.125 297.875 C35.114375 298.0915625 34.10375 298.308125 33.0625 298.53125 C-3.94680923 306.39937086 -43.49247596 299.63933096 -75.45996094 279.140625 C-77.40329253 277.8622429 -79.33063027 276.56404945 -81.25 275.25 C-81.81283691 274.86505371 -82.37567383 274.48010742 -82.95556641 274.08349609 C-113.76538074 252.597096 -135.18913827 218.68710395 -143.25 182.25 C-143.40388184 181.59628418 -143.55776367 180.94256836 -143.71630859 180.26904297 C-152.73235448 141.13453028 -143.0051914 101.8236739 -122.5 68.125 C-117.49886863 60.15984021 -111.61646416 53.14878437 -105.25 46.25 C-104.41210938 45.31800781 -103.57421875 44.38601563 -102.7109375 43.42578125 C-89.60152881 29.52493767 -73.42280249 19.36844238 -56.25 11.25 C-55.3321875 10.81300781 -54.414375 10.37601562 -53.46875 9.92578125 C-48.29165831 7.68296584 -42.85208252 6.18175582 -37.4375 4.625 C-36.72650146 4.41834717 -36.01550293 4.21169434 -35.28295898 3.9987793 C-23.59746043 0.77704581 -12.08657703 -0.08671179 0 0 Z " fill="#4094D4" transform="translate(522.25,303.75)"/>
<path d="M0 0 C3.58506644 2.31037615 6.88761271 4.67814471 8.625 8.6875 C8.89339317 11.7292893 8.82312175 14.7605175 8.8125 17.8125 C9.81667969 18.04324219 10.82085938 18.27398437 11.85546875 18.51171875 C19.64811521 20.35176902 26.99399672 22.53193242 34.43359375 25.53515625 C38.18413792 26.95299202 41.95858017 28.09116864 45.8125 29.1875 C55.10796603 31.83555858 64.25029488 34.90101644 73.40405273 37.9987793 C78.46832607 39.70980039 83.53972091 41.39904326 88.62109375 43.05859375 C94.16384456 44.87833433 99.67272992 46.6939115 105.0625 48.9375 C108.43966709 50.33533406 111.7746535 51.39345049 115.3125 52.3125 C123.69768603 54.50354437 133.65965493 57.39172944 139.75 63.875 C141.67327575 69.19229177 142.02396691 74.6814942 139.95703125 80.0234375 C137.01756451 84.59996109 133.12227271 86.94364532 128.421875 89.53515625 C127.16111821 90.23915977 125.90121087 90.94468637 124.64208984 91.65161133 C124.00325867 92.00961823 123.36442749 92.36762512 122.70623779 92.73648071 C118.05186751 95.3810877 113.50161226 98.20262415 108.93466187 100.99447632 C105.88984359 102.85574521 102.84113709 104.71063074 99.79296875 106.56640625 C99.19005508 106.93369339 98.58714142 107.30098053 97.96595764 107.67939758 C92.82463034 110.80980127 87.66599444 113.91053274 82.5 117 C66.13620996 126.79691834 49.86578906 136.74691847 33.64599609 146.78027344 C32.6555127 147.39161133 31.6650293 148.00294922 30.64453125 148.6328125 C29.61440918 149.31150391 28.58428711 149.99019531 27.52294922 150.68945312 C24.66125483 152.46696843 21.79410817 153.57883988 18.62158203 154.70117188 C12.67992712 157.0618538 7.57492178 159.47286333 3.8125 164.8125 C0.52745746 175.60643774 1.53307897 187.4067407 1.97564697 198.54937744 C2.12088974 202.75202737 2.15100595 206.95542285 2.19140625 211.16015625 C2.2870917 219.38255697 2.50885033 227.59516051 2.8125 235.8125 C3.47496231 235.80692581 4.13742462 235.80135162 4.81996155 235.79560852 C33.22274039 235.65598094 62.04647815 242.83894094 83.40625 262.30078125 C87.00273411 266.05490346 89.45724598 270.20543218 91.8125 274.8125 C92.18632813 275.39128906 92.56015625 275.97007812 92.9453125 276.56640625 C95.72111436 283.75598313 94.86954103 295.28539058 92.1875 302.4375 C89.95921499 306.99571109 87.12789752 310.98457726 83.8125 314.8125 C83.29945313 315.40804688 82.78640625 316.00359375 82.2578125 316.6171875 C73.92731175 325.58542993 63.02573488 330.40322798 51.8125 334.8125 C51.18472656 335.06507568 50.55695313 335.31765137 49.91015625 335.57788086 C28.61580133 343.92218701 5.02863401 343.98268015 -17.5 344.0625 C-18.34686371 344.06785767 -19.19372742 344.07321533 -20.06625366 344.07873535 C-43.58801327 344.19151813 -67.66745301 341.89055017 -89.1875 331.8125 C-90.68023438 331.11833984 -90.68023438 331.11833984 -92.203125 330.41015625 C-104.39667054 324.26229321 -113.90156316 314.91997708 -118.57006836 301.98266602 C-120.99693979 293.45263039 -120.41312813 283.14864628 -116.625 275.1875 C-105.71830797 256.79036519 -86.54050638 246.80528055 -66.3671875 241.61328125 C-64.79324219 241.21689453 -64.79324219 241.21689453 -63.1875 240.8125 C-62.30320312 240.53792969 -61.41890625 240.26335937 -60.5078125 239.98046875 C-54.85211474 238.23562582 -49.23764634 237.30868693 -43.375 236.625 C-42.32747559 236.49907471 -42.32747559 236.49907471 -41.25878906 236.37060547 C-36.45621186 235.86638931 -31.7091183 235.7767747 -26.88012695 235.79174805 C-24.99762993 235.79624214 -24.99762993 235.79624214 -23.07710266 235.80082703 C-22.12353378 235.80467911 -21.1699649 235.80853119 -20.1875 235.8125 C-20.29460941 207.55372918 -20.40734721 179.29498571 -20.52683926 151.03626442 C-20.58218571 137.91611254 -20.63567001 124.79595795 -20.68481445 111.67578125 C-20.7276389 100.24411318 -20.77391245 88.81246525 -20.82437855 77.38082826 C-20.85099353 71.3243837 -20.87584693 65.26794318 -20.89657402 59.21147537 C-20.91611699 53.51690226 -20.94025368 47.82236752 -20.96799088 42.1278286 C-20.97737374 40.03235125 -20.98504455 37.93686547 -20.99091911 35.84137535 C-20.99915935 32.99126384 -21.01343008 30.14124602 -21.02928162 27.29116821 C-21.03025972 26.45265812 -21.03123783 25.61414802 -21.03224558 24.75022852 C-20.96013189 20.64921489 -20.96013189 20.64921489 -22.1875 16.8125 C-22.31674254 12.19669485 -21.87585353 8.11506197 -18.9375 4.4375 C-13.03183305 -1.19972755 -7.78793509 -2.90138758 0 0 Z " fill="#061D39" transform="translate(875.1875,263.1875)"/>
<path d="M0 0 C6.98137929 6.25138716 12.40692483 14.94715551 13.37890625 24.38671875 C13.91517596 35.03442895 11.24717074 43.7505277 4.8046875 52.27734375 C4.39734375 52.8290625 3.99 53.38078125 3.5703125 53.94921875 C-10.94516973 72.37898832 -39.98173293 80.43085 -62.1953125 83.27734375 C-72.88121016 84.31314192 -83.53164948 84.47716323 -94.2578125 84.46484375 C-95.06935791 84.46490417 -95.88090332 84.4649646 -96.71704102 84.46502686 C-108.62403606 84.45242717 -120.3889735 84.12132386 -132.20703125 82.53759766 C-134.00071354 82.30281557 -135.80111321 82.12081501 -137.6015625 81.9453125 C-156.9172822 79.72595582 -176.91043457 71.74625715 -190.1953125 57.27734375 C-197.52448133 47.43797333 -200.5084804 37.52860339 -199.1953125 25.27734375 C-197.38631675 17.72909361 -193.24993758 12.0340001 -188.1953125 6.27734375 C-187.69515625 5.68308594 -187.195 5.08882812 -186.6796875 4.4765625 C-177.48137571 -5.62764363 -164.81633651 -11.24096388 -152.1953125 -15.72265625 C-151.32777344 -16.03976562 -150.46023438 -16.356875 -149.56640625 -16.68359375 C-144.52392763 -18.45503841 -139.41836928 -19.62036697 -134.1953125 -20.72265625 C-133.50791992 -20.86832031 -132.82052734 -21.01398437 -132.11230469 -21.1640625 C-90.45078781 -29.48447957 -34.47781169 -27.05465295 0 0 Z " fill="#90B959" transform="translate(563.1953125,913.72265625)"/>
<path d="M0 0 C1.44339752 -0.0049926 1.44339752 -0.0049926 2.91595459 -0.01008606 C4.94982428 -0.01512914 6.98370218 -0.0174952 9.01757812 -0.01733398 C12.05874167 -0.01949527 15.09952668 -0.03760904 18.140625 -0.05664062 C36.8435559 -0.11146783 54.78800075 1.19232937 72.859375 6.16796875 C73.90222656 6.44253906 74.94507813 6.71710937 76.01953125 7 C91.91630069 11.68558884 107.46667329 21.15537153 115.703125 35.80859375 C116.0846875 36.5871875 116.46625 37.36578125 116.859375 38.16796875 C117.41431641 39.29138672 117.41431641 39.29138672 117.98046875 40.4375 C120.90062247 49.50944424 119.96826631 60.12838055 115.984375 68.66796875 C106.95496853 84.30690076 92.46497349 92.37341342 75.859375 98.16796875 C74.65667969 98.65523437 73.45398438 99.1425 72.21484375 99.64453125 C62.87775206 103.15190461 52.64235284 104.4275069 42.859375 106.16796875 C42.08867676 106.30654297 41.31797852 106.44511719 40.52392578 106.58789062 C16.9845273 110.58546657 -9.78005742 109.77808919 -33.140625 105.16796875 C-33.90310547 105.02343262 -34.66558594 104.87889648 -35.45117188 104.72998047 C-54.83420132 100.96105808 -73.24406614 93.83472707 -86.140625 78.16796875 C-88.11535599 74.93701218 -89.67345693 71.65249292 -91.140625 68.16796875 C-91.50414062 67.54921875 -91.86765625 66.93046875 -92.2421875 66.29296875 C-94.94892462 59.89094704 -93.88813352 51.1417359 -91.453125 44.79296875 C-88.2917463 38.01381512 -84.70640976 32.22777308 -79.140625 27.16796875 C-78.56183594 26.57371094 -77.98304688 25.97945312 -77.38671875 25.3671875 C-70.61114478 18.74589605 -62.65839316 15.04723857 -54.140625 11.16796875 C-52.61115234 10.42353516 -52.61115234 10.42353516 -51.05078125 9.6640625 C-45.8060135 7.44586392 -40.18727206 6.30938113 -34.66186523 5.00585938 C-32.70941336 4.54445482 -30.75993663 4.07181224 -28.81054688 3.59765625 C-19.06146108 1.26711745 -9.99758124 0.01233208 0 0 Z " fill="#90B859" transform="translate(647.140625,692.83203125)"/>
<path d="M0 0 C0.67942657 0.00310181 1.35885315 0.00620361 2.05886841 0.00939941 C18.25095678 0.09595379 33.15577853 1.92008047 48.75 6.25 C49.77867187 6.48976563 50.80734375 6.72953125 51.8671875 6.9765625 C85.47466506 15.6184853 115.73166749 44.34772825 133.03417969 73.40673828 C138.36723705 82.70071492 142.50731291 92.02770017 145.75 102.25 C146.10707031 103.28125 146.46414063 104.3125 146.83203125 105.375 C159.11880712 142.18930974 154.55441803 183.93194097 137.73828125 218.46875 C119.9745047 253.50359157 91.75656775 277.67613464 55.75 292.25 C55.14075684 292.50491211 54.53151367 292.75982422 53.90380859 293.02246094 C48.12825539 295.33623732 42.20374961 296.60924494 36.125 297.875 C35.114375 298.0915625 34.10375 298.308125 33.0625 298.53125 C-3.94680923 306.39937086 -43.49247596 299.63933096 -75.45996094 279.140625 C-77.40329253 277.8622429 -79.33063027 276.56404945 -81.25 275.25 C-81.81283691 274.86505371 -82.37567383 274.48010742 -82.95556641 274.08349609 C-113.76538074 252.597096 -135.18913827 218.68710395 -143.25 182.25 C-143.40388184 181.59628418 -143.55776367 180.94256836 -143.71630859 180.26904297 C-152.73235448 141.13453028 -143.0051914 101.8236739 -122.5 68.125 C-117.49886863 60.15984021 -111.61646416 53.14878437 -105.25 46.25 C-104.41210938 45.31800781 -103.57421875 44.38601563 -102.7109375 43.42578125 C-89.60152881 29.52493767 -73.42280249 19.36844238 -56.25 11.25 C-55.3321875 10.81300781 -54.414375 10.37601562 -53.46875 9.92578125 C-48.29165831 7.68296584 -42.85208252 6.18175582 -37.4375 4.625 C-36.72650146 4.41834717 -36.01550293 4.21169434 -35.28295898 3.9987793 C-23.59746043 0.77704581 -12.08657703 -0.08671179 0 0 Z M-31.25 23.25 C-32.33925781 23.55035156 -33.42851562 23.85070312 -34.55078125 24.16015625 C-53.920585 30.08654654 -71.48239193 40.58019178 -85.80224609 54.82128906 C-87.1522596 56.15354523 -88.53784728 57.44948403 -89.92578125 58.7421875 C-110.57181671 78.32862861 -125.67059929 109.18025938 -126.51637268 137.80555725 C-126.53030563 138.48589523 -126.54423859 139.16623322 -126.55859375 139.8671875 C-126.5814872 140.95603493 -126.5814872 140.95603493 -126.60484314 142.06687927 C-126.90474464 159.61514452 -126.06252996 175.48969622 -120.25 192.25 C-119.87367432 193.35939941 -119.87367432 193.35939941 -119.48974609 194.49121094 C-113.25702403 212.42439516 -103.23859292 227.53867138 -90.25 241.25 C-89.36699219 242.2090625 -88.48398437 243.168125 -87.57421875 244.15625 C-72.61436033 260.05625104 -53.10401186 271.03581407 -32.25 277.25 C-31.61980957 277.44609863 -30.98961914 277.64219727 -30.34033203 277.84423828 C-2.60491527 286.15602821 32.66764025 283.4458698 58.3046875 270.16015625 C59.44164062 269.52980469 60.57859375 268.89945313 61.75 268.25 C63.1059272 267.53875395 64.46273606 266.82918677 65.8203125 266.12109375 C74.24838233 261.64165426 81.57953353 256.59762605 88.75 250.25 C89.45382812 249.67765625 90.15765625 249.1053125 90.8828125 248.515625 C96.66327973 243.75524022 101.16443788 238.14236907 105.75 232.25 C106.50539063 231.31027344 107.26078125 230.37054687 108.0390625 229.40234375 C118.85543576 215.59381225 124.93027006 200.98840895 129.75 184.25 C130.0910376 183.09056885 130.0910376 183.09056885 130.43896484 181.90771484 C139.3517838 150.48334856 133.60236341 115.87587867 118.75 87.25 C113.94117664 78.63595219 108.12565079 70.76736693 101.75 63.25 C101.16089844 62.51523437 100.57179688 61.78046875 99.96484375 61.0234375 C79.93786571 36.95704775 47.56835717 23.0644747 17.07836914 19.45068359 C0.69348063 18.0384598 -15.42474593 18.73478346 -31.25 23.25 Z " fill="#041C3A" transform="translate(522.25,303.75)"/>
<path d="M0 0 C2.08171187 1.4483228 3.90980511 2.98714532 5.765625 4.71484375 C6.44367188 5.34003906 7.12171875 5.96523438 7.8203125 6.609375 C17.07305597 16.01924053 20.33535789 26.19119126 20.453125 39.08984375 C20.29848619 49.04069016 18.69331837 57.59874492 14.765625 66.71484375 C14.49218262 67.37532715 14.21874023 68.03581055 13.93701172 68.71630859 C7.79878719 83.24031354 -1.80333914 93.81705312 -13.42382812 104.23608398 C-17.3478216 107.79057203 -20.95823411 111.52274377 -24.421875 115.52734375 C-24.87957275 116.04240479 -25.33727051 116.55746582 -25.80883789 117.08813477 C-28.92408801 120.7876056 -30.14673466 124.04350366 -31.234375 128.71484375 C-31.60964739 130.09062062 -31.99279518 131.46426776 -32.3828125 132.8359375 C-32.58100586 133.53968506 -32.77919922 134.24343262 -32.98339844 134.96850586 C-36.92192555 148.70880424 -42.1347884 160.09219647 -55.1171875 167.6796875 C-55.81585938 168.02128906 -56.51453125 168.36289062 -57.234375 168.71484375 C-58.30300781 169.23949219 -59.37164062 169.76414062 -60.47265625 170.3046875 C-67.87661681 173.40802041 -77.64770858 173.20204802 -85.171875 170.4609375 C-92.85742965 166.89146115 -98.25933535 162.53667842 -103.234375 155.71484375 C-104.018125 154.72484375 -104.801875 153.73484375 -105.609375 152.71484375 C-110.89224453 142.96185385 -110.592413 130.54361496 -107.671875 120.08984375 C-105.20071903 112.87123401 -101.68759513 105.16806388 -96.234375 99.71484375 C-95.99830743 96.67584728 -95.86637276 93.69561414 -95.796875 90.65234375 C-94.73449906 64.07155524 -86.28049892 38.80096429 -68.234375 18.71484375 C-67.80141113 18.23273437 -67.36844727 17.750625 -66.92236328 17.25390625 C-49.93820524 -1.37960094 -24.05670827 -13.83681297 0 0 Z " fill="#041C3A" transform="translate(414.234375,604.28515625)"/>
<path d="M0 0 C11.83921301 7.01140713 19.59050503 16.4245154 23.7109375 29.60546875 C28.79512946 50.14560428 21.05798756 72.67043401 10.5456543 90.20385742 C0.90274082 105.44196131 -13.2809949 122.78546408 -30.46484375 129.44921875 C-33.16198806 131.15875776 -33.55744292 133.19507554 -34.6015625 136.16796875 C-36.97818293 142.24397695 -39.95910362 146.76226044 -44.2890625 151.60546875 C-44.8459375 152.24355469 -45.4028125 152.88164063 -45.9765625 153.5390625 C-50.15940507 158.04142777 -54.74628754 160.99076749 -60.2890625 163.60546875 C-61.01738281 163.97027344 -61.74570312 164.33507812 -62.49609375 164.7109375 C-71.34196418 167.54409041 -82.81852234 166.96583637 -91.1015625 162.91796875 C-92.86190172 161.86421013 -94.59713214 160.76588809 -96.2890625 159.60546875 C-96.8871875 159.22261719 -97.4853125 158.83976563 -98.1015625 158.4453125 C-104.19377884 154.01893656 -109.72394674 146.2671358 -111.078125 138.7890625 C-112.57064881 123.33867715 -108.96988605 112.12269414 -99.23046875 100.0546875 C-94.09334033 94.12125562 -94.09334033 94.12125562 -90.7734375 91.9921875 C-87.03606884 88.40172799 -86.10213205 84.24713735 -84.6640625 79.35546875 C-84.36121338 78.36981934 -84.05836426 77.38416992 -83.74633789 76.36865234 C-82.04664503 70.68453958 -80.70901592 65.07868262 -79.7265625 59.23046875 C-75.91363147 36.74336344 -63.79284978 17.82750715 -45.25 4.48046875 C-41.11205572 1.86013464 -36.93748142 0.09574259 -32.2890625 -1.39453125 C-31.37125 -1.74773438 -30.4534375 -2.1009375 -29.5078125 -2.46484375 C-19.9105114 -5.23687975 -8.92918708 -4.36673944 0 0 Z " fill="#041C3A" transform="translate(469.2890625,709.39453125)"/>
<path d="M0 0 C1.99914232 0.48273253 3.99916112 0.96184838 6 1.4375 C30.54939647 7.61485791 52.97333518 20.0673025 73.0625 35.25 C73.61147949 35.6625 74.16045898 36.075 74.72607422 36.5 C77.62544984 38.73741357 80.08202856 40.85972811 82 44 C82.44963189 47.52211647 82.22232631 49.51088212 80.75 52.75 C78.84757178 55.19597914 77.94413861 56.10040209 75 57 C70.94037185 57.38343595 68.75740769 57.50972985 65.32421875 55.19921875 C64.45410156 54.37035156 63.58398438 53.54148437 62.6875 52.6875 C51.43587181 42.5566466 37.67021878 35.3428524 24 29 C23.32485352 28.6795874 22.64970703 28.3591748 21.95410156 28.02905273 C16.38555987 25.45204316 10.78245414 23.57666075 4.875 21.9375 C3.96065186 21.68073486 3.04630371 21.42396973 2.10424805 21.15942383 C-25.1801236 13.63525478 -53.16525242 12.80895383 -81 18 C-81.7528125 18.13921875 -82.505625 18.2784375 -83.28125 18.421875 C-117.61613243 25.04360232 -147.93839077 43.12373715 -173 67 C-174.33804688 68.22396484 -174.33804688 68.22396484 -175.703125 69.47265625 C-190.53464113 83.50188277 -200.93386144 100.87139486 -210 119 C-210.32436035 119.64211426 -210.6487207 120.28422852 -210.98291016 120.94580078 C-218.9374367 137.00580234 -223.23921774 155.3734671 -226 173 C-226.17128418 173.90137695 -226.34256836 174.80275391 -226.51904297 175.73144531 C-231.29036801 208.15707967 -224.86573539 243.23565652 -210.4387207 272.39501953 C-208.47194084 276.44144757 -207.39209639 279.49245943 -208 284 C-209.64133965 286.98824051 -211.92366836 289.46183418 -215 291 C-218.71115662 291.41235074 -220.48937977 291.32062201 -223.6875 289.3125 C-227.89742613 285.10257387 -229.86599385 280.14491019 -231.875 274.625 C-232.26353149 273.56345703 -232.26353149 273.56345703 -232.65991211 272.48046875 C-233.19126893 271.01968505 -233.71951091 269.55776456 -234.24462891 268.09472656 C-234.92368254 266.21163665 -235.62270612 264.33577656 -236.32421875 262.4609375 C-240.4528055 250.92173289 -242.77619293 239.0287746 -245 227 C-245.13567383 226.29858887 -245.27134766 225.59717773 -245.41113281 224.87451172 C-249.276079 204.28142519 -248.5867779 180.40311466 -244 160 C-243.78537109 159.00887207 -243.57074219 158.01774414 -243.34960938 156.99658203 C-240.73043638 145.01729289 -238.06932527 133.20900662 -233 122 C-232.48824219 120.84242188 -231.97648437 119.68484375 -231.44921875 118.4921875 C-229.70951261 114.62322788 -227.87160925 110.80663126 -226 107 C-225.67016113 106.32420898 -225.34032227 105.64841797 -225.00048828 104.95214844 C-201.80563594 57.90130782 -159.25886105 21.78369116 -109.75634766 4.89501953 C-101.2809646 2.14295981 -92.69724211 -0.07266364 -84 -2 C-82.80600586 -2.26901123 -82.80600586 -2.26901123 -81.58789062 -2.54345703 C-55.85440046 -8.06639493 -25.27300564 -7.07927329 0 0 Z " fill="#E4AE4E" transform="translate(573,259)"/>
<path d="M0 0 C0.0093457 0.72590332 0.01869141 1.45180664 0.02832031 2.19970703 C0.08221281 5.50881214 0.16582439 8.81653238 0.25 12.125 C0.26417969 13.26710938 0.27835938 14.40921875 0.29296875 15.5859375 C0.47730965 21.92726448 0.61308338 26.23376352 5 31 C8.19378082 32.59689041 11.52521315 32.37348957 15 32 C18.85620629 30.32338857 20.47000116 28.86640494 22 25 C22.36448829 22.19682164 22.36448829 22.19682164 22.4140625 19.140625 C22.45273437 18.02558594 22.49140625 16.91054688 22.53125 15.76171875 C22.5621875 14.60285156 22.593125 13.44398438 22.625 12.25 C22.66367187 11.07566406 22.70234375 9.90132812 22.7421875 8.69140625 C22.8363982 5.79442732 22.92201602 2.89745374 23 0 C45.65275474 -0.4535086 72.7332497 4.30295427 90 20 C94.2305532 24.53522267 96.41578687 28.75339747 96.75 35 C96.31986393 42.86248725 92.42896939 47.90645294 86.875 53.1875 C58.34068603 75.79017321 9.77557028 74.94362906 -24.69921875 71.31640625 C-43.96227659 68.80581487 -64.66666549 64.49307394 -77.66015625 48.89453125 C-81.50085672 43.46380318 -81.98804728 38.55137656 -81 32 C-79.5228726 28.4953327 -77.50652525 25.84212696 -75 23 C-74.40445313 22.32195313 -73.80890625 21.64390625 -73.1953125 20.9453125 C-55.54808845 3.29808845 -23.74972717 -0.68148428 0 0 Z " fill="#90B859" transform="translate(855,517)"/>
<path d="M0 0 C6.98137929 6.25138716 12.40692483 14.94715551 13.37890625 24.38671875 C13.91517596 35.03442895 11.24717074 43.7505277 4.8046875 52.27734375 C4.39734375 52.8290625 3.99 53.38078125 3.5703125 53.94921875 C-10.94516973 72.37898832 -39.98173293 80.43085 -62.1953125 83.27734375 C-72.88121016 84.31314192 -83.53164948 84.47716323 -94.2578125 84.46484375 C-95.06935791 84.46490417 -95.88090332 84.4649646 -96.71704102 84.46502686 C-108.62403606 84.45242717 -120.3889735 84.12132386 -132.20703125 82.53759766 C-134.00071354 82.30281557 -135.80111321 82.12081501 -137.6015625 81.9453125 C-156.9172822 79.72595582 -176.91043457 71.74625715 -190.1953125 57.27734375 C-197.52448133 47.43797333 -200.5084804 37.52860339 -199.1953125 25.27734375 C-197.38631675 17.72909361 -193.24993758 12.0340001 -188.1953125 6.27734375 C-187.69515625 5.68308594 -187.195 5.08882812 -186.6796875 4.4765625 C-177.48137571 -5.62764363 -164.81633651 -11.24096388 -152.1953125 -15.72265625 C-151.32777344 -16.03976562 -150.46023438 -16.356875 -149.56640625 -16.68359375 C-144.52392763 -18.45503841 -139.41836928 -19.62036697 -134.1953125 -20.72265625 C-133.50791992 -20.86832031 -132.82052734 -21.01398437 -132.11230469 -21.1640625 C-90.45078781 -29.48447957 -34.47781169 -27.05465295 0 0 Z M-141.1328125 -0.59765625 C-141.87660156 -0.38592773 -142.62039063 -0.17419922 -143.38671875 0.04394531 C-157.7536543 4.37228903 -172.70198832 11.5938822 -180.1953125 25.27734375 C-181.96024018 30.57212679 -181.93474803 35.28345544 -179.6328125 40.33984375 C-172.46424601 52.89095163 -158.59446131 58.32427233 -145.2578125 62.15234375 C-144.60449951 62.34328613 -143.95118652 62.53422852 -143.27807617 62.73095703 C-128.63668082 66.58202632 -113.29070767 66.6837405 -98.2578125 66.65234375 C-97.31842834 66.65213226 -96.37904419 66.65192078 -95.41119385 66.65170288 C-80.03145765 66.61726308 -65.24159277 65.72450548 -50.1953125 62.27734375 C-49.38578125 62.0954248 -48.57625 61.91350586 -47.7421875 61.72607422 C-34.9390276 58.72130578 -19.01164898 53.4939219 -10.1953125 43.27734375 C-9.44507813 42.42269531 -9.44507813 42.42269531 -8.6796875 41.55078125 C-5.06409868 36.7233742 -4.36697258 32.20720007 -4.66015625 26.23828125 C-5.96863486 18.99866967 -10.28449743 14.67920288 -16.0703125 10.46484375 C-17.76103646 9.37454034 -19.46854785 8.30961933 -21.1953125 7.27734375 C-21.84371094 6.88804687 -22.49210938 6.49875 -23.16015625 6.09765625 C-43.3399424 -4.90949983 -66.9967947 -4.90962642 -89.28710938 -4.90795898 C-92.55612188 -4.91014675 -95.82479682 -4.92836285 -99.09375 -4.94726562 C-113.38102789 -4.98663779 -127.29072893 -4.54398104 -141.1328125 -0.59765625 Z " fill="#061D39" transform="translate(563.1953125,913.72265625)"/>
<path d="M0 0 C1.44339752 -0.0049926 1.44339752 -0.0049926 2.91595459 -0.01008606 C4.94982428 -0.01512914 6.98370218 -0.0174952 9.01757812 -0.01733398 C12.05874167 -0.01949527 15.09952668 -0.03760904 18.140625 -0.05664062 C36.8435559 -0.11146783 54.78800075 1.19232937 72.859375 6.16796875 C73.90222656 6.44253906 74.94507813 6.71710937 76.01953125 7 C91.91630069 11.68558884 107.46667329 21.15537153 115.703125 35.80859375 C116.0846875 36.5871875 116.46625 37.36578125 116.859375 38.16796875 C117.41431641 39.29138672 117.41431641 39.29138672 117.98046875 40.4375 C120.90062247 49.50944424 119.96826631 60.12838055 115.984375 68.66796875 C106.95496853 84.30690076 92.46497349 92.37341342 75.859375 98.16796875 C74.65667969 98.65523437 73.45398438 99.1425 72.21484375 99.64453125 C62.87775206 103.15190461 52.64235284 104.4275069 42.859375 106.16796875 C42.08867676 106.30654297 41.31797852 106.44511719 40.52392578 106.58789062 C16.9845273 110.58546657 -9.78005742 109.77808919 -33.140625 105.16796875 C-33.90310547 105.02343262 -34.66558594 104.87889648 -35.45117188 104.72998047 C-54.83420132 100.96105808 -73.24406614 93.83472707 -86.140625 78.16796875 C-88.11535599 74.93701218 -89.67345693 71.65249292 -91.140625 68.16796875 C-91.50414062 67.54921875 -91.86765625 66.93046875 -92.2421875 66.29296875 C-94.94892462 59.89094704 -93.88813352 51.1417359 -91.453125 44.79296875 C-88.2917463 38.01381512 -84.70640976 32.22777308 -79.140625 27.16796875 C-78.56183594 26.57371094 -77.98304688 25.97945312 -77.38671875 25.3671875 C-70.61114478 18.74589605 -62.65839316 15.04723857 -54.140625 11.16796875 C-52.61115234 10.42353516 -52.61115234 10.42353516 -51.05078125 9.6640625 C-45.8060135 7.44586392 -40.18727206 6.30938113 -34.66186523 5.00585938 C-32.70941336 4.54445482 -30.75993663 4.07181224 -28.81054688 3.59765625 C-19.06146108 1.26711745 -9.99758124 0.01233208 0 0 Z M-30.140625 22.16796875 C-31.32543457 22.41546875 -31.32543457 22.41546875 -32.53417969 22.66796875 C-48.2529134 25.95657057 -63.95929189 33.38154039 -72.94140625 46.984375 C-75.34578313 51.3623772 -76.04357234 56.24516933 -75.140625 61.16796875 C-69.89667399 72.23645107 -60.44634179 77.96050476 -49.45068359 82.34521484 C-35.23927439 87.40677149 -20.5614427 89.31771838 -5.55078125 89.3359375 C-4.56677841 89.3392659 -3.58277557 89.3425943 -2.56895447 89.34602356 C-0.49576276 89.3510559 1.57743695 89.35343304 3.65063477 89.35327148 C6.7574672 89.35544123 9.86393406 89.37359081 12.97070312 89.39257812 C39.09861987 89.46704408 71.37438433 88.0032787 92.19921875 69.828125 C97.49037247 64.53697128 101.11967655 60.12826884 101.359375 52.41796875 C101.24827551 47.03944656 100.3125015 43.97912596 96.7421875 39.96875 C83.57260439 27.3729454 68.30698603 23.4557862 50.859375 20.16796875 C49.45715698 19.88542236 49.45715698 19.88542236 48.02661133 19.59716797 C37.58249239 17.70928022 27.12431994 17.77490195 16.546875 17.79296875 C15.57326019 17.79218323 14.59964539 17.79139771 13.5965271 17.79058838 C-1.36387842 17.80505343 -15.53085167 18.73482979 -30.140625 22.16796875 Z " fill="#061D39" transform="translate(647.140625,692.83203125)"/>
<path d="M0 0 C7.89304591 1.12757799 7.89304591 1.12757799 11.484375 2.20703125 C12.31936523 2.45783447 13.15435547 2.7086377 14.01464844 2.96704102 C14.91731445 3.24604248 15.81998047 3.52504395 16.75 3.8125 C17.72227539 4.11019287 18.69455078 4.40788574 19.69628906 4.71459961 C30.65265988 8.1218458 41.48452341 11.89459221 52.32666016 15.64550781 C61.57490836 18.84281418 70.84124273 21.94011128 80.1953125 24.81640625 C91.40187751 28.30263746 91.40187751 28.30263746 96.4375 30.5 C100.86571523 32.36451167 105.38261302 33.69003709 110 35 C110 35.66 110 36.32 110 37 C108.54150391 38.15405273 108.54150391 38.15405273 106.4765625 39.43359375 C105.71287354 39.91143311 104.94918457 40.38927246 104.16235352 40.8815918 C102.90636353 41.65176636 102.90636353 41.65176636 101.625 42.4375 C100.75866943 42.97608643 99.89233887 43.51467285 98.99975586 44.06958008 C96.33797853 45.7209912 93.66990765 47.36177321 91 49 C89.90341064 49.67579102 89.90341064 49.67579102 88.78466797 50.36523438 C83.53656069 53.59902919 78.26966506 56.80149202 73 60 C70.87628147 61.29033066 68.75258505 62.5806977 66.62890625 63.87109375 C61.27551161 67.12331541 55.9206602 70.37313221 50.56542969 73.62232971 C45.59244817 76.63986174 40.62117523 79.66019947 35.65029907 82.68119812 C30.43500018 85.85042723 25.21695635 89.01511354 19.99853516 92.17919922 C17.32309024 93.80380988 14.65112537 95.43394201 11.98046875 97.06640625 C10.61206528 97.89857911 9.24358472 98.73062525 7.875 99.5625 C6.20050781 100.58537109 6.20050781 100.58537109 4.4921875 101.62890625 C2 103 2 103 0 103 C0 69.01 0 35.02 0 0 Z " fill="#DE7248" transform="translate(878,301)"/>
<path d="M0 0 C5.72389222 3.59642786 10.95131131 9.41728841 13 15.921875 C15.80514574 32.45219809 11.60957787 47.58022319 2.4375 61.5 C-3.19723257 68.79732929 -10.02093679 74.87554119 -16.90234375 80.96484375 C-21.24748406 85.10580713 -24.90240216 89.74639145 -28.5625 94.5 C-35.64069566 93.33849821 -41.95981594 91.40019064 -48.5625 88.625 C-49.8 88.11646484 -49.8 88.11646484 -51.0625 87.59765625 C-52.71903097 86.91692556 -54.37400743 86.23239875 -56.02734375 85.54394531 C-59.54437718 84.09567538 -63.0856201 82.71026456 -66.62890625 81.32763672 C-68.5625 80.5 -68.5625 80.5 -69.5625 79.5 C-71.86941454 56.65267329 -60.32388047 34.00499364 -46.40234375 16.8359375 C-41.40001336 10.99547416 -36.1496882 6.46704465 -29.5625 2.5 C-28.87929688 2.06558594 -28.19609375 1.63117187 -27.4921875 1.18359375 C-19.90088419 -2.95842916 -7.98978798 -3.49553224 0 0 Z " fill="#3E92D3" transform="translate(404.5625,617.5)"/>
<path d="M0 0 C8.25627343 5.01851914 13.51800347 10.54523056 16.1875 19.9375 C18.14956711 40.69410466 11.62856345 59.79189298 -1.4375 75.9375 C-2.89025633 77.60903012 -4.34790474 79.27633336 -5.8125 80.9375 C-6.27785156 81.5459375 -6.74320312 82.154375 -7.22265625 82.78125 C-10.57411143 87.12686772 -14.69460239 90.49851412 -18.9375 93.9375 C-19.54811279 94.44345703 -20.15872559 94.94941406 -20.7878418 95.47070312 C-25.25819091 98.99261082 -25.25819091 98.99261082 -27.75732422 98.74414062 C-30.13512601 97.81087178 -31.89323079 96.62695191 -33.9375 95.09375 C-34.72141113 94.51101318 -35.50532227 93.92827637 -36.31298828 93.32788086 C-37.13782715 92.70405518 -37.96266602 92.08022949 -38.8125 91.4375 C-40.51819003 90.15749993 -42.22391921 88.87755203 -43.9296875 87.59765625 C-44.76081055 86.97133301 -45.59193359 86.34500977 -46.44824219 85.69970703 C-48.51055663 84.16255444 -50.59112605 82.66255858 -52.6953125 81.18359375 C-53.76523437 80.42175781 -54.83515625 79.65992188 -55.9375 78.875 C-56.86820312 78.22402344 -57.79890625 77.57304688 -58.7578125 76.90234375 C-60.8125 74.9375 -60.8125 74.9375 -61.7578125 72.65625 C-61.83157902 68.98900021 -60.76610329 65.91130849 -59.5625 62.5 C-57.80433423 57.25681248 -56.35417687 52.13207851 -55.3125 46.6875 C-51.92429943 30.10414055 -43.13095193 14.88344808 -29.125 5.05078125 C-19.64998005 -0.7724081 -11.05511588 -3.08093393 0 0 Z " fill="#3E93D3" transform="translate(460.8125,724.0625)"/>
<path d="M0 0 C3.05735137 0.62999968 4.80007911 2.2002709 6.93359375 4.3984375 C8.48836065 7.50797129 8.22003812 9.96110511 7.93359375 13.3984375 C5.31706499 18.5177329 1.21928485 22.47794461 -2.64453125 26.6953125 C-5.0200361 29.34668243 -7.27066998 32.06419036 -9.50390625 34.8359375 C-13.36465762 39.6098405 -17.440777 44.13232178 -21.59765625 48.6484375 C-24.01018729 51.33581384 -26.29896835 54.08809194 -28.56640625 56.8984375 C-31.61989304 60.68304084 -34.77308926 64.32051287 -38.06640625 67.8984375 C-42.18019534 72.3682887 -46.03727922 76.98888643 -49.8515625 81.71484375 C-52.73121512 85.20394666 -55.77334501 88.52840671 -58.8203125 91.87109375 C-61.12828223 94.46806143 -63.32196488 97.13247763 -65.50390625 99.8359375 C-69.4425693 104.7058081 -73.58926023 109.33919321 -77.8359375 113.94140625 C-79.63568423 115.92396438 -81.33922445 117.92883788 -83.00390625 120.0234375 C-85.79861669 123.24158891 -87.61220613 123.34544749 -91.81640625 123.8359375 C-96.19437754 123.76390507 -98.28330952 122.19867704 -101.3671875 119.21875 C-103.6580168 116.7646662 -105.8895107 114.27465861 -108.06640625 111.71875 C-110.42882589 108.97797409 -112.86609405 106.3102936 -115.31640625 103.6484375 C-115.78385254 103.13990234 -116.25129883 102.63136719 -116.73291016 102.10742188 C-117.69436057 101.06189771 -118.65611491 100.01665294 -119.61816406 98.97167969 C-133.91935157 83.43613479 -133.91935157 83.43613479 -139.1171875 77.56640625 C-140.28716831 76.26512498 -141.48535607 74.98733686 -142.734375 73.76171875 C-145.44807931 70.98720314 -146.4824499 68.68537653 -146.81640625 64.8984375 C-146.60193508 61.17042397 -145.65525421 59.38695458 -142.94140625 56.8359375 C-140.58177944 55.15251637 -138.95621408 54.36795882 -136.12890625 53.5859375 C-126.12593525 56.23978695 -117.85931603 68.98851307 -111.06640625 76.3984375 C-110.0446144 77.50682724 -109.0225001 78.61491984 -108 79.72265625 C-102.62347163 85.55685908 -97.31210112 91.44630234 -92.06640625 97.3984375 C-83.95217775 89.37177261 -76.40170469 80.93409286 -69.24609375 72.046875 C-66.38047945 68.56499956 -63.34601413 65.25357832 -60.30859375 61.921875 C-58.02124721 59.34761392 -55.85092354 56.70554261 -53.69140625 54.0234375 C-50.01133616 49.47143443 -46.14117741 45.16591502 -42.15722656 40.88378906 C-38.33345949 36.74962522 -34.77798597 32.43346 -31.24609375 28.046875 C-28.38863514 24.57490916 -25.36455967 21.27194107 -22.33203125 17.953125 C-19.14791389 14.36275819 -16.17474662 10.61384767 -13.20703125 6.84375 C-9.11071135 2.16437727 -6.23630899 -0.30651046 0 0 Z " fill="#021B3A" transform="translate(597.06640625,392.6015625)"/>
<path d="M0 0 C4.92721456 1.32826066 9.57785445 2.94514447 14.3125 4.875 C15.62890311 5.40886192 16.94530936 5.94271607 18.26171875 6.4765625 C18.89770996 6.73598633 19.53370117 6.99541016 20.18896484 7.26269531 C22.66307458 8.26994948 25.14375361 9.26047745 27.625 10.25 C32.3125 12.125 32.3125 12.125 37 14 C35.68869154 25.56691494 32.87434807 33.11727944 23.8671875 40.6875 C18.73756621 44.2932589 11.97636044 43.51647559 6 43 C-0.09401461 40.22999336 -5.44154794 34.24875388 -8 28 C-9.41332359 17.53773447 -5.9576189 8.43014849 0 0 Z " fill="#3B91D2" transform="translate(329,716)"/>
<path d="M0 0 C2.71300688 1.28332951 5.07979227 2.69035411 7.46875 4.50390625 C8.44134766 5.23818848 8.44134766 5.23818848 9.43359375 5.98730469 C10.11550781 6.50711914 10.79742187 7.02693359 11.5 7.5625 C12.92705919 8.641959 14.35414279 9.72138573 15.78125 10.80078125 C16.48894531 11.33783691 17.19664062 11.87489258 17.92578125 12.42822266 C20.94187032 14.71371953 23.97063074 16.9821547 27 19.25 C28.66666667 20.5 30.33333333 21.75 32 23 C29.34046238 31.8191271 24.01929104 38.15963784 16.2734375 43.1015625 C10.516811 45.37651799 2.07439015 45.32872302 -3.62109375 42.8671875 C-8.59267672 39.27712191 -12.05470345 34.83588964 -14 29 C-14.89765144 20.09253568 -12.42570849 14.64184663 -7 7.75 C-4.77465484 5.03575325 -2.52939483 2.43454252 0 0 Z " fill="#3E93D3" transform="translate(388,814)"/>
<path d="M0 0 C7.59 0 15.18 0 23 0 C23 9.57 23 19.14 23 29 C15.41 29 7.82 29 0 29 C0 19.43 0 9.86 0 0 Z " fill="#FEFDFE" transform="translate(1231,0)"/>
<path d="M0 0 C0.91644287 0.00523682 1.83288574 0.01047363 2.77709961 0.01586914 C3.66792236 0.0183667 4.55874512 0.02086426 5.4765625 0.0234375 C7.18573853 0.03709351 7.18573853 0.03709351 8.92944336 0.05102539 C14.34350586 0.08196289 14.34350586 0.08196289 19.86694336 0.11352539 C19.86694336 9.68352539 19.86694336 19.25352539 19.86694336 29.11352539 C12.27694336 29.11352539 4.68694336 29.11352539 -3.13305664 29.11352539 C-3.15597152 25.14415989 -3.17589679 21.17496219 -3.18798828 17.20556641 C-3.19302721 15.85432153 -3.19985841 14.50308213 -3.20849609 13.15185547 C-3.22058083 11.21332105 -3.22575492 9.27474739 -3.23071289 7.33618164 C-3.23594971 6.16837158 -3.24118652 5.00056152 -3.24658203 3.79736328 C-3.0929179 0.16461106 -3.0929179 0.16461106 0 0 Z " fill="#FEFEFE" transform="translate(1234.133056640625,172.886474609375)"/>
<path d="M0 0 C3.20045078 2.72038317 3.9250632 4.19068252 4.3125 8.375 C2.67154033 12.90717433 0.68092004 14.31359895 -3.1953125 17.01953125 C-5.31720137 18.51785668 -7.26524806 20.02808167 -9.2421875 21.69921875 C-9.80196289 22.16223389 -10.36173828 22.62524902 -10.93847656 23.10229492 C-12.04278188 24.01748715 -13.13646389 24.94568857 -14.21777344 25.88793945 C-17.2874107 28.36568426 -18.75029065 29.00781155 -22.74609375 28.8828125 C-26.45025732 27.87784135 -27.8907755 27.20602124 -30 24 C-30.49245471 19.83120022 -30.6101439 17.79630986 -28.015625 14.41015625 C-25.04621709 11.88951479 -22.07983127 9.38426552 -19 7 C-17.9584375 6.19046875 -16.916875 5.3809375 -15.84375 4.546875 C-7.058449 -1.79806461 -7.058449 -1.79806461 0 0 Z " fill="#081E3B" transform="translate(705,607)"/>
<path d="M0 0 C2.5 1.5625 2.5 1.5625 4 4 C4.52880576 9.65204081 3.3565351 13.04874647 0.6875 18 C-1.21133039 21.56677575 -3.05365359 25.05860973 -4.54296875 28.8125 C-6 32 -6 32 -9 34 C-12.83693587 34.41857482 -15.11203064 34.54644269 -18.4375 32.5 C-20.6794023 28.91295633 -20.76181666 26.03894176 -20 22 C-17.59025388 14.74113362 -14.30110422 7.35356097 -10 1 C-6.79419594 -0.60290203 -3.47817686 -0.48117071 0 0 Z " fill="#081E3B" transform="translate(666,646)"/>
<path d="M0 0 C2 2.4375 2 2.4375 2.625 5.875 C1.81961047 10.46572035 0.61488995 11.51901471 -3 14.4375 C-6.22988881 15.87985218 -9.53629851 16.85629915 -12.9375 17.8125 C-14.25911133 18.22048828 -14.25911133 18.22048828 -15.60742188 18.63671875 C-20.3457427 20.02094731 -24.15761615 21.04916363 -29 19.4375 C-31.26180442 17.86094565 -31.87405164 17.00741634 -32.46875 14.31640625 C-32.4790625 13.55199219 -32.489375 12.78757812 -32.5 12 C-32.54640625 10.85724609 -32.54640625 10.85724609 -32.59375 9.69140625 C-31.68983071 6.26008106 -29.95575254 5.32340287 -27 3.4375 C-24.37591998 2.38676195 -21.8802641 1.49304937 -19.1875 0.6875 C-18.17719727 0.35685547 -18.17719727 0.35685547 -17.14648438 0.01953125 C-11.34443176 -1.76827826 -5.59408285 -2.91358482 0 0 Z " fill="#0B203D" transform="translate(755,588.5625)"/>
<path d="M0 0 C2.75 1.25 2.75 1.25 5 3 C5.763125 3.515625 6.52625 4.03125 7.3125 4.5625 C10.01796649 8.47039604 9.72474313 12.40512857 9 17 C6.93149473 21.13701055 5.25166295 23.28091607 1 25 C-3.16170464 25.71421994 -7.28242871 26.09112244 -10.94921875 23.76171875 C-14.6219821 20.1778843 -15.83053186 17.45258407 -16.4375 12.25 C-16.41253207 7.74744944 -14.51128348 5.53249625 -11.5078125 2.34765625 C-8.11510946 -0.68468196 -4.32868232 -0.46706399 0 0 Z " fill="#E4AE50" transform="translate(683,330)"/>
<path d="M0 0 C2.94627965 2.5043377 3.81147455 4.19448216 4.6875 7.9375 C3.65340093 12.54394133 0.6166414 14.32392809 -3 17 C-3.95390625 17.78503906 -4.9078125 18.57007813 -5.890625 19.37890625 C-6.91671875 20.20261719 -7.9428125 21.02632812 -9 21.875 C-9.969375 22.65617188 -10.93875 23.43734375 -11.9375 24.2421875 C-15.60809731 26.34903545 -17.83042327 26.44727283 -22 26 C-24.4375 24.5 -24.4375 24.5 -26 22 C-27.04289694 17.18662953 -27.04289694 17.18662953 -26 14 C-23.38845287 10.80145374 -20.30970045 8.44455079 -17 6 C-15.85144531 5.09121094 -15.85144531 5.09121094 -14.6796875 4.1640625 C-9.65632804 0.43592464 -6.25946814 -1.16701948 0 0 Z " fill="#081E3B" transform="translate(533,817)"/>
<path d="M0 0 C3.9375 0.625 3.9375 0.625 6.4375 2.1875 C8.54522182 5.61254796 8.3458667 7.62624096 7.9375 11.625 C6.62830287 14.57944296 4.92198464 17.19576839 3.125 19.875 C2.67318359 20.58140625 2.22136719 21.2878125 1.75585938 22.015625 C-2.33552173 28.322922 -2.33552173 28.322922 -5.0625 30.625 C-8.4375 31.1875 -8.4375 31.1875 -12.0625 30.625 C-15.0625 28 -15.0625 28 -17.0625 24.625 C-16.63882596 17.63437838 -12.73257615 12.37766754 -9.0625 6.625 C-8.63582031 5.92890625 -8.20914062 5.2328125 -7.76953125 4.515625 C-5.56039959 1.34895163 -3.75418714 0.23550251 0 0 Z " fill="#0B2240" transform="translate(493.0625,848.375)"/>
<path d="M0 0 C2.875 1.4375 2.875 1.4375 5 4 C5.58947938 7.08086395 5.67794648 9.93229219 5 13 C1.89478908 16.61227995 -2.08496457 18.23859827 -6.3125 20.25 C-7.05951172 20.62640625 -7.80652344 21.0028125 -8.57617188 21.390625 C-13.0692342 23.53656521 -16.04696796 24.65596124 -21 23 C-23.81831785 20.40418092 -24.85564038 18.76991795 -25.5625 15 C-24.79906202 10.92833075 -23.09086533 9.72012812 -20 7 C-17.68554673 5.60050019 -15.47802117 4.36535909 -13.0625 3.1875 C-12.46759766 2.87619141 -11.87269531 2.56488281 -11.25976562 2.24414062 C-7.35015659 0.3000181 -4.3470709 -0.45889194 0 0 Z " fill="#0D203B" transform="translate(572,795)"/>
<path d="M0 0 C0 0.66 0 1.32 0 2 C-4.97123368 1.49445081 -9.85831279 0.85616299 -14.78125 0 C-22.78493448 -1.24352149 -30.73102242 -1.44961358 -38.8125 -1.625 C-40.29494159 -1.66330682 -41.77736397 -1.70236519 -43.25976562 -1.7421875 C-46.83966478 -1.83675637 -50.41971326 -1.92127018 -54 -2 C-54 -2.33 -54 -2.66 -54 -3 C-35.41408868 -4.20694845 -18.23664973 -3.90259395 0 0 Z " fill="#0E1F33" transform="translate(707,713)"/>
<path d="M0 0 C5.65808221 5.65808221 7.21153895 11.01709816 7.32348633 18.91772461 C7.27766239 29.16701284 7.27766239 29.16701284 6 33 C5.34 33 4.68 33 4 33 C4 31.68 4 30.36 4 29 C4.66 29 5.32 29 6 29 C5.67 22.73 5.34 16.46 5 10 C3.68 9.67 2.36 9.34 1 9 C0.67 6.03 0.34 3.06 0 0 Z " fill="#293146" transform="translate(759,724)"/>
<path d="M0 0 C0 0.33 0 0.66 0 1 C-0.69867187 1.04898438 -1.39734375 1.09796875 -2.1171875 1.1484375 C-3.02726563 1.22320313 -3.93734375 1.29796875 -4.875 1.375 C-5.77992188 1.44460938 -6.68484375 1.51421875 -7.6171875 1.5859375 C-10.17941903 1.79568132 -10.17941903 1.79568132 -12 4 C-15.4375 4.125 -15.4375 4.125 -19 4 C-19.99 4 -20.98 4 -22 4 C-24.33564933 3.68330179 -26.6693782 3.35179197 -29 3 C-29 2.67 -29 2.34 -29 2 C-19.22907228 0.12612345 -9.89644867 -0.22867275 0 0 Z " fill="#769953" transform="translate(657,711)"/>
<path d="M0 0 C0 6.27 0 12.54 0 19 C-0.33 19 -0.66 19 -1 19 C-1.33 13.39 -1.66 7.78 -2 2 C-7.61 2 -13.22 2 -19 2 C-19 1.67 -19 1.34 -19 1 C-17.1461788 0.82953368 -15.29191981 0.66382604 -13.4375 0.5 C-11.88869141 0.36078125 -11.88869141 0.36078125 -10.30859375 0.21875 C-6.87910972 -0.00799275 -3.43697148 0 0 0 Z " fill="#8DB160" transform="translate(855,517)"/>
<path d="M0 0 C1.3271261 3.9813783 1.06915913 7.85045227 1 12 C0.34 12 -0.32 12 -1 12 C-1 14.97 -1 17.94 -1 21 C-1.66 21 -2.32 21 -3 21 C-3.55353075 6.21867882 -3.55353075 6.21867882 0 0 Z " fill="#1B233B" transform="translate(308,724)"/>
<path d="M0 0 C0.90901939 3.04842865 1.06173367 5.59661636 0.87890625 8.765625 C0.83056641 9.65507813 0.78222656 10.54453125 0.73242188 11.4609375 C0.64831055 12.84152344 0.64831055 12.84152344 0.5625 14.25 C0.51029297 15.18585937 0.45808594 16.12171875 0.40429688 17.0859375 C0.27493175 19.39098887 0.13997966 21.69557289 0 24 C-0.33 24 -0.66 24 -1 24 C-1.33 19.71 -1.66 15.42 -2 11 C-2.66 11 -3.32 11 -4 11 C-4 8.03 -4 5.06 -4 2 C-2.68 2.33 -1.36 2.66 0 3 C0 2.01 0 1.02 0 0 Z " fill="#BFC2CA" transform="translate(319,680)"/>
<path d="M0 0 C1.33920828 4.55330816 1.41615179 9.19436353 1.71875 13.90625 C1.89856312 16.8905995 1.89856312 16.8905995 2.62109375 19.265625 C3 21 3 21 1.5625 23.25 C1.046875 23.8275 0.53125 24.405 0 25 C-0.79529242 22.19199386 -1.1282074 19.69270241 -1.1328125 16.77734375 C-1.13410156 15.99166016 -1.13539063 15.20597656 -1.13671875 14.39648438 C-1.13285156 13.58501953 -1.12898437 12.77355469 -1.125 11.9375 C-1.12886719 11.12216797 -1.13273438 10.30683594 -1.13671875 9.46679688 C-1.13542969 8.68240234 -1.13414062 7.89800781 -1.1328125 7.08984375 C-1.13168457 6.37691162 -1.13055664 5.66397949 -1.12939453 4.92944336 C-1 3 -1 3 0 0 Z " fill="#222B43" transform="translate(757,542)"/>
<path d="M0 0 C0 0.33 0 0.66 0 1 C-3.3 1.66 -6.6 2.32 -10 3 C-10 3.33 -10 3.66 -10 4 C-15.05002222 5.03590199 -19.87416389 5.10251672 -25 5 C-17.56128966 0.8473219 -8.41750237 -0.4951472 0 0 Z " fill="#363E54" transform="translate(637,694)"/>
<path d="M0 0 C0.33 0 0.66 0 1 0 C1.66 2.31 2.32 4.62 3 7 C2.01 7.495 2.01 7.495 1 8 C0.52402634 10.70599842 0.15906371 13.33595404 -0.125 16.0625 C-0.21136719 16.82111328 -0.29773438 17.57972656 -0.38671875 18.36132812 C-0.59939517 20.23996986 -0.80075459 22.11988636 -1 24 C-1.33 24 -1.66 24 -2 24 C-2.0544207 21.31222198 -2.09387266 18.62556788 -2.125 15.9375 C-2.14175781 15.18533203 -2.15851563 14.43316406 -2.17578125 13.65820312 C-2.21865121 8.70672291 -1.58399375 4.69585549 0 0 Z " fill="#0B142E" transform="translate(321,677)"/>
<path d="M0 0 C16.37815811 -0.38386308 16.37815811 -0.38386308 23 2 C23.33 2.66 23.66 3.32 24 4 C22.9378125 3.86722656 21.875625 3.73445312 20.78125 3.59765625 C20.09546875 3.51193359 19.4096875 3.42621094 18.703125 3.33789062 C15.13541667 2.89192708 11.56770833 2.44596354 8 2 C6.85337891 1.85667236 6.85337891 1.85667236 5.68359375 1.71044922 C2.84179688 1.35522461 2.84179688 1.35522461 0 1 C0 0.67 0 0.34 0 0 Z " fill="#152634" transform="translate(887,517)"/>
<path d="M0 0 C0.66 0.66 1.32 1.32 2 2 C-1.96 5.96 -5.92 9.92 -10 14 C-10.66 13.34 -11.32 12.68 -12 12 C-11.46890625 11.55269531 -10.9378125 11.10539063 -10.390625 10.64453125 C-6.52111681 7.33285362 -3.01412695 4.14442456 0 0 Z " fill="#072347" transform="translate(622,542)"/>
<path d="M0 0 C0.74609375 1.734375 0.74609375 1.734375 1 4 C-0.65234375 6.140625 -0.65234375 6.140625 -2.9375 8.25 C-3.68902344 8.95640625 -4.44054687 9.6628125 -5.21484375 10.390625 C-5.80394531 10.92171875 -6.39304687 11.4528125 -7 12 C-7.66 11.01 -8.32 10.02 -9 9 C-6.21000549 5.51250686 -3.74764169 2.49842779 0 0 Z " fill="#11213E" transform="translate(773,522)"/>
<path d="M0 0 C0.66 0.33 1.32 0.66 2 1 C0.17251097 3.46313739 -1.22976216 4.83428618 -4.26953125 5.48828125 C-6.51479346 5.72518293 -8.74455578 5.90361349 -11 6 C-11 5.67 -11 5.34 -11 5 C-13.97 4.505 -13.97 4.505 -17 4 C-17 3.67 -17 3.34 -17 3 C-16.10796875 2.95101562 -15.2159375 2.90203125 -14.296875 2.8515625 C-12.54117187 2.73941406 -12.54117187 2.73941406 -10.75 2.625 C-9.00976562 2.52058594 -9.00976562 2.52058594 -7.234375 2.4140625 C-4.25278413 2.03236125 -2.59705364 1.37000536 0 0 Z " fill="#DBDDE2" transform="translate(354,773)"/>
<path d="M0 0 C0.66 0.33 1.32 0.66 2 1 C0.9958588 3.7385669 0.33822766 4.81209575 -2.25 6.25 C-5.27840261 7.07592799 -7.8749763 7.14534994 -11 7 C-7.54143152 4.05004453 -4.19978515 1.77324262 0 0 Z " fill="#23324C" transform="translate(460,318)"/>
<path d="M0 0 C7.09434233 -0.09733092 13.98194143 -0.10087193 21 1 C16.54364117 3.97090589 11.52148892 3.45347708 6.48046875 2.546875 C4.308933 2.06811121 2.15239916 1.55802941 0 1 C0 0.67 0 0.34 0 0 Z " fill="#7C9E57" transform="translate(424,976)"/>
<path d="M0 0 C0.33 0.99 0.66 1.98 1 3 C-0.29327628 5.02613283 -1.6296945 7.02514795 -3 9 C-3.76939681 11.22602615 -3.76939681 11.22602615 -4 13 C-4.66 13 -5.32 13 -6 13 C-6.7230444 6.97463002 -6.7230444 6.97463002 -4.6640625 4.19921875 C-3.17261584 2.73227943 -1.59067631 1.35870269 0 0 Z " fill="#192742" transform="translate(681,618)"/>
<path d="M0 0 C2.59094622 0.35012787 4.5774211 0.73770965 6.8125 2.125 C8.63883169 5.00868162 8.18806842 7.67745793 8 11 C7.01 11.495 7.01 11.495 6 12 C5.85304688 11.07767578 5.85304688 11.07767578 5.703125 10.13671875 C4.86708954 5.00590695 4.86708954 5.00590695 1.875 0.9375 C1.25625 0.628125 0.6375 0.31875 0 0 Z " fill="#0F1A34" transform="translate(493,849)"/>
<path d="M0 0 C0.66 0 1.32 0 2 0 C1.65225015 8.13734658 1.65225015 8.13734658 -0.9375 11.5625 C-3 13 -3 13 -5 13 C-4.54554036 11.58208592 -4.08625056 10.16571954 -3.625 8.75 C-3.24214844 7.56664062 -3.24214844 7.56664062 -2.8515625 6.359375 C-2.04826333 4.13372042 -1.10288338 2.09068328 0 0 Z " fill="#1C253D" transform="translate(332,643)"/>
<path d="M0 0 C0 0.66 0 1.32 0 2 C-2.10019014 3.47309111 -4.17767729 4.81309635 -6.375 6.125 C-6.97828125 6.49753906 -7.5815625 6.87007813 -8.203125 7.25390625 C-12.72965316 10 -12.72965316 10 -15 10 C-15 9.34 -15 8.68 -15 8 C-12.89980986 6.52690889 -10.82232271 5.18690365 -8.625 3.875 C-8.02171875 3.50246094 -7.4184375 3.12992187 -6.796875 2.74609375 C-2.27034684 0 -2.27034684 0 0 0 Z " fill="#D26C42" transform="translate(938,367)"/>
<path d="M0 0 C0.66 0 1.32 0 2 0 C2.3327958 3.66075376 2.46170299 5.39500988 0.1875 8.375 C-2 10 -2 10 -5 10 C-3.84826645 7.53199953 -2.95216435 5.95216435 -1 4 C-0.3574765 1.93125966 -0.3574765 1.93125966 0 0 Z " fill="#1A253B" transform="translate(535,822)"/>
<path d="M0 0 C0.66 0.33 1.32 0.66 2 1 C1.57847656 1.59167969 1.15695312 2.18335938 0.72265625 2.79296875 C-0.09912109 3.97826172 -0.09912109 3.97826172 -0.9375 5.1875 C-1.48277344 5.96480469 -2.02804687 6.74210937 -2.58984375 7.54296875 C-4.0456289 10.07950299 -4.59613435 12.1218182 -5 15 C-5.33 15 -5.66 15 -6 15 C-5.83560987 8.27494919 -4.78944649 4.78944649 0 0 Z " fill="#2C374E" transform="translate(859,265)"/>
<path d="M0 0 C1.60226148 4.00565371 0.47694566 7.08609399 -1 11 C-1.99 11.33 -2.98 11.66 -4 12 C-3.45660208 7.43545749 -2.20536179 4.0271824 0 0 Z " fill="#232F49" transform="translate(398,743)"/>
<path d="M0 0 C1.79378179 2.69067269 2.97313958 5.08578257 4.1875 8.0625 C4.55230469 8.94035156 4.91710937 9.81820312 5.29296875 10.72265625 C6 13 6 13 5 15 C2.00240068 13.50120034 1.69211326 11.19691136 0.59765625 8.14453125 C-0.17376071 5.3765057 -0.21405269 2.8540358 0 0 Z " fill="#E8BA6B" transform="translate(354,513)"/>
<path d="M0 0 C0.66 0.66 1.32 1.32 2 2 C-1.90456127 5.53269829 -4.80177328 7.63855967 -10 9 C-6.83047153 5.73991357 -3.60062011 2.77762123 0 0 Z " fill="#1B2946" transform="translate(435,334)"/>
<path d="M0 0 C0.7734375 0.00386719 1.546875 0.00773438 2.34375 0.01171875 C4.5 0.3125 4.5 0.3125 7.5 2.3125 C2.53926578 3.63536246 -2.41111512 3.40143197 -7.5 3.3125 C-5.13249637 0.43659014 -3.69770505 -0.08011694 0 0 Z " fill="#DADCDF" transform="translate(495.5,887.6875)"/>
<path d="M0 0 C0.99 0.33 1.98 0.66 3 1 C3.73046875 3.06640625 3.73046875 3.06640625 4.1875 5.5625 C4.34605469 6.38878906 4.50460937 7.21507812 4.66796875 8.06640625 C4.77753906 8.70449219 4.88710938 9.34257813 5 10 C4.01 10 3.02 10 2 10 C0 8 0 8 -0.1953125 6.0546875 C-0.13020833 4.03645833 -0.06510417 2.01822917 0 0 Z " fill="#162645" transform="translate(507,831)"/>
<path d="M0 0 C1.93742341 -0.02703381 3.87495479 -0.04641125 5.8125 -0.0625 C6.89144531 -0.07410156 7.97039063 -0.08570313 9.08203125 -0.09765625 C12 0 12 0 15 1 C15 1.66 15 2.32 15 3 C9.9697924 2.47462276 4.98114761 1.89405214 0 1 C0 0.67 0 0.34 0 0 Z " fill="#1E2F36" transform="translate(692,712)"/>
<path d="M0 0 C-3.06246747 1.78409802 -5.22079273 2.22880021 -8.75 2.125 C-9.54921875 2.10695313 -10.3484375 2.08890625 -11.171875 2.0703125 C-11.77515625 2.04710937 -12.3784375 2.02390625 -13 2 C-12 0 -12 0 -10.4375 -0.6875 C-6.83532854 -1.14931685 -3.58833068 -0.5382496 0 0 Z " fill="#2A374E" transform="translate(505,995)"/>
<path d="M0 0 C0.33 0 0.66 0 1 0 C1.19484938 2.43711614 1.38115178 4.87437398 1.5625 7.3125 C1.61857422 8.00279297 1.67464844 8.69308594 1.73242188 9.40429688 C1.96581505 12.62512274 2.03224218 14.90327345 1 18 C0.34 18 -0.32 18 -1 18 C-0.505 9.09 -0.505 9.09 0 0 Z " fill="#0C3156" transform="translate(477,748)"/>
<path d="M0 0 C0.66 0.66 1.32 1.32 2 2 C0.02 3.98 -1.96 5.96 -4 8 C-4.99 7.67 -5.98 7.34 -7 7 C-4.69 4.69 -2.38 2.38 0 0 Z " fill="#10203E" transform="translate(380,915)"/>
<path d="M0 0 C1 2 1 2 0.375 4.5 C-1 7 -1 7 -3.625 8.3125 C-4.40875 8.539375 -5.1925 8.76625 -6 9 C-2.25 2.25 -2.25 2.25 0 0 Z " fill="#D8DCE2" transform="translate(394,714)"/>
<path d="M0 0 C0.33 0.66 0.66 1.32 1 2 C1.99 2.33 2.98 2.66 4 3 C0.31599416 4.23104155 -2.91474976 3.90767252 -6.75 3.5625 C-7.92046875 3.46066406 -9.0909375 3.35882812 -10.296875 3.25390625 C-11.63492187 3.12822266 -11.63492187 3.12822266 -13 3 C-13 2.67 -13 2.34 -13 2 C-8.71 2 -4.42 2 0 2 C0 1.34 0 0.68 0 0 Z " fill="#C6C9CF" transform="translate(400,596)"/>
<path d="M0 0 C-5.20333134 2.24281523 -8.34264585 3.55577239 -14 2 C-14 1.67 -14 1.34 -14 1 C-12.41913952 0.63495397 -10.83516093 0.28339494 -9.25 -0.0625 C-8.36828125 -0.25972656 -7.4865625 -0.45695313 -6.578125 -0.66015625 C-4.01320972 -0.99825872 -2.42908361 -0.81158635 0 0 Z " fill="#0A3058" transform="translate(557,583)"/>
<path d="M0 0 C3.79379058 1.49041773 5.68343758 3.69062512 8 7 C8 7.66 8 8.32 8 9 C6 9 6 9 4.4921875 7.5390625 C3.95851563 6.90742187 3.42484375 6.27578125 2.875 5.625 C2.06675781 4.68527344 2.06675781 4.68527344 1.2421875 3.7265625 C0 2 0 2 0 0 Z " fill="#87AA59" transform="translate(941,535)"/>
<path d="M0 0 C0.66 0.99 1.32 1.98 2 3 C0.35 4.98 -1.3 6.96 -3 9 C-3.66 8.01 -4.32 7.02 -5 6 C-3.35 4.02 -1.7 2.04 0 0 Z " fill="#3C8BCA" transform="translate(530,493)"/>
<path d="M0 0 C1.91015625 0.70703125 1.91015625 0.70703125 4.0625 1.8125 C4.77535156 2.16957031 5.48820313 2.52664063 6.22265625 2.89453125 C8 4 8 4 9 6 C7.53932801 5.54917531 6.08151968 5.08906463 4.625 4.625 C3.81289063 4.36976563 3.00078125 4.11453125 2.1640625 3.8515625 C0 3 0 3 -2 1 C-1.34 0.67 -0.68 0.34 0 0 Z " fill="#0B284B" transform="translate(577,331)"/>
<path d="M0 0 C4.43090471 1.20842856 6.98112756 2.51668565 10 6 C9.01 6.495 9.01 6.495 8 7 C5.875 6.0625 5.875 6.0625 4 5 C4 4.01 4 3.02 4 2 C2.68 2 1.36 2 0 2 C0 1.34 0 0.68 0 0 Z " fill="#283650" transform="translate(579,313)"/>
<path d="M0 0 C4.571279 0.54855348 8.67435795 1.41744803 13 3 C11.02 3.99 11.02 3.99 9 5 C9 4.34 9 3.68 9 3 C8.01 3.33 7.02 3.66 6 4 C5.01 3.67 4.02 3.34 3 3 C3 2.34 3 1.68 3 1 C2.01 1.33 1.02 1.66 0 2 C0 1.34 0 0.68 0 0 Z " fill="#343D56" transform="translate(956,305)"/>
<path d="M0 0 C0 0.66 0 1.32 0 2 C-6.96428571 5.34821429 -6.96428571 5.34821429 -11 4 C-9.73308493 3.32591692 -8.46129251 2.66099503 -7.1875 2 C-6.47980469 1.62875 -5.77210938 1.2575 -5.04296875 0.875 C-3 0 -3 0 0 0 Z " fill="#84AA56" transform="translate(411,918)"/>
<path d="M0 0 C-2.28176413 2.07384637 -3.44323483 2.98397191 -6.578125 3.07421875 C-7.90070313 2.88279297 -7.90070313 2.88279297 -9.25 2.6875 C-10.14203125 2.56761719 -11.0340625 2.44773437 -11.953125 2.32421875 C-12.62859375 2.21722656 -13.3040625 2.11023438 -14 2 C-14 1.67 -14 1.34 -14 1 C-9.32798795 -0.20568053 -4.78503708 -0.09382426 0 0 Z " fill="#04122E" transform="translate(451,892)"/>
<path d="M0 0 C0.33 0.66 0.66 1.32 1 2 C1.66 2.33 2.32 2.66 3 3 C1.515 5.475 1.515 5.475 0 8 C-0.99 7.67 -1.98 7.34 -3 7 C-2.01 4.69 -1.02 2.38 0 0 Z " fill="#25334F" transform="translate(383,793)"/>
<path d="M0 0 C3.68754757 0.49831724 5.60490662 1.10067643 8 4 C7.34 4.66 6.68 5.32 6 6 C3.96166576 4.7260411 1.96147874 3.38938077 0 2 C0 1.34 0 0.68 0 0 Z " fill="#142644" transform="translate(942,515)"/>
<path d="M0 0 C0.99386719 0.00902344 1.98773437 0.01804687 3.01171875 0.02734375 C4.15060547 0.04474609 4.15060547 0.04474609 5.3125 0.0625 C5.3125 0.3925 5.3125 0.7225 5.3125 1.0625 C4.24 1.206875 3.1675 1.35125 2.0625 1.5 C-1.47087031 1.93598673 -1.47087031 1.93598673 -3.9375 2.75 C-5.6875 3.0625 -5.6875 3.0625 -8.6875 1.0625 C-5.53819107 0.01273036 -3.29935544 -0.03881595 0 0 Z " fill="#05122D" transform="translate(829.6875,501.9375)"/>
<path d="M0 0 C0.99 0.33 1.98 0.66 3 1 C0.63707344 3.52588702 -0.66462511 4.88820837 -4 6 C-4.66 5.34 -5.32 4.68 -6 4 C-3.1875 1.9375 -3.1875 1.9375 0 0 Z " fill="#222F4B" transform="translate(429,711)"/>
<path d="M0 0 C2.64 0.33 5.28 0.66 8 1 C4.3558226 3.4294516 2.28758728 3.16179575 -2 3 C-1.34 2.01 -0.68 1.02 0 0 Z " fill="#E3E4E8" transform="translate(807,602)"/>
<path d="M0 0 C4.21912747 0.4794463 6.79663178 1.16625119 10 4 C7 5 7 5 5.17578125 4.22265625 C3.45052083 3.1484375 1.72526042 2.07421875 0 1 C0 0.67 0 0.34 0 0 Z " fill="#8BAE5F" transform="translate(787,574)"/>
<path d="M0 0 C-1.49097658 3.7952131 -3.75700849 5.61042731 -7 8 C-6.44414399 4.1090079 -4.34122117 0 0 0 Z " fill="#092648" transform="translate(437,357)"/>
<path d="M0 0 C0.99 0.33 1.98 0.66 3 1 C-0.465 3.97 -0.465 3.97 -4 7 C-4.66 6.67 -5.32 6.34 -6 6 C-4.02 4.02 -2.04 2.04 0 0 Z " fill="#111A33" transform="translate(424,343)"/>
<path d="M0 0 C0.66 0.33 1.32 0.66 2 1 C0.70700306 3.88437779 -0.65941363 5.87219421 -3 8 C-3.66 7.34 -4.32 6.68 -5 6 C-3.35 4.02 -1.7 2.04 0 0 Z " fill="#DCDFE4" transform="translate(570,962)"/>
<path d="M0 0 C-2.35953094 2.35953094 -3.77895617 2.49141413 -7 3 C-7.33 2.01 -7.66 1.02 -8 0 C-4.71023192 -1.09658936 -3.28696233 -0.79953138 0 0 Z " fill="#122839" transform="translate(723,774)"/>
<path d="M0 0 C0.88492145 2.47778006 1.11637742 3.66056586 0.25 6.1875 C-1 8 -1 8 -4 9 C-2.94124926 5.59687262 -1.99097846 2.98646769 0 0 Z " fill="#333F57" transform="translate(313,711)"/>
<path d="M0 0 C0.33 0.66 0.66 1.32 1 2 C-3.455 2.495 -3.455 2.495 -8 3 C-8.33 2.34 -8.66 1.68 -9 1 C-5.92677456 0.08941469 -3.19902639 -0.08886184 0 0 Z " fill="#20273F" transform="translate(821,503)"/>
<path d="M0 0 C0.33 0 0.66 0 1 0 C1.75 3.1875 1.75 3.1875 2 7 C0.0625 9.9375 0.0625 9.9375 -2 12 C-1 3.42857143 -1 3.42857143 0 0 Z " fill="#F2E6D1" transform="translate(349,416)"/>
<path d="M0 0 C0.66 0.33 1.32 0.66 2 1 C0.875 2.9375 0.875 2.9375 -1 5 C-4.1875 5.75 -4.1875 5.75 -7 6 C-4.74259377 3.66475218 -2.7194239 1.81294927 0 0 Z " fill="#202941" transform="translate(447,325)"/>
<path d="M0 0 C0.33 0.99 0.66 1.98 1 3 C-0.9375 5.6875 -0.9375 5.6875 -3 8 C-3.99 7.67 -4.98 7.34 -6 7 C-4.02 4.69 -2.04 2.38 0 0 Z " fill="#E5B55F" transform="translate(376,322)"/>
<path d="M0 0 C1.32 0.33 2.64 0.66 4 1 C3.67 1.66 3.34 2.32 3 3 C-0.96 3 -4.92 3 -9 3 C-9 2.67 -9 2.34 -9 2 C-4.545 1.505 -4.545 1.505 0 1 C0 0.67 0 0.34 0 0 Z " fill="#2B3954" transform="translate(444,994)"/>
<path d="M0 0 C0.66 0 1.32 0 2 0 C1.67 2.97 1.34 5.94 1 9 C0.34 8.67 -0.32 8.34 -1 8 C-0.67 5.36 -0.34 2.72 0 0 Z " fill="#232842" transform="translate(379,421)"/>
<path d="M0 0 C0.33 0.66 0.66 1.32 1 2 C1.66 2.33 2.32 2.66 3 3 C1.63016497 6.16115776 1.0109362 6.9927092 -2 9 C-1.41196203 5.97580475 -0.77321882 2.98241547 0 0 Z " fill="#263653" transform="translate(384,404)"/>
<path d="M0 0 C-1.98 0.99 -1.98 0.99 -4 2 C-4 2.33 -4 2.66 -4 3 C-5.65 3 -7.3 3 -9 3 C-9 2.34 -9 1.68 -9 1 C-5.57367167 -0.61798838 -3.61944899 -1.34053666 0 0 Z " fill="#3B465C" transform="translate(424,896)"/>
<path d="M0 0 C-1.98 0.33 -3.96 0.66 -6 1 C-6 1.66 -6 2.32 -6 3 C-6.99 3.33 -7.98 3.66 -9 4 C-9.66 3.34 -10.32 2.68 -11 2 C-3.57142857 -1.57142857 -3.57142857 -1.57142857 0 0 Z " fill="#424B63" transform="translate(604,702)"/>
<path d="M0 0 C1.125 1.75 1.125 1.75 2 4 C1.125 6.25 1.125 6.25 0 8 C-0.99 7.34 -1.98 6.68 -3 6 C-2.01 4.02 -1.02 2.04 0 0 Z " fill="#122741" transform="translate(754,594)"/>
<path d="M0 0 C0.99 0 1.98 0 3 0 C2.1875 2.4375 2.1875 2.4375 1 5 C0.01 5.33 -0.98 5.66 -2 6 C-1.34 4.02 -0.68 2.04 0 0 Z " fill="#DDDFE3" transform="translate(966,566)"/>
<path d="M0 0 C3.65316671 1.24976756 4.78065836 1.67098753 7 5 C3 5 3 5 1.25 3.625 C0 2 0 2 0 0 Z " fill="#101A33" transform="translate(949,519)"/>
<path d="M0 0 C0.66 0.66 1.32 1.32 2 2 C-0.97 4.475 -0.97 4.475 -4 7 C-4 4 -4 4 -2 1.8125 C-1.34 1.214375 -0.68 0.61625 0 0 Z " fill="#07264C" transform="translate(588,395)"/>
<path d="M0 0 C0.99 0.33 1.98 0.66 3 1 C2.6875 3.375 2.6875 3.375 2 6 C1.01 6.66 0.02 7.32 -1 8 C-0.67 5.36 -0.34 2.72 0 0 Z " fill="#F5F2ED" transform="translate(655,303)"/>
<path d="M0 0 C-3.63423209 2.32590854 -6.77088331 2.16265833 -11 2 C-7.72338241 -1.27661759 -4.29690696 -1.43230232 0 0 Z " fill="#F3E6CE" transform="translate(491,278)"/>
</svg>
