<?xml version="1.0" encoding="UTF-8"?>
<svg version="1.1" xmlns="http://www.w3.org/2000/svg" width="1254" height="1254">
<path d="M0 0 C413.82 0 827.64 0 1254 0 C1254 413.82 1254 827.64 1254 1254 C840.18 1254 426.36 1254 0 1254 C0 840.18 0 426.36 0 0 Z " fill="#F9F9F9" transform="translate(0,0)"/>
<path d="M0 0 C3.12606957 4.42170687 3.44034342 8.45056559 3.96484375 13.7578125 C4.13850464 15.30577515 4.13850464 15.30577515 4.31567383 16.88500977 C4.64707644 19.96550989 4.9402666 23.04677065 5.21484375 26.1328125 C5.28687012 26.93025879 5.35889648 27.72770508 5.43310547 28.54931641 C5.89604953 34.07394594 6.08627687 39.59139349 6.21484375 45.1328125 C6.24739258 46.30521484 6.27994141 47.47761719 6.31347656 48.68554688 C6.75590379 66.53458079 6.23139472 83.63022613 2.21484375 101.1328125 C2.03824219 101.92171875 1.86164062 102.710625 1.6796875 103.5234375 C-3.9980194 127.91654862 -19.85050566 151.66046053 -40.99609375 165.421875 C-41.91648437 165.98648438 -42.836875 166.55109375 -43.78515625 167.1328125 C-44.3359082 167.4844043 -44.88666016 167.83599609 -45.45410156 168.19824219 C-67.28163167 182.03059919 -91.43175872 185.40031611 -116.78515625 185.1328125 C-117.11515625 187.4428125 -117.44515625 189.7528125 -117.78515625 192.1328125 C-116.76421875 192.3803125 -116.76421875 192.3803125 -115.72265625 192.6328125 C-110.58275353 195.25744368 -106.93151374 199.47587104 -104.64331055 204.77929688 C-103.71105012 207.71179499 -102.91173556 210.64897638 -102.16015625 213.6328125 C-101.57547276 215.79070475 -100.98953486 217.94825751 -100.40234375 220.10546875 C-100.12616211 221.14590332 -99.84998047 222.18633789 -99.56542969 223.25830078 C-98.57631777 226.90216928 -97.44831659 230.47819968 -96.28515625 234.0703125 C-93.80427925 241.89524259 -91.63186259 249.79762581 -89.44580078 257.70922852 C-87.8892924 263.3058104 -86.28248768 268.8737738 -84.49926758 274.40258789 C-84.08390747 275.69217407 -84.08390747 275.69217407 -83.66015625 277.0078125 C-83.44437424 277.67298889 -83.22859222 278.33816528 -83.00627136 279.02349854 C-81.31971759 284.28471976 -79.84683798 289.5687082 -78.484375 294.921875 C-76.03747022 304.36470963 -73.31834066 313.71360205 -70.50073242 323.05175781 C-69.71504028 325.65807638 -68.93635004 328.26641998 -68.15820312 330.875 C-65.83953548 338.6094969 -63.45274903 346.26237695 -60.61010742 353.82373047 C-59.30772521 357.46916727 -58.38934566 361.18792524 -57.47265625 364.9453125 C-55.37782497 373.23865258 -52.8819282 381.36344579 -50.19604492 389.48364258 C-46.86915127 399.63996993 -43.12863858 411.17511895 -46.66015625 421.75390625 C-50.39520447 429.03970754 -56.22083783 434.09592546 -63.78515625 437.1328125 C-67.61879338 437.57992129 -71.43226734 437.54872806 -75.28842163 437.53153992 C-76.45327705 437.53818674 -77.61813247 437.54483357 -78.81828654 437.55168182 C-82.04287292 437.56708886 -85.26714809 437.56915308 -88.49175906 437.56555235 C-91.97229647 437.56492802 -95.45275683 437.58155312 -98.93325806 437.59606934 C-104.96057075 437.61885326 -110.98782565 437.63074008 -117.01517868 437.63519859 C-125.72967307 437.64166061 -134.444063 437.66459889 -143.15851529 437.69154189 C-157.2975567 437.73480971 -171.43659371 437.76477649 -185.57568359 437.78637695 C-199.30942954 437.80738666 -213.04313951 437.83466168 -226.77685547 437.87036133 C-227.62358587 437.87256015 -228.47031628 437.87475898 -229.34270518 437.87702443 C-233.59055788 437.88809408 -237.83841025 437.89928689 -242.08626246 437.91054094 C-277.31919635 438.00372598 -312.55214673 438.07532398 -347.78515625 438.1328125 C-348.23826172 439.07962891 -348.69136719 440.02644531 -349.15820312 441.00195312 C-349.7730541 442.2645097 -350.38831015 443.52686906 -351.00390625 444.7890625 C-351.30006836 445.41071289 -351.59623047 446.03236328 -351.90136719 446.67285156 C-354.88783759 452.75758537 -358.92648542 457.42243144 -363.78515625 462.1328125 C-364.63013672 462.99132812 -364.63013672 462.99132812 -365.4921875 463.8671875 C-376.4604037 474.22161058 -391.04684148 477.65671781 -405.65869141 477.55249023 C-421.49336459 477.06500426 -434.7938066 470.10683617 -445.59765625 458.6796875 C-450.74966609 452.68127604 -454.36600742 446.22438044 -457.78515625 439.1328125 C-459.39348483 437.52448392 -461.11036143 438.00658692 -463.3368082 438.00532055 C-464.821546 438.00080908 -464.821546 438.00080908 -466.3362785 437.99620646 C-467.43682896 437.99795683 -468.53737943 437.99970721 -469.67127991 438.00151062 C-470.83030223 437.99939491 -471.98932455 437.99727919 -473.18346876 437.99509937 C-476.41522322 437.99012227 -479.6469446 437.98960556 -482.87870157 437.99084008 C-486.35876499 437.99105466 -489.83881909 437.98548453 -493.31887817 437.98043823 C-499.35498612 437.97231241 -505.39108982 437.9673769 -511.42720222 437.96414757 C-520.96910003 437.95865774 -530.51096195 437.94176623 -540.05284119 437.92280579 C-543.31570905 437.91644839 -546.57857701 437.91014002 -549.84144497 437.90382862 C-550.6569832 437.90224486 -551.47252144 437.9006611 -552.31277295 437.89902934 C-561.60393915 437.88107944 -570.89510789 437.86486058 -580.1862793 437.84985352 C-581.03594052 437.84847764 -581.88560175 437.84710177 -582.76101028 437.84568421 C-596.51954202 437.8237703 -610.27806457 437.81300251 -624.03661067 437.80548277 C-638.15735721 437.79740928 -652.27802489 437.77410915 -666.3987264 437.7375291 C-675.11032241 437.71550767 -683.82175622 437.70583835 -692.53337865 437.71202943 C-698.50732913 437.71520615 -704.48114126 437.70385991 -710.45504893 437.68113502 C-713.90112418 437.6684773 -717.34689119 437.66228478 -720.79297829 437.67355156 C-724.53234797 437.6824145 -728.27084808 437.66678527 -732.01014709 437.64506531 C-733.09508251 437.65350784 -734.18001792 437.66195038 -735.29783016 437.67064875 C-742.84992765 437.58950838 -748.11471199 436.28354784 -753.9921875 431.23828125 C-759.65445429 424.47387007 -762.26234645 418.95170144 -762.17553711 410.05273438 C-761.29057611 401.16659692 -758.49879556 392.58200654 -756.09765625 384.0078125 C-755.56046568 382.04725349 -755.02464929 380.08631742 -754.49023438 378.125 C-752.76088208 371.79806303 -751.0006292 365.47989844 -749.23442841 359.16315842 C-746.15603659 348.14942611 -743.15772686 337.11729989 -740.23046875 326.0625 C-739.80753987 324.46845879 -739.38450733 322.87444509 -738.96138 321.28045654 C-738.0697952 317.92124845 -737.17874452 314.56189931 -736.28805542 311.20245361 C-734.89347195 305.94348311 -733.4959638 300.68529239 -732.09790039 295.42724609 C-726.45554733 274.20836429 -726.45554733 274.20836429 -720.84114075 252.98207664 C-719.28964589 247.09997074 -717.73162866 241.2196166 -716.17108154 235.33990479 C-715.54420348 232.97225908 -714.92000959 230.60390089 -714.29864502 228.23480225 C-713.44549488 224.98281178 -712.58320592 221.7333753 -711.71875 218.484375 C-711.47796219 217.55671326 -711.23717438 216.62905151 -710.98908997 215.67327881 C-706.7848234 200.00383005 -706.7848234 200.00383005 -700.84765625 195.1953125 C-700.19925781 194.65003906 -699.55085938 194.10476563 -698.8828125 193.54296875 C-694.84108107 190.82590162 -691.33066647 189.88081823 -686.484375 189.9375 C-685.50791016 189.94394531 -684.53144531 189.95039062 -683.52539062 189.95703125 C-682.01428711 189.98216797 -682.01428711 189.98216797 -680.47265625 190.0078125 C-679.44591797 190.01683594 -678.41917969 190.02585937 -677.36132812 190.03515625 C-674.83569726 190.05865049 -672.31054815 190.09150119 -669.78515625 190.1328125 C-669.73617187 189.46894531 -669.6871875 188.80507813 -669.63671875 188.12109375 C-668.8156131 178.42355292 -668.8156131 178.42355292 -666.78515625 175.1328125 C-664.5078125 173.76953125 -664.5078125 173.76953125 -661.84765625 172.8203125 C-660.97238281 172.49417969 -660.09710937 172.16804687 -659.1953125 171.83203125 C-656.78515625 171.1328125 -656.78515625 171.1328125 -653.78515625 171.1328125 C-651.11268586 176.47775329 -654.00700781 184.35037655 -655.39453125 189.80859375 C-655.5655687 190.48337265 -655.73660614 191.15815155 -655.91282654 191.8533783 C-657.62350748 198.56994458 -659.38146693 205.27441985 -661.1328125 211.98046875 C-661.4328569 213.12944641 -661.73290131 214.27842407 -662.04203796 215.46221924 C-664.56990472 225.13822833 -664.56990472 225.13822833 -665.79711914 229.80883789 C-670.47287127 247.47616766 -670.47287127 247.47616766 -674.23242188 265.35302734 C-674.8798271 268.60892659 -675.84672576 271.64666428 -676.96484375 274.765625 C-679.35577506 281.66516964 -681.42230533 288.75658007 -682.72265625 295.9453125 C-683.55144001 300.44128102 -684.83057898 304.76483555 -686.16015625 309.1328125 C-687.94358855 315.00890995 -689.45707436 320.8742928 -690.72265625 326.8828125 C-692.33392996 334.49928833 -694.37599414 341.93951599 -696.56079102 349.40991211 C-698.85259192 357.2674105 -700.87184405 365.17568471 -702.78515625 373.1328125 C-702.11943604 372.88394287 -701.45371582 372.63507324 -700.76782227 372.37866211 C-685.66488516 366.80009976 -670.27972761 362.39930629 -654.47265625 359.3203125 C-652.99236938 359.02846069 -652.99236938 359.02846069 -651.48217773 358.73071289 C-634.22887977 355.5369067 -617.11793957 354.78407691 -599.59887695 354.81713867 C-596.11963331 354.82029258 -592.64124844 354.79676133 -589.16210938 354.77148438 C-568.91154661 354.71249729 -549.21661982 356.56592957 -529.53515625 361.4453125 C-528.27646729 361.74872559 -527.01777832 362.05213867 -525.72094727 362.36474609 C-505.51226181 367.31333778 -486.3825998 373.44694641 -467.88525391 383.04589844 C-465.76802653 384.14167805 -463.64236241 385.21969002 -461.515625 386.296875 C-447.2945885 393.57478519 -434.40326916 402.35772364 -421.78515625 412.1328125 C-420.80675781 412.88175781 -419.82835937 413.63070313 -418.8203125 414.40234375 C-417.90121094 415.11777344 -416.98210937 415.83320312 -416.03515625 416.5703125 C-415.2153125 417.20839844 -414.39546875 417.84648438 -413.55078125 418.50390625 C-412.968125 419.04144531 -412.38546875 419.57898438 -411.78515625 420.1328125 C-411.78515625 420.7928125 -411.78515625 421.4528125 -411.78515625 422.1328125 C-411.12515625 422.1328125 -410.46515625 422.1328125 -409.78515625 422.1328125 C-409.63537032 394.27296451 -409.55422565 366.413646 -409.55456161 338.55337715 C-409.55312117 325.61696521 -409.52930873 312.68132004 -409.45263672 299.74511719 C-409.38585767 288.46845751 -409.36125074 277.19262466 -409.38706136 265.91578281 C-409.39925905 259.94561638 -409.39049162 253.9771565 -409.33119965 248.00723648 C-409.2760175 242.38397978 -409.27736835 236.76352702 -409.32146263 231.14019966 C-409.32776367 229.08028379 -409.31367815 227.02018536 -409.27731514 224.96058083 C-408.68725412 213.57098089 -408.68725412 213.57098089 -413.41953278 203.72512436 C-416.28464796 201.1038417 -419.4367827 199.09663538 -422.78515625 197.1328125 C-424.06604676 196.20552139 -425.34100399 195.26987987 -426.60546875 194.3203125 C-443.56531058 183.09393966 -461.53611642 173.27280852 -480.55859375 165.98828125 C-482.05367892 165.41385379 -483.53837989 164.81170137 -485.01171875 164.18359375 C-495.22958173 159.86065172 -506.19471178 156.5475063 -517.12866211 154.62963867 C-520.15480085 154.06368037 -523.14829574 153.38825518 -526.15234375 152.71484375 C-557.64724187 145.95731772 -589.63477868 145.32024315 -621.53662109 149.49267578 C-622.43719238 149.60208496 -623.33776367 149.71149414 -624.265625 149.82421875 C-625.08313232 149.93064697 -625.90063965 150.0370752 -626.74291992 150.14672852 C-628.78515625 150.1328125 -628.78515625 150.1328125 -630.78515625 148.1328125 C-631.58608423 141.15329722 -631.58608423 141.15329722 -628.80444336 137.60913086 C-624.89032319 134.39890034 -621.84447515 133.93925249 -616.91796875 133.34375 C-616.04343048 133.22663666 -615.16889221 133.10952332 -614.26785278 132.98886108 C-603.75392528 131.70459582 -593.23672833 131.67334466 -582.66015625 131.7578125 C-581.11627228 131.76429306 -581.11627228 131.76429306 -579.54119873 131.77090454 C-563.77749625 131.84835582 -548.34671539 132.41892278 -532.78515625 135.1328125 C-531.73827637 135.30973633 -530.69139648 135.48666016 -529.61279297 135.66894531 C-516.37311825 137.95894432 -503.59608357 141.05004789 -490.89160156 145.41845703 C-488.87239049 146.10322889 -486.845194 146.74799738 -484.80859375 147.37890625 C-476.41487605 150.02909662 -468.57606489 153.31058599 -460.69873047 157.19140625 C-458.76575318 158.14235808 -456.82492269 159.07567697 -454.8828125 160.0078125 C-437.43375463 168.46097865 -418.60283725 178.3151315 -404.78515625 192.1328125 C-401.45210095 191.78191886 -399.37527483 190.30129279 -396.765625 188.2890625 C-395.99863281 187.70672852 -395.23164062 187.12439453 -394.44140625 186.52441406 C-393.62671875 185.90018555 -392.81203125 185.27595703 -391.97265625 184.6328125 C-383.84894534 178.54002932 -375.65394298 173.06535236 -366.78515625 168.1328125 C-366.10646484 167.74706055 -365.42777344 167.36130859 -364.72851562 166.96386719 C-345.07992715 155.85231329 -324.08600598 147.37734111 -302.22753906 141.76806641 C-299.7864746 141.1331554 -297.36023977 140.45732607 -294.93359375 139.76953125 C-283.99686431 136.70836016 -273.05230456 134.56034685 -261.78515625 133.1328125 C-261.08358398 133.03709961 -260.38201172 132.94138672 -259.65917969 132.84277344 C-250.86629746 131.78671914 -242.00309242 131.88994441 -233.16015625 131.8828125 C-231.86208038 131.88130188 -231.86208038 131.88130188 -230.53778076 131.87976074 C-175.39025208 131.92308066 -175.39025208 131.92308066 -161.8359375 145.015625 C-158.7629556 149.68655748 -157.39935512 154.7473742 -155.78515625 160.0703125 C-155.43775391 161.18809082 -155.09035156 162.30586914 -154.73242188 163.45751953 C-153.73641222 166.67866708 -152.75718641 169.90435825 -151.78515625 173.1328125 C-151.53636719 173.95378418 -151.28757812 174.77475586 -151.03125 175.62060547 C-147.78515625 186.39151385 -147.78515625 186.39151385 -147.78515625 190.1328125 C-142.83515625 190.1328125 -137.88515625 190.1328125 -132.78515625 190.1328125 C-132.43453125 188.8128125 -132.08390625 187.4928125 -131.72265625 186.1328125 C-131.52542969 185.3903125 -131.32820312 184.6478125 -131.125 183.8828125 C-130.32139218 177.38005495 -131.95809311 172.0999752 -134.53515625 166.1953125 C-136.88332257 160.61208507 -138.88087841 155.00451406 -140.59765625 149.1953125 C-140.80422852 148.51025635 -141.01080078 147.8252002 -141.22363281 147.11938477 C-146.49832641 128.83747404 -146.31764185 104.07054983 -139.78515625 86.1328125 C-139.39972656 84.99457031 -139.01429688 83.85632813 -138.6171875 82.68359375 C-127.46470258 51.60822316 -102.94144008 30.02206116 -73.83203125 16.01953125 C-72.48344079 15.38983655 -71.13444989 14.76099904 -69.78515625 14.1328125 C-68.96490967 13.73803711 -68.14466309 13.34326172 -67.29956055 12.93652344 C-60.39240344 9.67832463 -53.40420655 7.21258087 -46.09765625 5.0078125 C-44.9571582 4.66234375 -43.81666016 4.316875 -42.64160156 3.9609375 C-8.99574142 -6.03080561 -8.99574142 -6.03080561 0 0 Z " fill="#12345F" transform="translate(988.78515625,547.8671875)"/>
<path d="M0 0 C1.45359421 -0.00939606 1.45359421 -0.00939606 2.93655396 -0.01898193 C42.65609196 -0.18132738 42.65609196 -0.18132738 56.5625 7.4375 C59.02877183 12.46284521 60.65489641 17.66852363 62.234375 23.02734375 C62.5991671 24.24690514 62.5991671 24.24690514 62.97132874 25.49110413 C63.75583355 28.11786339 64.53430754 30.74636447 65.3125 33.375 C65.85477874 35.19604787 66.39734219 37.01701098 66.94018555 38.83789062 C70.59323025 51.10607872 74.20649364 63.38579285 77.76367188 75.68212891 C78.61429276 78.61614703 79.47052938 81.54848198 80.328125 84.48046875 C82.80473298 92.94871828 85.27962375 101.41654017 87.67749023 109.9074707 C90.72311237 120.68174545 93.95990545 131.39448821 97.22265625 142.10446167 C100.56885966 153.09306129 103.79587429 164.10946958 106.91552734 175.16455078 C107.98126656 178.90871383 109.08382325 182.64187657 110.1875 186.375 C112.35457882 193.71747256 114.49188716 201.06710428 116.5625 208.4375 C116.75263672 209.10152832 116.94277344 209.76555664 117.13867188 210.44970703 C117.72599963 212.50583558 118.30165403 214.56493434 118.875 216.625 C119.22175781 217.85605469 119.56851562 219.08710937 119.92578125 220.35546875 C120.5625 223.4375 120.5625 223.4375 119.5625 226.4375 C118.5415625 226.07398438 117.520625 225.71046875 116.46875 225.3359375 C89.19381178 215.82261283 60.43491345 209.39921386 31.46875 209.19921875 C29.75129578 209.18711113 29.75129578 209.18711113 27.99914551 209.17475891 C25.5787097 209.16098917 23.15825505 209.15023556 20.73779297 209.14233398 C18.31618359 209.13091282 15.89459735 209.11062166 13.47314453 209.08081055 C-3.88868586 208.86786224 -20.3726841 210.22780184 -37.4375 213.4375 C-38.45564789 213.62728928 -39.47379578 213.81707855 -40.52279663 214.01261902 C-84.63771364 222.33224681 -125.40964521 241.81833778 -159.3671875 271.1015625 C-163.26222067 274.4375 -163.26222067 274.4375 -165.4375 274.4375 C-165.67116029 246.69101408 -165.84747261 218.94467572 -165.95562172 191.19740391 C-166.00717342 178.31364098 -166.07744895 165.43048955 -166.19189453 152.54711914 C-166.29160464 141.31719155 -166.3560911 130.08770682 -166.37838495 118.85734886 C-166.39141606 112.91134085 -166.42201187 106.96659971 -166.49480057 101.020998 C-166.56278939 95.42198727 -166.58359415 89.82476237 -166.56857681 84.22537804 C-166.57132307 82.17304902 -166.59115246 80.12065898 -166.62955475 78.06868744 C-166.90506822 62.58466922 -166.90506822 62.58466922 -163.27775192 57.2776165 C-160.77171088 54.9814696 -158.33378834 53.20197555 -155.4375 51.4375 C-154.07406225 50.39877669 -152.71787286 49.3503328 -151.375 48.28515625 C-150.06939406 47.34710035 -148.75672523 46.41880385 -147.4375 45.5 C-146.71530273 44.99549316 -145.99310547 44.49098633 -145.24902344 43.97119141 C-137.29992711 38.51925621 -129.00057433 33.84765947 -120.4375 29.4375 C-119.63892578 29.02258301 -118.84035156 28.60766602 -118.01757812 28.18017578 C-96.70767929 17.22621395 -73.83665026 9.52103399 -50.4375 4.4375 C-49.48584961 4.22722168 -48.53419922 4.01694336 -47.55371094 3.80029297 C-31.75766108 0.48296491 -16.07820954 0.04873896 0 0 Z " fill="#FCFCFC" transform="translate(758.4375,694.5625)"/>
<path d="M0 0 C1.17046875 0.02707031 2.3409375 0.05414062 3.546875 0.08203125 C4.43890625 0.11683594 5.3309375 0.15164063 6.25 0.1875 C5.56178484 6.61687843 3.80219845 12.61563327 2 18.8125 C-1.47838529 30.996211 -4.47838357 43.2464066 -7.30029297 55.59570312 C-10.65616546 70.25828449 -10.65616546 70.25828449 -12.98046875 76.80859375 C-14.2071056 80.6005828 -15.11176803 84.47031052 -16.05859375 88.34008789 C-17.78467914 95.38531793 -19.62115649 102.40012088 -21.46801758 109.41455078 C-22.88603043 114.81810841 -24.26333984 120.23044151 -25.609375 125.65234375 C-27.13469779 131.79279911 -28.71868866 137.91624338 -30.328125 144.03515625 C-30.9940503 146.58082712 -31.65924179 149.12668868 -32.32421875 151.67260742 C-32.77915388 153.40770504 -33.2368901 155.14207037 -33.69726562 156.87573242 C-34.3738201 159.42686689 -35.03943067 161.98065032 -35.703125 164.53515625 C-35.90931458 165.30191177 -36.11550415 166.0686673 -36.32794189 166.85865784 C-37.76688772 172.45656562 -38.95428136 177.72657722 -36.3125 183.125 C-33.2356139 185.60151808 -31.23760315 185.58165195 -27.36987305 185.48803711 C-22.4719371 184.92617343 -17.98658551 183.1767026 -13.375 181.5 C5.91626252 174.78864324 25.15580289 170.39985763 45.375 167.5625 C46.24487549 167.4392334 47.11475098 167.3159668 48.01098633 167.18896484 C60.45721381 165.51308767 72.88724225 164.99214086 85.4375 165 C86.11120636 164.99993958 86.78491272 164.99987915 87.47903442 164.99981689 C97.83160915 165.01296729 107.98530386 165.5014776 118.24121094 166.92285156 C120.1686154 167.17677797 122.10406774 167.36717254 124.0390625 167.5546875 C141.6447998 169.34077679 158.91338608 173.93131278 175.75 179.25 C177.26098267 179.72397217 177.26098267 179.72397217 178.80249023 180.20751953 C184.3779768 182.02882959 189.54752961 184.19193946 194.74853516 186.8996582 C197.33199185 188.22971228 199.94689883 189.4529939 202.58984375 190.66015625 C225.56972972 201.24509042 245.00771724 214.64473067 263.9375 231.3046875 C265.04119221 232.2661699 266.14532045 233.22715215 267.25 234.1875 C268.12785156 234.95449219 269.00570313 235.72148438 269.91015625 236.51171875 C273.53560985 239.10824562 276.86669434 239.36656933 281.25 239.1875 C286.06415044 237.64697186 288.8186523 234.75219443 292.22265625 231.19921875 C296.26828813 227.18476708 300.79087826 223.72685512 305.25 220.1875 C306.70019531 219.011875 306.70019531 219.011875 308.1796875 217.8125 C331.71511072 199.1278892 358.44176011 185.72122201 387.08642578 176.86230469 C389.12728392 176.22577434 391.15458157 175.5559252 393.18359375 174.8828125 C403.40307996 171.64203176 413.85715058 169.99819027 424.4375 168.4375 C425.15639404 168.33049774 425.87528809 168.22349548 426.6159668 168.11325073 C457.15861454 163.62201798 488.58544522 163.58629824 518.91210938 169.71923828 C521.55743802 170.2490775 524.20818587 170.74643285 526.859375 171.24609375 C542.18402204 174.20946454 557.07764951 178.21527652 571.63671875 183.8828125 C576.50670546 185.64127257 580.3412061 185.82376463 585.25 184.1875 C587.98178032 180.08982952 587.69024118 176.99606979 587.25 172.1875 C586.60473977 168.97083989 585.6692701 165.87838316 584.6875 162.75 C584.1227801 160.86915467 583.56037777 158.98761233 583 157.10546875 C582.70738281 156.12884277 582.41476562 155.1522168 582.11328125 154.14599609 C580.99696611 150.3203437 579.98975901 146.47058398 578.98461914 142.61450195 C574.33350376 124.80635698 568.8736591 107.24294878 563.51097107 89.6396637 C560.59861235 80.06833468 557.79193073 70.4677425 555.01953125 60.85498047 C553.64458587 56.08891027 552.26065429 51.32546614 550.875 46.5625 C550.59599854 45.60093994 550.31699707 44.63937988 550.02954102 43.64868164 C548.3268988 37.8034693 546.58305321 31.97214432 544.80859375 26.1484375 C544.39041498 24.77166149 543.97228333 23.39487117 543.55419922 22.01806641 C542.74037559 19.33872212 541.91925195 16.66175665 541.09423828 13.98583984 C540.72411621 12.76848145 540.35399414 11.55112305 539.97265625 10.296875 C539.64015869 9.21374023 539.30766113 8.13060547 538.96508789 7.01464844 C538.25 4.1875 538.25 4.1875 538.25 0.1875 C540.97977064 0.10623891 543.7071017 0.04688337 546.4375 0 C547.20642578 -0.02513672 547.97535156 -0.05027344 548.76757812 -0.07617188 C553.40021937 -0.13581962 556.60401754 0.00809665 560.25 3.1875 C563.50770636 8.23421057 564.70345929 14.05599957 566.1875 19.8125 C567.98990593 26.6185752 569.88526659 33.3193422 572.1953125 39.97265625 C573.62921373 44.34339964 574.87408374 48.76142638 576.125 53.1875 C578.81903106 62.71865534 581.62972731 72.209694 584.49560547 81.69042969 C586.7599762 89.1855701 589.0076296 96.68575176 591.25 104.1875 C591.45979492 104.88875 591.66958984 105.59 591.88574219 106.3125 C594.62692455 115.49391597 597.24187097 124.70688283 599.8125 133.9375 C602.66578996 144.16852859 605.67940185 154.3212151 608.94140625 164.4296875 C614.70843406 182.34606236 614.70843406 182.34606236 616.62890625 190.66015625 C617.27369651 193.28392541 618.09036055 195.81015844 618.9375 198.375 C620.33406651 202.99555517 621.13068566 207.38634267 620.25 212.1875 C618.45606332 215.05779869 617.26736724 216.67881638 614.25 218.1875 C612.6922124 218.28237721 611.13038752 218.31410499 609.56971359 218.31499195 C608.08013913 218.31950342 608.08013913 218.31950342 606.56047225 218.32410604 C604.91196946 218.32148048 604.91196946 218.32148048 603.23016357 218.31880188 C602.0688757 218.32091759 600.90758782 218.32303331 599.7111094 218.32521313 C596.47775304 218.33018461 593.24442981 218.330708 590.01107097 218.32947242 C586.52765504 218.32925762 583.04424839 218.33482999 579.56083679 218.33987427 C573.52092242 218.34799531 567.48101227 218.35293389 561.44109344 218.35616493 C551.89546425 218.36165646 542.34987089 218.37854898 532.80426025 218.39750671 C529.5399285 218.40386382 526.27559665 218.41017221 523.0112648 218.41648388 C522.19541178 218.41806764 521.37955875 218.4196514 520.53898291 218.42128316 C511.24718259 218.43922808 501.95537973 218.45545019 492.66357422 218.47045898 C491.81395387 218.47183486 490.96433353 218.47321073 490.08896711 218.47462829 C476.3226813 218.4965552 462.55640467 218.50731346 448.79010448 218.51482973 C434.66255584 218.5228989 420.53508611 218.54618349 406.40758252 218.5827834 C397.69054015 218.60481952 388.97366 218.61446967 380.25659117 218.60828307 C374.28219742 218.60511006 368.30794224 218.61642805 362.33359137 218.63917748 C358.8857316 218.65185376 355.43818051 218.65800523 351.99030876 218.64676094 C348.25248068 218.63791987 344.51552779 218.65349129 340.777771 218.67524719 C339.68769202 218.66680466 338.59761304 218.65836212 337.47450137 218.64966375 C329.9444561 218.73093796 326.49082739 219.94667261 321.125 225.3125 C319.4374991 227.90000139 318.53480005 230.00005551 317.5 232.875 C313.4336499 243.42553 306.12907866 250.03319809 296.25 255.1875 C295.56679688 255.5484375 294.88359375 255.909375 294.1796875 256.28125 C285.22813922 260.07249398 272.35332787 259.63350722 263.25 256.625 C249.63937089 250.65469336 242.28670138 241.68075163 236.8046875 228.10546875 C234.15993812 223.14157984 230.45228653 220.96704773 225.25 219.1875 C222.78510598 218.89412962 222.78510598 218.89412962 220.20057011 218.93975353 C218.70203592 218.93318054 218.70203592 218.93318054 217.17322832 218.92647475 C216.08296498 218.93182008 214.99270165 218.93716542 213.86940002 218.94267273 C212.70554887 218.94040816 211.54169772 218.93814358 210.34257835 218.93581039 C207.11595557 218.93142986 203.88948498 218.9359483 200.6628741 218.944121 C197.18155571 218.95071339 193.70025291 218.94570048 190.21893311 218.94189453 C184.18724552 218.93667302 178.15559007 218.9381647 172.12390327 218.94367027 C162.59062703 218.95188463 153.05742005 218.94065451 143.52415466 218.9264679 C140.26205174 218.92186692 136.99994863 218.91741656 133.73784542 218.91302967 C132.92264885 218.91193153 132.10745228 218.91083339 131.26755278 218.90970197 C121.99078985 218.89753076 112.71402469 218.88997649 103.43725586 218.8840332 C102.58933202 218.88348514 101.74140818 218.88293708 100.86778968 218.88237242 C87.12108595 218.87390965 73.3744018 218.87725318 59.62769795 218.88318755 C45.51361285 218.88880303 31.39962645 218.87528156 17.28557152 218.84563476 C8.57979577 218.82808538 -0.12569484 218.82646992 -8.8314693 218.84527991 C-14.79603483 218.85687686 -20.76040775 218.8504526 -26.72494822 218.8298107 C-30.16682648 218.81847988 -33.6082086 218.81533794 -37.05006599 218.83398628 C-40.78131337 218.85002339 -44.51122968 218.83551189 -48.24241638 218.8132782 C-49.330449 218.8253157 -50.41848162 218.83735319 -51.53948492 218.84975547 C-59.71016344 218.75019271 -59.71016344 218.75019271 -63.42481804 215.78403091 C-65.82904987 213.099225 -66.52504949 212.28701203 -66.34643555 208.77368164 C-65.9114242 201.93279901 -64.01869352 195.3894958 -62.20703125 188.80859375 C-61.83683526 187.42899198 -61.46769052 186.04910774 -61.09953308 184.66896057 C-60.13112017 181.05082736 -59.14753642 177.4369878 -58.16088867 173.8237915 C-57.36981584 170.91697807 -56.58947056 168.00733957 -55.80969429 165.09747887 C-52.457052 152.58693459 -49.07968045 140.08714956 -45.35508728 127.68121338 C-43.89886726 122.79643415 -42.63697576 117.87832972 -41.42738342 112.9274292 C-38.90319443 102.64613163 -36.11142792 92.43300807 -33.36914062 82.20825195 C-32.38183823 78.52550734 -31.39782188 74.84189554 -30.4140625 71.15820312 C-27.27359804 59.42382321 -24.06737252 47.71593654 -20.69233704 36.04682922 C-18.6970131 29.10640121 -17.01820966 22.12543204 -15.49804688 15.06640625 C-14.27034584 9.62764875 -12.98300841 5.46497097 -8.984375 1.38671875 C-5.89526396 -0.27124819 -3.48027763 -0.10440833 0 0 Z " fill="#458FD3" transform="translate(307.75,751.8125)"/>
<path d="M0 0 C0.93983734 0.00899826 1.87967468 0.01799652 2.84799194 0.02726746 C4.85603168 0.04791571 6.86402657 0.07341579 8.87194824 0.10342407 C11.99698905 0.14873366 15.12180288 0.17729041 18.24707031 0.2019043 C23.61165124 0.24782988 28.97531786 0.3224172 34.33935547 0.41088867 C36.53198447 0.44452802 38.72470826 0.47243192 40.91748047 0.49487305 C63.13598759 0.72628164 63.13598759 0.72628164 71.84228516 3.52856445 C76.58936304 4.90729137 80.59072775 3.33524945 84.9765625 1.5859375 C88.79341155 0.09463478 91.84597378 -0.39711195 95.9765625 0.1484375 C99.20274983 2.227536 100.8434927 3.94883279 102.9765625 7.1484375 C103.18178431 11.45809558 103.1381489 14.99460455 101.9765625 19.1484375 C102.51023437 19.56351563 103.04390625 19.97859375 103.59375 20.40625 C118.19157319 32.47849825 126.4210158 49.01969781 130.9765625 67.1484375 C131.1523584 67.74994629 131.3281543 68.35145508 131.50927734 68.97119141 C132.56263533 73.87915718 132.24808901 79.02467139 132.2890625 84.0234375 C132.31806641 85.19519531 132.34707031 86.36695313 132.37695312 87.57421875 C132.45677832 98.3936025 132.45677832 98.3936025 127.9765625 103.1484375 C124.65861083 106.31990124 120.55733416 107.6135361 116.2890625 109.0859375 C115.54374268 109.34608643 114.79842285 109.60623535 114.03051758 109.87426758 C107.40425968 112.12287183 100.70519885 113.78635639 93.875 115.28125 C90.64143959 116.00053899 87.4787488 116.82440578 84.2890625 117.7109375 C75.03912554 120.05220785 65.44500448 121.07649126 55.9765625 122.1484375 C55.11740234 122.24632568 54.25824219 122.34421387 53.37304688 122.44506836 C43.10417351 123.45603638 32.78575572 123.43501071 22.4765625 123.4609375 C20.9820607 123.46486511 20.9820607 123.46486511 19.45736694 123.46887207 C2.92315005 123.47351563 -12.77153659 122.35153523 -29.0234375 119.1484375 C-30.59233984 118.86788453 -32.16134188 118.58788818 -33.73046875 118.30859375 C-42.61281133 116.61998459 -51.24395746 113.98841906 -59.86962891 111.30331421 C-61.73017474 110.72439886 -63.59357724 110.15468986 -65.45703125 109.58520508 C-78.3222813 105.45316193 -78.3222813 105.45316193 -82.37890625 98.98828125 C-83.38175686 94.56966069 -83.36154817 90.22835374 -83.3359375 85.7109375 C-83.33247314 84.73044434 -83.32900879 83.74995117 -83.32543945 82.73974609 C-83.1649809 71.95444925 -81.21393429 62.1258108 -77.0234375 52.1484375 C-77.6834375 52.1484375 -78.3434375 52.1484375 -79.0234375 52.1484375 C-82.50843781 48.15093715 -83.93845525 44.75860914 -83.6484375 39.40234375 C-82.61539625 35.67693875 -80.55709535 33.76179515 -77.5625 31.41796875 C-74.56103583 29.91723666 -72.48684762 29.84887707 -69.1484375 29.8359375 C-63.72046268 29.70637529 -61.63506749 28.44219883 -57.8984375 24.5234375 C-57.08632813 23.61722656 -56.27421875 22.71101562 -55.4375 21.77734375 C-41.99371132 7.13710138 -19.47049336 -0.36236645 0 0 Z " fill="#458FD4" transform="translate(565.0234375,555.8515625)"/>
<path d="M0 0 C4.72402885 39.61818519 8.75417732 88.0147483 -17.40576172 121.81640625 C-20.72487399 125.75819049 -24.3047549 129.41270292 -28 133 C-28.68964844 133.68707031 -29.37929688 134.37414062 -30.08984375 135.08203125 C-46.58258239 150.52871881 -72.36286511 159.60436476 -94.875 159.3125 C-96.91786354 159.23528594 -98.96068129 159.1429429 -101 159 C-97.47857777 129.94826659 -74.98356667 97.39643122 -56 76 C-55.21753906 75.10925781 -54.43507813 74.21851563 -53.62890625 73.30078125 C-47.42671743 66.32459185 -47.42671743 66.32459185 -43.875 63.3125 C-41.57495645 61.00142866 -41.57495645 61.00142866 -42.1875 57.1875 C-42.455625 56.135625 -42.72375 55.08375 -43 54 C-45.68918972 53.15962821 -47.25072113 52.7329272 -50 53 C-53.14840628 54.83711129 -55.49744062 57.37436393 -58 60 C-59.10794922 61.11375 -59.10794922 61.11375 -60.23828125 62.25 C-83.70134517 86.82669543 -98.27576015 117.36614118 -112 148 C-114.82591855 145.17408145 -115.42918715 141.81034497 -116.5 138.0625 C-116.81904297 136.99805664 -116.81904297 136.99805664 -117.14453125 135.91210938 C-124.88564883 109.29311302 -122.06300714 83.2986671 -108.875 59 C-104.76945244 52.16040875 -99.53730376 46.67843444 -94 41 C-93.43925781 40.36578125 -92.87851562 39.7315625 -92.30078125 39.078125 C-71.71557243 16.38576882 -30.16243458 -0.44086384 0 0 Z " fill="#83B04E" transform="translate(979,560)"/>
<path d="M0 0 C0.33 0 0.66 0 1 0 C1 70.95 1 141.9 1 215 C0.34 215 -0.32 215 -1 215 C-1 214.34 -1 213.68 -1 213 C-1.55042969 212.7628125 -2.10085938 212.525625 -2.66796875 212.28125 C-5.57311543 210.68512251 -7.81615861 208.68214075 -10.3125 206.5 C-17.13449155 200.68427078 -24.44024033 195.79742701 -32 191 C-32.58056152 190.62520508 -33.16112305 190.25041016 -33.75927734 189.86425781 C-45.27758225 182.45986663 -57.58307545 176.72546744 -70 171 C-70.96204346 170.55325928 -71.92408691 170.10651855 -72.9152832 169.64624023 C-91.14702223 161.24769776 -110.78206845 156.80391228 -130.375 152.75 C-131.08487061 152.59909912 -131.79474121 152.44819824 -132.52612305 152.29272461 C-148.61649083 149.10126156 -164.70113161 148.65351762 -181.0559082 148.68432617 C-184.53303815 148.68747333 -188.0093033 148.66397988 -191.48632812 148.63867188 C-211.7298997 148.58040888 -231.66427403 150.36039046 -251.4375 154.8125 C-253.18123901 155.19390137 -253.18123901 155.19390137 -254.96020508 155.58300781 C-263.22722317 157.45003095 -271.21298077 159.79168577 -279.16796875 162.703125 C-283.35575812 164.20830147 -287.64342913 165.12353755 -292 166 C-289.68298207 150.67389183 -285.24286871 135.87794418 -281 121 C-280.34 121.33 -279.68 121.66 -279 122 C-276.66080249 121.35285281 -276.66080249 121.35285281 -274.01171875 120.26953125 C-273.00181885 119.88047607 -271.99191895 119.4914209 -270.95141602 119.09057617 C-269.33577759 118.45792847 -269.33577759 118.45792847 -267.6875 117.8125 C-259.19246597 114.5615914 -250.79250922 111.3595088 -242 109 C-240.16308594 108.49726562 -240.16308594 108.49726562 -238.2890625 107.984375 C-196.85576977 97.14611492 -151.47129179 99.73958729 -111 113 C-110.14905762 113.27714844 -109.29811523 113.55429687 -108.42138672 113.83984375 C-84.72000075 121.7167504 -63.28019914 133.47270235 -43.25 148.3125 C-42.61860107 148.77962402 -41.98720215 149.24674805 -41.33666992 149.72802734 C-37.43241274 152.6979637 -33.96967832 155.92618268 -30.54492188 159.43579102 C-28.82461746 161.17757205 -27.01334423 162.75566509 -25.125 164.3125 C-15.98985326 172.21554602 -5.50040517 182.74898708 -1 194 C-0.67 129.98 -0.34 65.96 0 0 Z " fill="#CDE2F4" transform="translate(578,755)"/>
<path d="M0 0 C0.33 0 0.66 0 1 0 C1.33 63.03 1.66 126.06 2 191 C5.3 187.04 8.6 183.08 12 179 C23.99194797 165.00724263 36.79195741 152.4530319 52 142 C52.55655273 141.60941406 53.11310547 141.21882812 53.68652344 140.81640625 C79.05613775 123.11738745 107.85892547 111.94197381 137.875 105.25 C138.81384033 105.03899658 139.75268066 104.82799316 140.7199707 104.6105957 C152.8038867 102.0171564 164.73283416 101.81355754 177.04077148 101.81469727 C179.66471796 101.81251891 182.2882373 101.79432756 184.91210938 101.77539062 C199.75412238 101.72388895 213.85308802 103.12711253 228.3125 106.6875 C229.37500977 106.94587646 230.43751953 107.20425293 231.53222656 107.47045898 C240.58537717 109.7486948 249.25830493 112.71672959 257.92236328 116.17285156 C259.9613648 116.98461856 262.00762706 117.7737019 264.05859375 118.5546875 C267.04351788 119.69210746 270.02362754 120.84044376 273 122 C273.33 121.34 273.66 120.68 274 120 C275.75 126.125 275.75 126.125 276.296875 128.04125977 C277.19912174 131.20186455 278.10432308 134.36151958 279.015625 137.51953125 C280.02091594 141.01012481 281.01258122 144.50431052 282 148 C282.19158691 148.66837891 282.38317383 149.33675781 282.58056641 150.02539062 C283.16656098 152.07709272 283.7407368 154.13179216 284.3125 156.1875 C284.65925781 157.41855469 285.00601562 158.64960937 285.36328125 159.91796875 C286 163 286 163 285 166 C283.9790625 165.63648438 282.958125 165.27296875 281.90625 164.8984375 C254.63131178 155.38511283 225.87241345 148.96171386 196.90625 148.76171875 C195.18879578 148.74961113 195.18879578 148.74961113 193.43664551 148.73725891 C191.0162097 148.72348917 188.59575505 148.71273556 186.17529297 148.70483398 C183.75368359 148.69341282 181.33209735 148.67312166 178.91064453 148.64331055 C161.54881414 148.43036224 145.0648159 149.79030184 128 153 C126.98185211 153.18978928 125.96370422 153.37957855 124.91470337 153.57511902 C80.79978636 161.89474681 40.02785479 181.38083778 6.0703125 210.6640625 C2.17527933 214 2.17527933 214 0 214 C0 143.38 0 72.76 0 0 Z " fill="#CDE2F4" transform="translate(593,755)"/>
<path d="M0 0 C10.82325011 9.21196927 18.7942377 21.75186267 21.22265625 35.8984375 C21.48951958 39.40391002 21.50290718 42.88428775 21.47265625 46.3984375 C21.48425781 47.74615234 21.48425781 47.74615234 21.49609375 49.12109375 C21.45178401 64.34149059 15.28017981 77.60906221 5.22265625 88.8984375 C-1.05002188 94.94218577 -7.69857134 99.633317 -15.77734375 102.8984375 C-17.18693359 103.48625 -17.18693359 103.48625 -18.625 104.0859375 C-32.35378822 109.08453549 -47.34310915 108.47143042 -60.77734375 102.8984375 C-61.63328125 102.57101562 -62.48921875 102.24359375 -63.37109375 101.90625 C-76.06278249 96.40384064 -86.18533187 84.59045999 -92.52734375 72.5859375 C-92.93984375 71.3690625 -93.35234375 70.1521875 -93.77734375 68.8984375 C-94.12667969 67.939375 -94.47601562 66.9803125 -94.8359375 65.9921875 C-100.30084641 49.50291217 -98.87462627 33.92192975 -91.21484375 18.3359375 C-82.86530497 3.92930258 -70.30597174 -5.54942735 -54.77734375 -11.1015625 C-54.101875 -11.3490625 -53.42640625 -11.5965625 -52.73046875 -11.8515625 C-35.16074862 -17.25763023 -14.11879373 -10.68341917 0 0 Z " fill="#468FD3" transform="translate(627.77734375,443.1015625)"/>
<path d="M0 0 C0.93983734 0.00899826 1.87967468 0.01799652 2.84799194 0.02726746 C4.85603168 0.04791571 6.86402657 0.07341579 8.87194824 0.10342407 C11.99698905 0.14873366 15.12180288 0.17729041 18.24707031 0.2019043 C23.61165124 0.24782988 28.97531786 0.3224172 34.33935547 0.41088867 C36.53198447 0.44452802 38.72470826 0.47243192 40.91748047 0.49487305 C63.13598759 0.72628164 63.13598759 0.72628164 71.84228516 3.52856445 C76.58936304 4.90729137 80.59072775 3.33524945 84.9765625 1.5859375 C88.79341155 0.09463478 91.84597378 -0.39711195 95.9765625 0.1484375 C99.20274983 2.227536 100.8434927 3.94883279 102.9765625 7.1484375 C103.18178431 11.45809558 103.1381489 14.99460455 101.9765625 19.1484375 C102.51023437 19.56351563 103.04390625 19.97859375 103.59375 20.40625 C118.19157319 32.47849825 126.4210158 49.01969781 130.9765625 67.1484375 C131.1523584 67.74994629 131.3281543 68.35145508 131.50927734 68.97119141 C132.56263533 73.87915718 132.24808901 79.02467139 132.2890625 84.0234375 C132.31806641 85.19519531 132.34707031 86.36695313 132.37695312 87.57421875 C132.45677832 98.3936025 132.45677832 98.3936025 127.9765625 103.1484375 C124.65861083 106.31990124 120.55733416 107.6135361 116.2890625 109.0859375 C115.54374268 109.34608643 114.79842285 109.60623535 114.03051758 109.87426758 C107.40425968 112.12287183 100.70519885 113.78635639 93.875 115.28125 C90.64143959 116.00053899 87.4787488 116.82440578 84.2890625 117.7109375 C75.03912554 120.05220785 65.44500448 121.07649126 55.9765625 122.1484375 C55.11740234 122.24632568 54.25824219 122.34421387 53.37304688 122.44506836 C43.10417351 123.45603638 32.78575572 123.43501071 22.4765625 123.4609375 C20.9820607 123.46486511 20.9820607 123.46486511 19.45736694 123.46887207 C2.92315005 123.47351563 -12.77153659 122.35153523 -29.0234375 119.1484375 C-30.59233984 118.86788453 -32.16134188 118.58788818 -33.73046875 118.30859375 C-42.61281133 116.61998459 -51.24395746 113.98841906 -59.86962891 111.30331421 C-61.73017474 110.72439886 -63.59357724 110.15468986 -65.45703125 109.58520508 C-78.3222813 105.45316193 -78.3222813 105.45316193 -82.37890625 98.98828125 C-83.38175686 94.56966069 -83.36154817 90.22835374 -83.3359375 85.7109375 C-83.33247314 84.73044434 -83.32900879 83.74995117 -83.32543945 82.73974609 C-83.1649809 71.95444925 -81.21393429 62.1258108 -77.0234375 52.1484375 C-77.6834375 52.1484375 -78.3434375 52.1484375 -79.0234375 52.1484375 C-82.50843781 48.15093715 -83.93845525 44.75860914 -83.6484375 39.40234375 C-82.61539625 35.67693875 -80.55709535 33.76179515 -77.5625 31.41796875 C-74.56103583 29.91723666 -72.48684762 29.84887707 -69.1484375 29.8359375 C-63.72046268 29.70637529 -61.63506749 28.44219883 -57.8984375 24.5234375 C-57.08632813 23.61722656 -56.27421875 22.71101562 -55.4375 21.77734375 C-41.99371132 7.13710138 -19.47049336 -0.36236645 0 0 Z M-53.7734375 40.3359375 C-64.12999954 53.55589371 -68.26193693 68.02326072 -68.0859375 84.6484375 C-68.08142578 85.47085938 -68.07691406 86.29328125 -68.07226562 87.140625 C-68.06062239 89.14326146 -68.04269306 91.14585977 -68.0234375 93.1484375 C-53.56330048 98.3600507 -39.16018678 102.44536348 -24.0234375 105.1484375 C-22.9195166 105.34598633 -21.8155957 105.54353516 -20.67822266 105.74707031 C26.16525715 113.78113801 72.06843106 108.24270814 116.9765625 93.1484375 C117.72249944 72.02694623 115.52341057 54.23160304 100.7265625 37.8359375 C88.79333212 25.23397322 73.09920152 15.96856434 55.52235413 14.94784546 C51.49152792 14.85186604 47.46534243 14.81662616 43.43359375 14.8125 C41.93682231 14.80605361 40.44005206 14.79932397 38.94328308 14.79232788 C35.81754645 14.78041647 32.6919198 14.77664056 29.56616211 14.77783203 C25.60376394 14.77803461 21.64208787 14.75076883 17.67986012 14.71628761 C14.59017338 14.6938067 11.50065445 14.69000092 8.41089439 14.69105148 C6.95236417 14.68872582 5.49382707 14.6800786 4.03537941 14.66438675 C-18.9670815 14.44009096 -38.49949686 22.76574565 -53.7734375 40.3359375 Z " fill="#1F558D" transform="translate(565.0234375,555.8515625)"/>
<path d="M0 0 C8.81587855 6.1644865 14.31330961 14.40867884 17.703125 24.578125 C18.94274486 38.06689895 17.87599082 49.03821955 9.203125 59.8359375 C2.28569681 67.87024212 -5.63154412 73.87410637 -16.296875 75.578125 C-30.88985671 76.44536506 -41.07319688 74.45909316 -52.296875 64.578125 C-62.47034062 53.76410784 -64.80720484 43.67657988 -64.56640625 29.29296875 C-64.15693116 19.02785182 -59.24254369 11.90403103 -52.296875 4.578125 C-37.33488384 -8.93406081 -17.10800893 -10.59067219 0 0 Z " fill="#7FAC4C" transform="translate(333.296875,639.421875)"/>
<path d="M0 0 C3.74925257 0.29405902 4.58670629 0.57850511 7.1875 3.25 C8.58303701 6.26634857 9.55782509 9.39815349 10.5625 12.5625 C11.17423129 14.37336179 11.78883501 16.18325568 12.40625 17.9921875 C12.70789063 18.88389648 13.00953125 19.77560547 13.3203125 20.69433594 C14.5158636 24.2177112 15.73393919 27.71109921 17.0625 31.1875 C17.64644531 32.77884766 17.64644531 32.77884766 18.2421875 34.40234375 C23.98212017 42.80477531 36.19438224 44.62268042 45.38867188 47.29882812 C46.46310547 47.62431641 47.53753906 47.94980469 48.64453125 48.28515625 C49.61366455 48.5675415 50.58279785 48.84992676 51.58129883 49.14086914 C54.55325654 50.40565639 56.15002939 51.75890719 58.1875 54.25 C58.75 57.25 58.75 57.25 58.1875 60.25 C54.80147364 63.48377697 51.86682009 64.89197435 47.375 66.0625 C41.963716 67.62356597 36.84523103 69.51203096 31.6875 71.75 C31.0174292 72.03464111 30.3473584 72.31928223 29.65698242 72.61254883 C24.94527642 74.69391335 20.55606801 76.76496861 18 81.40625 C17.731875 82.1796875 17.46375 82.953125 17.1875 83.75 C16.86652344 84.62914062 16.54554688 85.50828125 16.21484375 86.4140625 C15.70630859 87.81785156 15.70630859 87.81785156 15.1875 89.25 C14.38596085 91.21284505 13.5731003 93.17109837 12.75 95.125 C11.42581118 98.28016596 10.11166376 101.4374114 8.828125 104.609375 C8.17070313 106.22585938 8.17070313 106.22585938 7.5 107.875 C7.10425781 108.85726562 6.70851563 109.83953125 6.30078125 110.8515625 C5.1875 113.25 5.1875 113.25 3.1875 115.25 C-3.06022355 115.02281005 -3.06022355 115.02281005 -5.38671875 112.6328125 C-7.19480896 109.6110727 -8.14357524 106.61297908 -9.1875 103.25 C-11.36725848 96.41970095 -13.86098478 89.79093857 -16.8125 83.25 C-17.39257812 81.72246094 -17.39257812 81.72246094 -17.984375 80.1640625 C-20.47424808 76.19516225 -23.22739147 75.01252519 -27.4375 73.1875 C-28.55354614 72.67944824 -28.55354614 72.67944824 -29.69213867 72.16113281 C-35.72246726 69.50685202 -41.8817878 67.5398709 -48.27783203 65.97241211 C-52.51121904 64.88570994 -55.14228746 63.77441152 -57.8125 60.25 C-58.3125 57.25 -58.3125 57.25 -57.8125 54.25 C-54.85860633 50.53493751 -52.30316049 49.56367039 -47.75 48.5 C-31.77399084 44.6303963 -31.77399084 44.6303963 -18.515625 35.73046875 C-16.8953893 32.61630605 -15.84600936 29.6070986 -14.8125 26.25 C-13.93587856 23.7995155 -13.03144929 21.36037632 -12.12402344 18.92114258 C-11.51370131 17.26184917 -10.91972592 15.59642282 -10.34472656 13.92456055 C-5.66268219 0.50334953 -5.66268219 0.50334953 0 0 Z " fill="#E1AA31" transform="translate(933.8125,276.75)"/>
<path d="M0 0 C10.82325011 9.21196927 18.7942377 21.75186267 21.22265625 35.8984375 C21.48951958 39.40391002 21.50290718 42.88428775 21.47265625 46.3984375 C21.48425781 47.74615234 21.48425781 47.74615234 21.49609375 49.12109375 C21.45178401 64.34149059 15.28017981 77.60906221 5.22265625 88.8984375 C-1.05002188 94.94218577 -7.69857134 99.633317 -15.77734375 102.8984375 C-17.18693359 103.48625 -17.18693359 103.48625 -18.625 104.0859375 C-32.35378822 109.08453549 -47.34310915 108.47143042 -60.77734375 102.8984375 C-61.63328125 102.57101562 -62.48921875 102.24359375 -63.37109375 101.90625 C-76.06278249 96.40384064 -86.18533187 84.59045999 -92.52734375 72.5859375 C-92.93984375 71.3690625 -93.35234375 70.1521875 -93.77734375 68.8984375 C-94.12667969 67.939375 -94.47601562 66.9803125 -94.8359375 65.9921875 C-100.30084641 49.50291217 -98.87462627 33.92192975 -91.21484375 18.3359375 C-82.86530497 3.92930258 -70.30597174 -5.54942735 -54.77734375 -11.1015625 C-54.101875 -11.3490625 -53.42640625 -11.5965625 -52.73046875 -11.8515625 C-35.16074862 -17.25763023 -14.11879373 -10.68341917 0 0 Z M-71.84375 16.06640625 C-80.1762857 26.23461936 -84.99931447 37.68587914 -83.77734375 50.8984375 C-81.5157099 64.25621246 -76.03523598 75.53194873 -65.16796875 83.91015625 C-53.53381698 91.74841952 -41.6045051 93.64245617 -27.77734375 91.8984375 C-15.07079352 89.0914205 -5.18313318 80.22559403 1.75 69.5390625 C7.84135198 58.61663826 9.31615619 46.3258883 6.3046875 34.203125 C2.1044785 22.48603711 -5.72261717 12.074595 -16.94921875 6.25390625 C-36.33687271 -1.95038146 -56.85949899 0.34568922 -71.84375 16.06640625 Z " fill="#1F568E" transform="translate(627.77734375,443.1015625)"/>
<path d="M0 0 C2.87029869 1.79393668 4.49131638 2.98263276 6 6 C6.11867647 7.58867844 6.17708263 9.18204773 6.20532227 10.77490234 C6.2352401 12.26949478 6.2352401 12.26949478 6.26576233 13.79428101 C6.28247482 14.88052765 6.29918732 15.96677429 6.31640625 17.0859375 C6.33718735 18.21206451 6.35796844 19.33819153 6.37937927 20.4984436 C6.42273434 22.89768577 6.4637647 25.29697087 6.50268555 27.69628906 C6.56124205 31.29763361 6.62660613 34.8987991 6.69335938 38.5 C6.79790679 44.25434156 6.87648315 50.00872249 6.94854736 55.7635498 C6.99795095 58.87111161 7.07884828 61.97635072 7.16748047 65.08300781 C7.20459729 66.90168266 7.24124928 68.72036708 7.27734375 70.5390625 C7.3092128 71.36143402 7.34108185 72.18380554 7.37391663 73.03109741 C7.4513081 78.51091407 7.4513081 78.51091407 5.15087891 81.00390625 C2.44877283 82.25527887 0.41052747 82.39926961 -2.5625 82.375 C-3.51253906 82.38273437 -4.46257812 82.39046875 -5.44140625 82.3984375 C-8 82 -8 82 -9.7421875 80.95703125 C-11.65731339 77.97728568 -12.02722462 74.75081104 -12.5625 71.3125 C-12.80792369 69.8603424 -13.055296 68.40851269 -13.3046875 66.95703125 C-13.42166992 66.26689941 -13.53865234 65.57676758 -13.65917969 64.86572266 C-14.05357778 62.70670387 -14.58694636 60.61039623 -15.1875 58.5 C-16.11916022 54.48669443 -16.14660008 51.10480232 -16 47 C-16.66 47 -17.32 47 -18 47 C-18.27312012 47.5779834 -18.54624023 48.1559668 -18.82763672 48.75146484 C-19.99142833 50.98355996 -21.28552283 52.93676137 -22.7578125 54.9765625 C-23.29736572 55.72550781 -23.83691895 56.47445312 -24.39282227 57.24609375 C-24.96444092 58.03113281 -25.53605957 58.81617188 -26.125 59.625 C-26.70886475 60.42808594 -27.29272949 61.23117187 -27.89428711 62.05859375 C-40.45798063 79.26180413 -40.45798063 79.26180413 -45 81 C-50.1318603 81.5702067 -50.1318603 81.5702067 -53 81 C-56.80421287 77.94008965 -59.6124719 74.86013487 -60.625 70 C-60.43244565 64.56317135 -56.51240179 60.72058808 -53.27978516 56.63769531 C-50.90792222 53.60250711 -48.65007678 50.48295578 -46.375 47.375 C-45.93244873 46.77816406 -45.48989746 46.18132812 -45.03393555 45.56640625 C-41.5283674 40.81554955 -38.24248179 35.93347621 -35 31 C-35.8564209 31.12117188 -36.7128418 31.24234375 -37.59521484 31.3671875 C-40.81878163 31.81992342 -44.04309024 32.26644389 -47.26806641 32.70898438 C-48.65512245 32.90056848 -50.04185426 33.09451727 -51.42822266 33.29101562 C-69.23373781 35.81078528 -69.23373781 35.81078528 -75 35 C-78.51301852 31.7969537 -78.43271299 27.70680628 -78.69140625 23.18359375 C-77.55062176 19.58077721 -75.26492773 18.7299783 -72 17 C-69.02218067 15.99521434 -66.00425961 15.30272863 -62.9375 14.625 C-61.14898128 14.20503937 -59.36124151 13.78175014 -57.57421875 13.35546875 C-56.65560059 13.13681152 -55.73698242 12.9181543 -54.79052734 12.69287109 C-50.24159172 11.56339784 -45.74826967 10.25214972 -41.25 8.9375 C-33.65414827 6.72690337 -26.04046388 4.70370743 -18.34765625 2.859375 C-15.00586006 2.04908345 -15.00586006 2.04908345 -11.84375 0.9140625 C-7.82057411 -0.37910118 -4.17822325 -0.64635498 0 0 Z " fill="#87B352" transform="translate(878,377)"/>
<path d="M0 0 C1.21042969 0.38671875 2.42085938 0.7734375 3.66796875 1.171875 C22.5941534 7.53142151 43.33400476 16.39029065 59 29 C59.5625 32.6875 59.5625 32.6875 59 36 C57 38 57 38 53.859375 38.40234375 C49.01287048 37.89709075 46.26480528 36.17507549 42.25 33.5625 C18.75857365 19.10406191 -6.70106314 9.97900512 -33.87475586 5.4296875 C-36 5 -36 5 -38 4 C-62.34919235 0.51062829 -87.98689103 0.45592301 -112.265625 4.55078125 C-115.99112853 5.16282826 -119.22407232 5.25172851 -123 5 C-125.1610211 1.75846834 -125.64247553 0.76307099 -125 -3 C-119.25335626 -8.6713132 -111.63800778 -8.93022848 -104 -10 C-103.25298828 -10.10586426 -102.50597656 -10.21172852 -101.73632812 -10.32080078 C-67.40480602 -14.95364733 -32.80089274 -10.99854204 0 0 Z " fill="#143560" transform="translate(481,811)"/>
<path d="M0 0 C1.1875 1.6328125 1.1875 1.6328125 0.9375 5.2578125 C0.1875 8.6328125 0.1875 8.6328125 -0.8125 9.6328125 C-2.45590867 9.73135905 -4.1036461 9.76253661 -5.75 9.7578125 C-6.64589844 9.76039063 -7.54179688 9.76296875 -8.46484375 9.765625 C-10.8125 9.6328125 -10.8125 9.6328125 -12.8125 8.6328125 C-38.44108452 4.85335493 -65.54014564 4.81103411 -90.8125 10.6328125 C-91.60575684 10.81473145 -92.39901367 10.99665039 -93.21630859 11.18408203 C-98.49188789 12.4398517 -103.65591647 13.95779243 -108.8125 15.6328125 C-109.64394531 15.9004541 -110.47539063 16.1680957 -111.33203125 16.44384766 C-129.57664761 22.4274061 -147.45905555 30.24868049 -163.21801758 41.31030273 C-166.32133797 42.89218723 -168.37219344 42.96496966 -171.8125 42.6328125 C-173.6875 41.4453125 -173.6875 41.4453125 -174.8125 39.6328125 C-175.09375 37.21875 -175.09375 37.21875 -174.8125 34.6328125 C-154.34075752 9.07306384 -103.48979753 -1.6236355 -72.8125 -6.3671875 C-15.54247851 -11.72385233 -15.54247851 -11.72385233 0 0 Z " fill="#143661" transform="translate(805.8125,806.3671875)"/>
<path d="M0 0 C1.25369385 0.1848999 1.25369385 0.1848999 2.53271484 0.37353516 C23.89949353 3.72879765 46.19535262 11.3458802 65 22 C66.44303034 22.78695608 67.88708609 23.57203406 69.33203125 24.35546875 C82.03096588 31.31500222 82.03096588 31.31500222 86 35 C86.52822429 38.23537378 86.51957766 40.05253485 84.9375 42.9375 C81.82093652 44.6465832 79.40480787 43.71124218 76 43 C72.8515625 41.43359375 72.8515625 41.43359375 69.625 39.4375 C49.13684435 27.27737227 26.55526429 19.23283724 3.18359375 14.65625 C0 14 0 14 -2 13 C-15.64505264 10.21647217 -29.55987949 9.69700031 -43.4375 9.6875 C-44.50026657 9.68253006 -44.50026657 9.68253006 -45.58450317 9.67745972 C-53.31993566 9.65604187 -60.49215277 10.01217894 -68 12 C-69.64127559 12.22391524 -71.28697126 12.42221998 -72.9375 12.5625 C-75.35574528 12.77148416 -76.81712113 12.90856057 -79 14 C-84.25465839 14.44720497 -84.25465839 14.44720497 -86.875 12.875 C-88.52854531 10.11909116 -88.39365568 8.14924548 -88 5 C-85.81084515 2.13562865 -83.88165689 1.49115945 -80.39453125 0.8671875 C-79.49283203 0.70089844 -78.59113281 0.53460937 -77.66210938 0.36328125 C-76.72173828 0.20214844 -75.78136719 0.04101562 -74.8125 -0.125 C-73.43094727 -0.37830078 -73.43094727 -0.37830078 -72.02148438 -0.63671875 C-48.14740891 -4.94049105 -23.90437751 -3.56409799 0 0 Z " fill="#143561" transform="translate(455,753)"/>
<path d="M0 0 C1.17397842 0.00223572 1.17397842 0.00223572 2.37167358 0.0045166 C12.26028464 0.03826226 22.05082343 0.32782115 31.875 1.5625 C33.22259399 1.72625122 33.22259399 1.72625122 34.59741211 1.89331055 C40.06210155 2.70201034 44.02101694 4.12328989 48.5625 7.3125 C49.6875 10.375 49.6875 10.375 49.5625 13.3125 C48.55078125 15.0078125 48.55078125 15.0078125 46.5625 16.3125 C43.81160608 16.42325416 41.34763789 16.36248119 38.625 16.125 C37.92826172 16.08052734 37.23152344 16.03605469 36.51367188 15.99023438 C32.19014696 15.67444942 27.9880043 15.05276804 23.72265625 14.28125 C17.75795144 13.25717929 11.98201162 12.96656416 5.9375 13 C4.87426514 13.00418945 3.81103027 13.00837891 2.71557617 13.01269531 C-14.3172178 13.24699437 -31.23987778 14.90045262 -47.4375 20.3125 C-48.83260052 20.71672575 -50.22989806 21.11341939 -51.62890625 21.50390625 C-60.17871523 23.89414491 -68.34376915 26.62256308 -76.4375 30.3125 C-77.07123535 30.59464355 -77.7049707 30.87678711 -78.35791016 31.16748047 C-87.11521967 35.0736334 -95.48825324 39.21287137 -103.44067383 44.60644531 C-106.48775522 46.57552745 -108.12884488 47.33006574 -111.80078125 47.12109375 C-114.4375 46.3125 -114.4375 46.3125 -115.4375 45.3125 C-115.875 42.0625 -115.875 42.0625 -115.4375 38.3125 C-87.92793826 11.29338426 -37.06458468 -0.17458543 0 0 Z " fill="#153661" transform="translate(746.4375,749.6875)"/>
<path d="M0 0 C5.41883642 3.30956891 10.20721972 8.18175902 12 14.375 C12.23506846 15.74267104 12.42039688 17.11956965 12.5625 18.5 C12.70171875 19.675625 12.70171875 19.675625 12.84375 20.875 C13.30777915 28.29946633 11.0448609 34.50102512 6.140625 40.1328125 C-0.23214025 45.85459635 -6.28610178 47.02896458 -14.57421875 46.78125 C-21.56167071 46.09489728 -26.77686972 42.54132533 -31.4375 37.5 C-36.5459091 31.0543897 -36.32186427 23.37636931 -35.4375 15.5 C-33.72625812 8.83685195 -28.989159 4.32516542 -23.4375 0.5 C-16.65568202 -2.91366677 -6.96443471 -3.08620048 0 0 Z " fill="#FBFCFA" transform="translate(321.4375,651.5)"/>
<path d="M0 0 C0.55945313 0.44601562 1.11890625 0.89203125 1.6953125 1.3515625 C2.27023437 1.79242187 2.84515625 2.23328125 3.4375 2.6875 C5.22817579 4.35677404 5.7677425 5.53790465 6.05859375 7.96484375 C6.08308594 8.73183594 6.10757813 9.49882813 6.1328125 10.2890625 C6.18888672 11.42794922 6.18888672 11.42794922 6.24609375 12.58984375 C5.63403198 16.02075883 4.26977536 17.51134747 1.8203125 19.9765625 C-0.59271897 21.42887597 -2.82155409 22.64286107 -5.3671875 23.7890625 C-6.03411621 24.09166992 -6.70104492 24.39427734 -7.38818359 24.70605469 C-12.58944569 26.94795627 -16.49256453 28.07729598 -22.1796875 26.9765625 C-25.39809051 24.42866011 -27.91503687 22.18487681 -28.41796875 17.98828125 C-28.44246094 17.22128906 -28.46695313 16.45429687 -28.4921875 15.6640625 C-28.52957031 14.90480469 -28.56695313 14.14554688 -28.60546875 13.36328125 C-27.99253161 9.92745931 -26.63737493 8.44212713 -24.1796875 5.9765625 C-21.72769683 4.53109023 -19.4423232 3.32019379 -16.8671875 2.1640625 C-16.22845703 1.85275391 -15.58972656 1.54144531 -14.93164062 1.22070312 C-10.00379677 -1.05099794 -5.19172317 -2.43769081 0 0 Z " fill="#8AB455" transform="translate(704.1796875,539.0234375)"/>
<path d="M0 0 C3.85902009 1.9821612 7.22569935 4.83365065 8.71484375 9 C9.0221653 12.83777158 8.03654345 15.5023655 5.75 18.5625 C0.16855921 24.27557854 -7.2627406 29.27454575 -15.375 29.875 C-19.06572741 29.57736069 -21.02635756 28.63507201 -23.625 26 C-25.5056406 23.34781454 -26.44344807 21.18526795 -26.6875 17.9375 C-25.80037644 12.85670144 -23.41140815 9.84229681 -19.39038086 6.77026367 C-17.66933735 5.64711112 -15.91981749 4.62558155 -14.125 3.625 C-13.24521484 3.09326172 -13.24521484 3.09326172 -12.34765625 2.55078125 C-8.08358664 0.12354163 -4.86266642 -0.60427039 0 0 Z " fill="#89B454" transform="translate(742,516)"/>
<path d="M0 0 C4.32036821 2.28725376 7.05893629 4.47085134 9 9 C9.61959173 13.1601159 9.05615675 15.80549355 6.546875 19.21484375 C-4.24570535 31.66991754 -4.24570535 31.66991754 -8.98828125 32.23828125 C-13.0917209 32.36931546 -15.36364912 32.39264203 -18.9375 30.1875 C-22.27624004 26.64641208 -23.6396672 24.1265307 -23.50390625 19.17578125 C-22.48938376 14.79524615 -19.12795963 12.04579934 -16 9 C-15.28199219 8.25878906 -14.56398438 7.51757812 -13.82421875 6.75390625 C-6.61835961 -0.63638073 -6.61835961 -0.63638073 0 0 Z " fill="#88B353" transform="translate(811,459)"/>
<path d="M0 0 C2.93423195 1.79646854 4.47205355 2.9441071 6 6 C6.2734375 8.20703125 6.2734375 8.20703125 6.375 10.8125 C6.42398438 11.66457031 6.47296875 12.51664063 6.5234375 13.39453125 C5.75100525 17.23939922 4.03340424 18.56849332 1 21 C-1.5692226 22.35202228 -4.20183003 23.34980834 -6.9375 24.3125 C-7.62779297 24.57611328 -8.31808594 24.83972656 -9.02929688 25.11132812 C-13.11630665 26.60279615 -16.59352864 27.51578639 -21 27 C-23.98824051 25.35866035 -26.46183418 23.07633164 -28 20 C-28.65031613 15.89118444 -29.12799085 11.77630453 -26.82421875 8.1484375 C-19.92793009 1.7294576 -9.30535709 -1.71017374 0 0 Z " fill="#87B351" transform="translate(420,600)"/>
<path d="M0 0 C2.50493066 2.55321848 3.32732222 4.49865213 3.5625 8.0625 C3.1636814 12.98957148 1.38253047 15.2358807 -2.1875 18.5625 C-6.40189825 21.0259059 -10.39771327 21.24269633 -15.1875 21.5625 C-16.12980469 21.63984375 -17.07210938 21.7171875 -18.04296875 21.796875 C-25.4082841 22.15470409 -25.4082841 22.15470409 -29.3125 19.1875 C-32.29006086 15.01891479 -32.96310751 11.6417833 -32.1875 6.5625 C-30.08377329 2.58044588 -28.73455122 1.17439339 -24.5703125 -0.47265625 C-16.71301508 -2.66657696 -7.09997407 -5.13251137 0 0 Z " fill="#87B352" transform="translate(468.1875,592.4375)"/>
<path d="M0 0 C4.1657644 1.7588783 6.17507027 3.86989588 8 8 C8.56635189 11.80264838 8.28369423 13.50740977 6.35546875 16.85546875 C1.8727179 22.83990397 -4.62349623 28.71418083 -11.8984375 30.8515625 C-15.42893267 31.05300216 -17.84428081 30.89147855 -20.69140625 28.6953125 C-23.39881694 25.59451735 -24.8841279 22.84421104 -25.4375 18.8125 C-24.71156116 12.48646157 -21.096386 9.81240069 -16.43359375 5.78125 C-10.83725163 1.36021756 -7.18600317 -1.36286267 0 0 Z " fill="#87B353" transform="translate(779,490)"/>
<path d="M0 0 C3.62535141 1.647887 6.20557709 3.41115419 8 7 C8.67961156 11.41747511 8.8507049 14.66702201 6.39453125 18.515625 C3.63242613 21.38136539 0.68126451 23.36392629 -2.75 25.3125 C-3.33265625 25.67150391 -3.9153125 26.03050781 -4.515625 26.40039062 C-9.19477133 29.09397815 -12.61531907 29.54289993 -18 29 C-21.12031899 27.65594368 -23.09400827 25.80731914 -25 23 C-26.28116021 18.3927508 -25.59447797 15.07886743 -23.3125 10.9375 C-17.18937514 4.70910652 -8.86589323 -0.82918426 0 0 Z " fill="#87B352" transform="translate(376,618)"/>
<path d="M0 0 C1.68774414 1.06665039 1.68774414 1.06665039 3 3 C3.31038354 5.53989379 3.44434424 7.83034636 3.43359375 10.37109375 C3.4388356 11.0898317 3.44407745 11.80856964 3.44947815 12.54908752 C3.45589606 14.06794952 3.45456425 15.58686123 3.44604492 17.10571289 C3.43754142 19.42619686 3.466283 21.74421286 3.49804688 24.06445312 C3.49965924 25.54166593 3.49908069 27.01888308 3.49609375 28.49609375 C3.51294472 29.53376137 3.51294472 29.53376137 3.53013611 30.59239197 C3.48167572 33.95379524 3.20754751 35.72555133 1.15649414 38.43774414 C-1 40 -1 40 -4 40.5 C-7.76057499 39.8732375 -8.70425011 39.01241256 -11 36 C-11.51757812 32.671875 -11.51757812 32.671875 -11.53125 28.75 C-11.5350769 28.05487305 -11.53890381 27.35974609 -11.54284668 26.64355469 C-11.5455618 25.17771959 -11.53822835 23.71183572 -11.52148438 22.24609375 C-11.50006419 20.00671025 -11.52129443 17.77053413 -11.546875 15.53125 C-11.54423165 14.10415961 -11.5391065 12.67707121 -11.53125 11.25 C-11.52673828 9.95578125 -11.52222656 8.6615625 -11.51757812 7.328125 C-11 4 -11 4 -9.18945312 1.57421875 C-6.02521019 -0.70087474 -3.79664345 -0.48320917 0 0 Z " fill="#E1AD35" transform="translate(938,213)"/>
<path d="M0 0 C2.3125 1.5625 2.3125 1.5625 4 4 C5.03276864 10.90554622 2.1244656 14.73551523 -1.6875 20.125 C-2.21794922 20.91003906 -2.74839844 21.69507813 -3.29492188 22.50390625 C-10.87418187 33.533357 -10.87418187 33.533357 -15.5625 34.5625 C-18.85940593 33.80167555 -20.04476263 32.75181556 -22 30 C-22.5387085 25.07386729 -21.50041523 22.49493215 -18.7890625 18.41796875 C-18.12132812 17.40412109 -17.45359375 16.39027344 -16.765625 15.34570312 C-16.05921875 14.30349609 -15.3528125 13.26128906 -14.625 12.1875 C-13.57699219 10.59518555 -13.57699219 10.59518555 -12.5078125 8.97070312 C-6.0588819 -0.72129546 -6.0588819 -0.72129546 0 0 Z " fill="#E1AB33" transform="translate(989,231)"/>
<path d="M0 0 C5.70705502 2.12805441 7.60816275 6.31236079 10.6875 11.375 C11.42336925 12.49203893 12.16307874 13.60655577 12.90625 14.71875 C19.30816754 24.52059539 19.30816754 24.52059539 18.6875 30.375 C17.625 32.25 17.625 32.25 15.6875 33.375 C12.3125 33.9375 12.3125 33.9375 8.6875 33.375 C4.51987953 28.95938889 1.2068732 23.93731202 -2.125 18.875 C-2.62708984 18.14152344 -3.12917969 17.40804687 -3.64648438 16.65234375 C-6.39874285 12.46591521 -8.14753581 9.56304659 -7.3125 4.375 C-5.15076755 1.00269738 -3.98987291 0.45168373 0 0 Z " fill="#E1AB32" transform="translate(882.3125,230.625)"/>
<path d="M0 0 C0.66 0.33 1.32 0.66 2 1 C2 6.28 2 11.56 2 17 C0.02 17.33 -1.96 17.66 -4 18 C-4 18.33 -4 18.66 -4 19 C-11.92 19 -19.84 19 -28 19 C-28 17.02 -28 15.04 -28 13 C-24.66438775 10.21929552 -20.95754537 9.29318202 -16.8125 8.1875 C-11.21028758 6.55776548 -6.74680205 4.33294475 -1.92578125 1.07421875 C-1.29027344 0.71972656 -0.65476562 0.36523438 0 0 Z " fill="#EBEEF0" transform="translate(625,538)"/>
<path d="M0 0 C3.22618733 2.0790985 4.8669302 3.80039529 7 7 C7.265625 8.9375 7.265625 8.9375 7.25 11 C7.25515625 11.680625 7.2603125 12.36125 7.265625 13.0625 C7 15 7 15 5 18 C0.60093995 15.89371689 -3.57341508 13.38385459 -7.77929688 10.921875 C-11.10897012 8.99662704 -14.3843235 7.31728632 -18 6 C-13.36536821 0.89332238 -6.77173574 -0.89438019 0 0 Z " fill="#85B054" transform="translate(661,556)"/>
<path d="M0 0 C-1.64932123 3.00982124 -3.32294352 6.00555501 -5 9 C-5.88365234 10.60101562 -5.88365234 10.60101562 -6.78515625 12.234375 C-7.39230469 13.31203125 -7.99945313 14.3896875 -8.625 15.5 C-9.47964844 17.03140625 -9.47964844 17.03140625 -10.3515625 18.59375 C-12 21 -12 21 -15 22 C-18.37151409 17.89096721 -19.91244932 14.65427742 -19.62890625 9.2578125 C-18.59115591 5.53222433 -16.51224511 3.58012007 -13.51171875 1.2421875 C-9.11358836 -0.93293764 -4.77452565 -0.5529322 0 0 Z " fill="#82B14F" transform="translate(501,586)"/>
<path d="M0 0 C43.89 0 87.78 0 133 0 C133 0.33 133 0.66 133 1 C132.38377274 1.00423194 131.76754547 1.00846388 131.13264465 1.01282406 C116.11677878 1.11626974 101.10096036 1.22492786 86.08517456 1.33933926 C78.82356321 1.39454362 71.56194694 1.44800408 64.30029297 1.49731445 C57.96873131 1.5403135 51.63720396 1.58663012 45.30569553 1.63687855 C41.95531977 1.66335349 38.60496171 1.68770736 35.25454712 1.70907402 C31.50819188 1.73324749 27.76192574 1.76328411 24.015625 1.79467773 C22.91294785 1.8004332 21.81027069 1.80618866 20.67417908 1.81211853 C16.20027236 1.854674 11.91475071 1.95324728 7.49902344 2.70033264 C4 3 4 3 0 0 Z " fill="#ECEDF2" transform="translate(641,985)"/>
<path d="M0 0 C4.68333006 3.25337888 4.68333006 3.25337888 6.03125 5.94921875 C6.10075541 7.48945871 6.11577357 9.03256863 6.09375 10.57421875 C6.08472656 11.39148438 6.07570313 12.20875 6.06640625 13.05078125 C6.05480469 13.67726563 6.04320312 14.30375 6.03125 14.94921875 C5.37125 14.94921875 4.71125 14.94921875 4.03125 14.94921875 C4.00546875 14.3459375 3.9796875 13.74265625 3.953125 13.12109375 C3.6854768 9.34968728 3.42435346 6.60963255 1.46875 3.32421875 C-2.29348037 1.20193495 -4.78305271 2.07157254 -8.96875 2.94921875 C-9.95875 3.44421875 -9.95875 3.44421875 -10.96875 3.94921875 C-13.3017366 3.98944266 -15.63581666 3.99242122 -17.96875 3.94921875 C-12.84377812 -0.22668426 -6.44028204 -3.43737276 0 0 Z " fill="#93B965" transform="translate(703.96875,539.05078125)"/>
<path d="M0 0 C0.33 0 0.66 0 1 0 C1.09901748 4.62640153 1.17153649 9.25218387 1.21972656 13.87939453 C1.2398188 15.45274604 1.26709799 17.02602308 1.30175781 18.59912109 C1.35038494 20.86314272 1.37299135 23.12617573 1.390625 25.390625 C1.41127014 26.09181458 1.43191528 26.79300415 1.45318604 27.51544189 C1.45473863 30.9091052 1.22797034 32.69599906 -0.83300781 35.44433594 C-3 37 -3 37 -6.0625 37.5 C-9 37 -9 37 -10.875 35 C-11.24625 34.34 -11.6175 33.68 -12 33 C-11.36191406 33.08378906 -10.72382812 33.16757813 -10.06640625 33.25390625 C-9.24011719 33.35574219 -8.41382813 33.45757812 -7.5625 33.5625 C-6.73878906 33.66691406 -5.91507813 33.77132812 -5.06640625 33.87890625 C-4.38449219 33.91886719 -3.70257812 33.95882812 -3 34 C0.87185928 30.12814072 -0.63114072 16.70389278 -0.4375 11.4375 C-0.39431641 10.33341797 -0.35113281 9.22933594 -0.30664062 8.09179688 C-0.20155613 5.39462815 -0.09940587 2.69738297 0 0 Z " fill="#E3B342" transform="translate(940,216)"/>
<path d="M0 0 C2 3 2 3 1.76806641 5.26831055 C1.54812012 6.13238525 1.32817383 6.99645996 1.1015625 7.88671875 C0.86953125 8.82451172 0.6375 9.76230469 0.3984375 10.72851562 C0.14320313 11.70498047 -0.11203125 12.68144531 -0.375 13.6875 C-0.6225 14.67556641 -0.87 15.66363281 -1.125 16.68164062 C-1.73859714 19.12422923 -2.36397574 21.56317272 -3 24 C-3.66 24 -4.32 24 -5 24 C-5.33 24.66 -5.66 25.32 -6 26 C-5.19651204 20.44023272 -3.82181116 15.06142645 -2.4375 9.625 C-2.20353516 8.69816406 -1.96957031 7.77132812 -1.72851562 6.81640625 C-1.15448643 4.54371922 -0.57825799 2.27161405 0 0 Z " fill="#153F71" transform="translate(303,794)"/>
<path d="M0 0 C2.12472576 -0.05386629 4.24983652 -0.09273071 6.375 -0.125 C7.55835938 -0.14820313 8.74171875 -0.17140625 9.9609375 -0.1953125 C13 0 13 0 15 2 C13.25364835 2.53293835 11.50272348 3.05090663 9.75 3.5625 C8.77546875 3.85253906 7.8009375 4.14257812 6.796875 4.44140625 C4.03756068 4.99249836 2.6087176 4.93789609 0 4 C0 2.68 0 1.36 0 0 Z " fill="#F1F2F0" transform="translate(806,389)"/>
<path d="M0 0 C1.7400726 3.29989863 2.4285886 5.22842033 2 9 C1.34641088 11.03666802 0.59578407 13.01047059 -0.19921875 14.99609375 C-1.25027354 17.62629428 -2.12479315 20.30705583 -3 23 C-3.33 23 -3.66 23 -4 23 C-4.65720455 14.94924431 -2.22928846 7.64327471 0 0 Z " fill="#213B61" transform="translate(276,771)"/>
<path d="M0 0 C2.47215438 6.59241168 -0.29392424 15.77833863 -3 22 C-3.99 22.66 -4.98 23.32 -6 24 C-5.37713159 21.31199023 -4.75176793 18.6246008 -4.125 15.9375 C-3.95097656 15.18533203 -3.77695312 14.43316406 -3.59765625 13.65820312 C-2.52335236 9.06256983 -1.33465943 4.52702051 0 0 Z " fill="#2F496F" transform="translate(263,820)"/>
<path d="M0 0 C0 0.33 0 0.66 0 1 C-1.98 1 -3.96 1 -6 1 C-6 1.66 -6 2.32 -6 3 C-20.85 2.505 -20.85 2.505 -36 2 C-36 1.67 -36 1.34 -36 1 C-31.50008666 0.83093851 -27.00005734 0.66518068 -22.5 0.5 C-21.2315625 0.45230469 -19.963125 0.40460937 -18.65625 0.35546875 C-12.43313793 0.12858446 -6.22729901 -0.06290201 0 0 Z " fill="#C1D0DF" transform="translate(617,678)"/>
<path d="M0 0 C1.7015625 0.2784375 1.7015625 0.2784375 3.4375 0.5625 C4.283125 0.706875 5.12875 0.85125 6 1 C6 1.66 6 2.32 6 3 C7.65 2.67 9.3 2.34 11 2 C11 2.66 11 3.32 11 4 C11.66 4.33 12.32 4.66 13 5 C11.54119891 4.85892253 10.08296449 4.71197585 8.625 4.5625 C7.81289063 4.48128906 7.00078125 4.40007813 6.1640625 4.31640625 C4 4 4 4 2 3 C-0.70872518 2.60772162 -3.40751693 2.25430502 -6.125 1.9375 C-6.87910156 1.84662109 -7.63320313 1.75574219 -8.41015625 1.66210938 C-10.27304188 1.43809148 -12.13647252 1.21861427 -14 1 C-14 0.67 -14 0.34 -14 0 C-9.00285983 -0.91784207 -4.99080383 -0.90741888 0 0 Z " fill="#3C5478" transform="translate(451,763)"/>
<path d="M0 0 C1.4540625 0.0309375 1.4540625 0.0309375 2.9375 0.0625 C1.41041037 3.49845166 -0.66177045 6.18162454 -3.0625 9.0625 C-4.0625 8.0625 -4.0625 8.0625 -4.1875 4.5625 C-4.02748906 0.08219365 -4.02748906 0.08219365 0 0 Z " fill="#ECF1E4" transform="translate(840.0625,407.9375)"/>
<path d="M0 0 C5.3592233 0.46601942 5.3592233 0.46601942 7.875 2.5625 C8.431875 3.2740625 8.431875 3.2740625 9 4 C7.88625 4.28875 6.7725 4.5775 5.625 4.875 C1.99708908 5.69241329 1.99708908 5.69241329 0 8 C-1 7 -1 7 -1.125 4 C-1 1 -1 1 0 0 Z " fill="#F0EDE6" transform="translate(927,209)"/>
<path d="M0 0 C0 0.66 0 1.32 0 2 C-2.97 1.505 -2.97 1.505 -6 1 C-6 1.66 -6 2.32 -6 3 C-10.67201205 4.20568053 -15.21496292 4.09382426 -20 4 C-13.69529267 0.61282089 -7.08088525 -0.30131427 0 0 Z " fill="#395378" transform="translate(722,752)"/>
<path d="M0 0 C1.62601393 5.54322931 0.7447746 10.3317049 -1.5625 15.5 C-2.2740625 16.7375 -2.2740625 16.7375 -3 18 C-4.63129887 13.93714243 -3.29968777 10.79897816 -2.0625 6.75 C-1.68222656 5.48671875 -1.30195313 4.2234375 -0.91015625 2.921875 C-0.60980469 1.95765625 -0.30945313 0.9934375 0 0 Z " fill="#40587C" transform="translate(269,798)"/>
<path d="M0 0 C0.99 0 1.98 0 3 0 C3.33 2.64 3.66 5.28 4 8 C1.69 7.34 -0.62 6.68 -3 6 C-2.67 5.01 -2.34 4.02 -2 3 C-1.34 3 -0.68 3 0 3 C0 2.01 0 1.02 0 0 Z " fill="#B3CAE1" transform="translate(875,913)"/>
<path d="M0 0 C-0.33 0.99 -0.66 1.98 -1 3 C-6.75 4.125 -6.75 4.125 -9 3 C-9.33 3.99 -9.66 4.98 -10 6 C-10.66 5.67 -11.32 5.34 -12 5 C-11.67 4.01 -11.34 3.02 -11 2 C-9.2578125 1.26953125 -9.2578125 1.26953125 -7.125 0.8125 C-6.42632812 0.65394531 -5.72765625 0.49539063 -5.0078125 0.33203125 C-3 0 -3 0 0 0 Z " fill="#1F406E" transform="translate(370,803)"/>
<path d="M0 0 C0.99 0.66 1.98 1.32 3 2 C-0.63 4.31 -4.26 6.62 -8 9 C-8 8.01 -8 7.02 -8 6 C-6.25 4.39453125 -6.25 4.39453125 -4 2.8125 C-3.2575 2.28269531 -2.515 1.75289062 -1.75 1.20703125 C-1.1725 0.80871094 -0.595 0.41039062 0 0 Z " fill="#285F98" transform="translate(519,570)"/>
<path d="M0 0 C0.66 0.66 1.32 1.32 2 2 C-1.465 4.97 -1.465 4.97 -5 8 C-5.66 7.34 -6.32 6.68 -7 6 C-4.69 4.02 -2.38 2.04 0 0 Z " fill="#EFF2EA" transform="translate(811,484)"/>
<path d="M0 0 C1.90191102 6.44933736 -0.05382614 12.77224366 -2 19 C-2.33 19 -2.66 19 -3 19 C-3.45510807 12.32508169 -1.7672426 6.40625443 0 0 Z " fill="#1C497E" transform="translate(272,913)"/>
<path d="M0 0 C1.25127906 3.54667178 0.72285053 5.72253438 -0.4375 9.25 C-0.72496094 10.14203125 -1.01242187 11.0340625 -1.30859375 11.953125 C-1.53675781 12.62859375 -1.76492188 13.3040625 -2 14 C-2.66 14 -3.32 14 -4 14 C-3 6.57142857 -3 6.57142857 -2 3 C-1.34 3 -0.68 3 0 3 C0 2.01 0 1.02 0 0 Z " fill="#143C6D" transform="translate(287,860)"/>
<path d="M0 0 C0.66 0.99 1.32 1.98 2 3 C0.37536158 3.05395478 -1.24978541 3.09277195 -2.875 3.125 C-3.77992188 3.14820313 -4.68484375 3.17140625 -5.6171875 3.1953125 C-8 3 -8 3 -10 1 C-6.457201 -0.180933 -3.71640139 -0.27028374 0 0 Z " fill="#92B966" transform="translate(661,556)"/>
<path d="M0 0 C0.33 0 0.66 0 1 0 C1.33 5.94 1.66 11.88 2 18 C1.67 18 1.34 18 1 18 C1 16.02 1 14.04 1 12 C0.34 12 -0.32 12 -1 12 C-0.67 8.04 -0.34 4.08 0 0 Z " fill="#355173" transform="translate(992,564)"/>
<path d="M0 0 C1.07765625 0.01804687 2.1553125 0.03609375 3.265625 0.0546875 C4.49539063 0.08949219 4.49539063 0.08949219 5.75 0.125 C5.75 0.455 5.75 0.785 5.75 1.125 C4.5125 1.24875 3.275 1.3725 2 1.5 C-0.59089648 1.80561631 -2.16946319 2.08249446 -4.5 3.3125 C-5.0775 3.580625 -5.655 3.84875 -6.25 4.125 C-8.5 3.25 -8.5 3.25 -10.25 2.125 C-6.7733662 -0.01836161 -4.03770805 -0.08777626 0 0 Z " fill="#163D6D" transform="translate(643.25,969.875)"/>
<path d="M0 0 C0.99 0 1.98 0 3 0 C2.34 3.63 1.68 7.26 1 11 C0.01 10.67 -0.98 10.34 -2 10 C-1.34 6.7 -0.68 3.4 0 0 Z " fill="#E9EBEF" transform="translate(240,896)"/>
<path d="M0 0 C-0.33 1.98 -0.66 3.96 -1 6 C-3.31 5.34 -5.62 4.68 -8 4 C-5.57415142 1.34311822 -3.76063134 0 0 0 Z " fill="#8CB864" transform="translate(651,558)"/>
<path d="M0 0 C1.51171875 1.3671875 1.51171875 1.3671875 3 3 C2.8125 5.125 2.8125 5.125 2 7 C1.01 7.495 1.01 7.495 0 8 C-0.72693904 9.97888961 -1.39816251 11.97954558 -2 14 C-3.25127906 10.45332822 -2.72285053 8.27746562 -1.5625 4.75 C-1.27503906 3.85796875 -0.98757813 2.9659375 -0.69140625 2.046875 C-0.46324219 1.37140625 -0.23507812 0.6959375 0 0 Z " fill="#C5CCD6" transform="translate(318,794)"/>
<path d="M0 0 C2.33209576 4.45841836 4 8.91956839 4 14 C0.05536417 10.22687008 0.05536417 10.22687008 -0.09765625 6.8359375 C-0.08605469 6.02382813 -0.07445312 5.21171875 -0.0625 4.375 C-0.05347656 3.55773437 -0.04445313 2.74046875 -0.03515625 1.8984375 C-0.02355469 1.27195312 -0.01195312 0.64546875 0 0 Z " fill="#95BA65" transform="translate(676,550)"/>
<path d="M0 0 C4.97306516 0.49730652 8.63799813 1.55302334 13 4 C10.41090253 4.95892499 9.18407932 5.0552238 6.5 4.25 C4.08464227 3.04232114 2.08941618 1.70248726 0 0 Z " fill="#1C3A64" transform="translate(522,934)"/>
<path d="M0 0 C0.66 0.33 1.32 0.66 2 1 C1.67 3.64 1.34 6.28 1 9 C0.34 9 -0.32 9 -1 9 C-1.33 9.66 -1.66 10.32 -2 11 C-1.125 3.375 -1.125 3.375 0 0 Z " fill="#375275" transform="translate(255,850)"/>
<path d="M0 0 C2.4375 1 2.4375 1 4 2 C-1.02296004 3.13016601 -4.97874074 2.77916092 -10 2 C-6.29873141 -0.46751239 -4.37776468 -0.30721156 0 0 Z " fill="#1F3C66" transform="translate(797,695)"/>
<path d="M0 0 C7.75 0.75 7.75 0.75 10 3 C5.94568308 4.15837626 3.78187881 3.83691257 0 2 C0 1.34 0 0.68 0 0 Z " fill="#EDEEF0" transform="translate(483,687)"/>
<path d="M0 0 C1.83935859 3.10391762 2.55472439 5.39429145 2 9 C0 10.8125 0 10.8125 -2 12 C-1 3.42857143 -1 3.42857143 0 0 Z " fill="#375075" transform="translate(276,771)"/>
<path d="M0 0 C5.77759884 -0.12036664 11.27959989 0.1679418 17 1 C17 1.33 17 1.66 17 2 C15.52168779 2.19412181 14.04230684 2.38012131 12.5625 2.5625 C11.73878906 2.66691406 10.91507813 2.77132812 10.06640625 2.87890625 C9.38449219 2.91886719 8.70257812 2.95882812 8 3 C7.67 2.67 7.34 2.34 7 2 C4.67182036 1.63239269 2.3381615 1.29758419 0 1 C0 0.67 0 0.34 0 0 Z " fill="#375377" transform="translate(803,904)"/>
<path d="M0 0 C0.598125 0.350625 1.19625 0.70125 1.8125 1.0625 C-3.9375 4.0625 -3.9375 4.0625 -6.1875 4.0625 C-5.875 2.125 -5.875 2.125 -5.1875 0.0625 C-2.1875 -0.9375 -2.1875 -0.9375 0 0 Z " fill="#1C406D" transform="translate(646.1875,705.9375)"/>
<path d="M0 0 C0.99 0.33 1.98 0.66 3 1 C1.35 2.98 -0.3 4.96 -2 7 C-2.99 6.67 -3.98 6.34 -5 6 C-3.35 4.02 -1.7 2.04 0 0 Z " fill="#255E98" transform="translate(546,449)"/>
<path d="M0 0 C2.22825644 2.22825644 2.69239369 3.65761628 3.625 6.625 C3.88539063 7.44226563 4.14578125 8.25953125 4.4140625 9.1015625 C4.60742188 9.72804688 4.80078125 10.35453125 5 11 C2 10 2 10 1.015625 8.22265625 C0.76296875 7.50980469 0.5103125 6.79695313 0.25 6.0625 C-0.01296875 5.35222656 -0.2759375 4.64195312 -0.546875 3.91015625 C-1 2 -1 2 0 0 Z " fill="#E4B54D" transform="translate(946,298)"/>
<path d="M0 0 C5.12583611 -0.10251672 9.94997778 -0.03590199 15 1 C15 1.33 15 1.66 15 2 C12.36 2.33 9.72 2.66 7 3 C7 2.34 7 1.68 7 1 C4.69 1 2.38 1 0 1 C0 0.67 0 0.34 0 0 Z " fill="#3B7EBC" transform="translate(413,918)"/>
<path d="M0 0 C0.79921875 0.00902344 1.5984375 0.01804687 2.421875 0.02734375 C3.02515625 0.03894531 3.6284375 0.05054688 4.25 0.0625 C4.25 0.3925 4.25 0.7225 4.25 1.0625 C3.5075 1.206875 2.765 1.35125 2 1.5 C-0.66117812 1.98717376 -0.66117812 1.98717376 -2.8125 2.75 C-5.36209669 3.16122527 -6.58666008 2.37595638 -8.75 1.0625 C-5.75519083 0.1901588 -3.11424089 -0.04579766 0 0 Z " fill="#1A3E6B" transform="translate(378.75,692.9375)"/>
<path d="M0 0 C-0.33 0.99 -0.66 1.98 -1 3 C-4.37817425 3.84454356 -6.67465243 4.10844919 -10 3 C-3.375 0 -3.375 0 0 0 Z " fill="#386A9F" transform="translate(539,561)"/>
<path d="M0 0 C2 2 2 2 2.125 5.625 C2.08375 6.73875 2.0425 7.8525 2 9 C1.01 9 0.02 9 -1 9 C-1.125 2.25 -1.125 2.25 0 0 Z " fill="#9CC16E" transform="translate(755,503)"/>
<path d="M0 0 C5.53846154 -0.36923077 5.53846154 -0.36923077 7.875 1.5 C8.24625 1.995 8.6175 2.49 9 3 C6 4 6 4 2.8125 2.5625 C1.884375 2.046875 0.95625 1.53125 0 1 C0 0.67 0 0.34 0 0 Z " fill="#E1B241" transform="translate(931,277)"/>
<path d="M0 0 C0.33 0 0.66 0 1 0 C0.88590407 1.45922693 0.75834456 2.91740598 0.625 4.375 C0.55539062 5.18710937 0.48578125 5.99921875 0.4140625 6.8359375 C0 9 0 9 -2 11 C-2.33 9.68 -2.66 8.36 -3 7 C-2.34 7 -1.68 7 -1 7 C-0.67 4.69 -0.34 2.38 0 0 Z " fill="#09254A" transform="translate(301,854)"/>
<path d="M0 0 C1.37432457 3.81756824 0.67975039 7.07255329 0 11 C-0.66 11 -1.32 11 -2 11 C-1.125 3.375 -1.125 3.375 0 0 Z " fill="#495F80" transform="translate(263,820)"/>
<path d="M0 0 C0.66 0.99 1.32 1.98 2 3 C0.625 6.6875 0.625 6.6875 -1 10 C-1.66 10 -2.32 10 -3 10 C-2.01 6.7 -1.02 3.4 0 0 Z " fill="#173C5B" transform="translate(872,694)"/>
<path d="M0 0 C0.66 0 1.32 0 2 0 C1.25 5.75 1.25 5.75 -1 8 C-2.2077558 4.37673261 -1.54311128 3.35853631 0 0 Z " fill="#E2E5EA" transform="translate(984,667)"/>
<path d="M0 0 C0.66 0.33 1.32 0.66 2 1 C1.25 2.9375 1.25 2.9375 0 5 C-2.125 5.75 -2.125 5.75 -4 6 C-2.84826645 3.53199953 -1.95216435 1.95216435 0 0 Z " fill="#154C86" transform="translate(508,579)"/>
<path d="M0 0 C0 0.33 0 0.66 0 1 C-5.16044765 2.512545 -8.65998179 3.33500455 -14 2 C-14 1.67 -14 1.34 -14 1 C-9.23692563 0.04738513 -4.8333472 -0.08333357 0 0 Z " fill="#3575B0" transform="translate(362,919)"/>
<path d="M0 0 C1.64826111 2.96687001 2.44271087 5.65626525 3 9 C2.01 9 1.02 9 0 9 C-1.125 3.375 -1.125 3.375 0 0 Z " fill="#213E65" transform="translate(896,798)"/>
<path d="M0 0 C0.66 0.33 1.32 0.66 2 1 C0.35 2.65 -1.3 4.3 -3 6 C-3.99 5.34 -4.98 4.68 -6 4 C-4.02 2.68 -2.04 1.36 0 0 Z " fill="#26436C" transform="translate(615,720)"/>
<path d="M0 0 C0.88492145 2.47778006 1.11637742 3.66056586 0.25 6.1875 C-1 8 -1 8 -4 9 C-2.94124926 5.59687262 -1.99097846 2.98646769 0 0 Z " fill="#163955" transform="translate(882,674)"/>
</svg>
