<?xml version="1.0" encoding="UTF-8"?>
<svg version="1.1" xmlns="http://www.w3.org/2000/svg" width="1254" height="1254">
<path d="M0 0 C413.82 0 827.64 0 1254 0 C1254 413.82 1254 827.64 1254 1254 C840.18 1254 426.36 1254 0 1254 C0 840.18 0 426.36 0 0 Z " fill="#F9F9F9" transform="translate(0,0)"/>
<path d="M0 0 C16.94779249 -0.65498715 31.21585837 6.37438961 43.8671875 16.99609375 C54.6797183 27.00456159 61.13962707 40.36166778 62.05078125 55.03125 C62.41101771 65.00913797 61.60926184 73.85775982 57.67578125 83.15625 C57.31355469 84.03410156 56.95132812 84.91195312 56.578125 85.81640625 C53.96830792 91.54031015 50.48038126 96.22075132 46.4453125 101.02734375 C44.54759183 103.23448561 44.54759183 103.23448561 42.67578125 106.15625 C43.76117187 106.68734375 44.8465625 107.2184375 45.96484375 107.765625 C47.41026364 108.4789491 48.85557014 109.19250301 50.30078125 109.90625 C51.01363281 110.25429688 51.72648437 110.60234375 52.4609375 110.9609375 C63.53003827 116.44471219 72.11083719 124.36591267 80.67578125 133.15625 C81.51496094 132.23005859 81.51496094 132.23005859 82.37109375 131.28515625 C91.15160209 122.01056786 101.12479569 114.40219454 113.67578125 111.15625 C113.26328125 110.74117187 112.85078125 110.32609375 112.42578125 109.8984375 C100.99900705 97.70647753 94.84303456 83.46329221 95.33203125 66.61328125 C97.07170068 49.11774213 104.38292875 36.68163181 117.67578125 25.15625 C120.86844366 22.7592667 124.07408674 20.87160527 127.67578125 19.15625 C128.50722656 18.74503906 129.33867188 18.33382813 130.1953125 17.91015625 C141.68178778 13.16109851 157.16608465 12.99320769 168.86328125 17.21875 C170.83192847 18.13368265 172.7724078 19.11229448 174.67578125 20.15625 C175.64773438 20.68734375 176.6196875 21.2184375 177.62109375 21.765625 C190.66320583 29.51271065 199.94806022 41.30215835 204.20410156 55.97802734 C207.53164234 71.34465199 204.93675157 87.31261332 196.56640625 100.47265625 C194.68096901 103.11158027 192.71889328 105.63917279 190.67578125 108.15625 C190.01578125 109.14625 189.35578125 110.13625 188.67578125 111.15625 C190.2690625 111.91808594 190.2690625 111.91808594 191.89453125 112.6953125 C199.3271223 116.29736863 206.33794348 119.78625938 212.67578125 125.15625 C213.66578125 125.878125 214.65578125 126.6 215.67578125 127.34375 C224.14444843 134.59605035 233.72437564 149.37613538 234.94921875 160.6796875 C235.22536803 168.4331095 235.22536803 168.4331095 232.30078125 172.28125 C228.48496558 175.00683262 226.40352745 175.71245544 221.67578125 175.15625 C217.22923172 171.95059802 215.97688007 168.62734169 214.46484375 163.609375 C209.97700441 149.65708239 199.80148997 139.50806066 187.17578125 132.53125 C168.75959466 124.02511897 142.15268877 122.26887361 122.75 128.8359375 C111.5081759 133.66406526 98.04012404 140.40578484 92.67578125 152.15625 C92.69704587 155.56239946 92.69704587 155.56239946 93.67578125 159.15625 C94.0127443 160.61374893 94.34589399 162.07213327 94.67578125 163.53125 C94.84078125 164.19898438 95.00578125 164.86671875 95.17578125 165.5546875 C97.46519797 177.46680885 97.00667269 189.72897505 97.08081055 201.80371094 C97.10248799 204.45911587 97.13670361 207.11444755 97.18334961 209.76953125 C97.25023965 213.62011234 97.27778069 217.46923308 97.296875 221.3203125 C97.32470566 222.50275543 97.35253632 223.68519836 97.38121033 224.9034729 C97.35829185 234.08575467 97.35829185 234.08575467 93.82446289 238.27099609 C92.80074478 239.26020999 91.75139624 240.22372906 90.67578125 241.15625 C87.63475524 244.01617061 85.78824614 247.26895904 83.80078125 250.90625 C83.14072186 252.11157584 82.47663743 253.31470601 81.80859375 254.515625 C81.47263184 255.12220947 81.13666992 255.72879395 80.79052734 256.35375977 C79.63668103 258.21947315 78.31431286 259.79819535 76.91015625 261.48046875 C73.71130299 265.86281195 74.40095134 270.02331863 74.80078125 275.21875 C75.21050477 286.10203112 73.25536565 293.56731069 66.07788086 302.04321289 C60.56719054 307.9557767 54.15846581 311.88424418 47.23828125 315.96875 C45.48472342 317.02207117 43.73381343 318.07970056 41.98301697 319.13760376 C40.26347738 320.17618804 38.54190887 321.21141073 36.8203125 322.24658203 C32.74162479 324.72356148 28.72976352 327.29175888 24.73828125 329.90625 C17.37672429 334.71361457 9.95693666 339.42261356 2.515625 344.10546875 C-0.74902012 346.1600064 -4.00612599 348.22579759 -7.2578125 350.30078125 C-35.45041971 368.27114618 -62.04351388 381.79985051 -96.29296875 374.43359375 C-121.25908349 368.40355488 -145.47624367 358.54800197 -169.32421875 349.15625 C-170.52224121 348.68582275 -171.72026367 348.21539551 -172.95458984 347.73071289 C-174.02660645 347.29879639 -175.09862305 346.86687988 -176.203125 346.421875 C-177.58286499 345.86741699 -177.58286499 345.86741699 -178.99047852 345.30175781 C-182.69065978 343.48553745 -184.27718877 341.73855247 -186.32421875 338.15625 C-187.09264603 334.87296982 -186.87756136 333.18596651 -185.28515625 330.22265625 C-183.30798559 327.47781319 -181.59957192 325.54676512 -178.30859375 324.5390625 C-172.72701603 324.197743 -168.51665196 326.22228321 -163.61328125 328.66015625 C-158.88331313 330.81167382 -153.99176066 332.34973126 -149.04516602 333.92431641 C-144.23174102 335.47039816 -139.55064326 337.22489018 -134.86694336 339.12768555 C-108.36755974 349.84702335 -77.54087539 361.94115668 -49.38061523 350.09033203 C-40.19569046 345.91824107 -31.69784371 341.05205744 -23.26171875 335.53125 C-21.06020242 334.10629706 -18.85837669 332.68182202 -16.65625 331.2578125 C-15.58197754 330.56075195 -14.50770508 329.86369141 -13.40087891 329.14550781 C-9.1036739 326.36708959 -4.78001261 323.63191167 -0.44921875 320.90625 C0.31076416 320.42720215 1.07074707 319.9481543 1.85375977 319.45458984 C3.36815644 318.50005514 4.88272183 317.54578807 6.39746094 316.59179688 C11.10840825 313.62347602 15.81542503 310.6489149 20.52148438 307.67285156 C24.64788684 305.06426546 28.7791575 302.46386086 32.91796875 299.875 C33.77712891 299.33617187 34.63628906 298.79734375 35.52148438 298.2421875 C37.16184217 297.21363883 38.80368319 296.18745042 40.44726562 295.1640625 C48.56215861 290.54824082 48.56215861 290.54824082 53.67578125 283.15625 C54.45311927 277.60383558 53.99808105 272.80746971 50.67578125 268.15625 C46.31206176 265.18098671 42.89183054 264.61665869 37.67578125 265.15625 C31.67026731 266.98844069 26.27957353 269.83096903 20.6953125 272.67578125 C17.20273762 274.38818213 13.65529409 275.82854549 10.03125 277.234375 C2.85993591 280.04105846 -3.98063163 283.45534426 -10.8203125 286.984375 C-13.32421875 288.15625 -13.32421875 288.15625 -15.32421875 288.15625 C-15.44667969 288.89101563 -15.56914063 289.62578125 -15.6953125 290.3828125 C-17.53852791 298.51127798 -22.61360869 304.46465827 -29.32421875 309.15625 C-38.2812577 314.50001667 -45.8695156 315.33184813 -56.13671875 315.28125 C-57.67477173 315.27399902 -57.67477173 315.27399902 -59.24389648 315.26660156 C-80.97367959 315.09695691 -101.3911087 312.173563 -122.32421875 306.15625 C-123.28972656 305.93453125 -124.25523437 305.7128125 -125.25 305.484375 C-130.64169965 304.17439168 -133.98076794 302.52646725 -137.31640625 297.98046875 C-138.95389121 295.01649403 -139.14903929 293.45553215 -138.32421875 290.15625 C-136.7395713 287.22435547 -135.02152709 285.12714336 -132.32421875 283.15625 C-124.94757789 281.72851306 -118.32862834 284.55530108 -111.37109375 286.8515625 C-93.07999921 292.84821955 -73.45492176 294.08542584 -54.32421875 294.40625 C-53.28309937 294.438396 -53.28309937 294.438396 -52.22094727 294.47119141 C-47.09594581 294.50461129 -43.76021234 293.55114224 -39.32421875 291.15625 C-36.01304654 287.80869128 -34.47380377 284.22204329 -33.82421875 279.59375 C-34.58728993 274.34763567 -35.84368816 270.63678059 -39.63671875 266.84375 C-42.8151607 264.99744916 -46.02439741 264.64093073 -49.63671875 264.15625 C-51.51000854 263.90331177 -51.51000854 263.90331177 -53.42114258 263.64526367 C-57.14015159 263.17931164 -60.86103156 262.74792247 -64.5859375 262.33203125 C-79.39567615 260.6468021 -92.7096437 258.29718747 -106.32421875 252.15625 C-107.09805908 251.81843506 -107.87189941 251.48062012 -108.66918945 251.13256836 C-112.49376297 249.45806775 -116.22400122 247.72733703 -119.88671875 245.71875 C-126.69310499 242.26762458 -134.00306099 240.22229315 -141.32421875 238.15625 C-142.57976562 237.785 -143.8353125 237.41375 -145.12890625 237.03125 C-176.2535972 229.44881799 -205.8489827 245.20049624 -231.54296875 260.671875 C-233.72779124 262.00598296 -235.89457098 263.36237582 -238.05859375 264.73046875 C-242.05616953 267.24618454 -244.53739278 267.64304586 -249.32421875 267.15625 C-252.87527721 264.60875154 -254.10235492 262.91890693 -255.32421875 258.71875 C-255.32421875 254.53253498 -254.50633677 252.70276603 -252.32421875 249.15625 C-249.75 247.13671875 -249.75 247.13671875 -246.63671875 245.34375 C-246.07436523 245.01463623 -245.51201172 244.68552246 -244.93261719 244.34643555 C-243.07277398 243.26524332 -241.19992346 242.20965706 -239.32421875 241.15625 C-237.95812292 240.37797339 -236.59224173 239.5993199 -235.2265625 238.8203125 C-231.27228444 236.57505141 -227.30074084 234.36180734 -223.32421875 232.15625 C-222.3290625 231.60195313 -221.33390625 231.04765625 -220.30859375 230.4765625 C-218.31528394 229.36707874 -216.32076442 228.25989608 -214.32421875 227.15625 C-215.31421875 225.17625 -215.31421875 225.17625 -216.32421875 223.15625 C-217.00484375 223.32125 -217.68546875 223.48625 -218.38671875 223.65625 C-221.91954477 224.25758209 -224.74695422 224.60340807 -228.32421875 224.15625 C-232.21152873 220.73825079 -233.61552358 218.41320648 -233.95532227 213.23095703 C-233.98148064 211.29216851 -233.97907239 209.35285386 -233.953125 207.4140625 C-233.95553696 206.37289276 -233.95794891 205.33172302 -233.96043396 204.25900269 C-233.95945603 202.05511674 -233.94607546 199.85120606 -233.92114258 197.64746094 C-233.88718241 194.32659011 -233.90040149 191.00843682 -233.91992188 187.6875 C-233.90628016 165.84054391 -230.0640236 148.06858844 -215.32421875 131.15625 C-214.82792969 130.56585937 -214.33164062 129.97546875 -213.8203125 129.3671875 C-206.03796978 120.82416467 -194.71768062 114.9219157 -184.32421875 110.15625 C-184.82050781 109.66898438 -185.31679688 109.18171875 -185.828125 108.6796875 C-197.63850778 96.35386107 -201.88323086 82.50140269 -201.5703125 65.640625 C-200.51499687 50.69869578 -193.72852095 39.57893436 -183.32421875 29.15625 C-182.47730469 28.29193359 -182.47730469 28.29193359 -181.61328125 27.41015625 C-170.82368441 17.27846166 -157.43461925 14.54018979 -143.19140625 14.84765625 C-128.01340955 15.56069664 -114.92121584 22.47646851 -104.58203125 33.4140625 C-95.42634073 44.5339496 -91.79274613 55.38679862 -91.88671875 69.59375 C-91.86673828 70.66173828 -91.84675781 71.72972656 -91.82617188 72.83007812 C-91.83217948 82.66452132 -94.79265701 89.97525658 -99.69921875 98.40625 C-100.24320313 99.36015625 -100.7871875 100.3140625 -101.34765625 101.296875 C-103.70188529 104.70259765 -106.3281303 107.30363621 -109.32421875 110.15625 C-108.22464844 110.70152344 -107.12507812 111.24679687 -105.9921875 111.80859375 C-96.81452687 116.45408913 -89.00756701 121.25991137 -81.32421875 128.15625 C-80.09950738 129.18242418 -78.87117726 130.20432229 -77.63671875 131.21875 C-76.87359375 131.858125 -76.11046875 132.4975 -75.32421875 133.15625 C-74.92332031 132.6715625 -74.52242187 132.186875 -74.109375 131.6875 C-65.69962306 121.77123921 -56.70887016 115.19592808 -45.32421875 109.15625 C-44.60878906 108.75148438 -43.89335938 108.34671875 -43.15625 107.9296875 C-41.32421875 107.15625 -41.32421875 107.15625 -37.32421875 107.15625 C-39.05928884 103.89023572 -41.05694925 101.3262527 -43.57421875 98.65625 C-53.97214122 86.93655772 -58.24864475 72.75695841 -57.6640625 57.30859375 C-56.54251402 40.34966315 -49.0076074 25.58648947 -36.32421875 14.15625 C-25.23350559 5.52786615 -13.96731193 0.93897895 0 0 Z " fill="#041B3B" transform="translate(624.32421875,473.84375)"/>
<path d="M0 0 C19.11165053 16.73891913 33.2802808 37.23077622 41.14501953 61.41796875 C41.67819439 62.73394124 42.21852206 64.04706913 42.77001953 65.35546875 C52.8848532 92.07931906 50.63251246 126.97286134 41.14501953 153.41796875 C40.8868042 154.14346924 40.62858887 154.86896973 40.36254883 155.61645508 C36.78963396 165.47787553 32.85008187 174.5742551 27.14501953 183.41796875 C27.75087891 183.3715625 28.35673828 183.32515625 28.98095703 183.27734375 C38.0410521 182.88706273 44.78705818 184.99846065 51.53955078 191.16015625 C58.52227673 197.58460052 65.16015722 204.36211487 71.83251953 211.10546875 C74.3750943 213.67487134 76.92113523 216.24076856 79.46923828 218.8046875 C80.03607834 219.3798259 80.6029184 219.95496429 81.18693542 220.54753113 C84.58491855 223.96600416 88.09093412 227.12108745 91.84846497 230.14265442 C92.49025948 230.77393501 92.49025948 230.77393501 93.14501953 231.41796875 C93.14501953 232.07796875 93.14501953 232.73796875 93.14501953 233.41796875 C93.68022217 233.6301001 94.2154248 233.84223145 94.7668457 234.06079102 C98.04662723 235.9324988 100.54012668 238.4879244 103.19580078 241.1328125 C103.77283249 241.70318741 104.3498642 242.27356232 104.94438171 242.86122131 C106.16485446 244.0715795 107.38263519 245.2846574 108.59790039 246.50024414 C110.43038798 248.32840131 112.27819347 250.1399916 114.12744141 251.95117188 C124.95488697 262.67491594 134.08577758 273.38932231 134.52001953 289.23046875 C134.14440729 303.76979271 129.40094734 315.21397918 118.84423828 325.3046875 C107.03822399 334.54789116 93.79933869 336.69504914 79.14501953 335.41796875 C68.26018615 333.07744758 60.03989482 324.61145891 52.40966797 316.98901367 C51.69462097 316.28229019 50.97957397 315.57556671 50.24285889 314.84742737 C47.90800085 312.53643858 45.58066176 310.21807167 43.25439453 307.8984375 C41.62020716 306.27323015 39.98594896 304.64809402 38.35162354 303.02302551 C34.93888171 299.62671076 31.53050171 296.22608301 28.12451172 292.82299805 C23.77319364 288.47707383 19.40592834 284.14755898 15.0345726 279.82180309 C11.65793585 276.47498693 8.29268498 273.11689589 4.93042755 269.75564003 C3.32546005 268.15486053 1.71639786 266.55817493 0.10308075 264.96581078 C-2.1557713 262.73398993 -4.39808419 260.48669885 -6.63720703 258.23510742 C-7.2970459 257.59010284 -7.95688477 256.94509827 -8.63671875 256.2805481 C-13.94953784 250.88359071 -18.24285818 244.65875193 -19.34326172 237.03515625 C-19.28525391 236.13023437 -19.22724609 235.2253125 -19.16748047 234.29296875 C-19.12236328 233.36226562 -19.07724609 232.4315625 -19.03076172 231.47265625 C-18.97275391 230.79460937 -18.91474609 230.1165625 -18.85498047 229.41796875 C-19.75422241 229.84879761 -19.75422241 229.84879761 -20.67163086 230.28833008 C-23.41954835 231.60384223 -26.16850426 232.91717048 -28.91748047 234.23046875 C-29.86042969 234.68228516 -30.80337891 235.13410156 -31.77490234 235.59960938 C-42.63703325 240.78466838 -53.1954688 244.462975 -64.85498047 247.41796875 C-65.51675293 247.58893066 -66.17852539 247.75989258 -66.86035156 247.93603516 C-93.63049453 254.62683393 -126.84710049 251.21986658 -151.85498047 239.41796875 C-152.43812012 239.1461377 -153.02125977 238.87430664 -153.62207031 238.59423828 C-188.77562021 222.0796758 -217.16673818 193.13933963 -230.60546875 156.36425781 C-236.25826575 139.96770669 -238.04944122 124.16528642 -238.09521484 106.88574219 C-238.10490477 104.68515975 -238.13603265 102.48552056 -238.16748047 100.28515625 C-238.26622831 87.23071007 -236.21575992 75.01096195 -231.79248047 62.66796875 C-231.49575439 61.83507324 -231.19902832 61.00217773 -230.89331055 60.14404297 C-223.39629588 39.89657544 -211.75306534 22.85780217 -196.85498047 7.41796875 C-196.18982422 6.70125 -195.52466797 5.98453125 -194.83935547 5.24609375 C-143.87060311 -48.29251167 -54.42274665 -46.41476682 0 0 Z " fill="#D2E6F8" transform="translate(942.85498046875,699.58203125)"/>
<path d="M0 0 C1.04969971 0.63494385 1.04969971 0.63494385 2.12060547 1.28271484 C19.30549269 11.71573968 35.52252439 23.32763985 50.54199219 36.70507812 C51.82183277 37.84176172 53.11678908 38.9613783 54.4140625 40.078125 C66.39050484 50.53178945 78.30560778 61.87033577 88.015625 74.48046875 C89.71792129 76.64184889 91.47949661 78.68161729 93.30859375 80.734375 C97.06403774 85.00047567 100.46280985 89.47407795 103.8125 94.0625 C104.41852051 94.88959473 105.02454102 95.71668945 105.64892578 96.56884766 C110.9898839 103.90331168 116.10194455 111.36343625 121 119 C121.66128906 120.02738281 122.32257812 121.05476562 123.00390625 122.11328125 C125.05728154 125.37794054 127.04936229 128.67336483 129 132 C129.40299316 132.68562012 129.80598633 133.37124023 130.22119141 134.07763672 C148.83864422 166.06828806 162.45429088 201.35484703 169.515625 237.7043457 C170.17949748 240.85071312 171.11212865 243.91035091 172 247 C172.53835829 249.64603098 173.04381161 252.27795271 173.5 254.9375 C173.62745605 255.67693848 173.75491211 256.41637695 173.88623047 257.17822266 C176.23320449 271.08544957 177.60059669 284.90409957 178 299 C178.03399902 300.09747559 178.06799805 301.19495117 178.10302734 302.32568359 C178.55466054 319.1920055 177.82613106 335.71620966 176.125 352.5 C176.03795807 353.36756927 175.95091614 354.23513855 175.86123657 355.1289978 C175.6070099 357.61836104 175.34168569 360.10620203 175.0703125 362.59375 C174.99311478 363.32584183 174.91591705 364.05793365 174.83638 364.81221008 C174.27876817 369.68390819 173.22811023 374.25310277 172 379 C171.6673578 380.88763488 171.35793735 382.77959526 171.078125 384.67578125 C170.0119489 391.28545079 168.44808999 397.71463805 166.75 404.1875 C166.4420752 405.36135254 166.13415039 406.53520508 165.81689453 407.74462891 C164.00947159 414.51247531 162.12666664 421.2403581 159.875 427.875 C159.65811523 428.53910889 159.44123047 429.20321777 159.21777344 429.88745117 C157.45303865 434.82364049 154.76508008 438.61745996 150 441 C145.85864965 441.39069343 143.68813188 441.43382227 140.125 439.1875 C137.22899618 436.20631959 137.02369511 434.40450944 136.78125 430.265625 C136.841942 426.08925686 137.99323452 422.60876643 139.5 418.75 C148.25165844 394.28380173 152.25813829 367.74121885 155 342 C155.15251221 340.66400757 155.15251221 340.66400757 155.30810547 339.30102539 C162.30759461 272.51891192 143.53734164 199.20808366 109 142 C108.42282227 141.03537842 108.42282227 141.03537842 107.83398438 140.05126953 C72.66988755 81.56434089 22.85869878 34.3014889 -39 5 C-39.74024414 4.64583008 -40.48048828 4.29166016 -41.24316406 3.92675781 C-55.15363461 -2.68699088 -69.42749324 -8.03395021 -84 -13 C-84.76828125 -13.26296875 -85.5365625 -13.5259375 -86.328125 -13.796875 C-119.95165372 -25.1732569 -155.2114915 -29.42637325 -190.5625 -29.3125 C-191.55479614 -29.30986145 -192.54709229 -29.3072229 -193.56945801 -29.30450439 C-210.3632051 -29.23042354 -226.9886767 -28.71297701 -243.625 -26.25 C-244.82519775 -26.07299561 -246.02539551 -25.89599121 -247.26196289 -25.71362305 C-298.29124619 -17.94587344 -349.69051962 1.12049066 -392 31 C-393.22525519 31.85417416 -394.45051567 32.70834074 -395.67578125 33.5625 C-402.65469051 38.45937576 -409.45108257 43.53771776 -416 49 C-416.49419434 49.40395996 -416.98838867 49.80791992 -417.49755859 50.22412109 C-426.60365622 57.69316746 -435.03408448 65.82281096 -443.375 74.125 C-443.88492493 74.62974854 -444.39484985 75.13449707 -444.92022705 75.65454102 C-451.74002497 82.41969268 -458.05857566 89.43911984 -464 97 C-464.8367627 98.04776611 -464.8367627 98.04776611 -465.69042969 99.11669922 C-485.93427724 124.59159806 -504.64863565 153.34118112 -516 184 C-516.350625 184.87269531 -516.70125 185.74539063 -517.0625 186.64453125 C-528.21403219 214.63340975 -535.03290777 243.16895769 -539 273 C-539.17732666 274.20615967 -539.35465332 275.41231934 -539.53735352 276.6550293 C-541.35166748 289.63009253 -541.44206494 302.6041531 -541.4375 315.6875 C-541.43790283 316.87297424 -541.43830566 318.05844849 -541.4387207 319.27984619 C-541.36070801 359.32927667 -536.11235937 402.52881621 -519.14453125 439.32421875 C-518.01206199 441.97180047 -517.0442306 444.65446404 -516.08837891 447.36987305 C-512.69299608 456.91343197 -508.2155718 465.67116426 -503.34423828 474.53808594 C-502.00792536 476.98548504 -500.70235679 479.44722043 -499.40234375 481.9140625 C-488.64161537 502.15405244 -475.80309418 521.27559629 -460.71606445 538.55078125 C-456.1302385 543.84450892 -453.24906439 547.73335646 -453.44921875 554.8125 C-454.45446781 560.63011157 -456.87343079 565.94725659 -459.125 571.37890625 C-461.32082373 576.68363566 -463.05387414 582.09278906 -464.76171875 587.5703125 C-465.67716627 590.10584223 -466.60257216 592.26633485 -467.83203125 594.6328125 C-470.67378811 600.15450855 -472.79560242 605.95176637 -475 611.75 C-475.42539062 612.8534375 -475.85078125 613.956875 -476.2890625 615.09375 C-478.71985665 621.44662305 -480.987193 627.82378113 -483.05664062 634.30371094 C-484.04484426 637.12817288 -485.22400656 639.79460659 -486.5 642.5 C-489.17218603 648.18864143 -491.09641625 654.01944947 -493 660 C-493.99332401 663.00223831 -494.99550875 666.00148145 -496 669 C-486.24085188 665.65959129 -476.52679984 662.33405085 -467.05078125 658.24609375 C-463.24542571 656.6917936 -459.38347599 655.34454191 -455.5 654 C-449.64476636 651.97081208 -443.91683016 649.77723798 -438.21875 647.33447266 C-434.88135382 645.95081007 -431.51775672 644.68198485 -428.12890625 643.4296875 C-422.21895805 641.23259445 -416.33723378 638.97015204 -410.46812439 636.66619873 C-406.36555242 635.05578199 -402.25869648 633.45642659 -398.15185547 631.85693359 C-396.03454676 631.02936274 -393.91900404 630.19726065 -391.80517578 629.36083984 C-388.70821251 628.13681332 -385.60494316 626.93017785 -382.5 625.7265625 C-381.56341553 625.3516568 -380.62683105 624.9767511 -379.66186523 624.59048462 C-372.8936001 621.9934827 -367.48433897 620.61092054 -360.4921875 623.3984375 C-359.27874665 624.04297837 -358.0733067 624.70274061 -356.875 625.375 C-355.48251851 626.11195903 -354.08785536 626.84480583 -352.69140625 627.57421875 C-351.57016357 628.16275635 -351.57016357 628.16275635 -350.42626953 628.76318359 C-338.32886448 634.92996303 -325.7733134 640.39894953 -313 645 C-311.85402344 645.42925781 -310.70804688 645.85851562 -309.52734375 646.30078125 C-303.08646784 648.67668651 -296.71182369 650.72026154 -290.01171875 652.2265625 C-287.55773878 652.85676747 -285.25676371 653.59315388 -282.87109375 654.4296875 C-277.4627083 656.26004488 -271.97187135 657.40266031 -266.375 658.5 C-265.28904541 658.71430664 -264.20309082 658.92861328 -263.08422852 659.14941406 C-255.72829561 660.56293004 -248.36315855 661.76780335 -240.9375 662.75 C-239.63981689 662.92305664 -239.63981689 662.92305664 -238.31591797 663.09960938 C-224.88980944 664.76306566 -211.43230424 665.186705 -197.91870117 665.18530273 C-195.56736278 665.18749547 -193.21649103 665.20577192 -190.86523438 665.22460938 C-181.11665133 665.26121208 -171.65068782 664.60339011 -161.99563599 663.2727356 C-158.85359327 662.84332517 -155.70547628 662.46243625 -152.55859375 662.0703125 C-131.91293852 659.38712968 -131.91293852 659.38712968 -111.87109375 653.91015625 C-107.24277348 652.44294724 -102.66738459 651.87631651 -98.08984375 653.8046875 C-95.59767113 655.5132692 -94.15525475 657.2139354 -93.56640625 660.1953125 C-93.45247885 664.2564894 -93.65278699 667.57335878 -96 671 C-99.45778067 672.84414969 -103.26372414 673.84093632 -107 675 C-107.97710938 675.31839844 -108.95421875 675.63679687 -109.9609375 675.96484375 C-152.32269137 688.98716068 -199.18908706 690.02606344 -243 685 C-243.85110352 684.90348145 -244.70220703 684.80696289 -245.57910156 684.70751953 C-251.42640098 684.0095569 -257.21045178 683.07261009 -263 682 C-263.95793457 681.82549316 -264.91586914 681.65098633 -265.90283203 681.47119141 C-280.62932484 678.70485007 -294.74974178 674.68694301 -308.9375 669.9375 C-309.70126953 669.68219513 -310.46503906 669.42689026 -311.25195312 669.16384888 C-324.94800198 664.55793944 -338.04675154 659.10642738 -351.0625 652.8125 C-352.17560547 652.27947266 -353.28871094 651.74644531 -354.43554688 651.19726562 C-362.60432286 647.26378476 -362.60432286 647.26378476 -366 645 C-371.37141146 645.33687005 -376.01645083 646.90167006 -380.98828125 648.80078125 C-381.73152145 649.07842819 -382.47476166 649.35607513 -383.24052429 649.64213562 C-385.60038718 650.52566301 -387.95639004 651.41901979 -390.3125 652.3125 C-391.88192745 652.90101504 -393.45158719 653.48891101 -395.02148438 654.07617188 C-401.9149558 656.66130894 -408.78355012 659.29271353 -415.60864258 662.05395508 C-420.59838175 664.02794582 -425.64951773 665.84109043 -430.6875 667.6875 C-439.74084272 671.02290921 -448.76615229 674.41895473 -457.75 677.9375 C-459.14931763 678.48506958 -459.14931763 678.48506958 -460.5769043 679.04370117 C-464.24694099 680.48845149 -467.89258788 681.95311186 -471.5078125 683.53125 C-475.98120228 685.41267568 -480.5366662 686.98674282 -485.125 688.5625 C-486.87796402 689.1669261 -488.63057954 689.77236407 -490.3828125 690.37890625 C-491.19580811 690.65927734 -492.00880371 690.93964844 -492.84643555 691.22851562 C-494.51187485 691.82513598 -496.15153934 692.4939796 -497.77734375 693.19140625 C-503.22693874 695.17394784 -509.17646609 694.84422866 -514.375 692.4375 C-518.9468375 688.19222232 -522.2353546 684.77247831 -522.8125 678.3125 C-522.2828827 666.34645916 -515.07130631 654.16660445 -510.08203125 643.50390625 C-508.49127199 639.82276298 -507.28114344 636.04127638 -506.08984375 632.21484375 C-504.88664125 628.665612 -503.50919962 625.21412795 -502.10375977 621.7409668 C-500.97505436 618.93805249 -499.87443259 616.12554011 -498.78125 613.30859375 C-498.40613281 612.34373047 -498.03101563 611.37886719 -497.64453125 610.38476562 C-496.88019209 608.41652707 -496.11717546 606.44777443 -495.35546875 604.47851562 C-493.64127656 600.07522126 -491.89809066 595.71004511 -489.9375 591.41015625 C-487.81320731 586.70779251 -486.14640701 581.88659614 -484.5 577 C-482.5289768 571.14993115 -480.42396131 565.49542307 -477.77026367 559.91625977 C-476.50448345 556.76725534 -476.73279829 555.13465685 -478 552 C-479.02371002 550.75324114 -480.08921514 549.54036858 -481.1796875 548.3515625 C-484.85127479 544.23516182 -488.11423662 539.92719906 -491.3125 535.4375 C-491.87372559 534.6530249 -492.43495117 533.8685498 -493.01318359 533.06030273 C-505.51726178 515.49877467 -516.62152479 497.37801733 -526.03515625 477.96484375 C-527.03268552 475.933438 -528.05881502 473.91883573 -529.09375 471.90625 C-533.27118776 463.76063388 -536.8511863 455.60819034 -540 447 C-540.83288032 444.91648552 -541.66622162 442.83315526 -542.5 440.75 C-544.4064317 435.78371554 -546.05574007 430.78568305 -547.5625 425.6875 C-547.748125 425.06133789 -547.93375 424.43517578 -548.125 423.79003906 C-562.65662563 373.35527633 -569.37799211 320.16318557 -561 268 C-560.69319314 265.91437317 -560.38856087 263.82842546 -560.0859375 261.7421875 C-550.6658316 198.29757962 -525.5586653 137.98427061 -485 88 C-484.2678125 87.07703125 -483.535625 86.1540625 -482.78125 85.203125 C-473.77853057 73.98142543 -463.83011914 63.64332344 -453.66601562 53.48071289 C-451.99578905 51.8082835 -450.33377621 50.12796331 -448.671875 48.44726562 C-442.10609458 41.84671774 -435.34812832 35.73816132 -428 30 C-427.2869873 29.4330542 -426.57397461 28.8661084 -425.83935547 28.28198242 C-387.56800439 -2.01266581 -343.60276509 -24.95582023 -296.32763672 -37.37353516 C-294.09186527 -37.9752752 -291.87641391 -38.62328998 -289.66015625 -39.29296875 C-276.3233771 -43.27924976 -262.70951053 -45.66880959 -249 -48 C-248.27828613 -48.12503906 -247.55657227 -48.25007812 -246.81298828 -48.37890625 C-242.88619003 -49.04874066 -238.9587953 -49.55965884 -235 -50 C-234.23977539 -50.08878418 -233.47955078 -50.17756836 -232.69628906 -50.26904297 C-153.56403149 -59.20721987 -68.07133782 -41.69757559 0 0 Z " fill="#051C3B" transform="translate(819,252)"/>
<path d="M0 0 C19.11165053 16.73891913 33.2802808 37.23077622 41.14501953 61.41796875 C41.67819439 62.73394124 42.21852206 64.04706913 42.77001953 65.35546875 C52.8848532 92.07931906 50.63251246 126.97286134 41.14501953 153.41796875 C40.8868042 154.14346924 40.62858887 154.86896973 40.36254883 155.61645508 C36.78963396 165.47787553 32.85008187 174.5742551 27.14501953 183.41796875 C27.75087891 183.3715625 28.35673828 183.32515625 28.98095703 183.27734375 C38.0410521 182.88706273 44.78705818 184.99846065 51.53955078 191.16015625 C58.52227673 197.58460052 65.16015722 204.36211487 71.83251953 211.10546875 C74.3750943 213.67487134 76.92113523 216.24076856 79.46923828 218.8046875 C80.03607834 219.3798259 80.6029184 219.95496429 81.18693542 220.54753113 C84.58491855 223.96600416 88.09093412 227.12108745 91.84846497 230.14265442 C92.49025948 230.77393501 92.49025948 230.77393501 93.14501953 231.41796875 C93.14501953 232.07796875 93.14501953 232.73796875 93.14501953 233.41796875 C93.68022217 233.6301001 94.2154248 233.84223145 94.7668457 234.06079102 C98.04662723 235.9324988 100.54012668 238.4879244 103.19580078 241.1328125 C103.77283249 241.70318741 104.3498642 242.27356232 104.94438171 242.86122131 C106.16485446 244.0715795 107.38263519 245.2846574 108.59790039 246.50024414 C110.43038798 248.32840131 112.27819347 250.1399916 114.12744141 251.95117188 C124.95488697 262.67491594 134.08577758 273.38932231 134.52001953 289.23046875 C134.14440729 303.76979271 129.40094734 315.21397918 118.84423828 325.3046875 C107.03822399 334.54789116 93.79933869 336.69504914 79.14501953 335.41796875 C68.26018615 333.07744758 60.03989482 324.61145891 52.40966797 316.98901367 C51.69462097 316.28229019 50.97957397 315.57556671 50.24285889 314.84742737 C47.90800085 312.53643858 45.58066176 310.21807167 43.25439453 307.8984375 C41.62020716 306.27323015 39.98594896 304.64809402 38.35162354 303.02302551 C34.93888171 299.62671076 31.53050171 296.22608301 28.12451172 292.82299805 C23.77319364 288.47707383 19.40592834 284.14755898 15.0345726 279.82180309 C11.65793585 276.47498693 8.29268498 273.11689589 4.93042755 269.75564003 C3.32546005 268.15486053 1.71639786 266.55817493 0.10308075 264.96581078 C-2.1557713 262.73398993 -4.39808419 260.48669885 -6.63720703 258.23510742 C-7.2970459 257.59010284 -7.95688477 256.94509827 -8.63671875 256.2805481 C-13.94953784 250.88359071 -18.24285818 244.65875193 -19.34326172 237.03515625 C-19.28525391 236.13023437 -19.22724609 235.2253125 -19.16748047 234.29296875 C-19.12236328 233.36226562 -19.07724609 232.4315625 -19.03076172 231.47265625 C-18.97275391 230.79460937 -18.91474609 230.1165625 -18.85498047 229.41796875 C-19.75422241 229.84879761 -19.75422241 229.84879761 -20.67163086 230.28833008 C-23.41954835 231.60384223 -26.16850426 232.91717048 -28.91748047 234.23046875 C-29.86042969 234.68228516 -30.80337891 235.13410156 -31.77490234 235.59960938 C-42.63703325 240.78466838 -53.1954688 244.462975 -64.85498047 247.41796875 C-65.51675293 247.58893066 -66.17852539 247.75989258 -66.86035156 247.93603516 C-93.63049453 254.62683393 -126.84710049 251.21986658 -151.85498047 239.41796875 C-152.43812012 239.1461377 -153.02125977 238.87430664 -153.62207031 238.59423828 C-188.77562021 222.0796758 -217.16673818 193.13933963 -230.60546875 156.36425781 C-236.25826575 139.96770669 -238.04944122 124.16528642 -238.09521484 106.88574219 C-238.10490477 104.68515975 -238.13603265 102.48552056 -238.16748047 100.28515625 C-238.26622831 87.23071007 -236.21575992 75.01096195 -231.79248047 62.66796875 C-231.49575439 61.83507324 -231.19902832 61.00217773 -230.89331055 60.14404297 C-223.39629588 39.89657544 -211.75306534 22.85780217 -196.85498047 7.41796875 C-196.18982422 6.70125 -195.52466797 5.98453125 -194.83935547 5.24609375 C-143.87060311 -48.29251167 -54.42274665 -46.41476682 0 0 Z M-187.29931641 29.65087891 C-191.33193007 34.23155337 -194.64641138 39.23202569 -197.85498047 44.41796875 C-198.54076172 45.49304688 -199.22654297 46.568125 -199.93310547 47.67578125 C-216.49471556 74.92026197 -219.93399104 106.53372728 -212.85498047 137.41796875 C-212.65001953 138.33835937 -212.44505859 139.25875 -212.23388672 140.20703125 C-207.4376216 158.49837773 -196.52870989 175.65441667 -183.85498047 189.41796875 C-183.05189453 190.30355469 -182.24880859 191.18914062 -181.42138672 192.1015625 C-168.40099666 205.80611098 -151.79943888 215.75129767 -133.85498047 221.41796875 C-133.15614746 221.64258789 -132.45731445 221.86720703 -131.73730469 222.09863281 C-129.53085498 222.80324633 -127.31950358 223.48918584 -125.10498047 224.16796875 C-124.43249268 224.3788916 -123.76000488 224.58981445 -123.06713867 224.80712891 C-94.13648233 233.37839396 -61.66552349 226.33345112 -35.63623047 212.54296875 C-7.18069085 196.86928737 13.35315217 170.270177 22.62353516 139.27514648 C25.81189195 127.83202206 26.31894585 116.72165967 26.39501953 104.91796875 C26.4044458 103.79535645 26.41387207 102.67274414 26.42358398 101.51611328 C26.40051516 95.71408682 26.01571823 90.9034762 24.14501953 85.41796875 C23.82720797 83.67252747 23.53372244 81.92240034 23.27001953 80.16796875 C19.59277759 59.63670126 7.37096845 40.23964417 -6.85498047 25.41796875 C-7.61423828 24.59554687 -8.37349609 23.773125 -9.15576172 22.92578125 C-24.19373488 7.124834 -43.63714119 -3.74065508 -64.85498047 -8.58203125 C-65.95044189 -8.84097168 -67.04590332 -9.09991211 -68.17456055 -9.36669922 C-77.28500888 -11.37617323 -85.93082459 -12.05934762 -95.29248047 -11.95703125 C-95.96952026 -11.9520462 -96.64656006 -11.94706116 -97.34411621 -11.94192505 C-132.97728755 -11.63495967 -163.32260345 3.71931413 -187.29931641 29.65087891 Z " fill="#041B3A" transform="translate(942.85498046875,699.58203125)"/>
<path d="M0 0 C3.49890004 2.11391877 4.70578686 3.11736059 6 7 C6.06970052 9.39490986 6.08448003 11.79167691 6.0625 14.1875 C6.05347656 15.45980469 6.04445313 16.73210937 6.03515625 18.04296875 C6.01775391 19.50669922 6.01775391 19.50669922 6 21 C6.55107233 20.99539104 7.10214466 20.99078207 7.66991615 20.98603344 C21.09101187 20.87551627 34.51202766 20.79314466 47.93348122 20.74093914 C54.42408833 20.71484401 60.91436705 20.67944616 67.40478516 20.62280273 C73.66824955 20.56848198 79.93139804 20.53857883 86.1950798 20.52561378 C88.58492379 20.51637418 90.97475046 20.49833141 93.36445999 20.47134972 C96.71161531 20.43506023 100.05746481 20.43005485 103.40478516 20.43237305 C104.39309326 20.41439667 105.38140137 20.39642029 106.3996582 20.37789917 C110.89649108 20.41160579 114.0169792 20.52106689 117.59970093 23.41047668 C120.89683581 26.96753661 121.37991411 29.09008042 121.37109375 33.9765625 C120.77498588 37.22691909 118.32761428 38.79175056 116 41 C116.27400185 45.27174898 118.18350815 48.51529995 120.24609375 52.19921875 C120.57274521 52.78711182 120.89939667 53.37500488 121.23594666 53.98071289 C122.29682212 55.88657516 123.36705985 57.7869962 124.4375 59.6875 C125.17397752 61.00656148 125.90981398 62.32598109 126.64501953 63.64575195 C128.0985514 66.25278965 129.55556399 68.85782482 131.01611328 71.4609375 C133.08702083 75.15248588 135.14214421 78.85265291 137.19335938 82.55517578 C138.3543005 84.65014682 139.51843218 86.74331129 140.68359375 88.8359375 C142.36691975 91.85997205 144.04581977 94.88642467 145.72265625 97.9140625 C146.40352295 99.14249878 146.40352295 99.14249878 147.09814453 100.39575195 C147.96306326 101.95642102 148.82736544 103.517432 149.69091797 105.07885742 C150.27510498 106.13230347 150.27510498 106.13230347 150.87109375 107.20703125 C151.2362207 107.86985107 151.60134766 108.5326709 151.97753906 109.21557617 C152.83846487 110.71808494 153.79074561 112.1677086 154.76171875 113.6015625 C158.51790031 120.87694255 156.19904652 131.57172673 154.03125 139.12890625 C148.6472279 154.11851324 138.55010288 164.04768527 124.58203125 171.24609375 C110.90961121 177.67048389 95.25752 177.9583702 81 173 C66.71339332 166.84140436 55.93629304 157.43775216 49.71875 143.03125 C46.11554497 133.4570195 43.55767349 122.69676666 47.18457031 112.75195312 C48.86791529 109.48771873 50.6939846 106.37398518 52.625 103.25 C53.31240231 102.0871278 53.99633564 100.92219887 54.67700195 99.75537109 C55.72873177 97.95423598 56.78278143 96.15491478 57.848526 94.36203003 C61.49674557 88.22377237 64.84742661 81.93540399 68.1875 75.625 C74.2081883 64.26340933 80.6133024 53.17672081 87 42 C60.27 42 33.54 42 6 42 C6.03480469 51.25417969 6.06960938 60.50835937 6.10546875 70.04296875 C6.12079392 75.89909105 6.13535961 81.75519884 6.14648438 87.61132812 C6.16429117 96.91028807 6.18523425 106.20916651 6.22631836 115.50805664 C6.25622433 122.28014048 6.27557585 129.05215827 6.28226548 135.82430631 C6.28617574 139.40997929 6.29536278 142.99546327 6.31719017 146.58107567 C6.34136217 150.58432772 6.34196923 154.58725139 6.34057617 158.59057617 C6.351362 159.77884506 6.36214783 160.96711395 6.3732605 162.19139099 C6.36913651 163.28369019 6.36501251 164.37598938 6.36076355 165.50138855 C6.36352893 166.44806994 6.36629431 167.39475134 6.36914349 168.37012005 C5.92719687 171.51866956 4.78161903 173.39403867 3 176 C2.608125 176.598125 2.21625 177.19625 1.8125 177.8125 C-1.2447354 179.8155163 -4.5274786 179.62952142 -8 179 C-10.8100346 177.20636089 -12.50940468 175.98119065 -14 173 C-14.09319367 171.2641124 -14.12191645 169.52461099 -14.12025452 167.78622437 C-14.12231651 166.1287191 -14.12231651 166.1287191 -14.12442017 164.43772888 C-14.12082489 163.21997269 -14.11722961 162.00221649 -14.11352539 160.74755859 C-14.11367142 159.4695488 -14.11381744 158.191539 -14.1139679 156.87480164 C-14.11425549 153.36468746 -14.10836491 149.85460727 -14.10139394 146.34450102 C-14.09515406 142.67828766 -14.0945561 139.01207357 -14.09336853 135.34585571 C-14.09025709 128.40084359 -14.08204621 121.45584717 -14.07201904 114.51084197 C-14.05876517 105.12782576 -14.05335648 95.74480528 -14.04751682 86.36178207 C-14.03810621 71.57450962 -14.01818604 56.78727029 -14 42 C-40.73 42 -67.46 42 -95 42 C-87.44004864 56.28374515 -87.44004864 56.28374515 -79.5625 70.375 C-75.04215861 78.30397145 -70.68230196 86.29397262 -66.47705078 94.39404297 C-63.31418622 100.46721402 -59.95815377 106.40540363 -56.49609375 112.3125 C-52.05628117 120.28793357 -53.59761903 129.56308425 -55.9765625 138.03125 C-60.31717508 150.62233994 -69.45525507 162.51586583 -81.39453125 168.75390625 C-82.25433594 169.16511719 -83.11414063 169.57632813 -84 170 C-84.87011719 170.48339844 -85.74023438 170.96679688 -86.63671875 171.46484375 C-94.25873723 175.13847348 -101.32108447 175.46210696 -109.6875 175.5 C-111.27316772 175.50942627 -111.27316772 175.50942627 -112.89086914 175.51904297 C-127.85412678 175.27790778 -138.86439838 169.56432268 -149.6796875 159.41015625 C-159.00188611 149.72699708 -165.08317677 137.83172496 -165.36083984 124.26269531 C-164.57211667 111.63824083 -156.21478319 99.93252656 -149.93505859 89.28613281 C-148.02534169 86.04303548 -146.18310571 82.77085932 -144.36499023 79.47607422 C-143.37907892 77.69486921 -142.37639489 75.92434861 -141.3671875 74.15625 C-138.0533405 68.34730629 -134.77689438 62.51734287 -131.5 56.6875 C-130.56293213 55.02883911 -130.56293213 55.02883911 -129.60693359 53.33666992 C-129.02508301 52.30131104 -128.44323242 51.26595215 -127.84375 50.19921875 C-127.05774414 48.80449341 -127.05774414 48.80449341 -126.25585938 47.3815918 C-124.89606714 44.95951017 -124.89606714 44.95951017 -124 42 C-124.804375 41.195625 -125.60875 40.39125 -126.4375 39.5625 C-130 36 -130 36 -130.375 32.25 C-130.34286725 28.66398486 -130.08349819 28.10380856 -127.6875 25.125 C-124.10529941 22.29256233 -122.13038656 20.74881504 -117.57710266 20.75949097 C-116.22044495 20.75536697 -116.22044495 20.75536697 -114.83638 20.75115967 C-113.35176521 20.7619455 -113.35176521 20.7619455 -111.8371582 20.77294922 C-110.27105301 20.77251114 -110.27105301 20.77251114 -108.67330933 20.77206421 C-105.21571598 20.77345967 -101.75833704 20.78903123 -98.30078125 20.8046875 C-95.9061037 20.80841686 -93.51142462 20.81126419 -91.116745 20.81326294 C-84.8087443 20.82090547 -78.50083546 20.84055936 -72.19287109 20.8626709 C-65.75815066 20.88311593 -59.32341541 20.89226179 -52.88867188 20.90234375 C-40.25907536 20.9238046 -27.62954256 20.95756456 -15 21 C-15.02827881 20.04013184 -15.05655762 19.08026367 -15.08569336 18.09130859 C-15.10768799 16.83141113 -15.12968262 15.57151367 -15.15234375 14.2734375 C-15.18062256 13.02481934 -15.20890137 11.77620117 -15.23803711 10.48974609 C-14.94906966 6.25333512 -13.99189024 3.96293636 -10.9140625 1.08203125 C-7.31472102 -0.95269853 -3.96280675 -0.93414229 0 0 Z " fill="#061C3B" transform="translate(631,281)"/>
<path d="M0 0 C0.81078506 -0.0033284 1.62157013 -0.0066568 2.45692444 -0.01008606 C4.16032347 -0.01511597 5.86373222 -0.01749561 7.56713867 -0.01733398 C10.14974406 -0.01952243 12.73192292 -0.03772549 15.31445312 -0.05664062 C16.98046731 -0.05957514 18.6464835 -0.06155955 20.3125 -0.0625 C21.07215561 -0.06968552 21.83181122 -0.07687103 22.61448669 -0.08427429 C39.48827714 -0.01357389 54.55753667 7.86202591 66.53515625 19.39453125 C84.12165736 38.24672751 83.91226062 59.64139494 83.78515625 83.85546875 C83.76393862 88.79764091 83.75950483 93.73915607 83.78565788 98.68131447 C83.78899589 100.64058834 83.76737863 102.59985394 83.74525452 104.55900574 C83.74883469 105.74827164 83.75241486 106.93753754 83.75610352 108.1628418 C83.74680565 109.7259333 83.74680565 109.7259333 83.73731995 111.32060242 C84.35518652 114.94549608 85.62358179 116.60396321 88.22265625 119.16796875 C91.8644796 120.05852611 91.8644796 120.05852611 95.22265625 120.16796875 C91.17163328 128.71328772 86.89198135 136.55402026 81.22265625 144.16796875 C80.56265625 145.15796875 79.90265625 146.14796875 79.22265625 147.16796875 C78.66578125 145.68296875 78.66578125 145.68296875 78.09765625 144.16796875 C73.99592476 134.74352522 67.97543818 129.93229254 58.9140625 125.578125 C48.62072164 121.64595987 39.15096573 123.60865769 29.41015625 127.91796875 C26.69637338 129.16026003 23.99780207 130.42981558 21.3046875 131.71630859 C17.85208191 133.34251208 14.37070932 134.89795821 10.87890625 136.4375 C10.25824783 136.71119415 9.63758942 136.98488831 8.99812317 137.26687622 C7.75245395 137.81590185 6.50671156 138.36476146 5.26089478 138.91345215 C0.57440434 140.98232381 -4.10033787 143.07776708 -8.77734375 145.16796875 C-11.12796342 142.2556091 -13.32779894 139.34228597 -15.40234375 136.23046875 C-21.75580176 127.76983371 -31.86041553 124.24471473 -42.00341797 122.66577148 C-45.44589064 122.2491083 -48.88896709 121.88284244 -52.33984375 121.54296875 C-54.67486401 121.30452019 -57.00952694 121.06253636 -59.34375 120.81640625 C-60.8743103 120.66437744 -60.8743103 120.66437744 -62.43579102 120.50927734 C-64.77734375 120.16796875 -64.77734375 120.16796875 -65.77734375 119.16796875 C-65.89780512 117.16192739 -65.94760046 115.15161752 -65.97021484 113.14208984 C-65.98627777 111.84919037 -66.0023407 110.55629089 -66.01889038 109.22421265 C-66.03039008 107.79661725 -66.04099653 106.36901443 -66.05078125 104.94140625 C-66.05610493 104.2218639 -66.0614286 103.50232155 -66.0669136 102.76097488 C-66.09370568 98.93766596 -66.11304362 95.11439006 -66.12744141 91.29101562 C-66.14067213 88.1504126 -66.16830921 85.01047621 -66.20947266 81.87011719 C-66.25937468 78.06277843 -66.28363446 74.25603502 -66.29066849 70.44838333 C-66.29729995 69.00934992 -66.31230448 67.57032544 -66.3365593 66.13148117 C-66.61236868 48.74935279 -61.28769032 33.04414048 -49.35668945 20.11132812 C-35.63018699 5.95415027 -19.54892389 0.02856121 0 0 Z " fill="#3485CE" transform="translate(617.77734375,594.83203125)"/>
<path d="M0 0 C2.50016916 2.16460074 4.81571251 4.38995701 7.0859375 6.79296875 C7.95605469 7.70755859 7.95605469 7.70755859 8.84375 8.640625 C11.38603091 11.68997287 12.09094755 13.49737596 12.0234375 17.48046875 C11.73665582 18.92331967 11.42155477 20.3606896 11.0859375 21.79296875 C9.24565006 30.8082923 8.75250969 39.55880046 8.671875 48.74609375 C8.65311183 50.14142942 8.63353484 51.53675437 8.6131897 52.93206787 C8.56240501 56.56176349 8.52249655 60.19149569 8.48504639 63.8213501 C8.44466525 67.54244632 8.39373069 71.26339753 8.34375 74.984375 C8.24762843 82.25380587 8.16302512 89.52330843 8.0859375 96.79296875 C4.76074437 96.16351485 1.91845974 95.41130143 -1.15234375 93.98046875 C-1.93174316 93.62339844 -2.71114258 93.26632812 -3.51416016 92.8984375 C-4.30612793 92.53363281 -5.0980957 92.16882813 -5.9140625 91.79296875 C-16.73007495 86.99100222 -27.37918139 82.57345322 -38.9140625 79.79296875 C-39.52685059 79.61854248 -40.13963867 79.44411621 -40.77099609 79.2644043 C-48.18130296 77.32095958 -55.67058014 77.35303847 -63.2890625 77.35546875 C-63.99826843 77.35440125 -64.70747437 77.35333374 -65.43817139 77.35223389 C-82.81063231 77.38994793 -97.29182871 81.37686755 -112.9140625 88.79296875 C-114.5640625 87.14296875 -116.2140625 85.49296875 -117.9140625 83.79296875 C-117.58998413 83.21792603 -117.26590576 82.6428833 -116.93200684 82.05041504 C-115.87166595 79.69894796 -115.65352654 78.22884042 -115.62695312 75.67382812 C-115.61353882 74.87199097 -115.60012451 74.07015381 -115.58630371 73.24401855 C-115.58102661 72.38360962 -115.57574951 71.52320068 -115.5703125 70.63671875 C-115.5556897 69.73860474 -115.54106689 68.84049072 -115.52600098 67.91516113 C-115.47955546 65.04114257 -115.44537734 62.16718952 -115.4140625 59.29296875 C-115.17338824 37.52861049 -114.59544476 19.67234385 -98.578125 3.1953125 C-73.36739199 -19.53870627 -26.99081517 -20.44210533 0 0 Z " fill="#89B557" transform="translate(524.9140625,612.20703125)"/>
<path d="M0 0 C0.67026215 -0.00173218 1.34052429 -0.00346436 2.03109741 -0.00524902 C34.46225014 0.03127417 62.7420266 12.33389789 86.1875 34.4375 C86.98800781 35.15035156 87.78851562 35.86320313 88.61328125 36.59765625 C107.35869581 54.02760313 120.76452727 81.90828432 122.3828125 107.52978516 C123.69702653 144.56324124 113.90388141 175.63477627 88.484375 203.0703125 C66.93795716 225.27631456 36.67153262 239.18287285 5.72802734 239.66601562 C-27.94375605 239.87401204 -58.37067647 229.80731031 -83.02734375 206.1953125 C-107.14144864 182.31795198 -119.93476885 152.52113772 -120.125 118.5625 C-120.125 85.82545663 -106.3862132 57.22530927 -83.6875 33.9375 C-70.45298886 20.75108637 -54.76329371 11.54256873 -37.125 5.5625 C-36.28251709 5.27608643 -35.44003418 4.98967285 -34.57202148 4.69458008 C-23.16434184 1.021632 -11.94572375 0.02093249 0 0 Z M-83.8125 54.4375 C-90.68523667 63.51776485 -95.82352022 72.75004475 -99.8125 83.4375 C-100.20179688 84.43265625 -100.59109375 85.4278125 -100.9921875 86.453125 C-110.24163843 111.7034509 -107.07524113 141.06779005 -95.94921875 165.12109375 C-90.94002162 175.44163006 -84.83950121 184.2086593 -76.8125 192.4375 C-75.9875 193.30375 -75.1625 194.17 -74.3125 195.0625 C-73.4875 195.84625 -72.6625 196.63 -71.8125 197.4375 C-70.93464844 198.30761719 -70.93464844 198.30761719 -70.0390625 199.1953125 C-59.93360958 208.77483107 -47.93222182 215.00587167 -34.8125 219.4375 C-34.00167969 219.73269531 -33.19085937 220.02789063 -32.35546875 220.33203125 C-21.86827613 224.06040271 -11.77837526 224.81513391 -0.6875 224.75 C0.00235992 224.74718018 0.69221985 224.74436035 1.40298462 224.74145508 C31.3605057 224.55722677 57.51668178 214.11043031 78.84765625 192.93359375 C88.16304504 183.34614642 94.38399696 172.35896628 100.1875 160.4375 C100.620625 159.55449219 101.05375 158.67148437 101.5 157.76171875 C111.58708608 134.94756704 111.01923651 106.45534099 102.5 83.25 C101.46109869 80.6147619 100.34823987 78.02120887 99.1875 75.4375 C98.76041748 74.48447998 98.76041748 74.48447998 98.32470703 73.51220703 C93.50983369 63.07598902 86.98504201 54.8119152 79.1875 46.4375 C78.50945312 45.67824219 77.83140625 44.91898438 77.1328125 44.13671875 C60.22812661 26.03491992 34.89907517 14.8064836 10.3359375 13.9296875 C7.1612325 13.85397065 3.98802789 13.82460099 0.8125 13.8125 C0.05731079 13.80532959 -0.69787842 13.79815918 -1.47595215 13.79077148 C-33.84887566 13.6253611 -63.65085435 29.30896595 -83.8125 54.4375 Z " fill="#F7F8F9" transform="translate(846.8125,687.5625)"/>
<path d="M0 0 C10.01825875 7.80001614 16.21955188 17.59146148 19.359375 29.80859375 C20.01206248 32.04126252 20.90067214 33.95506385 22 36 C20.88367188 36.01417969 19.76734375 36.02835938 18.6171875 36.04296875 C-6.53780688 36.68314892 -29.98997375 44.09050587 -52 56 C-53.07121094 56.5775 -54.14242187 57.155 -55.24609375 57.75 C-68.80231245 65.36545706 -89.83157439 78.66314879 -97 93 C-97.66 93 -98.32 93 -99 93 C-99.495 93.99 -99.495 93.99 -100 95 C-100.01213028 94.01639748 -100.01213028 94.01639748 -100.02450562 93.01292419 C-100.11133223 86.11691633 -100.21085807 79.22117053 -100.31738281 72.32543945 C-100.35539562 69.76038047 -100.39029385 67.19527319 -100.421875 64.63012695 C-100.0701854 42.95161541 -100.0701854 42.95161541 -104.07299805 21.80688477 C-105.2248442 18.31919047 -105.07536278 16.50522505 -104 13 C-94.69752107 -0.54729941 -80.48366448 -7.82633784 -64.75537109 -11.52832031 C-43.05995358 -15.24226207 -18.28180891 -12.76592599 0 0 Z " fill="#EBE0D6" transform="translate(821,611)"/>
<path d="M0 0 C5.89537357 3.31750486 10.75247867 8.46381066 15.48583984 13.22705078 C16.18605255 13.92375885 16.88626526 14.62046692 17.60769653 15.33828735 C19.89713187 17.61899278 22.17925941 19.90684854 24.4609375 22.1953125 C26.05867817 23.79170462 27.65671552 25.38779985 29.2550354 26.98361206 C32.59174028 30.31737805 35.92482492 33.65471049 39.25537109 36.99462891 C43.52580668 41.27649532 47.80520847 45.54927048 52.08733177 49.81944466 C55.38342849 53.10832104 58.67475524 56.40193764 61.9646492 59.69701767 C63.54125782 61.27496038 65.11935329 62.85141896 66.69895554 64.4263649 C68.90101898 66.62335636 71.09658167 68.82664429 73.29052734 71.03173828 C73.94402161 71.68118408 74.59751587 72.33062988 75.27081299 72.99975586 C75.86782013 73.60240265 76.46482727 74.20504944 77.07992554 74.82595825 C77.59864416 75.34543093 78.11736279 75.8649036 78.65180016 76.40011787 C82.79497428 81.31674077 82.42260265 86.32978115 82.30078125 92.5234375 C81.67560533 99.74949688 78.81551191 103.47333614 73.625 108.375 C67.21151435 113.67626043 62.15031952 114.22532011 54 114.36328125 C40.83665221 112.7692821 28.79835755 95.94603233 19.875 87.0078125 C18.43691327 85.57040069 16.99867824 84.13313724 15.56030273 82.6960144 C12.56673407 79.70391056 9.57495796 76.7100292 6.58447266 73.71484375 C2.75009893 69.87473714 -1.0887962 66.03918664 -4.92901611 62.20492744 C-7.89043735 59.24711395 -10.84948003 56.28693019 -13.80780029 53.32601547 C-15.22327273 51.90987623 -16.63948762 50.4944787 -18.05645752 49.0798378 C-20.02834691 47.11048232 -21.99701236 45.13795999 -23.96484375 43.16455078 C-24.54974075 42.58167801 -25.13463776 41.99880524 -25.73725891 41.39826965 C-29.90259723 37.21098602 -32.29198523 34.68946794 -32.375 28.6875 C-32.40335938 27.76324219 -32.43171875 26.83898437 -32.4609375 25.88671875 C-31.30215109 18.62957337 -24.93225107 13.62830237 -19.9375 8.6875 C-19.21755859 7.95982422 -18.49761719 7.23214844 -17.75585938 6.48242188 C-17.06169922 5.79083984 -16.36753906 5.09925781 -15.65234375 4.38671875 C-15.02320068 3.75983154 -14.39405762 3.13294434 -13.74584961 2.48706055 C-9.85079249 -0.8306283 -4.83332158 -0.74736372 0 0 Z " fill="#8BB558" transform="translate(975,901)"/>
<path d="M0 0 C3.58490991 2.74277773 6.75814124 5.86603195 10 9 C11.28493234 10.0913124 12.57615671 11.17528143 13.875 12.25 C34.83158727 30.59228464 51.26649901 55.4707143 64 80 C64.39106934 80.74024414 64.78213867 81.48048828 65.18505859 82.24316406 C75.80145046 102.55095524 83.75783417 125.04471722 87.57910156 147.67089844 C88.02262655 150.12520726 88.56403476 152.54474259 89.1171875 154.9765625 C94.79176242 181.53501887 93.5017341 210.24273546 89.75 237 C89.5967778 238.11006409 89.5967778 238.11006409 89.44046021 239.24255371 C86.35992047 260.8953718 86.35992047 260.8953718 81.08496094 265.76953125 C77.94690299 267.62149987 75.5736772 267.37617655 72 267 C68.1589132 265.29285031 66.59425247 263.83043845 65 260 C64.50949647 254.21205838 65.27782125 248.87888634 66.3125 243.1875 C66.44527344 242.45394287 66.57804688 241.72038574 66.71484375 240.96459961 C67.2749781 237.89727509 67.8372683 234.830951 68.43652344 231.77099609 C72.50475624 210.72411823 76.89425221 175.78850442 67 156 C66.74971189 154.41986783 66.52559054 152.83557694 66.3125 151.25 C65.30579763 144.96573674 63.7359335 138.88779638 62.0625 132.75 C61.80960205 131.81575195 61.5567041 130.88150391 61.29614258 129.91894531 C50.69979483 91.66738776 28.48868093 57.18822975 1 29 C0.20464844 28.17628906 -0.59070313 27.35257812 -1.41015625 26.50390625 C-4.45195139 23.40350234 -7.48013173 20.6278787 -10.9375 18 C-13.48925991 15.84622099 -14.56230107 14.30105036 -15.1875 11 C-15.36876822 6.6989995 -13.84169727 4.22571041 -11 1 C-7.60581395 -1.69194066 -3.89152533 -1.63814686 0 0 Z " fill="#8EB85B" transform="translate(840,354)"/>
<path d="M0 0 C4.08198308 0.88042772 5.55438628 2.15947731 8.19140625 5.47265625 C8.92512459 8.61797596 9.01582532 11.34628782 8.19140625 14.47265625 C5.5982474 18.27950817 2.55378602 20.96233949 -1.05859375 23.78515625 C-9.80820536 30.82894172 -16.85456652 38.67038258 -23.80859375 47.47265625 C-24.62585938 48.49617188 -25.443125 49.5196875 -26.28515625 50.57421875 C-49.59701055 80.06457382 -69.64591843 118.52446044 -73.48046875 156.328125 C-73.77570285 159.15745178 -74.25197391 161.82488382 -74.87109375 164.59765625 C-77.368694 176.50998792 -77.08254846 188.97280763 -77.12109375 201.09765625 C-77.12437683 201.9470578 -77.12765991 202.79645935 -77.13104248 203.67160034 C-77.15210104 220.60764833 -76.62815141 238.38628071 -70.80859375 254.47265625 C-70.36314269 257.52717782 -70.19000776 259.48613807 -71.859375 262.1484375 C-73.64620096 264.35693331 -75.24563591 266.19117733 -77.80859375 267.47265625 C-81.92736576 267.86121965 -84.09758657 267.93086088 -87.62109375 265.66015625 C-100.87108416 252.41016584 -98.16956734 218.1902627 -98.18597412 200.58456421 C-98.1851886 199.57825958 -98.18440308 198.57195496 -98.18359375 197.53515625 C-98.18522522 196.55132965 -98.18685669 195.56750305 -98.1885376 194.55386353 C-98.18637134 183.01623959 -97.73384698 171.86998114 -95.80859375 160.47265625 C-95.66276855 159.55460205 -95.51694336 158.63654785 -95.36669922 157.69067383 C-93.30930061 145.18144965 -90.28488799 133.03004172 -86.55566406 120.92041016 C-85.87112822 118.67754861 -85.22317589 116.42742396 -84.58203125 114.171875 C-76.432375 86.63829827 -61.04672616 59.50683187 -42.80859375 37.47265625 C-42.37820801 36.94220703 -41.94782227 36.41175781 -41.50439453 35.86523438 C-11.7167949 -0.77318951 -11.7167949 -0.77318951 0 0 Z " fill="#3486CF" transform="translate(419.80859375,353.52734375)"/>
<path d="M0 0 C0.69738281 0.30164063 1.39476562 0.60328125 2.11328125 0.9140625 C12.47486307 5.71434334 18.23341128 13.51675866 22.9375 23.8125 C26.27389642 34.03021402 24.16516286 45.38428277 20 55 C15.23927348 64.01633617 8.17620092 70.13322926 -1.3125 73.875 C-12.06276505 77.15474188 -22.86718006 77.56687853 -33.1796875 72.671875 C-43.91698857 66.30682672 -51.35480517 56.80045873 -54.52734375 44.69921875 C-56.56260999 33.0763347 -54.37931812 24.27793988 -48.3125 14.375 C-37.22159858 -1.36962136 -18.08826627 -8.18695224 0 0 Z " fill="#FAFAFA" transform="translate(642,498)"/>
<path d="M0 0 C0.86625 0.556875 1.7325 1.11375 2.625 1.6875 C9.91510886 8.78576389 12.25719641 16.60993856 12.4375 26.5 C12.5057726 37.12278925 9.40193332 44.64781503 2.125 52.5 C-6.08365156 60.05070621 -15.54486183 62.49727362 -26.52734375 62.3125 C-35.24902855 61.52764647 -42.79256441 56.50866077 -48.69140625 50.1875 C-55.5493975 41.66227779 -57.69835497 33.46493329 -57.390625 22.5625 C-56.86036826 17.7265585 -55.51228407 14.12607766 -53 10 C-52.4225 8.96875 -51.845 7.9375 -51.25 6.875 C-37.77448161 -10.34371794 -17.31701018 -12.05324938 0 0 Z " fill="#F9F9FA" transform="translate(500,517)"/>
<path d="M0 0 C9.33799765 5.91511676 16.00797016 13.04343319 19.3046875 23.7890625 C21.0751257 32.98450173 19.11988043 41.94452876 14.4375 49.96484375 C8.88145048 58.11043847 2.15834408 63.63525195 -7.3125 66.77734375 C-18.59647386 68.28351969 -27.93434582 66.0863842 -37.171875 59.578125 C-44.05028572 53.79172474 -49.26121882 45.81836191 -50.3125 36.77734375 C-51.10463414 26.17047448 -49.2722463 16.99509047 -42.2578125 8.77734375 C-31.21958654 -2.57119378 -14.73313841 -7.78964919 0 0 Z " fill="#F9F9FA" transform="translate(790.3125,512.22265625)"/>
<path d="M0 0 C1.10337204 -0.0071553 2.20674408 -0.01431061 3.34355164 -0.02168274 C4.56482758 -0.02437164 5.78610352 -0.02706055 7.04438782 -0.02983093 C8.3223674 -0.03640213 9.60034698 -0.04297333 10.91705322 -0.04974365 C14.43380734 -0.06718088 17.95054783 -0.0777136 21.46733451 -0.08594918 C23.66427902 -0.0910954 25.86121927 -0.09717142 28.05816078 -0.10346031 C34.93099009 -0.12252317 41.80380861 -0.13674987 48.67665929 -0.14507228 C56.6112764 -0.15483854 64.54561409 -0.1811372 72.48013276 -0.22157317 C78.61098393 -0.25174483 84.74175509 -0.26654228 90.87267905 -0.26985329 C94.53498291 -0.27220336 98.19698864 -0.28115691 101.85921288 -0.30631447 C105.94845992 -0.33394962 110.03708456 -0.32976089 114.12641907 -0.32279968 C115.33757385 -0.33560974 116.54872864 -0.3484198 117.79658508 -0.36161804 C124.09010476 -0.32251095 128.1886738 -0.22278416 132.90888977 4.14717102 C134.44103865 7.21146878 134.13827525 9.76373522 133.90888977 13.14717102 C132.20990993 16.96987567 130.7649318 18.62600447 126.90888977 20.14717102 C124.3691721 20.40723324 124.3691721 20.40723324 121.45028687 20.42132568 C120.34134567 20.43130081 119.23240448 20.44127594 118.08985901 20.45155334 C116.87779785 20.45221802 115.66573669 20.45288269 114.41694641 20.4535675 C113.13692245 20.46189102 111.8568985 20.47021454 110.53808594 20.47879028 C107.02982572 20.50071758 103.52165265 20.5095315 100.01333165 20.51461673 C97.82089344 20.5182617 95.62847802 20.52450241 93.43604851 20.53161812 C85.78579074 20.55610424 78.13560073 20.56916317 70.48530579 20.57270813 C63.35626737 20.57634516 56.22765901 20.6062542 49.09875208 20.64811271 C42.97548671 20.682805 36.85236398 20.69825636 30.72900099 20.69895416 C27.07286759 20.69974721 23.41717259 20.70849782 19.76114082 20.73695183 C15.68386072 20.76797594 11.60760644 20.75907819 7.53022766 20.74653625 C6.32019073 20.76137054 5.11015381 20.77620483 3.8634491 20.79148865 C-5.23897333 20.7115499 -5.23897333 20.7115499 -8.31744385 17.73471069 C-11.14422982 13.61081179 -11.6056195 11.20651216 -11.09111023 6.14717102 C-8.65361023 3.27217102 -8.65361023 3.27217102 -6.09111023 1.14717102 C-4.406269 -0.53767021 -2.31076295 0.01023636 0 0 Z " fill="#031937" transform="translate(792.0911102294922,797.8528289794922)"/>
<path d="M0 0 C1.01375702 -0.01065994 2.02751404 -0.02131989 3.07199097 -0.03230286 C6.41550376 -0.05796663 9.75639277 -0.03277511 13.09985352 -0.00463867 C15.42863772 -0.00681524 17.75742083 -0.0112167 20.0861969 -0.01774597 C24.96454954 -0.02355044 29.84200253 -0.00457866 34.72021484 0.03222656 C40.96615106 0.07768003 47.21034095 0.06513477 53.45631313 0.03441906 C58.26489849 0.01660149 63.07307661 0.0278748 67.88163948 0.04805946 C70.18407449 0.0545666 72.48655071 0.05247189 74.78896904 0.0415554 C78.01130058 0.03099551 81.23105423 0.0592005 84.453125 0.09765625 C85.87397652 0.08179474 85.87397652 0.08179474 87.3235321 0.06561279 C93.11645008 0.18589457 96.28877213 1.30086107 100.56242466 5.25734425 C101.79125977 6.88989258 101.79125977 6.88989258 102.41625977 10.45239258 C101.62579294 14.79996013 100.27119399 17.28670375 97.30099487 20.50427246 C93.32177601 22.70119184 89.35828048 22.32363165 84.88549805 22.30981445 C83.88018036 22.318284 82.87486267 22.32675354 81.83908081 22.33547974 C78.51311621 22.35889399 75.18761308 22.35987075 71.86157227 22.35864258 C69.54995538 22.3657419 67.23834027 22.37344056 64.92672729 22.38171387 C60.07960107 22.3951692 55.23263774 22.39672286 50.38549805 22.39086914 C44.17553681 22.38497483 37.96635786 22.41554952 31.75654793 22.45598602 C26.9815551 22.48184359 22.20675104 22.48474211 17.43169785 22.48109436 C15.14236359 22.48278769 12.85302081 22.49245053 10.56375504 22.51023865 C7.3605756 22.53238696 4.1589848 22.52274596 0.95581055 22.50512695 C0.01118958 22.5183902 -0.9334314 22.53165344 -1.90667725 22.5453186 C-6.2994038 22.48921035 -9.28254474 22.30031202 -12.7805481 19.48962402 C-15.13415764 16.96974405 -16.09452904 15.87777594 -16.45874023 12.51489258 C-16.56702148 11.8059082 -16.67530273 11.09692383 -16.78686523 10.36645508 C-14.69964396 1.42525041 -8.16217485 -0.13534566 0 0 Z " fill="#081E3C" transform="translate(797.208740234375,750.110107421875)"/>
<path d="M0 0 C0.81970779 -0.0065712 1.63941559 -0.0131424 2.48396301 -0.01991272 C5.20382779 -0.03966526 7.92363727 -0.05131337 10.64355469 -0.0612793 C11.57199944 -0.06535482 12.50044418 -0.06943035 13.45702362 -0.07362938 C18.37222573 -0.09449963 23.28739986 -0.10879655 28.20263672 -0.11816406 C33.2780873 -0.12922346 38.35309885 -0.16361519 43.42839432 -0.20333576 C47.33179536 -0.22949263 51.23509172 -0.23785513 55.13857269 -0.24144554 C57.00925406 -0.24631483 58.87993065 -0.25793855 60.75052643 -0.27648354 C63.37179728 -0.30085276 65.99193161 -0.29991405 68.61328125 -0.29296875 C69.76842979 -0.31218384 69.76842979 -0.31218384 70.94691467 -0.33178711 C76.12519905 -0.28188561 79.08625562 0.88652372 83.06542969 4.17700195 C84.18147533 6.40909324 84.39650503 7.94380951 84.56542969 10.42700195 C84.67371094 11.54848633 84.67371094 11.54848633 84.78417969 12.69262695 C83.60591816 16.76531355 80.57837691 18.9553114 77.06542969 21.17700195 C74.21256152 21.98478754 71.53121168 22.00063018 68.57910156 21.95336914 C67.76026993 21.96388306 66.94143829 21.97439697 66.09779358 21.98522949 C63.40913055 22.01149369 60.72286393 21.99420855 58.03417969 21.97387695 C56.15522816 21.97792251 54.27627969 21.98374878 52.39733887 21.99127197 C48.46657299 22.00010001 44.53662727 21.9873188 40.60595703 21.95922852 C35.57848578 21.92504257 30.55293639 21.9447353 25.52553558 21.9806633 C21.64770136 22.00239083 17.77031949 21.99542327 13.89247131 21.97989655 C12.03939077 21.9759067 10.18626856 21.9807614 8.33323669 21.99477386 C5.73831114 22.01009224 3.14645579 21.98668544 0.55175781 21.95336914 C-0.58621498 21.97158722 -0.58621498 21.97158722 -1.74717712 21.99017334 C-6.97641417 21.86638436 -9.74516864 20.31676064 -13.6284256 16.85283279 C-15.57026277 14.36138557 -15.77768023 12.23157293 -15.50488281 9.1418457 C-14.48393199 5.62446032 -12.5401471 3.7205412 -9.93457031 1.17700195 C-6.79795207 -0.39130717 -3.44460899 0.01190217 0 0 Z " fill="#0B203E" transform="translate(795.9345703125,843.822998046875)"/>
<path d="M0 0 C23.1 0 46.2 0 70 0 C67.7546032 10.10428559 64.92424867 16.85918335 56.23046875 22.71484375 C46.52676541 28.30594427 36.03728929 29.71085554 25 28 C15.80381738 24.94773382 7.8188586 19.5116609 3 11 C0 3.70916335 0 3.70916335 0 0 Z " fill="#E4AF58" transform="translate(697,408)"/>
<path d="M0 0 C22.77 0 45.54 0 69 0 C67.63416088 9.56087383 64.73225201 15.99252254 57 22 C46.35838736 28.34561493 34.27623447 30.18484661 22.09765625 27.31640625 C19.88423883 26.37891311 17.99357121 25.34007691 16 24 C15.29617188 23.54109375 14.59234375 23.0821875 13.8671875 22.609375 C7.18381511 17.92361576 2.7149033 12.85893061 0 5 C0 3.35 0 1.7 0 0 Z " fill="#E6B057" transform="translate(487,408)"/>
<path d="M0 0 C0.66 0 1.32 0 2 0 C7.06805908 9.25816829 12.06721455 18.55264536 17.05273438 27.85546875 C17.94508789 29.51642578 17.94508789 29.51642578 18.85546875 31.2109375 C19.38809326 32.20399902 19.92071777 33.19706055 20.46948242 34.22021484 C21.96226131 37.01118428 21.96226131 37.01118428 23.6965332 39.61181641 C25 42 25 42 25 46 C8.83 46 -7.34 46 -24 46 C-23.09442024 41.47210119 -22.1143991 39.02442042 -19.90234375 35.09765625 C-19.2688501 33.96561768 -18.63535645 32.8335791 -17.98266602 31.66723633 C-17.30113183 30.46555101 -16.61940674 29.26397395 -15.9375 28.0625 C-15.25066529 26.84105108 -14.56438658 25.61928935 -13.87866211 24.3972168 C-11.92824456 20.92625578 -9.96552862 17.46242667 -8 14 C-7.50790039 13.13181641 -7.01580078 12.26363281 -6.50878906 11.36914062 C-4.35366429 7.57099994 -2.1869235 3.77995404 0 0 Z " fill="#F5F6F7" transform="translate(521,341)"/>
<path d="M0 0 C0.66 0 1.32 0 2 0 C6.76741725 8.72573999 11.50485438 17.46746156 16.23242188 26.21484375 C16.77576172 27.21902344 17.31910156 28.22320312 17.87890625 29.2578125 C18.40242676 30.2262207 18.92594727 31.19462891 19.46533203 32.19238281 C21.3118792 35.57057123 23.21129692 38.91721533 25.13256836 42.25341797 C26 44 26 44 26 46 C9.5 46 -7 46 -24 46 C-22.53547267 41.606418 -21.18531857 38.2068534 -19.0234375 34.21875 C-18.43836426 33.13513184 -17.85329102 32.05151367 -17.25048828 30.93505859 C-16.63157715 29.80148926 -16.01266602 28.66791992 -15.375 27.5 C-14.74706543 26.34193848 -14.11913086 25.18387695 -13.47216797 23.99072266 C-9.08915693 15.93090886 -4.63538883 7.91758961 0 0 Z " fill="#F5F6F7" transform="translate(731,341)"/>
<path d="M0 0 C0.33 0 0.66 0 1 0 C1.12375 1.03125 1.2475 2.0625 1.375 3.125 C1.83838535 6.85521559 1.83838535 6.85521559 3.02246094 9.63525391 C4.3069036 14.05637998 4.28658631 18.13130768 4.265625 22.7109375 C4.26753845 23.63790436 4.2694519 24.56487122 4.27142334 25.51992798 C4.27278021 27.47487663 4.26911862 29.42983445 4.26074219 31.38476562 C4.25006006 34.35828173 4.26064191 37.33119036 4.2734375 40.3046875 C4.27211534 42.21093882 4.26955179 44.11718977 4.265625 46.0234375 C4.26967346 46.9038974 4.27372192 47.7843573 4.27789307 48.6914978 C4.23719701 54.11987001 3.51921325 58.78383337 2 64 C1.67 64 1.34 64 1 64 C1.00523682 62.72471436 1.01047363 61.44942871 1.01586914 60.13549805 C1.03410609 55.35881261 1.0454997 50.58213019 1.05493164 45.80541992 C1.05992942 43.74649537 1.06672987 41.68757431 1.07543945 39.62866211 C1.0877062 36.65217217 1.09327401 33.67572955 1.09765625 30.69921875 C1.10281754 29.7935466 1.10797882 28.88787445 1.11329651 27.95475769 C1.11377016 22.43580184 0.80072195 17.0257829 0.22142029 11.53669739 C-0.11515976 7.68067434 -0.06341656 3.86841016 0 0 Z " fill="#97BE67" transform="translate(928,515)"/>
<path d="M0 0 C0.66 0.99 1.32 1.98 2 3 C0.89789095 4.75129657 -0.20677432 6.50098464 -1.3125 8.25 C-1.92738281 9.22453125 -2.54226563 10.1990625 -3.17578125 11.203125 C-4.70475759 13.54733713 -6.28820977 15.78784032 -8 18 C-10.02055843 13.60748167 -11.40895235 9.84659077 -12 5 C-11.30132813 4.80664062 -10.60265625 4.61328125 -9.8828125 4.4140625 C-8.97273437 4.15367187 -8.06265625 3.89328125 -7.125 3.625 C-6.22007812 3.36976563 -5.31515625 3.11453125 -4.3828125 2.8515625 C-1.85430274 2.1395685 -1.85430274 2.1395685 0 0 Z " fill="#4B96D6" transform="translate(705,724)"/>
<path d="M0 0 C0.66 0 1.32 0 2 0 C2.05035186 4.28261912 2.08615671 8.56507039 2.10986328 12.84790039 C2.11977108 14.29747528 2.13330114 15.74703103 2.15087891 17.1965332 C2.27041589 27.32553504 1.61434205 36.98907729 0 47 C-0.33 47 -0.66 47 -1 47 C-1.14027702 31.30456016 -0.73964434 15.67809938 0 0 Z " fill="#242D43" transform="translate(995,551)"/>
<path d="M0 0 C0.61254883 1.78979492 0.61254883 1.78979492 1 4 C-0.35821651 6.53671239 -1.76585409 8.89686381 -3.3125 11.3125 C-8.07839998 19.15772264 -9.59267158 25.8548201 -10 35 C-10.66 35 -11.32 35 -12 35 C-14.5406126 21.00310652 -7.31171115 11.32083646 0 0 Z " fill="#262F48" transform="translate(689,376)"/>
<path d="M0 0 C0.66 0.33 1.32 0.66 2 1 C1.79503906 1.79277344 1.59007812 2.58554687 1.37890625 3.40234375 C-1.49217518 15.83453845 -1.72674757 28.28092988 -2 41 C-2.33 41 -2.66 41 -3 41 C-3.04898438 40.10796875 -3.09796875 39.2159375 -3.1484375 38.296875 C-3.22320313 37.12640625 -3.29796875 35.9559375 -3.375 34.75 C-3.44460938 33.58984375 -3.51421875 32.4296875 -3.5859375 31.234375 C-3.96774003 28.25199297 -4.54402802 26.56390286 -6 24 C-6.4125692 20.86447407 -6.16691436 19.31793211 -4.6875 16.5 C-2.15671498 11.25096441 -1.18859927 5.68167311 0 0 Z " fill="#171F33" transform="translate(729,776)"/>
<path d="M0 0 C0.33 0.99 0.66 1.98 1 3 C-2.23824181 5.77563584 -5.06097701 7.4451225 -9 9 C-9.45375 9.474375 -9.9075 9.94875 -10.375 10.4375 C-12.85245008 12.81966354 -15.84018188 13.73607275 -19 15 C-19.99 15.495 -19.99 15.495 -21 16 C-21 15.34 -21 14.68 -21 14 C-21.66 13.67 -22.32 13.34 -23 13 C-21.92621094 12.48050781 -20.85242188 11.96101562 -19.74609375 11.42578125 C-18.30973435 10.7216835 -16.8735455 10.01723775 -15.4375 9.3125 C-14.73302734 8.97283203 -14.02855469 8.63316406 -13.30273438 8.28320312 C-8.50137317 5.91571165 -4.28316367 3.21377984 0 0 Z " fill="#1A2541" transform="translate(920,903)"/>
<path d="M0 0 C2.58656673 0.22288501 5.15952778 0.41314385 7.75 0.5625 C8.44738281 0.60568359 9.14476562 0.64886719 9.86328125 0.69335938 C11.57531922 0.79889596 13.28763561 0.8998991 15 1 C15 1.99 15 2.98 15 4 C8.07 4 1.14 4 -6 4 C-6 2.68 -6 1.36 -6 0 C-3.41017299 -1.29491351 -2.78462772 -0.70537755 0 0 Z " fill="#152239" transform="translate(844,684)"/>
<path d="M0 0 C0.99 0.66 1.98 1.32 3 2 C2.67 4.64 2.34 7.28 2 10 C1.34 10 0.68 10 0 10 C0.04125 11.258125 0.0825 12.51625 0.125 13.8125 C0.2390374 17.29064073 0.05925681 17.91111478 -2 21 C-2.66 21 -3.32 21 -4 21 C-2.87723429 13.94090922 -1.62436599 6.96156852 0 0 Z " fill="#222E49" transform="translate(967,638)"/>
<path d="M0 0 C0.66 0.33 1.32 0.66 2 1 C1.37955811 1.65802612 1.37955811 1.65802612 0.74658203 2.3293457 C-1.12952806 4.32162604 -3.00229207 6.31702159 -4.875 8.3125 C-5.52597656 9.00279297 -6.17695312 9.69308594 -6.84765625 10.40429688 C-7.47285156 11.07138672 -8.09804688 11.73847656 -8.7421875 12.42578125 C-9.3182373 13.03848877 -9.89428711 13.65119629 -10.48779297 14.2824707 C-12.18554288 16.13367989 -12.18554288 16.13367989 -14 19 C-14.99 18.67 -15.98 18.34 -17 18 C-11.65611545 11.66519646 -5.91166188 5.80460966 0 0 Z " fill="#E3E5EA" transform="translate(770,715)"/>
<path d="M0 0 C0.66 0 1.32 0 2 0 C0.00878667 7.89498617 -3.18914143 14.82226638 -7 22 C-7.66 22 -8.32 22 -9 22 C-8.04412321 18.09683642 -7.04398737 14.86915942 -4.9375 11.4375 C-3.06357955 8.11280243 -2.36665481 5.7582118 -2 2 C-1.34 2 -0.68 2 0 2 C0 1.34 0 0.68 0 0 Z " fill="#0F192E" transform="translate(981,854)"/>
<path d="M0 0 C0.99 0.33 1.98 0.66 3 1 C-1.39698492 6.65326633 -1.39698492 6.65326633 -4.5 8.4375 C-8.06387478 10.66492174 -9.69234643 13.50555316 -12 17 C-12.66 16.01 -13.32 15.02 -14 14 C-9.38 9.38 -4.76 4.76 0 0 Z " fill="#131C37" transform="translate(754,699)"/>
<path d="M0 0 C1.61466799 2.92658573 2.42058624 5.52743089 3 8.8125 C3.57064326 11.91223417 4.22216536 14.87533598 5.1875 17.875 C5.96318772 20.85841429 6.12430928 22.18922679 5 25 C5 24.01 5 23.02 5 22 C4.34 22 3.68 22 3 22 C2.30160332 18.71054718 1.6181478 15.41816726 0.9375 12.125 C0.73833984 11.18785156 0.53917969 10.25070312 0.33398438 9.28515625 C0.15029297 8.38925781 -0.03339844 7.49335938 -0.22265625 6.5703125 C-0.39547119 5.74289551 -0.56828613 4.91547852 -0.74633789 4.06298828 C-1 2 -1 2 0 0 Z " fill="#242D45" transform="translate(985,478)"/>
<path d="M0 0 C0.55171875 0.26683594 1.1034375 0.53367187 1.671875 0.80859375 C-2.328125 4.80859375 -6.328125 8.80859375 -10.328125 12.80859375 C-10.328125 12.14859375 -10.328125 11.48859375 -10.328125 10.80859375 C-10.988125 10.47859375 -11.648125 10.14859375 -12.328125 9.80859375 C-10.7605732 8.10642395 -9.17352716 6.42218821 -7.578125 4.74609375 C-6.69640625 3.80636719 -5.8146875 2.86664062 -4.90625 1.8984375 C-2.328125 -0.19140625 -2.328125 -0.19140625 0 0 Z " fill="#13223E" transform="translate(562.328125,595.19140625)"/>
<path d="M0 0 C0.66 0.66 1.32 1.32 2 2 C-7.22551253 11.59453303 -7.22551253 11.59453303 -13 15 C-13.66 14.34 -14.32 13.68 -15 13 C-14.33613281 12.48050781 -13.67226563 11.96101562 -12.98828125 11.42578125 C-8.41377883 7.81292606 -3.98940601 4.25536641 0 0 Z " fill="#141F3C" transform="translate(936,889)"/>
<path d="M0 0 C0.66 0 1.32 0 2 0 C1.41892368 3.7602985 0.34800504 6.53035032 -1.5625 9.8125 C-2.01753906 10.60269531 -2.47257813 11.39289063 -2.94140625 12.20703125 C-3.29074219 12.79871094 -3.64007812 13.39039063 -4 14 C-4.33 14 -4.66 14 -5 14 C-5.45772527 8.27843418 -4.54034087 5.50588838 -1 1 C-0.67 0.67 -0.34 0.34 0 0 Z " fill="#0A152B" transform="translate(712,370)"/>
<path d="M0 0 C0 0.33 0 0.66 0 1 C-3.3953164 1.19777236 -6.79125692 1.38139685 -10.1875 1.5625 C-11.14720703 1.61857422 -12.10691406 1.67464844 -13.09570312 1.73242188 C-14.49272461 1.80493164 -14.49272461 1.80493164 -15.91796875 1.87890625 C-16.77156982 1.9260376 -17.6251709 1.97316895 -18.50463867 2.02172852 C-21.12353758 1.99892429 -23.45403152 1.59213206 -26 1 C-18.52695832 -3.29699897 -8.2171728 -0.7906558 0 0 Z " fill="#202C48" transform="translate(467,708)"/>
<path d="M0 0 C0.33 0 0.66 0 1 0 C1.50787046 2.99885414 2.00646625 5.99878126 2.5 9 C2.64308594 9.83917969 2.78617188 10.67835938 2.93359375 11.54296875 C3.78480242 16.77182201 4.14714583 21.70275027 4 27 C3.67 27 3.34 27 3 27 C2.34 23.37 1.68 19.74 1 16 C0.67 16 0.34 16 0 16 C0 10.72 0 5.44 0 0 Z " fill="#4C5466" transform="translate(991,503)"/>
<path d="M0 0 C0.66 0.99 1.32 1.98 2 3 C1.67 3.66 1.34 4.32 1 5 C0.34 5 -0.32 5 -1 5 C-1.226875 5.804375 -1.45375 6.60875 -1.6875 7.4375 C-5.93548387 18.96774194 -5.93548387 18.96774194 -10 21 C-8.51991304 15.99886406 -6.3681664 11.67084403 -3.875 7.125 C-3.50246094 6.43664062 -3.12992187 5.74828125 -2.74609375 5.0390625 C-1.83500474 3.35705202 -0.91809685 1.67819564 0 0 Z " fill="#D5D9DF" transform="translate(319,401)"/>
<path d="M0 0 C0 0.33 0 0.66 0 1 C-2.64 1 -5.28 1 -8 1 C-8 1.66 -8 2.32 -8 3 C-8.61746094 2.97679687 -9.23492188 2.95359375 -9.87109375 2.9296875 C-15.70735785 2.80532266 -21.46098954 2.95599159 -27 5 C-27.33 5.66 -27.66 6.32 -28 7 C-28.66 6.34 -29.32 5.68 -30 5 C-19.7017356 0.86144515 -11.0206854 -0.20706925 0 0 Z " fill="#4B5268" transform="translate(632,474)"/>
<path d="M0 0 C0.66 1.32 1.32 2.64 2 4 C-2.06965968 6.95975249 -4.99388969 7.56672947 -10 7 C-10.66 6.01 -11.32 5.02 -12 4 C-8.7 4 -5.4 4 -2 4 C-1.34 2.68 -0.68 1.36 0 0 Z " fill="#142037" transform="translate(972,686)"/>
<path d="M0 0 C0 0.33 0 0.66 0 1 C-1.15628906 1.19916016 -1.15628906 1.19916016 -2.3359375 1.40234375 C-3.33882812 1.57894531 -4.34171875 1.75554688 -5.375 1.9375 C-6.87160156 2.19853516 -6.87160156 2.19853516 -8.3984375 2.46484375 C-10.96909656 2.87712062 -10.96909656 2.87712062 -13 4 C-15.125 3.5625 -15.125 3.5625 -17 3 C-17 3.66 -17 4.32 -17 5 C-18.98 5.33 -20.96 5.66 -23 6 C-23.33 5.34 -23.66 4.68 -24 4 C-21.50276548 3.32114013 -19.00303859 2.65682573 -16.5 2 C-15.80390625 1.80921875 -15.1078125 1.6184375 -14.390625 1.421875 C-9.4587081 0.14322988 -5.09419909 -0.18357474 0 0 Z " fill="#3D465E" transform="translate(833,666)"/>
<path d="M0 0 C0.66 0.33 1.32 0.66 2 1 C0.5682479 6.01113235 -1.98445693 7.94469549 -6 11 C-6 6.74133594 -4.78295337 4.82900945 -1.875 1.75 C-1.25625 1.1725 -0.6375 0.595 0 0 Z " fill="#121E35" transform="translate(773,434)"/>
<path d="M0 0 C0.33 0 0.66 0 1 0 C3.24678022 8.90070627 3.24678022 8.90070627 2.3125 13.0625 C1 15 1 15 -2 16 C-1.34 10.72 -0.68 5.44 0 0 Z " fill="#D8DADE" transform="translate(991,626)"/>
<path d="M0 0 C0.33 0 0.66 0 1 0 C2.40454548 6.11980533 3.23268915 11.71739294 3 18 C0.93653117 16.30263048 0.07858101 15.33116283 -0.546875 12.6953125 C-1.22694467 4.08981556 -1.22694467 4.08981556 0 0 Z " fill="#172743" transform="translate(972,505)"/>
<path d="M0 0 C0.33 0 0.66 0 1 0 C3.35 11.75 3.35 11.75 0.5 16.5 C0.005 16.995 -0.49 17.49 -1 18 C-2.25985286 14.22044143 -1.64024579 11.15576548 -1.0625 7.3125 C-0.96259766 6.61060547 -0.86269531 5.90871094 -0.75976562 5.18554688 C-0.51270675 3.45613473 -0.25717148 1.7279373 0 0 Z " fill="#1E2740" transform="translate(968,818)"/>
<path d="M0 0 C5.87024368 2.67865488 10.76646153 5.06087179 15 10 C13.68 10 12.36 10 11 10 C10.67 9.34 10.34 8.68 10 8 C9.01 7.67 8.02 7.34 7 7 C7 6.34 7 5.68 7 5 C5.68 5 4.36 5 3 5 C3 4.34 3 3.68 3 3 C2.01 3 1.02 3 0 3 C0 2.01 0 1.02 0 0 Z " fill="#121C38" transform="translate(522,588)"/>
<path d="M0 0 C0.66 0 1.32 0 2 0 C3.48520725 2.97041449 3.1705822 5.69764447 3.1875 9 C3.20167969 10.258125 3.21585938 11.51625 3.23046875 12.8125 C3 16 3 16 1 18 C0.67 12.06 0.34 6.12 0 0 Z " fill="#1B233C" transform="translate(784,395)"/>
<path d="M0 0 C4.875 2.75 4.875 2.75 6 5 C6.04022391 7.3329866 6.04320247 9.66706666 6 12 C5.01 11.67 4.02 11.34 3 11 C1.875 7.6875 1.875 7.6875 1 4 C0.79375 3.195625 0.5875 2.39125 0.375 1.5625 C0.25125 1.046875 0.1275 0.53125 0 0 Z " fill="#13213A" transform="translate(920,799)"/>
<path d="M0 0 C-0.78375 0.45375 -1.5675 0.9075 -2.375 1.375 C-5.03698031 2.88428742 -5.03698031 2.88428742 -7 5 C-9.32275177 5.40047444 -11.65739357 5.7397104 -14 6 C-14 5.01 -14 4.02 -14 3 C-12.04486839 2.303447 -10.08577524 1.61800435 -8.125 0.9375 C-7.03445313 0.55464844 -5.94390625 0.17179688 -4.8203125 -0.22265625 C-2 -1 -2 -1 0 0 Z " fill="#212D46" transform="translate(892,920)"/>
<path d="M0 0 C4.83519772 5.87131152 8.37720737 10.2150921 9 18 C4.72776184 13.25306871 0 6.56573109 0 0 Z " fill="#151E3A" transform="translate(298,737)"/>
<path d="M0 0 C0.66 0.99 1.32 1.98 2 3 C1.07175817 5.3627974 0.06902939 7.69747517 -1 10 C-1 10.99 -1 11.98 -1 13 C-1.66 13 -2.32 13 -3 13 C-4.07763474 8.50985524 -4.37757467 6.66989054 -2.0625 2.5625 C-1.381875 1.716875 -0.70125 0.87125 0 0 Z " fill="#DFD8D0" transform="translate(720,620)"/>
<path d="M0 0 C0.33 0 0.66 0 1 0 C1.33 6.93 1.66 13.86 2 21 C1.01 21 0.02 21 -1 21 C-1.33 20.34 -1.66 19.68 -2 19 C-1.67 18.34 -1.34 17.68 -1 17 C-0.76725791 14.12089412 -0.58027243 11.25853505 -0.4375 8.375 C-0.39431641 7.57320312 -0.35113281 6.77140625 -0.30664062 5.9453125 C-0.20048543 3.9637489 -0.09973145 1.98189729 0 0 Z " fill="#4E5A71" transform="translate(512,536)"/>
<path d="M0 0 C0.66 0.99 1.32 1.98 2 3 C1.67 3.33 1.34 3.66 1 4 C0.76636119 5.84891946 0.58696365 7.70488031 0.4375 9.5625 C0.35371094 10.57441406 0.26992188 11.58632813 0.18359375 12.62890625 C0.12300781 13.41136719 0.06242188 14.19382812 0 15 C-0.66 15 -1.32 15 -2 15 C-2 10.38 -2 5.76 -2 1 C-1.34 0.67 -0.68 0.34 0 0 Z " fill="#1E2641" transform="translate(679,396)"/>
<path d="M0 0 C0.66 0 1.32 0 2 0 C2.72767003 1.23884319 3.43154815 2.49168341 4.125 3.75 C4.51945312 4.44609375 4.91390625 5.1421875 5.3203125 5.859375 C6 8 6 8 5.1171875 10.265625 C4.74851562 10.83796875 4.37984375 11.4103125 4 12 C3.34 10.02 2.68 8.04 2 6 C1.34 6 0.68 6 0 6 C0 4.02 0 2.04 0 0 Z " fill="#1C253B" transform="translate(311,721)"/>
<path d="M0 0 C0.99 0.33 1.98 0.66 3 1 C3 1.66 3 2.32 3 3 C2.01 3 1.02 3 0 3 C0 5.64 0 8.28 0 11 C-0.99 11 -1.98 11 -3 11 C-2.25 3.375 -2.25 3.375 0 0 Z " fill="#1A2742" transform="translate(372,723)"/>
<path d="M0 0 C0.33 0 0.66 0 1 0 C1.02690844 2.62506802 1.04679404 5.24986173 1.0625 7.875 C1.07087891 8.62136719 1.07925781 9.36773438 1.08789062 10.13671875 C1.11328125 15.7734375 1.11328125 15.7734375 0 18 C-0.66 18 -1.32 18 -2 18 C-1.34 12.06 -0.68 6.12 0 0 Z " fill="#A0C579" transform="translate(909,582)"/>
<path d="M0 0 C3 1 3 1 4.6875 3.9375 C6 7 6 7 6 9 C5.34 9 4.68 9 4 9 C3.67 9.66 3.34 10.32 3 11 C2 10 2 10 1.9375 6.9375 C1.958125 5.968125 1.97875 4.99875 2 4 C1.34 4 0.68 4 0 4 C0 2.68 0 1.36 0 0 Z " fill="#182137" transform="translate(748,331)"/>
<path d="M0 0 C2 2 2 2 2.046875 4.09375 C1.94890625 4.8878125 1.8509375 5.681875 1.75 6.5 C1.61851562 7.69109375 1.61851562 7.69109375 1.484375 8.90625 C1 11 1 11 -1 13 C-2.53690745 10.58959839 -3.09752136 9.49917715 -2.5390625 6.640625 C-2.23742187 5.85171875 -1.93578125 5.0628125 -1.625 4.25 C-1.32851563 3.45078125 -1.03203125 2.6515625 -0.7265625 1.828125 C-0.48679687 1.22484375 -0.24703125 0.6215625 0 0 Z " fill="#1C2A46" transform="translate(961,663)"/>
<path d="M0 0 C0.99 0.33 1.98 0.66 3 1 C2.52389341 5.99911924 0.96837781 8.97832683 -2 13 C-2.33 12.34 -2.66 11.68 -3 11 C-2.690625 10.4225 -2.38125 9.845 -2.0625 9.25 C-0.71653356 6.39971813 -0.93075244 4.11614 -1 1 C-0.67 0.67 -0.34 0.34 0 0 Z " fill="#0A1225" transform="translate(525,561)"/>
<path d="M0 0 C0.99 0.33 1.98 0.66 3 1 C2.34 3.31 1.68 5.62 1 8 C0.34 8 -0.32 8 -1 8 C-1.33 8.66 -1.66 9.32 -2 10 C-2.1953125 3.9453125 -2.1953125 3.9453125 -2 2 C-1.34 1.34 -0.68 0.68 0 0 Z " fill="#EEEFF0" transform="translate(274,441)"/>
<path d="M0 0 C4.41889613 1.35021826 6.34345343 3.26115668 9 7 C8.34 7.66 7.68 8.32 7 9 C5.82737096 7.88121617 4.66204862 6.75476949 3.5 5.625 C2.8503125 4.99851562 2.200625 4.37203125 1.53125 3.7265625 C0 2 0 2 0 0 Z " fill="#223451" transform="translate(931,719)"/>
<path d="M0 0 C0.85851562 0.36931641 0.85851562 0.36931641 1.734375 0.74609375 C-1.54244143 3.50159847 -4.80736203 6.21890158 -8.265625 8.74609375 C-8.925625 8.41609375 -9.585625 8.08609375 -10.265625 7.74609375 C-9.03163437 6.37732259 -7.77781877 5.02640209 -6.515625 3.68359375 C-5.81953125 2.92949219 -5.1234375 2.17539062 -4.40625 1.3984375 C-2.265625 -0.25390625 -2.265625 -0.25390625 0 0 Z " fill="#15243E" transform="translate(418.265625,598.25390625)"/>
<path d="M0 0 C2 3 2 3 1.4375 5.875 C-0.20591404 9.44763921 -1.9819427 11.49722077 -5 14 C-5.99 14 -6.98 14 -8 14 C-7.38511719 13.23816406 -7.38511719 13.23816406 -6.7578125 12.4609375 C-3.60713656 8.4359113 -1.26203939 5.04815754 0 0 Z " fill="#1B1F33" transform="translate(555,412)"/>
<path d="M0 0 C0.99 0 1.98 0 3 0 C5.42603384 2.98055586 6.91332443 5.00323092 7.25 8.875 C7.1675 9.57625 7.085 10.2775 7 11 C5.66104368 9.33784732 4.32869858 7.67036393 3 6 C2.4225 5.278125 1.845 4.55625 1.25 3.8125 C0 2 0 2 0 0 Z " fill="#152443" transform="translate(725,880)"/>
<path d="M0 0 C0.66 0 1.32 0 2 0 C2.36265043 4.23092172 1.60250805 6.62637846 -1 10 C-1.99 10 -2.98 10 -4 10 C-2.8905928 6.51329166 -1.73662334 3.22515763 0 0 Z " fill="#DEE0E5" transform="translate(979,864)"/>
<path d="M0 0 C0.66 0 1.32 0 2 0 C2.19335938 0.63808594 2.38671875 1.27617188 2.5859375 1.93359375 C2.84632813 2.75988281 3.10671875 3.58617187 3.375 4.4375 C3.63023437 5.26121094 3.88546875 6.08492187 4.1484375 6.93359375 C4.80882227 9.17798016 4.80882227 9.17798016 7 10 C7 10.66 7 11.32 7 12 C3.63629679 10.60812281 1.78093669 9.20568604 0 6 C-0.1875 2.75 -0.1875 2.75 0 0 Z " fill="#222A43" transform="translate(438,806)"/>
<path d="M0 0 C1.39211215 4.17633644 -0.0464421 5.78960515 -1.9375 9.6875 C-2.50339844 10.86699219 -3.06929687 12.04648437 -3.65234375 13.26171875 C-4.09707031 14.16535156 -4.54179688 15.06898438 -5 16 C-5.33 16 -5.66 16 -6 16 C-6.37121212 9.44191919 -6.37121212 9.44191919 -4.6875 7.4375 C-4.130625 6.963125 -3.57375 6.48875 -3 6 C-1.95377125 4.02379014 -0.94560065 2.0262871 0 0 Z " fill="#0A1229" transform="translate(740,749)"/>
<path d="M0 0 C0.99200688 3.08624362 1.16328801 4.95755443 0 8 C-1.28796166 10.02951535 -2.61558 12.03501678 -4 14 C-4.66 13.67 -5.32 13.34 -6 13 C-5.73445312 12.48050781 -5.46890625 11.96101563 -5.1953125 11.42578125 C-3.29301903 7.66979306 -1.48040295 3.94774121 0 0 Z " fill="#E7E8EC" transform="translate(575,417)"/>
<path d="M0 0 C0.99 0 1.98 0 3 0 C2.37312706 2.92540704 1.64872507 5.4835249 0 8 C-1.32 8.33 -2.64 8.66 -4 9 C-2.68 6.03 -1.36 3.06 0 0 Z " fill="#15223D" transform="translate(957,858)"/>
<path d="M0 0 C0.33 0 0.66 0 1 0 C1.66 5.28 2.32 10.56 3 16 C2.34 16.33 1.68 16.66 1 17 C-0.46619907 10.97767819 -1.32528788 6.09632423 0 0 Z " fill="#2F3347" transform="translate(727,819)"/>
<path d="M0 0 C0.66 0.33 1.32 0.66 2 1 C-1.82180842 5.4008703 -4.47371099 6.80805531 -10 8 C-6.97727468 4.74475735 -3.74281699 2.38179263 0 0 Z " fill="#222B43" transform="translate(773,685)"/>
<path d="M0 0 C0.66 0.33 1.32 0.66 2 1 C-1.16548033 4.88901869 -4.40365256 8.50640535 -8 12 C-8.66 11.67 -9.32 11.34 -10 11 C-8.52116808 9.35386588 -7.04192523 7.70810092 -5.5625 6.0625 C-4.73878906 5.14597656 -3.91507813 4.22945313 -3.06640625 3.28515625 C-1 1 -1 1 0 0 Z " fill="#E3E5EA" transform="translate(603,502)"/>
<path d="M0 0 C2.94995547 3.45856848 5.22675738 6.80021485 7 11 C6.67 11.66 6.34 12.32 6 13 C3 11 3 11 2.3125 7.875 C2.209375 6.92625 2.10625 5.9775 2 5 C1.34 5 0.68 5 0 5 C0 3.35 0 1.7 0 0 Z " fill="#2B3249" transform="translate(676,501)"/>
<path d="M0 0 C-0.33 1.32 -0.66 2.64 -1 4 C-1.66 4 -2.32 4 -3 4 C-3 6.64 -3 9.28 -3 12 C-3.66 11.67 -4.32 11.34 -5 11 C-5.36637589 4.64948454 -5.36637589 4.64948454 -3.625 1.5625 C-2 0 -2 0 0 0 Z " fill="#18223A" transform="translate(786,800)"/>
<path d="M0 0 C2.11180592 2.57089417 3.66306057 4.63060567 4 8 C3.34 8.66 2.68 9.32 2 10 C0.68 7.36 -0.64 4.72 -2 2 C-1.34 1.34 -0.68 0.68 0 0 Z " fill="#DDDEE2" transform="translate(298,740)"/>
<path d="M0 0 C0.66 1.32 1.32 2.64 2 4 C-0.46153846 7.81538462 -0.46153846 7.81538462 -3.1875 8.75 C-4.0846875 8.87375 -4.0846875 8.87375 -5 9 C-3.7508258 5.54074837 -2.32472205 2.85306797 0 0 Z " fill="#1C2946" transform="translate(730,726)"/>
<path d="M0 0 C4.37859255 0.50522222 6.81651224 3.17827222 10 6 C9.34 6.66 8.68 7.32 8 8 C5.96166576 6.7260411 3.96147874 5.38938077 2 4 C2 3.34 2 2.68 2 2 C1.34 2 0.68 2 0 2 C0 1.34 0 0.68 0 0 Z " fill="#121E3B" transform="translate(684,590)"/>
<path d="M0 0 C2.64 0.66 5.28 1.32 8 2 C8 2.66 8 3.32 8 4 C8.66 4 9.32 4 10 4 C10 4.66 10 5.32 10 6 C6.68437443 5.44739574 3.84937793 4.83174295 1 3 C0.67 2.01 0.34 1.02 0 0 Z " fill="#26324F" transform="translate(779,931)"/>
<path d="M0 0 C0.99 0.33 1.98 0.66 3 1 C2.40312566 4.34249629 1.26396123 6.46436342 -1 9 C-1.66 9 -2.32 9 -3 9 C-2.01 6.03 -1.02 3.06 0 0 Z " fill="#DCDEE3" transform="translate(529,561)"/>
<path d="M0 0 C0 0.33 0 0.66 0 1 C-4.95 1 -9.9 1 -15 1 C-15 0.67 -15 0.34 -15 0 C-9.46245077 -2.55579195 -5.61036424 -1.62077189 0 0 Z " fill="#030B26" transform="translate(485,508)"/>
<path d="M0 0 C0.99 0 1.98 0 3 0 C1.68775452 3.93673644 0.08089673 6.22719294 -3 9 C-3.33 8.01 -3.66 7.02 -4 6 C-2.25 2.8125 -2.25 2.8125 0 0 Z " fill="#182948" transform="translate(322,356)"/>
<path d="M0 0 C0.33 0 0.66 0 1 0 C0.125 6.875 0.125 6.875 -1 8 C-1 8.99 -1 9.98 -1 11 C-1.99 11 -2.98 11 -4 11 C-3.52269162 9.5410574 -3.04308958 8.08286504 -2.5625 6.625 C-2.29566406 5.81289063 -2.02882813 5.00078125 -1.75390625 4.1640625 C-1 2 -1 2 0 0 Z " fill="#333D55" transform="translate(718,746)"/>
<path d="M0 0 C0.33 0.99 0.66 1.98 1 3 C-1.97 5.97 -4.94 8.94 -8 12 C-8.33 11.34 -8.66 10.68 -9 10 C-8.2575 9.278125 -7.515 8.55625 -6.75 7.8125 C-4.30709485 5.31407427 -2.1318953 2.76356798 0 0 Z " fill="#D2DAE4" transform="translate(720,708)"/>
<path d="M0 0 C3.36591866 1.44253657 5.51047079 3.33264727 8 6 C7.34 6.66 6.68 7.32 6 8 C3.69 6.02 1.38 4.04 -1 2 C-0.67 1.34 -0.34 0.68 0 0 Z " fill="#21304F" transform="translate(794,513)"/>
<path d="M0 0 C0.66 0.33 1.32 0.66 2 1 C1.25 6.75 1.25 6.75 -1 9 C-1.66 8.67 -2.32 8.34 -3 8 C-1.125 1.125 -1.125 1.125 0 0 Z " fill="#1E2C49" transform="translate(317,875)"/>
<path d="M0 0 C0.66 0.33 1.32 0.66 2 1 C1.57742724 2.4835001 1.13643678 3.96176424 0.6875 5.4375 C0.44386719 6.26121094 0.20023438 7.08492187 -0.05078125 7.93359375 C-0.36402344 8.61550781 -0.67726563 9.29742188 -1 10 C-1.99 10.33 -2.98 10.66 -4 11 C-4 10.01 -4 9.02 -4 8 C-3.34 8 -2.68 8 -2 8 C-1.855625 7.236875 -1.71125 6.47375 -1.5625 5.6875 C-1 3 -1 3 0 0 Z " fill="#252E43" transform="translate(733,764)"/>
<path d="M0 0 C0.99 0.33 1.98 0.66 3 1 C1.35 2.98 -0.3 4.96 -2 7 C-2.66 6.67 -3.32 6.34 -4 6 C-2.84826645 3.53199953 -1.95216435 1.95216435 0 0 Z " fill="#162643" transform="translate(754,699)"/>
<path d="M0 0 C3.96 0.33 7.92 0.66 12 1 C12 1.33 12 1.66 12 2 C6.06 2.495 6.06 2.495 0 3 C0 2.01 0 1.02 0 0 Z " fill="#112445" transform="translate(509,453)"/>
<path d="M0 0 C0.33 0 0.66 0 1 0 C1.3125 2.1875 1.3125 2.1875 1 5 C-1.5 7.8125 -1.5 7.8125 -4 10 C-4 5.27635085 -2.7758541 3.7011388 0 0 Z " fill="#162541" transform="translate(333,341)"/>
<path d="M0 0 C0.75 1.5625 0.75 1.5625 1 4 C-0.13084437 6.50286409 -1.52139516 8.67007722 -3 11 C-3.66 11 -4.32 11 -5 11 C-3.77472971 6.94718288 -2.30119506 3.55639236 0 0 Z " fill="#28304A" transform="translate(715,328)"/>
<path d="M0 0 C0.99 0.33 1.98 0.66 3 1 C-0.465 3.97 -0.465 3.97 -4 7 C-4 5.68 -4 4.36 -4 3 C-3.34 3 -2.68 3 -2 3 C-2 2.34 -2 1.68 -2 1 C-1.34 0.67 -0.68 0.34 0 0 Z " fill="#CFD2D6" transform="translate(363,305)"/>
<path d="M0 0 C3.7952131 1.49097658 5.61042731 3.75700849 8 7 C5 7 5 7 2.3125 4.625 C0 2 0 2 0 0 Z " fill="#1F2742" transform="translate(757,888)"/>
<path d="M0 0 C0.66 0.66 1.32 1.32 2 2 C1.64700993 5.44165321 0.95418308 7.06872538 -1 10 C-1.66 10 -2.32 10 -3 10 C-2.01 6.7 -1.02 3.4 0 0 Z " fill="#CED1D9" transform="translate(983,853)"/>
<path d="M0 0 C1.485 0.99 1.485 0.99 3 2 C3.66 1.67 4.32 1.34 5 1 C5.33 1.99 5.66 2.98 6 4 C4.0625 6.6875 4.0625 6.6875 2 9 C1.34 6.03 0.68 3.06 0 0 Z " fill="#679FD4" transform="translate(695,733)"/>
<path d="M0 0 C3.48872415 1.16290805 4.09976864 2.13967609 6.1875 5.0625 C6.71730469 5.79597656 7.24710938 6.52945313 7.79296875 7.28515625 C8.19128906 7.85105469 8.58960938 8.41695312 9 9 C6 9 6 9 4.39453125 7.5390625 C3.61142578 6.59160156 3.61142578 6.59160156 2.8125 5.625 C2.28269531 4.99851562 1.75289062 4.37203125 1.20703125 3.7265625 C0 2 0 2 0 0 Z " fill="#18213D" transform="translate(951,709)"/>
<path d="M0 0 C0.33 0 0.66 0 1 0 C1.22211116 1.93596892 1.42722992 3.87389328 1.625 5.8125 C1.74101563 6.89144531 1.85703125 7.97039063 1.9765625 9.08203125 C2 12 2 12 0 15 C-1.5111995 9.96266834 -0.64599773 5.11828973 0 0 Z " fill="#374157" transform="translate(666,530)"/>
<path d="M0 0 C-1.75 3.875 -1.75 3.875 -4 5 C-6.125 4.0625 -6.125 4.0625 -8 3 C-3.375 0 -3.375 0 0 0 Z " fill="#252C44" transform="translate(755,493)"/>
<path d="M0 0 C2.96404505 2.80804268 5.44499019 5.18315774 7 9 C6.01 9 5.02 9 4 9 C0 3.85714286 0 3.85714286 0 0 Z " fill="#19213C" transform="translate(913,368)"/>
<path d="M0 0 C1 3 1 3 0.00390625 5.26171875 C-0.47175781 6.06222656 -0.94742187 6.86273438 -1.4375 7.6875 C-1.91058594 8.49574219 -2.38367188 9.30398438 -2.87109375 10.13671875 C-3.24363281 10.75160156 -3.61617188 11.36648438 -4 12 C-5.11841676 8.64474971 -4.91538821 8.02910146 -3.6875 4.875 C-3.42324219 4.17117188 -3.15898437 3.46734375 -2.88671875 2.7421875 C-2 1 -2 1 0 0 Z " fill="#111932" transform="translate(507,363)"/>
<path d="M0 0 C0.99 0.33 1.98 0.66 3 1 C4.1875 4.0625 4.1875 4.0625 5 7 C4.34 7.66 3.68 8.32 3 9 C0 2.25 0 2.25 0 0 Z " fill="#172645" transform="translate(754,342)"/>
<path d="M0 0 C0.99 0 1.98 0 3 0 C2.67 2.97 2.34 5.94 2 9 C0 7 0 7 -0.125 3.375 C-0.08375 2.26125 -0.0425 1.1475 0 0 Z " fill="#031433" transform="translate(974,601)"/>
<path d="M0 0 C0.66 0 1.32 0 2 0 C3.32 2.97 4.64 5.94 6 9 C1.33333333 6.66666667 1.33333333 6.66666667 0 3 C0 2.01 0 1.02 0 0 Z " fill="#2C334A" transform="translate(740,554)"/>
<path d="M0 0 C4.42857143 5.14285714 4.42857143 5.14285714 5 9 C3.0625 8.4375 3.0625 8.4375 1 7 C0.25 3.375 0.25 3.375 0 0 Z " fill="#252B41" transform="translate(524,515)"/>
<path d="M0 0 C0.66 0.33 1.32 0.66 2 1 C-0.84936103 4.00765886 -3.23511958 6.27845212 -7 8 C-6.02133662 6.85373678 -5.04205413 5.70800212 -4.0625 4.5625 C-3.51722656 3.92441406 -2.97195313 3.28632812 -2.41015625 2.62890625 C-1.63204305 1.73008851 -0.84063472 0.84063472 0 0 Z " fill="#7FA959" transform="translate(963,902)"/>
<path d="M0 0 C0.33 0 0.66 0 1 0 C2.20608899 5.30679157 2.20608899 5.30679157 1.3125 8.3125 C-0.31105887 10.39993284 -1.42452602 10.65660347 -4 11 C-3.525625 10.113125 -3.05125 9.22625 -2.5625 8.3125 C-1.20262851 5.42957244 -0.45939614 3.12389377 0 0 Z " fill="#C4D1DE" transform="translate(899,759)"/>
<path d="M0 0 C0.66 0 1.32 0 2 0 C2.33 2.97 2.66 5.94 3 9 C2.01 8.67 1.02 8.34 0 8 C0 5.36 0 2.72 0 0 Z " fill="#4B95D2" transform="translate(342,582)"/>
<path d="M0 0 C0.99 0.495 0.99 0.495 2 1 C2.33 1.99 2.66 2.98 3 4 C3.66 4.33 4.32 4.66 5 5 C5.625 7.5625 5.625 7.5625 6 10 C5.34 10 4.68 10 4 10 C0 3.375 0 3.375 0 0 Z " fill="#0C112A" transform="translate(725,564)"/>
<path d="M0 0 C2.29633824 3.44450737 2.54016485 5.93812283 3 10 C2.34 10 1.68 10 1 10 C-0.60725635 6.78548731 -0.05748185 3.56387464 0 0 Z " fill="#313951" transform="translate(978,453)"/>
<path d="M0 0 C1.875 0.125 1.875 0.125 4 1 C5.25 4.0625 5.25 4.0625 6 7 C5.01 7 4.02 7 3 7 C2.01 4.69 1.02 2.38 0 0 Z " fill="#122143" transform="translate(753,378)"/>
<path d="M0 0 C0.66 0 1.32 0 2 0 C1.45276317 3.37462715 0.9451 5.08235 -1 8 C-1.66 8 -2.32 8 -3 8 C-1.125 2.25 -1.125 2.25 0 0 Z " fill="#182039" transform="translate(693,368)"/>
<path d="M0 0 C0.66 0.33 1.32 0.66 2 1 C0.92598892 3.91517292 0.22189824 5.77810176 -2 8 C-2.6875 6.25 -2.6875 6.25 -3 4 C-1.5625 1.75 -1.5625 1.75 0 0 Z " fill="#EBECEF" transform="translate(487,356)"/>
<path d="M0 0 C0.33 0.99 0.66 1.98 1 3 C-0.9375 6.1875 -0.9375 6.1875 -3 9 C-3.66 8.01 -4.32 7.02 -5 6 C-3.35 4.02 -1.7 2.04 0 0 Z " fill="#1B243F" transform="translate(347,324)"/>
<path d="M0 0 C0.66 0.33 1.32 0.66 2 1 C0.8125 3.4375 0.8125 3.4375 -1 6 C-3.6875 6.8125 -3.6875 6.8125 -6 7 C-4.02 4.69 -2.04 2.38 0 0 Z " fill="#1B2237" transform="translate(380,291)"/>
<path d="M0 0 C3.36720387 1.39332574 4.9859524 2.9789286 7 6 C4 6 4 6 1.8125 4.125 C0 2 0 2 0 0 Z " fill="#86AA59" transform="translate(974,965)"/>
<path d="M0 0 C3.36720387 1.39332574 4.9859524 2.9789286 7 6 C4 6 4 6 1.8125 4.125 C0 2 0 2 0 0 Z " fill="#252D44" transform="translate(1040,937)"/>
<path d="M0 0 C0 0.99 0 1.98 0 3 C-3.73487777 2.5020163 -5.81237635 2.12508244 -9 0 C-5.67465243 -1.10844919 -3.37817425 -0.84454356 0 0 Z " fill="#2E3B56" transform="translate(533,925)"/>
<path d="M0 0 C0.66 0.99 1.32 1.98 2 3 C0.35 4.32 -1.3 5.64 -3 7 C-3.33 6.01 -3.66 5.02 -4 4 C-2.68 2.68 -1.36 1.36 0 0 Z " fill="#7BA853" transform="translate(950,915)"/>
<path d="M0 0 C0.86625 0.3403125 0.86625 0.3403125 1.75 0.6875 C1.75 1.6775 1.75 2.6675 1.75 3.6875 C-0.89 3.3575 -3.53 3.0275 -6.25 2.6875 C-2.80384615 -0.38942308 -2.80384615 -0.38942308 0 0 Z " fill="#E2E3E5" transform="translate(719.25,902.3125)"/>
<path d="M0 0 C1 2 1 2 0.44140625 3.9453125 C0.15136719 4.66460938 -0.13867188 5.38390625 -0.4375 6.125 C-0.72496094 6.84945312 -1.01242187 7.57390625 -1.30859375 8.3203125 C-1.53675781 8.87460937 -1.76492188 9.42890625 -2 10 C-2.33 10 -2.66 10 -3 10 C-2.88637738 8.5199159 -2.75877092 7.04089926 -2.625 5.5625 C-2.55539062 4.73878906 -2.48578125 3.91507813 -2.4140625 3.06640625 C-2.27742188 2.38449219 -2.14078125 1.70257812 -2 1 C-1.34 0.67 -0.68 0.34 0 0 Z " fill="#3A435A" transform="translate(337,879)"/>
<path d="M0 0 C0.99 0.33 1.98 0.66 3 1 C3.33 3.31 3.66 5.62 4 8 C0 3.375 0 3.375 0 0 Z " fill="#152443" transform="translate(308,755)"/>
<path d="M0 0 C0.66 0.99 1.32 1.98 2 3 C0.7260411 5.03833424 -0.61061923 7.03852126 -2 9 C-2.66 9 -3.32 9 -4 9 C-2.94124926 5.59687262 -1.99097846 2.98646769 0 0 Z " fill="#CDCFD8" transform="translate(743,747)"/>
<path d="M0 0 C5.75 0.75 5.75 0.75 8 3 C5.08517222 3.80967438 3.53886783 4.21845993 0.6875 3.0625 C0.130625 2.711875 -0.42625 2.36125 -1 2 C-0.67 1.34 -0.34 0.68 0 0 Z " fill="#192B49" transform="translate(526,726)"/>
<path d="M0 0 C0.33 0 0.66 0 1 0 C1.33 4.29 1.66 8.58 2 13 C1.01 13 0.02 13 -1 13 C-0.67 8.71 -0.34 4.42 0 0 Z " fill="#10233F" transform="translate(718,697)"/>
<path d="M0 0 C1.32 0 2.64 0 4 0 C5.75 2.5 5.75 2.5 7 5 C3.47967572 5 2.5614657 4.29648649 0 2 C0 1.34 0 0.68 0 0 Z " fill="#E8E9EC" transform="translate(937,694)"/>
<path d="M0 0 C0.99 0 1.98 0 3 0 C2.67 1.65 2.34 3.3 2 5 C1.01 5.33 0.02 5.66 -1 6 C-0.67 4.02 -0.34 2.04 0 0 Z " fill="#E6E7EC" transform="translate(985,656)"/>
<path d="M0 0 C0.99 0.66 1.98 1.32 3 2 C-0.465 3.485 -0.465 3.485 -4 5 C-4 4.34 -4 3.68 -4 3 C-4.66 2.67 -5.32 2.34 -6 2 C-3.1875 0.875 -3.1875 0.875 0 0 Z " fill="#1D2A46" transform="translate(493,575)"/>
<path d="M0 0 C0.33 0 0.66 0 1 0 C0.25 6.625 0.25 6.625 -2 10 C-3.39195915 5.82412255 -1.82323219 3.86525224 0 0 Z " fill="#282E47" transform="translate(287,417)"/>
<path d="M0 0 C0.6875 1.6875 0.6875 1.6875 1 4 C-0.3125 6.75 -0.3125 6.75 -2 9 C-2.66 9 -3.32 9 -4 9 C-2.80100302 5.9168649 -1.52299523 2.93720508 0 0 Z " fill="#2B334D" transform="translate(501,335)"/>
<path d="M0 0 C-0.33 1.32 -0.66 2.64 -1 4 C-3.97 3.505 -3.97 3.505 -7 3 C-2.5 0 -2.5 0 0 0 Z " fill="#DCDDE2" transform="translate(912,935)"/>
<path d="M0 0 C2.62187494 1.04874998 3.79371361 1.64931313 5.25 4.125 C5.4975 4.74375 5.745 5.3625 6 6 C5.34 6 4.68 6 4 6 C4 5.34 4 4.68 4 4 C2.68 3.67 1.36 3.34 0 3 C0 2.01 0 1.02 0 0 Z " fill="#121B32" transform="translate(719,906)"/>
<path d="M0 0 C2.64 0 5.28 0 8 0 C8.33 0.99 8.66 1.98 9 3 C8.01 3.495 8.01 3.495 7 4 C4.64018187 3.06421005 2.30368736 2.06652192 0 1 C0 0.67 0 0.34 0 0 Z " fill="#DFDEE1" transform="translate(983,884)"/>
<path d="M0 0 C0 2.31 0 4.62 0 7 C-0.99 7.33 -1.98 7.66 -3 8 C-3 5.69 -3 3.38 -3 1 C-1 0 -1 0 0 0 Z " fill="#192B45" transform="translate(899,757)"/>
<path d="M0 0 C-1.32 0.99 -2.64 1.98 -4 3 C-5.32 2.34 -6.64 1.68 -8 1 C-4.93251126 -0.86240388 -3.40254489 -1.2151946 0 0 Z " fill="#182441" transform="translate(440,587)"/>
<path d="M0 0 C0.66 0 1.32 0 2 0 C1.67 2.64 1.34 5.28 1 8 C0.01 8.33 -0.98 8.66 -2 9 C-1.34 6.03 -0.68 3.06 0 0 Z " fill="#E6F1FA" transform="translate(354,475)"/>
<path d="M0 0 C0.66 0.99 1.32 1.98 2 3 C-2.625 6 -2.625 6 -6 6 C-6 5.01 -6 4.02 -6 3 C-4.02 3 -2.04 3 0 3 C0 2.01 0 1.02 0 0 Z " fill="#0B1228" transform="translate(759,446)"/>
<path d="M0 0 C0.66 0.33 1.32 0.66 2 1 C2 1.99 2 2.98 2 4 C3.32 4.66 4.64 5.32 6 6 C5.67 6.66 5.34 7.32 5 8 C3.02 6.35 1.04 4.7 -1 3 C-0.67 2.01 -0.34 1.02 0 0 Z " fill="#0F192F" transform="translate(697,441)"/>
<path d="M0 0 C0.33 0.99 0.66 1.98 1 3 C-0.3125 5.1875 -0.3125 5.1875 -2 7 C-2.66 7 -3.32 7 -4 7 C-3.39816251 4.97954558 -2.72693904 2.97888961 -2 1 C-1.34 0.67 -0.68 0.34 0 0 Z " fill="#EAEBEF" transform="translate(786,420)"/>
<path d="M0 0 C0.99 0.33 1.98 0.66 3 1 C2.25 5.75 2.25 5.75 0 8 C0 5.36 0 2.72 0 0 Z " fill="#152037" transform="translate(510,353)"/>
<path d="M0 0 C0.66 0.33 1.32 0.66 2 1 C0.515 3.475 0.515 3.475 -1 6 C-2.32 5.67 -3.64 5.34 -5 5 C-3.35 3.35 -1.7 1.7 0 0 Z " fill="#1C233B" transform="translate(353,318)"/>
<path d="M0 0 C0.99 0 1.98 0 3 0 C3 0.99 3 1.98 3 3 C2.01 3 1.02 3 0 3 C0 4.98 0 6.96 0 9 C-0.33 9 -0.66 9 -1 9 C-1.09765625 2.84765625 -1.09765625 2.84765625 -1 1 C-0.67 0.67 -0.34 0.34 0 0 Z " fill="#3B475F" transform="translate(502,308)"/>
<path d="M0 0 C0 0.66 0 1.32 0 2 C-3.96 3.98 -3.96 3.98 -8 6 C-6.37238544 1.11715631 -5.24891276 0 0 0 Z " fill="#121A34" transform="translate(448,268)"/>
</svg>
