<?xml version="1.0" standalone="no"?>
<!DOCTYPE svg PUBLIC "-//W3C//DTD SVG 20010904//EN"
 "http://www.w3.org/TR/2001/REC-SVG-20010904/DTD/svg10.dtd">
<svg version="1.0" xmlns="http://www.w3.org/2000/svg"
 width="1254.000000pt" height="1254.000000pt" viewBox="0 0 1254.000000 1254.000000"
 preserveAspectRatio="xMidYMid meet">

<g transform="translate(0.000000,1254.000000) scale(0.100000,-0.100000)"
fill="#000000" stroke="none">
<path d="M2795 10084 c-643 -100 -1160 -551 -1349 -1177 -53 -177 -61 -238
-61 -482 1 -189 4 -234 23 -322 151 -697 677 -1200 1382 -1325 111 -19 441
-17 555 5 202 38 387 106 573 212 137 78 203 126 291 209 168 161 311 374 400
598 31 79 85 282 96 365 6 46 11 54 46 77 21 15 49 42 62 61 l22 34 260 3
c143 2 281 2 306 0 l47 -3 6 -47 c3 -26 19 -84 35 -129 197 -566 919 -739
1354 -325 133 127 204 262 251 475 l6 27 238 0 c130 0 267 3 303 6 50 5 69 3
77 -7 56 -69 79 -92 101 -103 23 -13 28 -26 49 -131 65 -339 209 -613 451
-856 144 -145 256 -224 452 -319 238 -114 415 -158 669 -167 270 -9 470 25
709 122 117 47 313 156 411 228 125 93 252 233 360 397 322 492 358 1166 89
1679 -242 463 -645 769 -1158 878 -114 25 -146 28 -336 28 -230 0 -328 -14
-520 -76 -127 -41 -353 -156 -465 -236 -352 -253 -599 -644 -671 -1066 -8 -52
-16 -70 -33 -78 -32 -17 -76 -60 -92 -91 l-15 -28 -309 0 -309 0 -7 38 c-18
106 -39 175 -78 257 -220 464 -803 617 -1221 320 -82 -58 -184 -169 -234 -252
-60 -102 -85 -174 -117 -340 l-4 -23 -299 0 -298 0 -27 40 c-14 22 -44 52 -66
66 -22 15 -40 30 -40 34 0 73 -76 344 -130 465 -226 503 -722 877 -1275 960
-124 19 -387 18 -510 -1z m470 -179 c332 -48 607 -186 845 -425 170 -169 278
-339 354 -557 32 -93 74 -270 65 -276 -89 -60 -129 -126 -129 -213 0 -67 38
-143 90 -179 23 -16 40 -36 40 -47 0 -80 -79 -335 -142 -463 -67 -133 -221
-343 -301 -411 l-32 -27 -7 94 c-22 265 -97 447 -249 598 -92 92 -192 154
-319 194 l-95 31 58 55 c149 141 221 358 187 560 -29 174 -162 354 -320 433
-109 55 -185 71 -300 66 -154 -8 -278 -62 -387 -166 -247 -236 -249 -632 -7
-879 l71 -73 -41 -11 c-82 -21 -112 -32 -187 -71 -245 -126 -396 -359 -429
-665 -7 -62 -16 -113 -21 -113 -14 0 -159 179 -217 268 -240 369 -302 835
-166 1257 180 559 659 950 1259 1028 75 10 289 5 380 -8z m6546 -14 c197 -42
388 -122 548 -229 114 -75 309 -271 388 -387 113 -168 193 -354 240 -560 26
-114 26 -454 0 -572 -61 -277 -185 -522 -371 -734 -175 -201 -491 -372 -811
-440 -155 -33 -440 -34 -591 -1 -215 47 -387 121 -580 250 -193 129 -346 307
-461 535 -54 109 -118 296 -134 394 l-12 72 52 47 c61 55 87 124 76 204 -8 58
-51 127 -94 153 -36 21 -37 34 -16 127 57 242 173 469 338 659 234 268 577
449 947 501 105 14 371 4 481 -19z m-6656 -743 c22 -6 54 -17 70 -25 43 -22
125 -85 125 -97 0 -5 -10 -1 -22 10 l-23 19 19 -22 c10 -13 22 -20 27 -18 16
11 100 -127 86 -141 -2 -3 -10 9 -17 26 -7 16 -16 27 -21 24 -14 -9 -69 29
-69 48 0 9 -5 20 -10 23 -6 4 -8 10 -5 15 3 5 0 12 -6 15 -5 4 -8 13 -5 21 6
15 -33 45 -96 74 -44 20 -86 28 -60 11 10 -6 6 -10 -15 -16 -15 -5 -35 -7 -43
-6 -18 3 -31 22 -24 33 3 4 -2 8 -11 8 -9 0 -13 4 -10 10 6 9 37 6 110 -12z
m-172 5 c-7 -2 -19 -2 -25 0 -7 3 -2 5 12 5 14 0 19 -2 13 -5z m-84 -18 c-9
-9 -79 -35 -79 -30 0 3 15 12 33 20 32 14 55 19 46 10z m3568 -50 c203 -64
365 -223 434 -425 27 -80 37 -247 20 -346 -7 -42 -30 -106 -57 -163 -37 -75
-61 -108 -122 -170 -86 -87 -151 -128 -263 -165 -164 -55 -347 -42 -509 37
-163 79 -303 255 -346 433 -43 180 -3 391 106 549 39 56 131 143 192 182 158
100 365 125 545 68z m-3687 -8 c0 -2 -19 -21 -42 -42 l-43 -40 40 43 c36 39
45 47 45 39z m-114 -149 c-15 -42 -35 -77 -36 -60 0 13 37 92 44 92 2 0 -2
-15 -8 -32z m523 9 c18 11 61 7 61 -6 -1 -17 -18 -30 -45 -33 l-30 -3 27 -27
c15 -16 33 -28 40 -28 9 0 9 3 2 8 -18 12 -25 42 -9 42 8 0 18 6 22 14 11 18
73 27 66 9 -3 -7 2 -26 10 -43 15 -30 15 -30 -10 -24 -24 6 -25 5 -19 -20 4
-18 3 -25 -4 -21 -5 3 -10 13 -10 21 0 21 -18 17 -25 -6 -3 -11 -13 -20 -22
-20 -9 0 -26 -11 -39 -25 -26 -28 -39 -31 -47 -10 -4 8 6 24 23 39 37 30 38
46 5 46 -14 0 -25 5 -25 10 0 12 -36 14 -43 3 -2 -5 -2 -2 0 5 1 8 3 22 3 33
0 12 5 16 14 13 8 -3 17 -1 21 5 3 7 -3 11 -17 12 -22 0 -22 1 -3 8 12 5 23 4
27 -3 5 -8 13 -8 27 1z m-108 -70 c-8 -8 -11 -7 -11 4 0 20 13 34 18 19 3 -7
-1 -17 -7 -23z m378 -76 c1 -48 -5 -35 -12 24 -4 32 -3 43 3 30 5 -11 9 -35 9
-54z m-479 52 c0 -5 -13 -8 -29 -8 -16 0 -27 3 -24 8 2 4 15 7 29 7 13 0 24
-3 24 -7z m120 -3 c8 -5 11 -10 5 -10 -5 0 -17 5 -25 10 -8 5 -10 10 -5 10 6
0 17 -5 25 -10z m61 -3 c15 -11 15 -15 -7 -40 -28 -32 -30 -33 -44 -7 -8 15
-7 24 7 39 22 23 24 24 44 8z m-166 -34 c-4 -10 -7 -26 -7 -35 0 -11 -7 -18
-19 -18 -10 0 -19 7 -19 15 0 8 4 15 9 15 5 0 13 9 16 20 3 11 11 20 17 20 6
0 7 -7 3 -17z m90 -43 c3 -6 -1 -7 -9 -4 -25 10 -19 -12 7 -24 17 -8 18 -11 5
-11 -27 -1 -28 -1 -25 3 1 2 -7 13 -17 25 -19 21 -19 21 7 21 14 0 29 -4 32
-10z m155 -10 c0 -11 -7 -20 -15 -20 -8 0 -15 9 -15 20 0 11 7 20 15 20 8 0
15 -9 15 -20z m54 -7 c0 -17 5 -22 19 -19 10 1 23 9 28 17 7 11 9 10 9 -7 0
-11 14 -30 30 -43 18 -13 28 -27 24 -34 -4 -7 -4 -9 1 -5 4 4 16 3 26 -2 13
-8 19 -6 22 8 2 9 3 0 0 -22 -2 -21 -10 -50 -19 -65 -13 -22 -14 -23 -11 -5 3
16 -3 26 -19 35 -13 7 -24 16 -24 21 0 4 -15 8 -32 9 -28 0 -30 2 -13 9 22 9
13 13 -22 10 -17 -1 -21 3 -17 14 3 9 1 16 -5 16 -6 0 -11 9 -11 19 0 11 -5
23 -11 27 -8 5 -10 -3 -7 -25 2 -17 2 -29 0 -26 -3 2 -13 0 -23 -5 -12 -7 -20
-7 -24 0 -3 5 -23 10 -44 10 -31 0 -40 5 -49 25 -18 40 -14 43 13 10 l26 -30
-15 38 c-8 20 -11 37 -6 37 5 0 13 -15 20 -34 9 -28 16 -35 46 -38 21 -2 33 0
31 6 -2 6 2 17 10 24 7 7 13 22 13 33 0 14 5 19 18 17 10 -2 17 -12 16 -25z
m-677 -60 c-2 -16 -4 -3 -4 27 0 30 2 43 4 28 2 -16 2 -40 0 -55z m333 46 c0
-6 -4 -7 -10 -4 -5 3 -10 11 -10 16 0 6 5 7 10 4 6 -3 10 -11 10 -16z m-22
-46 c2 -34 1 -36 -10 -18 -13 22 -16 36 -11 48 10 18 19 4 21 -30z m137 -13
c-11 -17 -20 -11 -21 15 -2 21 0 22 13 10 8 -8 11 -19 8 -25z m-68 -9 c-5 -24
-2 -30 21 -40 18 -9 28 -9 30 -2 2 6 15 11 28 11 21 0 23 -3 15 -19 -6 -10 -8
-21 -6 -25 3 -3 2 -4 -2 -1 -3 3 -11 -3 -18 -11 -15 -22 -56 -23 -75 -3 -33
35 -38 53 -19 73 10 10 15 24 12 32 -3 8 0 14 7 14 8 0 11 -10 7 -29z m121
-12 c-3 -8 -7 -3 -11 10 -4 17 -3 21 5 13 5 -5 8 -16 6 -23z m22 -27 c0 -5 -7
-17 -15 -28 -15 -19 -20 -8 -9 20 6 17 24 22 24 8z m70 0 c0 -12 -14 -27 -28
-30 -8 -1 -11 2 -7 8 3 5 1 10 -4 10 -23 0 -10 16 14 18 14 1 25 -2 25 -6z
m70 -2 c0 -5 -4 -10 -10 -10 -5 0 -10 5 -10 10 0 6 5 10 10 10 6 0 10 -4 10
-10z m-6 -45 c-6 -24 -4 -25 25 -20 18 3 31 1 31 -5 0 -5 15 -16 33 -24 28
-12 34 -12 45 2 6 9 12 11 12 6 0 -13 -58 -102 -73 -111 -6 -4 -1 7 11 24 24
33 30 55 10 35 -15 -15 -32 -16 -23 -2 10 16 -26 24 -47 11 -11 -7 -29 -9 -41
-6 -12 4 -17 3 -12 -2 6 -4 10 -14 9 -20 -1 -7 -2 -18 -3 -24 -1 -7 -10 -5
-26 5 -33 22 -36 20 -25 -9 7 -20 6 -25 -5 -25 -8 0 -15 7 -15 15 0 8 -4 15
-9 15 -5 0 -7 9 -4 20 4 15 11 19 24 15 16 -5 19 -1 19 24 0 21 5 31 15 31 18
0 20 -16 3 -23 -7 -3 -3 -6 10 -6 24 -1 31 23 8 32 -7 3 -16 15 -19 26 -4 16
0 21 14 21 10 0 19 5 19 10 0 6 5 10 10 10 6 0 8 -11 4 -25z m-607 -15 c6 0
18 -11 27 -25 15 -23 13 -30 -7 -26 -5 1 -6 -9 -2 -21 l7 -23 -17 22 c-17 24
-45 87 -45 100 0 4 7 0 14 -9 7 -10 18 -18 23 -18z m515 -40 c8 -21 7 -23 -4
-10 -7 8 -20 20 -28 27 -13 12 -13 13 4 11 10 -2 23 -14 28 -28z m-42 -50 c0
-5 -4 -10 -10 -10 -5 0 -10 5 -10 10 0 6 5 10 10 10 6 0 10 -4 10 -10z m130
-75 c0 5 5 4 12 -3 8 -8 15 -9 25 -1 27 23 12 2 -19 -27 -18 -16 -28 -23 -21
-15 8 10 7 17 -8 32 -10 10 -19 25 -19 32 0 7 7 4 15 -7 8 -11 15 -16 15 -11z
m-494 2 c8 3 15 0 15 -6 3 -21 4 -26 14 -41 5 -8 -6 -3 -25 11 -19 14 -36 32
-38 40 -4 11 -2 11 8 2 7 -6 19 -9 26 -6z m270 -106 c5 -5 23 -11 39 -14 17
-2 -6 -4 -50 -4 -44 0 -68 2 -52 4 15 2 27 9 27 14 0 12 23 12 36 0z m319
-245 c47 -15 48 -15 10 -10 -22 2 -71 8 -110 11 -64 6 -69 5 -56 -10 11 -14
11 -20 1 -32 -7 -9 -18 -14 -24 -12 -7 3 -12 -4 -12 -14 0 -14 5 -17 18 -13
13 4 16 1 12 -10 -4 -9 -1 -22 5 -29 8 -11 4 -13 -19 -9 -17 2 -30 10 -30 18
0 8 -4 14 -10 14 -13 0 -13 -16 0 -39 8 -16 5 -18 -21 -15 -27 3 -29 2 -14
-12 20 -20 11 -34 -22 -34 -18 0 -24 4 -19 15 3 8 2 15 -3 15 -5 0 -14 -7 -21
-15 -16 -19 -59 -19 -66 0 -3 8 1 22 10 30 9 9 16 19 16 23 0 3 -5 1 -12 -6
-20 -20 -40 -15 -33 8 4 11 2 20 -4 20 -6 0 -11 11 -11 25 0 14 -5 25 -11 25
-5 0 -7 -4 -4 -10 9 -14 -36 -12 -64 4 l-23 13 31 6 c17 4 38 4 46 1 11 -5 13
-2 9 10 -4 12 0 16 15 16 13 0 21 -6 21 -16 0 -14 8 -16 50 -12 27 3 53 2 57
-2 4 -4 20 -10 35 -14 22 -5 29 -1 41 24 11 21 12 32 5 36 -14 9 -294 7 -398
-2 -41 -3 -72 -3 -68 1 26 27 582 28 673 1z m-735 -28 c-59 -26 -120 -48 -120
-43 0 12 125 62 155 63 6 0 -10 -9 -35 -20z m199 -4 c7 -7 -4 -13 -36 -18 -28
-5 -31 -4 -26 15 5 16 11 19 32 14 14 -4 28 -9 30 -11z m690 -20 c14 -12 -19
-1 -35 12 -18 14 -18 14 6 3 14 -6 27 -13 29 -15z m-694 -14 c4 -6 -6 -10 -22
-9 -25 0 -26 1 -8 9 11 5 21 9 22 9 1 1 5 -3 8 -9z m437 -24 c16 -12 15 -13
-12 -12 -30 1 -36 6 -23 19 9 10 15 8 35 -7z m-798 -17 c-10 -12 -18 -31 -16
-43 3 -19 -2 -23 -28 -24 -18 0 -42 -8 -54 -18 -11 -9 7 11 42 45 60 58 96 85
56 40z m336 11 c0 -5 -4 -10 -10 -10 -5 0 -10 -11 -10 -25 0 -14 5 -25 10 -25
6 0 10 -9 10 -20 0 -26 -25 -26 -52 -1 -25 24 -19 63 14 79 30 14 38 14 38 2z
m72 -18 c-5 -14 -3 -15 9 -5 11 9 18 8 33 -3 11 -8 14 -14 7 -14 -7 0 -10 -4
-6 -10 3 -5 11 -7 18 -5 7 3 20 -11 29 -31 18 -34 18 -35 -5 -44 -36 -15 -5
-11 38 5 46 16 85 19 85 6 0 -5 -6 -9 -12 -8 -59 2 -77 -4 -73 -23 2 -11 -1
-20 -7 -20 -5 0 -8 7 -5 15 5 11 0 13 -22 9 -16 -4 -32 -1 -35 5 -9 14 -56 15
-56 1 0 -5 -4 -10 -10 -10 -5 0 -10 7 -10 15 0 8 7 15 16 15 8 0 13 4 9 9 -3
6 6 6 25 1 18 -5 30 -5 30 1 0 5 -7 9 -15 9 -11 0 -15 11 -15 37 l0 37 -17
-24 c-20 -29 -33 -40 -51 -40 -10 0 -10 3 2 15 8 8 19 15 25 15 6 0 11 5 11
11 0 6 -7 9 -15 5 -8 -3 -16 -1 -16 4 -1 6 -2 16 -3 23 -3 20 3 25 23 20 13
-3 18 -10 13 -21z m766 -10 c18 -14 30 -27 27 -30 -3 -3 -16 5 -30 18 -14 13
-25 20 -25 16 0 -4 -7 -1 -15 8 -8 8 -15 17 -15 21 0 8 15 -1 58 -33z m-808
-10 c0 -5 -7 -9 -15 -9 -8 0 -15 4 -15 9 0 4 7 8 15 8 8 0 15 -4 15 -8z m-146
-45 c17 -27 17 -28 -4 -15 -11 7 -20 21 -20 32 0 11 1 17 3 15 2 -2 11 -17 21
-32z m546 14 c0 -5 -7 -11 -14 -14 -10 -4 -13 -1 -9 9 6 15 23 19 23 5z m-50
-26 c0 -3 6 -13 15 -21 25 -25 17 -34 -15 -16 -16 9 -25 19 -20 20 6 2 10 11
10 20 0 8 3 13 6 10 3 -4 5 -9 4 -13z m-345 -25 c4 -6 -7 -10 -27 -9 -31 1
-32 1 -8 9 14 4 26 8 27 9 1 1 5 -3 8 -9z m312 -5 c24 -25 7 -30 -18 -6 -13
12 -17 21 -10 21 7 0 19 -7 28 -15z m608 -36 c14 -21 25 -42 25 -46 0 -14 -45
41 -58 70 -17 39 3 25 33 -24z m-1447 -21 c-38 -64 -38 -64 -38 -52 0 12 57
104 65 104 3 0 -9 -24 -27 -52z m364 28 c7 5 9 1 5 -9 -3 -10 -2 -17 4 -17 6
0 7 -5 3 -12 -6 -9 -9 -9 -12 0 -2 7 -13 12 -24 12 -14 0 -18 5 -14 16 3 9 6
21 6 27 0 7 5 4 11 -6 6 -9 15 -14 21 -11z m88 9 c0 -2 -9 -3 -19 -2 -11 0
-18 5 -15 9 4 6 34 0 34 -7z m550 5 c0 -5 -4 -10 -10 -10 -5 0 -10 5 -10 10 0
6 5 10 10 10 6 0 10 -4 10 -10z m-710 -14 c0 -2 -8 -10 -17 -17 -16 -13 -17
-12 -4 4 13 16 21 21 21 13z m467 -38 c-3 -8 -6 -5 -6 6 -1 11 2 17 5 13 3 -3
4 -12 1 -19z m-392 -28 c3 -6 -1 -7 -9 -4 -18 7 -21 14 -7 14 6 0 13 -4 16
-10z m125 -4 c0 -3 -4 -8 -10 -11 -5 -3 -10 -1 -10 4 0 6 5 11 10 11 6 0 10
-2 10 -4z m148 -41 c-3 -3 -9 2 -12 12 -6 14 -5 15 5 6 7 -7 10 -15 7 -18z
m-138 -44 c0 -5 -7 -12 -16 -15 -14 -5 -15 -4 -4 9 14 17 20 19 20 6z m1038
-81 l0 -25 -8 25 c-4 14 -8 34 -8 45 l-1 20 9 -20 c5 -11 8 -31 8 -45z m-1644
-201 c-7 -131 -7 -132 17 -152 l24 -19 -25 14 c-30 18 -35 57 -25 196 10 140
17 110 9 -39z m926 80 c0 -6 -4 -7 -10 -4 -5 3 -10 11 -10 16 0 6 5 7 10 4 6
-3 10 -11 10 -16z m190 11 c0 -5 -4 -10 -10 -10 -5 0 -10 5 -10 10 0 6 5 10
10 10 6 0 10 -4 10 -10z m558 -105 c0 -22 -2 -32 -5 -22 -2 9 -11 17 -19 17
-25 0 -29 1 -46 17 -22 20 -23 34 -3 27 11 -5 13 -2 9 10 -5 12 -2 15 10 10
11 -4 16 -1 16 10 0 9 6 23 13 30 10 11 13 7 19 -23 4 -20 7 -54 6 -76z m-978
85 c0 -5 -2 -10 -4 -10 -3 0 -8 5 -11 10 -3 6 -1 10 4 10 6 0 11 -4 11 -10z
m920 -238 c0 -4 -6 -14 -12 -21 -7 -7 7 -3 32 9 25 12 41 18 35 12 -14 -14
-165 -95 -165 -88 0 3 13 12 30 21 16 8 29 19 27 24 -2 10 33 49 46 50 4 1 7
-3 7 -7z m-1374 -110 c-5 -4 -146 66 -146 73 0 3 34 -12 75 -32 41 -20 73 -39
71 -41z m164 -57 c19 -7 28 -14 20 -14 -8 0 -28 6 -45 14 -39 17 -21 18 25 0z
m930 5 c-8 -5 -22 -9 -30 -9 -10 0 -8 3 5 9 27 12 43 12 25 0z m-777 -47 c-7
-2 -19 -2 -25 0 -7 3 -2 5 12 5 14 0 19 -2 13 -5z m600 0 c-7 -2 -19 -2 -25 0
-7 3 -2 5 12 5 14 0 19 -2 13 -5z m-498 -13 l30 -8 -30 0 c-16 0 -43 4 -60 8
l-30 8 30 0 c17 0 44 -4 60 -8z m452 4 c-3 -3 -12 -4 -19 -1 -8 3 -5 6 6 6 11
1 17 -2 13 -5z m-74 -11 c-7 -2 -19 -2 -25 0 -7 3 -2 5 12 5 14 0 19 -2 13 -5z
m-125 -10 c-32 -2 -84 -2 -115 0 -32 2 -6 3 57 3 63 0 89 -1 58 -3z"/>
<path d="M9374 9442 c-87 -53 -678 -424 -760 -477 -59 -38 -84 -83 -84 -148 0
-89 68 -147 173 -147 l57 0 0 -360 0 -360 -69 0 c-54 0 -75 -5 -102 -23 -53
-35 -69 -77 -69 -184 0 -74 -3 -93 -14 -93 -8 0 -27 -11 -42 -24 -38 -32 -39
-86 -1 -124 l27 -27 993 -3 c545 -1 1007 0 1026 3 98 18 111 147 17 171 -23 5
-24 9 -28 108 -4 114 -15 143 -71 176 -23 15 -50 20 -99 20 l-68 0 0 359 0
358 70 5 c41 3 80 12 95 22 81 53 87 174 13 244 -14 12 -215 142 -447 287
l-423 265 -57 0 c-51 0 -67 -5 -137 -48z m322 -233 c87 -56 164 -106 169 -112
14 -14 -4 -4 -113 65 -51 32 -97 56 -103 53 -5 -4 -8 -2 -7 4 2 6 -17 23 -42
38 -25 15 -39 20 -33 12 10 -13 10 -16 -2 -16 -8 0 -15 4 -15 9 0 4 -6 7 -12
6 -7 -2 -12 5 -12 15 2 20 -25 23 -59 6 -21 -10 -21 -10 -3 5 37 30 69 19 232
-85z m-276 51 c-14 -10 -26 -24 -26 -29 -1 -6 -2 -15 -3 -20 0 -6 -11 -8 -23
-6 -22 5 -36 -2 -143 -70 -33 -21 -55 -33 -50 -27 12 13 257 172 265 172 3 0
-6 -9 -20 -20z m-290 -183 c-18 -17 -98 -64 -87 -51 9 10 89 62 97 63 2 1 -2
-5 -10 -12z m968 -121 c50 -32 92 -60 92 -61 0 -1 -10 -1 -22 1 -13 1 -26 3
-30 3 -5 1 -7 5 -5 11 1 5 -18 23 -43 40 -35 23 -46 27 -48 15 -2 -8 -10 -15
-18 -15 -15 0 -23 14 -28 44 -1 9 -11 23 -22 32 -18 15 -17 15 6 2 14 -8 67
-40 118 -72z m-1088 44 c-31 -23 -109 -67 -95 -53 12 12 108 73 115 73 3 0 -6
-9 -20 -20z m-115 -70 c-3 -6 -21 -17 -38 -26 -36 -19 -31 -9 10 17 34 21 36
22 28 9z m-110 -70 c-3 -5 -12 -10 -18 -10 -7 0 -6 4 3 10 19 12 23 12 15 0z
m258 -7 c-18 -2 -48 -2 -65 0 -18 2 -4 4 32 4 36 0 50 -2 33 -4z m115 0 c-10
-2 -28 -2 -40 0 -13 2 -5 4 17 4 22 1 32 -1 23 -4z m670 0 c-120 -2 -316 -2
-435 0 -120 1 -22 2 217 2 239 0 337 -1 218 -2z m270 0 c-10 -2 -26 -2 -35 0
-10 3 -2 5 17 5 19 0 27 -2 18 -5z m-898 -543 l0 -360 -135 0 -135 0 0 360 0
360 135 0 135 0 0 -360z m450 0 l0 -360 -140 0 -140 0 0 360 0 360 140 0 140
0 0 -360z m440 0 l0 -360 -135 0 -135 0 0 360 0 360 135 0 135 0 0 -360z m240
-569 c0 -22 -3 -31 -8 -23 -5 7 -19 11 -33 10 -18 -2 -24 2 -23 15 2 15 -9 17
-105 16 -89 0 -102 -2 -81 -12 22 -11 70 -54 70 -63 0 -2 -9 -4 -21 -4 -11 0
-17 5 -14 10 4 6 -7 10 -24 10 -17 0 -31 -4 -31 -10 0 -14 -27 -12 -33 3 -4 9
-8 9 -15 -2 -8 -12 -13 -12 -25 -2 -20 16 -133 19 -149 3 -19 -19 -52 -13 -71
13 -18 25 -18 25 15 39 30 13 -1 14 -292 14 -179 0 -315 -3 -302 -5 15 -3 22
-10 18 -19 -4 -10 4 -14 32 -14 45 0 82 -19 42 -21 -14 -1 -38 -1 -54 0 -18 2
-26 -1 -21 -8 4 -7 -4 -11 -20 -11 -15 0 -24 4 -20 10 8 13 -8 13 -21 0 -5 -5
-54 -11 -109 -13 -55 -1 -6 -4 109 -5 115 -1 206 -5 202 -9 -4 -4 -153 -8
-332 -9 l-324 0 0 61 0 62 820 0 820 0 0 -36z m-1045 -1 c-3 -5 -15 -10 -26
-10 -10 0 -19 5 -19 10 0 6 12 10 26 10 14 0 23 -4 19 -10z m363 -9 c3 -8 -1
-12 -9 -9 -7 2 -15 10 -17 17 -3 8 1 12 9 9 7 -2 15 -10 17 -17z m-143 -1 c-3
-5 -11 -10 -16 -10 -6 0 -7 5 -4 10 3 6 11 10 16 10 6 0 7 -4 4 -10z m232 -12
c-3 -8 -6 -5 -6 6 -1 11 2 17 5 13 3 -3 4 -12 1 -19z m-157 3 c0 -5 -7 -12
-16 -15 -24 -9 -28 -7 -14 9 14 17 30 20 30 6z m630 -31 c12 -8 9 -10 -13 -10
-16 0 -26 4 -22 10 8 12 16 12 35 0z m-375 -29 c-22 -3 -139 -4 -260 -1 l-220
6 260 1 c143 0 242 -2 220 -6z m327 -2 c-46 -4 -127 -4 -180 0 -88 7 -81 8 83
8 153 0 167 -1 97 -8z"/>
<path d="M9365 9220 c-3 -6 1 -7 9 -4 18 7 21 14 7 14 -6 0 -13 -4 -16 -10z"/>
<path d="M8777 7736 c4 -18 0 -25 -17 -29 -12 -3 -19 -10 -16 -15 3 -6 0 -13
-6 -15 -7 -3 28 -5 77 -5 50 1 75 3 58 5 -29 4 -33 8 -33 34 0 16 1 30 3 30 1
1 65 5 142 9 l140 6 -176 2 -176 2 4 -24z"/>
<path d="M9858 7753 c17 -2 47 -2 65 0 17 2 3 4 -33 4 -36 0 -50 -2 -32 -4z"/>
<path d="M3098 9143 c7 -3 16 -2 19 1 4 3 -2 6 -13 5 -11 0 -14 -3 -6 -6z"/>
<path d="M2970 8619 c0 -5 7 -12 15 -15 8 -4 15 -11 15 -18 0 -20 46 -17 65 4
17 19 17 20 1 20 -9 0 -14 -5 -11 -10 8 -13 -34 -7 -43 6 -10 15 -42 25 -42
13z"/>
<path d="M3178 8013 c7 -3 16 -2 19 1 4 3 -2 6 -13 5 -11 0 -14 -3 -6 -6z"/>
<path d="M3178 6620 c-28 -28 -30 -35 -26 -81 8 -85 69 -126 141 -95 37 15 67
59 67 96 0 97 -115 147 -182 80z"/>
<path d="M9254 6639 c-30 -15 -54 -61 -54 -104 0 -42 40 -90 85 -101 56 -14
125 49 125 115 0 74 -85 124 -156 90z"/>
<path d="M3333 6280 c-38 -23 -53 -48 -53 -90 0 -65 43 -109 106 -110 58 0
104 42 104 95 0 51 -25 94 -65 111 -45 18 -54 18 -92 -6z"/>
<path d="M9133 6285 c-72 -31 -91 -126 -34 -177 36 -32 93 -38 129 -12 26 18
52 65 52 94 0 37 -30 81 -65 96 -41 17 -42 17 -82 -1z"/>
<path d="M6041 6178 c-102 -13 -288 -62 -396 -105 -406 -160 -735 -473 -912
-868 -39 -86 -83 -214 -98 -282 -6 -28 -9 -31 -25 -23 -10 6 -36 10 -58 10
-69 0 -115 -64 -95 -133 10 -37 64 -77 104 -77 l27 0 0 -177 c-1 -260 36 -455
128 -673 170 -405 502 -734 910 -901 127 -52 330 -104 462 -118 540 -58 1087
151 1439 548 296 335 447 752 431 1194 l-5 127 40 0 c51 0 107 52 107 99 0 87
-77 133 -162 96 -12 -4 -19 -2 -22 6 -74 247 -127 371 -221 516 -268 411 -695
686 -1177 757 -116 18 -355 19 -477 4z m504 -193 c107 -19 297 -81 386 -125
459 -230 761 -641 836 -1140 22 -147 13 -384 -21 -537 -14 -62 -28 -118 -31
-124 -4 -6 -22 20 -41 58 -40 84 -129 173 -209 209 l-55 26 40 45 c22 25 52
71 67 102 25 51 28 66 28 166 0 99 -3 116 -27 168 -35 75 -117 160 -186 194
-78 38 -203 44 -285 13 -260 -98 -341 -437 -153 -638 l46 -49 -50 -23 -49 -23
-60 55 c-62 58 -138 106 -203 129 l-37 13 50 53 c176 187 164 487 -27 663 -84
77 -239 130 -339 115 -244 -38 -405 -226 -405 -474 0 -110 72 -271 148 -332
20 -16 23 -23 13 -27 -72 -25 -178 -91 -229 -141 l-58 -58 -52 26 -52 27 44
43 c185 181 119 516 -123 630 -49 23 -69 26 -156 26 -89 0 -106 -3 -156 -28
-70 -34 -152 -119 -187 -194 -24 -52 -27 -69 -27 -168 0 -101 2 -115 29 -168
15 -32 46 -77 67 -99 22 -23 38 -42 37 -43 -2 -2 -28 -15 -58 -30 -72 -37
-169 -135 -205 -209 -29 -59 -29 -59 -37 -30 -30 104 -49 235 -55 374 -9 263
38 476 162 725 229 462 659 754 1205 819 70 8 327 -4 415 -19z m-182 -831 c63
-21 130 -84 163 -151 38 -78 39 -183 2 -264 -84 -185 -300 -235 -445 -105 -66
60 -96 123 -101 211 -5 84 7 134 47 197 67 106 210 154 334 112z m-948 -265
c55 -14 122 -70 146 -123 37 -82 17 -208 -44 -275 -29 -31 -114 -71 -152 -71
-83 0 -171 57 -206 135 -45 99 -11 243 71 300 61 42 114 52 185 34z m1826 0
c131 -40 192 -206 125 -343 -71 -146 -252 -170 -357 -47 -42 48 -59 98 -59
170 0 156 143 264 291 220z m-790 -523 c174 -37 297 -157 344 -337 12 -43 15
-144 15 -491 l0 -436 -62 -21 c-299 -99 -655 -99 -953 1 l-70 23 0 445 c0 440
0 446 23 513 56 160 166 264 319 301 77 19 299 20 384 2z m854 -140 c182 -48
261 -155 272 -364 l6 -103 -69 -102 c-75 -112 -239 -283 -342 -357 -71 -51
-182 -120 -193 -120 -4 0 -9 195 -11 433 -4 417 -4 434 -26 491 -12 33 -22 63
-22 67 0 12 53 37 112 53 68 19 209 20 273 2z m-2017 -3 c-10 -2 -26 -2 -35 0
-10 3 -2 5 17 5 19 0 27 -2 18 -5z m167 -13 c-21 -24 -36 -25 -78 -6 -18 8
-39 17 -47 19 -8 3 21 6 64 6 78 1 79 1 61 -19z m-334 -39 c-14 -11 -22 -25
-18 -33 3 -8 1 -21 -3 -28 -10 -17 -40 -22 -40 -8 0 6 -10 3 -21 -8 -22 -19
-22 -19 -11 1 12 23 58 68 87 83 30 17 33 14 6 -7z m472 -41 c-9 -22 -18 -38
-20 -36 -2 2 2 20 11 39 8 19 11 39 8 43 -4 4 -2 4 5 1 8 -5 7 -17 -4 -47z
m-41 -509 c-2 -223 -7 -399 -11 -393 -4 6 -12 8 -20 3 -11 -7 -9 -10 8 -16 11
-3 21 -10 21 -15 0 -17 -84 39 -86 58 -4 20 45 82 64 82 9 0 12 76 11 293 -1
160 -3 284 -6 274 -8 -31 -19 -9 -15 30 4 30 6 34 12 18 5 -15 9 -8 14 28 4
27 8 47 9 45 1 -1 1 -185 -1 -407z m-551 343 c5 -6 6 -19 3 -29 -5 -12 -9 -14
-15 -4 -5 8 -10 -2 -14 -27 -10 -58 -13 -63 -14 -21 -1 48 21 141 27 112 2
-11 8 -25 13 -31z m474 -155 c11 -16 1 -19 -13 -3 -7 8 -8 14 -3 14 5 0 13 -5
16 -11z m-459 -111 c27 -42 49 -66 56 -62 7 4 8 3 4 -5 -13 -20 136 -193 159
-185 6 3 18 -3 25 -13 12 -15 12 -16 0 -5 -27 23 -34 12 -9 -16 13 -16 -17 13
-68 65 -105 107 -224 275 -222 313 l2 25 4 -24 c3 -13 25 -55 49 -93z m354 43
c0 -5 -7 -11 -14 -14 -10 -4 -13 -1 -9 9 6 15 23 19 23 5z m33 -18 c-7 -2 -13
-10 -13 -18 0 -7 -6 -18 -14 -24 -10 -9 -13 -7 -12 9 1 21 22 40 41 39 6 0 4
-3 -2 -6z m-86 -55 c-3 -8 -6 -5 -6 6 -1 11 2 17 5 13 3 -3 4 -12 1 -19z m123
-4 c0 -12 6 -15 21 -11 32 9 49 -14 42 -57 -3 -20 -10 -39 -14 -42 -5 -3 -6
-17 -3 -31 5 -17 3 -24 -3 -20 -6 4 -13 0 -17 -8 -3 -8 -12 -15 -21 -15 -18 0
-21 45 -4 56 9 5 10 -1 5 -20 -4 -15 -2 -26 4 -26 5 0 11 8 11 18 3 38 4 43
18 51 7 5 10 14 7 20 -9 14 -43 14 -51 1 -3 -5 -11 -10 -16 -10 -6 0 -4 7 4
15 9 8 14 23 12 32 -2 10 -4 24 -4 32 -1 11 -5 10 -15 -4 -13 -18 -14 -18 -9
8 6 29 33 38 33 11z m-55 -34 c7 -12 -2 -12 -30 0 -19 8 -19 9 2 9 12 1 25 -3
28 -9z m145 -47 c0 -30 -3 -44 -10 -37 -8 8 -3 84 6 84 2 0 4 -21 4 -47z
m-170 -13 c0 -5 -2 -10 -4 -10 -3 0 -8 5 -11 10 -3 6 -1 10 4 10 6 0 11 -4 11
-10z m-1 -46 c-5 -15 -7 -30 -3 -33 4 -3 9 0 11 7 3 6 9 10 14 6 18 -10 9 -24
-16 -24 -21 0 -25 5 -25 29 0 25 5 33 27 40 1 1 -2 -11 -8 -25z m57 1 c1 -8
-2 -15 -7 -15 -5 0 -9 10 -9 22 0 23 12 17 16 -7z m-91 -175 c10 -11 16 -20
13 -20 -3 0 -13 9 -23 20 -10 11 -16 20 -13 20 3 0 13 -9 23 -20z m131 -97
c-5 -5 -66 35 -66 42 0 3 16 -5 35 -17 20 -11 34 -23 31 -25z"/>
<path d="M3515 5951 c-78 -32 -83 -149 -10 -197 29 -19 95 -15 122 8 90 74 -4
233 -112 189z"/>
<path d="M8960 5948 c-13 -7 -35 -29 -48 -48 -31 -46 -25 -94 18 -132 80 -73
204 9 174 114 -16 56 -94 92 -144 66z"/>
<path d="M3698 5621 c-28 -25 -33 -36 -33 -75 0 -83 79 -134 152 -99 41 19 68
72 58 111 -3 14 -21 40 -40 59 -44 44 -91 45 -137 4z"/>
<path d="M8734 5631 c-42 -25 -60 -78 -44 -125 14 -43 52 -68 102 -70 30 0 44
6 70 32 28 27 33 40 33 78 0 39 -5 50 -33 75 -39 35 -82 38 -128 10z"/>
<path d="M3965 5366 c-95 -41 -80 -183 21 -202 69 -13 124 33 124 103 0 48
-22 81 -66 99 -40 17 -41 17 -79 0z"/>
<path d="M8513 5365 c-98 -42 -88 -182 14 -201 64 -12 133 42 133 104 0 39
-29 83 -65 98 -41 17 -42 17 -82 -1z"/>
<path d="M4223 5115 c-35 -15 -63 -60 -63 -99 0 -33 53 -93 89 -101 98 -21
171 106 98 172 -48 44 -74 50 -124 28z"/>
<path d="M8244 5116 c-43 -19 -64 -53 -64 -104 0 -97 109 -135 181 -62 53 52
34 136 -37 166 -40 17 -41 17 -80 0z"/>
</g>
</svg>
