<?xml version="1.0" standalone="no"?>
<!DOCTYPE svg PUBLIC "-//W3C//DTD SVG 20010904//EN"
 "http://www.w3.org/TR/2001/REC-SVG-20010904/DTD/svg10.dtd">
<svg version="1.0" xmlns="http://www.w3.org/2000/svg"
 width="1254.000000pt" height="1254.000000pt" viewBox="0 0 1254.000000 1254.000000"
 preserveAspectRatio="xMidYMid meet">

<g transform="translate(0.000000,1254.000000) scale(0.100000,-0.100000)"
fill="#000000" stroke="none">
<path d="M5833 10670 c-514 -29 -1063 -154 -1502 -342 -1068 -456 -1915 -1356
-2322 -2467 -103 -280 -185 -614 -226 -916 -26 -190 -25 -745 0 -935 61 -445
206 -930 388 -1292 44 -87 73 -113 118 -103 67 14 87 83 48 161 -54 106 -151
346 -202 499 -134 403 -195 774 -195 1196 0 252 8 360 46 589 90 551 304 1103
612 1575 508 781 1248 1354 2117 1641 1085 357 2288 270 3200 -233 411 -226
762 -515 1058 -868 55 -66 105 -123 111 -127 14 -9 69 -10 91 -2 26 10 44 62
34 97 -10 35 -65 108 -179 236 -347 391 -745 692 -1213 916 -578 277 -1301
414 -1984 375z"/>
<path d="M5010 8320 c-273 -48 -480 -300 -480 -585 0 -156 57 -299 165 -414
37 -39 66 -73 64 -74 -2 -2 -33 -11 -69 -21 -246 -65 -444 -253 -516 -491 -10
-33 -19 -62 -21 -64 -1 -2 -28 20 -60 49 -62 55 -216 137 -277 147 -20 3 -36
8 -36 11 0 4 22 29 49 57 111 112 165 247 165 410 0 173 -60 313 -185 429
-107 99 -226 146 -369 146 -233 0 -431 -143 -520 -375 -32 -83 -40 -266 -15
-350 34 -119 106 -230 189 -295 48 -37 56 -50 30 -50 -27 0 -146 -51 -217 -94
-100 -59 -205 -173 -256 -277 -78 -159 -76 -142 -76 -789 l0 -575 24 -60 c34
-86 119 -168 196 -191 36 -10 78 -15 111 -12 l54 5 0 -94 c0 -93 -1 -95 -36
-141 -74 -98 -154 -301 -154 -396 0 -17 -3 -41 -6 -53 -6 -21 -9 -20 -64 25
-77 62 -151 106 -247 148 -139 60 -218 75 -415 81 l-177 5 -30 -29 c-25 -26
-30 -39 -36 -108 -17 -174 20 -396 90 -542 158 -333 493 -531 1012 -598 l121
-16 69 -66 c325 -316 739 -592 1206 -805 727 -332 1377 -403 2190 -238 770
156 1336 445 1972 1009 164 145 587 568 683 682 82 99 112 158 119 238 17 180
-168 304 -365 246 -50 -15 -54 -15 -80 3 -49 35 -100 45 -191 39 -160 -10
-272 -61 -731 -332 -275 -163 -655 -365 -664 -354 -1 2 -13 27 -26 54 -46 97
-157 178 -280 204 -30 7 -206 16 -390 21 -184 6 -355 14 -380 19 -72 15 -136
39 -280 106 -181 84 -336 139 -461 166 -138 30 -418 32 -552 6 -246 -49 -527
-183 -817 -390 -134 -96 -416 -324 -497 -401 -60 -58 -73 -77 -73 -102 0 -44
31 -69 82 -65 9 0 54 34 100 75 410 368 815 628 1104 710 144 40 210 50 364
49 233 0 393 -38 645 -155 179 -83 267 -117 344 -134 44 -10 175 -18 386 -24
442 -13 454 -15 531 -82 123 -108 84 -318 -71 -382 -62 -26 -121 -28 -683 -16
-402 8 -575 9 -595 1 -56 -22 -59 -100 -5 -120 13 -4 239 -14 503 -20 264 -7
575 -19 690 -26 306 -21 406 -5 652 103 296 131 642 353 1103 707 237 182 287
210 378 210 59 0 66 -2 93 -33 40 -44 39 -92 -2 -158 -41 -63 -594 -615 -769
-767 -446 -384 -805 -606 -1235 -762 -270 -98 -616 -182 -905 -221 -167 -22
-544 -30 -707 -15 -431 41 -784 148 -1258 381 -368 181 -662 381 -967 657
l-116 106 -20 79 -20 79 21 9 c236 97 307 141 438 270 118 117 176 204 234
355 37 97 65 247 65 355 0 224 -111 560 -196 596 -76 32 -331 -51 -493 -160
-29 -20 -56 -36 -60 -36 -3 0 -6 242 -6 537 0 296 -3 550 -8 565 -4 15 -18 35
-32 44 -23 15 -27 15 -49 1 -13 -9 -26 -28 -30 -44 -4 -15 -9 -224 -12 -463
-4 -258 -10 -440 -16 -447 -6 -7 -24 -15 -42 -18 -70 -14 -163 53 -185 132 -7
24 -11 231 -11 574 0 501 1 541 20 613 28 109 63 169 150 256 84 85 164 132
300 175 68 22 115 29 240 36 204 12 194 12 304 -15 212 -54 338 -152 408 -317
22 -54 23 -59 28 -669 4 -380 10 -624 16 -639 10 -23 11 -23 36 20 14 24 40
61 57 83 l31 39 -1 516 c0 284 -4 538 -10 566 -42 222 7 415 142 560 99 105
213 167 411 220 87 24 99 25 183 14 62 -7 109 -7 152 0 70 11 126 1 278 -49
336 -111 521 -398 449 -697 -25 -100 -24 -798 0 -889 9 -34 16 -78 16 -98 0
-23 7 -43 20 -56 37 -37 61 -19 71 52 4 29 8 244 8 478 1 463 4 491 59 594 15
28 56 81 92 117 77 77 156 119 293 153 83 21 110 23 282 20 169 -3 200 -6 278
-29 235 -68 379 -176 456 -339 55 -118 56 -126 56 -716 0 -609 0 -607 -70
-669 -51 -44 -144 -54 -173 -18 -6 7 -11 194 -14 458 -3 407 -5 448 -21 473
-14 20 -25 26 -45 24 -56 -6 -55 -1 -60 -938 -4 -819 -3 -857 15 -877 30 -35
59 -38 88 -9 l25 25 0 349 0 348 64 -4 c158 -10 283 94 316 263 8 42 10 225 8
620 l-3 560 -27 80 c-74 217 -235 374 -472 457 -44 16 -82 30 -84 32 -1 2 26
32 62 66 183 176 229 464 110 690 -231 440 -840 400 -1023 -67 -11 -28 -25
-89 -31 -136 -23 -170 32 -340 151 -470 34 -37 60 -69 58 -70 -2 -2 -31 -11
-64 -21 -87 -26 -184 -80 -247 -136 l-55 -49 -27 82 c-61 183 -185 321 -377
417 -41 21 -102 46 -135 55 -32 10 -62 19 -65 21 -4 2 23 34 61 71 50 51 77
89 108 153 47 100 62 163 62 268 0 163 -66 318 -182 428 -137 130 -305 184
-478 154z m225 -157 c93 -33 200 -124 243 -209 72 -142 68 -321 -11 -456 -36
-62 -128 -145 -194 -176 -52 -24 -69 -27 -168 -27 -90 1 -120 5 -166 23 -66
26 -168 115 -205 178 -58 98 -79 234 -53 343 57 250 323 405 554 324z m-1657
-404 c62 -21 140 -76 180 -127 145 -184 132 -443 -30 -605 -242 -242 -643 -98
-699 249 -22 137 19 267 118 374 114 123 273 164 431 109z m3286 16 c77 -20
133 -54 194 -119 170 -179 167 -453 -7 -627 -244 -243 -650 -106 -712 242 -55
309 228 581 525 504z m-3226 -2995 c50 -124 67 -218 67 -370 0 -243 -67 -417
-224 -584 -98 -103 -241 -199 -360 -241 l-44 -15 6 127 c8 186 43 326 137 544
36 84 36 123 -1 134 -31 10 -65 -19 -110 -93 -54 -91 -98 -200 -129 -326 -15
-60 -29 -105 -32 -100 -3 5 -14 34 -24 64 -14 43 -18 86 -19 200 0 126 3 154
24 215 49 146 154 286 288 381 116 84 353 177 379 150 6 -6 25 -45 42 -86z
m-1409 -509 c229 -50 414 -172 533 -352 38 -58 66 -139 148 -424 28 -99 53
-186 56 -194 5 -16 -56 -10 -209 20 -442 88 -711 303 -802 639 -11 40 -19 118
-22 204 l-5 139 106 -6 c58 -4 146 -16 195 -26z m6459 -170 c-8 -22 -438 -344
-638 -477 -358 -240 -698 -407 -875 -431 l-50 -6 31 35 c32 37 74 132 74 169
0 15 14 26 53 42 124 50 382 188 652 347 362 214 478 277 568 306 71 23 192
33 185 15z"/>
<path d="M9224 7980 c-225 -34 -411 -202 -469 -425 -19 -71 -21 -222 -4 -291
28 -120 142 -290 223 -333 36 -20 33 -28 -16 -42 -73 -19 -193 -87 -259 -147
-80 -72 -151 -182 -186 -286 l-28 -81 0 -515 c0 -483 1 -518 19 -564 21 -54
84 -129 127 -151 l26 -14 5 -298 c5 -301 10 -344 44 -357 22 -9 45 5 56 33 6
15 12 163 15 343 6 348 3 372 -46 383 -37 8 -79 49 -102 99 -17 38 -19 74 -19
516 0 521 1 526 61 650 43 88 151 194 241 237 127 61 228 85 368 85 177 1 282
-25 445 -110 95 -49 210 -165 253 -252 62 -127 62 -129 62 -745 0 -374 -4
-573 -11 -600 -22 -82 -85 -136 -159 -137 -38 0 -99 28 -101 47 0 5 -2 222 -2
481 -2 506 -2 504 -53 504 -15 0 -30 -10 -41 -27 -17 -25 -18 -85 -21 -921 -3
-997 -7 -942 63 -942 65 0 65 2 65 395 l0 350 78 0 c64 0 86 5 134 28 64 32
115 87 150 163 l23 49 0 625 0 625 -32 83 c-58 149 -151 266 -281 349 -81 52
-118 66 -217 77 l-90 11 77 57 c116 87 185 190 223 333 19 76 19 210 -1 289
-50 196 -215 365 -400 410 -80 20 -159 25 -220 16z m223 -162 c111 -41 219
-160 257 -281 14 -45 17 -81 14 -155 -3 -87 -7 -105 -40 -175 -45 -94 -114
-164 -207 -210 -62 -30 -72 -32 -176 -32 -100 0 -115 2 -167 28 -178 87 -281
286 -249 479 30 183 177 337 351 368 62 12 152 3 217 -22z"/>
<path d="M5023 6572 c-179 -54 -323 -213 -369 -408 -9 -38 -19 -139 -23 -224
-9 -171 -17 -201 -89 -324 -52 -87 -66 -148 -59 -246 l5 -78 -63 -64 c-67 -70
-122 -169 -146 -268 -19 -76 -20 -764 -2 -797 17 -29 51 -39 70 -20 27 26 33
95 39 412 7 339 13 387 66 487 39 73 122 152 195 186 47 21 79 27 168 32 155
9 205 40 205 125 0 37 -6 45 -70 103 -74 67 -127 156 -132 221 l-3 33 111 -1
c138 -2 230 17 314 67 75 44 151 125 189 200 26 52 29 54 40 35 22 -42 41
-138 41 -209 0 -138 -70 -286 -169 -360 -47 -35 -51 -42 -51 -79 0 -49 16 -81
52 -108 22 -17 50 -22 143 -28 69 -4 135 -14 166 -25 69 -25 166 -115 207
-192 53 -99 60 -152 65 -528 3 -228 9 -348 16 -362 25 -46 95 -36 108 16 4 15
7 182 7 372 0 323 -1 350 -21 421 -31 112 -77 195 -148 269 l-63 65 10 55 c14
80 -2 146 -72 285 -69 138 -80 184 -80 340 0 189 -49 328 -155 443 -101 109
-207 159 -355 167 -64 4 -100 0 -147 -13z"/>
<path d="M10307 4708 c-13 -13 -45 -70 -72 -128 -141 -309 -340 -628 -573
-920 -152 -190 -503 -541 -685 -686 -550 -435 -1137 -722 -1792 -873 -145 -34
-169 -49 -169 -107 0 -59 32 -78 119 -71 145 11 521 121 800 232 163 66 532
254 685 349 311 195 528 367 809 641 427 416 770 905 981 1399 45 106 47 143
7 171 -32 22 -82 19 -110 -7z"/>
</g>
</svg>
